<?xml version="1.0" encoding="utf-8"?>
<!-- Generator: Adobe Illustrator 28.0.0, SVG Export Plug-In . SVG Version: 6.00 Build 0)  -->
<svg version="1.1" id="Layer_1" xmlns="http://www.w3.org/2000/svg" xmlns:xlink="http://www.w3.org/1999/xlink" x="0px" y="0px"
	 viewBox="0 0 2734 331" style="enable-background:new 0 0 2734 331;" xml:space="preserve">
<style type="text/css">
	.st0{fill:#056354;}
	.st1{fill:#FFFFFF;}
</style>
<g>
	<g>
		<g>
			<g transform="translate(0.000000,331.000000) scale(0.100000,-0.100000)">
				<path class="st0" d="M1366,3193.8c-88-15.7-216-65.1-336-132.5c-58-32.5-112-59-120-59c-25,0-159-156.6-221-257.8
					c-102-165.1-167-355.4-193-561.5c-21-161.5-21-839.8,0-1003.7c51-408.5,261-755.5,570-942.2c61-36.1,155-80.7,210-100l100-32.5
					h12295h12295l100,32.5c134,44.6,300,145.8,404,248.2c167,162.7,301,414.5,358,671.1c26,118.1,26,130.1,30,560.3
					c4,351.8,1,463.9-11,560.3c-36,291.6-147,544.6-324,741c-42,47-82,84.3-91,84.3c-8,0-62,26.5-120,59
					c-130,72.3-242,115.7-345,132.5C25872,3209.5,1459,3209.5,1366,3193.8z"/>
				<g>
					<path class="st1" d="M19719.9,1502.6c0.8,11.7,3.1,23.3,6.9,34.4c7.8,22.8,11.1,47,17.3,70.3c5.2,19.7,12.1,38.9,18.1,58.4
						c3.9,12.7,7.6,25.4,11.2,38.2c5.4,19.3,10.2,38.8,15.9,58c0.8,2.6,5.2,9.7,8.8,8.5c6.3-4.1,5.9-13.4,4.6-20.8
						c-7.8-46.8-18-93.2-30.6-139c-6.5-23.7-13.7-47.6-13.4-72.1c0.3-24.5,9.3-50.4,29.4-64.5c2.8-2,6-3.7,9.3-3.4
						c5.3,0.5,8.7,5.7,11.2,10.4c7.9,14.8,14.7,30.2,20.4,46c1.4,3.9,3.3,8.4,7.4,9.5c3.9,1,8-2,9.5-5.7c1.5-3.7,1.1-8,0.5-11.9
						c-3.1-21.7-10-42.8-16.8-63.6c-7.3-22.4-15.6-46.3-34.5-60.4c-4.9-3.7-10.5-6.7-14-11.7c-3.3-4.8-4.2-10.8-4.9-16.6
						c-5-41.7-4.7-85.7-0.2-127.4c5.1-47.4,23.5-90,56.3-125.4c24.1-26,57.4-25.8,83.2-1.6c22.1,20.8,34,47,44.2,74.7
						c16.6,45.2,31,91.5,56.2,133.1c29.3,48.3,65.2,90.5,113.7,120.9c23.3,14.6,53.6,8.2,67.6-15.7c14.8-25.2,28.5-51,43.1-76.3
						c17.8-30.8,45.5-49.1,77.8-62.6c40.2-16.8,79.3-12.2,117.1,4c32.2,13.8,59.6,35.3,80.1,64.6c11.7,16.7,23.9,33.1,36.5,49.1
						c4.1,5.2,10.1,9.1,15.8,12.6c11.1,6.8,22.1,1.2,23.8-11.8c0.4-3,0.4-6.2-0.4-9.1c-11.2-44.8,18.4-70.6,48.2-83
						c16.3-6.8,22.3-4.4,29.5,12c6.5,14.9,11.6,30.5,18.1,45.4c4.7,10.9,10.2,21.5,16.3,31.7c1.8,3,7,3.8,10.7,5.7
						c1-4,3.8-8.4,2.9-11.8c-4-14.7-9.1-29.1-13.7-43.7c-2.8-8.7-5.8-17.4-8-26.3c-2.7-11,3.7-17.3,13.9-13.2
						c23.1,9.3,43.7,22.8,56.6,44.8c9.3,15.7,15.8,33.1,24.4,49.2c5.1,9.5,11.5,18.5,18.5,26.7c2.5,3,10.3,5.2,12.8,3.5
						c3.1-2.1,4.4-8.7,4.1-13.2c-0.4-7.7-4.2-15.5-3.6-23c0.5-6.9,3.4-14.7,7.9-19.9c22.3-25.5,51.1-36.5,84.8-34.2
						c5.3,0.4,11,1.5,15.6,3.9c8,4.1,11.7,11.5,6.5,19.6c-8.5,13.4-8,26.4-3.2,40.9c4.8,14.5,6.9,29.8,11.3,44.4
						c1.2,4.1,6.2,9.7,9.5,9.8c3.8,0.1,9.4-4.4,11.4-8.3c4.6-9.4,10.3-19.6,10.6-29.6c0.8-25.4,0.4-51-2.6-76.2
						c-2-16.6-8.7-32.8-14.4-48.8c-9.9-27.8-35.7-42-64-44.5c-42-3.8-71.8,15.9-96.1,47.3c-1.9,2.4-3.8,4.9-6.1,6.8
						c-8.5,7.3-12.9,6.5-18.4-3.1c-14.6-25.5-30-50.4-53.6-68.8c-7.8-6.1-16.1-11.3-24.3-16.8c-7.9-5.2-8.7-11-4.9-20
						c16.9-39.9,62.4-47.5,100.4-35.8c32.7,10.1,63.2,25,92,43.1c51.4,32.2,101.3,66.6,146,107.8c25.8,23.8,51.4,47.8,75.6,73.1
						c14.4,15.1,26.5,32.6,38.6,49.7c6.7,9.4,6,20.6,3,31.6c-2.7,9.8-4.7,19.9-7.9,29.6c-5.3,16.1-11.3,32-17.1,47.9
						c-4.3,11.8-8.4,23.6-12.9,35.4c-12.9,33.6-25.6,67.2-39.1,100.5c-8.8,21.7-19.2,42.7-27.9,64.4c-8.3,20.8-16.7,41.7-22.5,63.2
						c-2.7,9.9-0.3,21.6,1,32.3c1.4,11.4,3.9,22.8,6.4,34c1.7,7.6,3.7,15.2,6.7,22.4c1.4,3.2,5.2,6.8,8.5,7.3
						c2.3,0.4,6.6-3.3,8.1-6.2c6.7-13,12.7-26.3,19-39.5c9.7-20.2,19.5-40.3,29.1-60.5c10.8-22.8,21.5-45.6,31.7-68.7
						c4.3-9.8,8.3-19.8,11.7-30c11.6-34.7,24.3-69.2,33.7-104.6c13-48.6,23.5-97.8,35-146.8c7.4-31.8,13.4-64,22.1-95.4
						c5.9-21.4,11.2-43.6,27.2-60.8c14.3-15.3,32.1-23.3,52.5-23.6c15.6-0.3,31.3,1.9,46.7,4.2c6.1,0.9,12,4.6,17.3,8.1
						c7.4,4.8,8.3,11.6,6.6,20.5c-3.8,19.6-7.3,39.5-8.4,59.5c-1.4,24,4.5,47,12.9,69.6c9.5,25.4,21.6,49.2,37.7,70.8
						c14,18.8,29.5,35.7,51.6,46.7c25.4,12.6,50-3.1,58.4-21.5c21.7-47.2,30.7-96.9,20.5-148.2c-4.4-22-14.4-43-22.5-64.3
						c-4.6-12.3-2.4-16.9,10.6-18.9c30.5-4.8,61.3-5.9,91.6-0.2c19.1,3.6,38,10.5,55.9,18.2c17.7,7.6,34.3,17.9,51,27.5
						c13.2,7.6,19.7,23.1,16,37.8c-6.3,25-11.5,50.3-16.8,75.6c-4.1,19.3-7.4,38.7-11.4,58.1c-2.8,13.3-11.9,16.8-23.6,9.5
						c-32.9-20.6-65.7-41.2-98.6-61.7c-2.3-1.4-4.8-3-7.4-3.2c-2.4-0.2-5.9,0.8-6.9,2.4c-0.9,1.5,0.1,5.5,1.6,7
						c4.5,4.6,9.5,8.7,14.6,12.7c32.9,25.9,66.2,51.3,98.7,77.8c5.1,4.1,8.8,12.4,9.4,19.1c0.8,10-1.8,20.2-2.8,30.4
						c-2.7,27.4-5.3,54.9-8,82.3c-2.1,21.6-4.8,43.2-6.6,64.9c-2,23.7-3,47.5-4.9,71.3c-2.2,28.4-5.5,56.8-7.3,85.3
						c-1.9,29.5-2.2,59.2-4.3,88.8c-2.7,38.3-6.4,76.6-10,114.8c-2,21-1.5,41.2,8.5,60.7c5.2,10.2,7.4,21.9,11.7,32.6
						c1.3,3.2,4.9,6.7,8.1,7.5c1.8,0.4,6.1-4,7.2-7c7.1-19.8,13.5-39.9,20.3-59.8c4.8-14.1,10.1-28.1,14.6-42.3
						c11.2-35.6,22-71.4,33-107.1c1.7-5.5,4.8-11,4.8-16.6c0-4.5-3.5-9.1-5.4-13.7c-4.2,2-9.7,3-12.3,6.3
						c-4.4,5.5-6.4,12.8-10.4,18.6c-2.2,3.2-6.3,5.1-9.5,7.5c-2.2-3.4-6.3-6.9-6.2-10.3c0.5-19.7,1.9-39.4,3.3-59.1
						c4.1-56.3,8-112.7,12.9-169c4-45,9.2-90,14.5-134.9c0.5-4.7,4.3-11.9,7.6-12.6c4.3-0.9,10.7,2.5,14.5,5.9
						c23,20.7,46,41.5,68.1,63.2c14.8,14.5,28.8,30,41.5,46.4c10,12.8,7.3,19.8-7.3,27.3c-10.8,5.6-22,10.7-32.8,16.3
						c-14.8,7.8-28.1,17.1-31,35.4c-0.2,1.3-1,2.7-0.8,4c4,31.6,4.8,64.4,32.8,87.1c11.4,9.3,24.2,13.5,38.7,13.3
						c15.6-0.2,29.4-16.4,33-31.9c6-25.3,8.2-50.8,4.1-77c-0.9-5.7,5.1-13.2,9.4-18.7c3.4-4.4,9-7.1,13.8-10.4
						c19-13.1,21.1-32.2,18.4-52.7c-1-8-8.5-11.7-16.4-8c-5.1,2.4-9.5,6.4-14,10.1c-12.7,10.4-20.1,9.2-28.9-4.4
						c-13.1-20.2-24.6-41.9-40.1-60.1c-17.7-20.9-38.9-38.9-58.9-57.8c-9.9-9.3-21.1-17.3-31-26.6c-8.3-7.9-11.4-17.4-8.9-29.6
						c6.5-31.6,11.3-63.7,17.6-95.4c3.6-18,8.5-35.8,13.6-53.4c3.3-11.3,12-14.8,24.5-11.7c16.1,4,32.2,8.9,48.5,11.3
						c12,1.8,24.7,1.7,36.6-0.2c28.5-4.5,47.7-22.2,59.1-47.9c16.8-37.6,19.6-76.9,10.6-116.9c-1.4-6.2-4.7-12-6.2-18.3
						c-1.6-6.8-4.8-14.7-2.7-20.6c6.9-19.8,14.7-39.4,24.3-58.1c7.8-15.3,18.1-29.1,33.2-39.3c28.4-19.4,57.1-10.1,75.6,11.8
						c17.9,21.2,28.8,46.5,38,72.8c14.9,42.6,31.2,84.8,55.2,123.4c25.2,40.4,57.2,74.9,96.6,101.3c26.8,17.9,51.2,18.4,73.9-15.9
						c7.6-11.5,13.1-24.5,19-37c16.9-36.1,40.6-66.5,76.5-84.8c31.7-16.1,64.7-22.1,100.6-11.5c54,15.9,90.2,52.2,120.8,96.6
						c6.9,9.9,15.6,18.8,24.5,27c3.3,3,11.8,5,14.3,3c3.4-2.8,4.8-10,4.3-15c-0.8-8-3.5-16-6.1-23.7c-6.5-19.5-0.2-42.1,21.7-52.1
						c37.3-17,74.5-15.2,112.1-2.3c30.7,10.6,49.3,35.3,67.7,59.9c8.6,11.4,16.6,23.3,25.2,34.7c7.7,10.2,13.8,11.3,22.6,2
						c19.1-20.2,43.2-29.9,69.3-36.3c3.4-0.8,6.7-2,9.9-3.5c24.2-10.9,44.3-4.9,61.7,13.9c23.3,25.2,44.8,52,66.4,78.8
						c4.1,5.1,6.7,13,6.6,19.6c-0.1,39.9,0.8,79.8-2.2,119.5c-3.9,51.9-11.2,103.5-16.7,155.3c-2.3,21.7-3.3,43.5-5.3,65.2
						c-2.5,28.4-5.5,56.8-8.1,85.2c-1,10.8-1.1,21.8-2.4,32.6c-2.8,23.6-6.4,47.2-9.2,70.8c-1.3,10.8-1.9,21.7-2.5,32.6
						c-1.4,23.8-2.1,47.6-4.1,71.3c-1.1,13.3-3.6,26.5-6.2,39.5c-2.4,12-1,24.4,3.9,35.6c6,13.7,10.8,27.9,16.8,41.7
						c1.6,3.6,5.4,6.2,8.2,9.3c3-2.9,7.3-5.2,8.9-8.8c5.3-12.1,9.9-24.5,14.2-37c9.4-27,18.3-54,27.6-81
						c5.5-16.1,11.8-31.9,16.7-48.2c6.2-20.5,11.6-41.2,16.9-61.9c1.4-5.6,2-13.3-5.4-14.1c-4.3-0.5-10.4,4-13.5,8
						c-5.2,6.6-8.2,14.9-13,21.9c-2.2,3.2-6.3,5-9.5,7.5c-1.8-3.7-5.4-7.6-5.1-11.2c1.8-22.7,4.2-45.4,6.7-68
						c3.1-27.7,6.6-55.4,9.7-83.2c4.9-43.9,9.6-87.9,14.4-131.9c1.2-10.8,2.6-21.7,2.9-32.5c1.6-49.3,4.1-98.7-3.1-147.8
						c-1.9-12.8-5.7-25.3-7.7-38c-0.6-3.8,1.8-8,2.8-12c4.2,1.4,9.4,1.6,12.3,4.4c32.3,31.1,68.2,57.4,106.6,80.4
						c42.5,25.4,88.5,35.5,137.2,24.9c29.4-6.4,56.1-20.5,80.6-38.3c14.6-10.6,28.6-21.3,38.2-37.6c11.8-19.8,10.8-40.2,5.1-60.2
						c-6.1-21.1-14.8-41.6-28.6-59.4c-15.8-20.5-33.9-38.1-56.4-51c-27.8-15.9-57.5-27.5-88.3-36.4c-33.3-9.6-66.1-21.2-99.9-28.3
						c-38.5-8-77.8-13.1-117-17.1c-38.5-3.9-77.3-4.9-116-7.3c-11.3-0.7-14.9-5.8-14.5-17.7c0.7-19.7,2.2-39.4,1.2-59
						c-1.2-25.9-18.9-37.9-43.6-30.6c-41.3,12.3-70.4,39.5-88.4,77.7c-5.9,12.4-5.5,27.8-7.6,41.9c-0.8,5,0.6,10.5-0.8,15.2
						c-1.1,3.6-4.8,8.4-7.9,8.8c-2.8,0.4-7.9-3.6-9.4-6.8c-10-22.1-24.3-40.9-42.3-56.9c-22.6-20.1-48.9-32-79.3-33.4
						c-13.2-0.6-26.6,0.1-39.8,0.9c-31.4,2-51.6,20.5-66.1,46.6c-3.1,5.6-5.5,11.8-8.5,17.5c-4,7.6-11.8,8.2-17,1.4
						c-9.7-12.6-19-25.6-28.9-38.2c-20.3-25.8-46.9-42.2-78.4-50.3c-16.7-4.3-33.7-9-50.8-9.9c-53.1-2.8-94.2,21.1-124.5,63.2
						c-16.4,22.8-29.6,47.9-44.8,71.6c-4.7,7.4-10.4,14.4-16.8,20.4c-7.8,7.3-21.8,6.4-33.5-0.7c-38.5-23.4-68.3-55.2-88.2-95.5
						c-14.8-30.1-27.4-61.2-40.7-92.1c-8.8-20.5-15.6-42-25.7-61.8c-11-21.5-28.8-38.1-49.2-50.9c-19.9-12.6-44.7-9.6-62.8,5.7
						c-25.9,21.8-46.9,47.3-58.7,79.5c-6.5,17.8-13.3,35.6-18.8,53.7c-4.9,16-9.6,19.6-26.7,20.8c-15.1,1-30.4,2.6-45.2,6
						c-27.4,6.3-46.9,24.9-64.8,45.3c-7.9,9.1-15.2,18.6-22.6,28.2c-8.6,11.2-17,12.7-28.9,5.8c-23-13.2-45.5-27.3-69.2-39
						c-25.8-12.8-53.9-19.1-82.7-20c-23.2-0.7-46.5-1.8-69.5,0.2c-22.2,1.9-44.1,7.3-66.1,11.8c-10.3,2.1-20.2,7.4-30.5,8.1
						c-7.8,0.5-16.6-2.9-23.8-6.7c-15.2-8.1-29-19.3-44.7-26.2c-31.8-13.8-65.3-19.5-99.5-9.6c-12.2,3.5-24.2,8.4-35.6,14.2
						c-24.9,12.5-36.4,37.4-45.2,61.8c-10.9,30-17.2,61.4-20.5,93.1c-1.6,15.4-5.9,30.4-9.8,45.4c-0.7,2.6-4.5,4.3-6.9,6.5
						c-1.9-2.5-5.4-5-5.6-7.7c-2.7-48.6-36.5-78.9-66.4-111.8c-33.7-37-70.9-70.6-111.9-99.3c-41.9-29.4-84.3-58.3-128.1-84.7
						c-23.5-14.2-48.8-27.2-77.3-30.3c-28.6-3.1-56.5-3.6-81.2,14.7c-17.1,12.6-27.5,30-34.7,49.3c-7.9,21.1-13.8,42.7-13.3,65.7
						c0.2,9.3-9,18-20.8,19.4c-40.2,4.8-60.3,30.5-71.1,66.4c-0.6,2-0.8,4.2-2,5.8c-3.3,4.4-6.4,10.7-10.7,11.9
						c-3.1,0.9-9.1-4.6-12.2-8.4c-15-18.5-28.6-38.2-44.3-56.1c-23-26.2-52.1-43.3-85.9-52.3c-21.1-5.6-42.5-10.7-64.4-7.5
						c-17.1,2.5-34.5,5.6-50.5,11.6c-22,8.2-39.4,24-54.9,41.5c-24.3,27.4-42.8,58.6-59.7,91c-11.5,21.9-29.4,32-54.7,15.4
						c-35.8-23.5-62.8-54.5-84.3-91.2c-19.6-33.4-32.8-69.1-45.3-105.4c-8.8-25.6-19.8-50.8-32.9-74.4c-11.8-21.2-30.4-37.9-52-49.5
						c-20.7-11.1-41.8-9.1-60.3,6c-30.5,25-53.6,55.5-68.9,92.2c-11.5,27.6-18.1,56.1-22.3,85.6c-4.2,29.7-9.8,59.4-6.8,89.4
						c2.7,26.7,6.5,53.4,11.9,79.6c2.4,11.7,2,21.7-4.5,31c-14.8,21.5-27.4,41.3-31.9,67.5
						C19719.8,1479.9,19719.2,1491.3,19719.9,1502.6z M23191.7,1346.3c0.1-0.6,0.2-1.3,0.2-1.9c22.9,2.9,45.8,6.7,68.7,8.4
						c40.2,3.1,79.5,11.4,118.5,21.1c34,8.5,67.9,17.2,101.5,27c20.5,5.9,40.6,13.3,60.4,21.2c14.8,5.9,15.6,15,4,26.3
						c-20.8,20.5-44.1,36.7-71.3,48.3c-22.2,9.4-45.4,14.4-68.4,13.6c-42.9-1.5-81.2-19.2-115.2-44.8
						c-27.4-20.6-53.9-42.6-80.5-64.3c-14-11.4-27.7-23.2-40.7-35.7c-3.5-3.4-4-9.9-5.9-15c4.8-1.6,9.5-3.9,14.5-4.7
						C23182.1,1345.1,23187,1346.1,23191.7,1346.3z M21519.5,1384.9c-3.8,28.5-14.5,51-30.9,70.7c-7,8.4-19,7.9-27.6,0.2
						c-23-20.6-42.5-44.1-57.2-71.3c-3.8-7.1-3.4-13.9,2.3-19.7c9.1-9.2,18-18.7,27.8-27c12.1-10.3,24.9-11.6,37.6-2.6
						c14.1,10,27.3,21.3,39.7,33.2C21515.9,1372.8,21517.5,1380.6,21519.5,1384.9z M21913.6,1826.9c0.4,27.8-21,43.4-44,31.7
						c-4.5-2.3-10.1-7.8-10.3-12c-0.2-4.4,4.7-10.3,8.9-13.2c9-6.1,19.1-10.4,28.5-15.8C21908,1811.3,21913.4,1814.2,21913.6,1826.9
						z M21895.7,1309c-0.2-0.6-0.4-1.1-0.6-1.7c-4.1-0.3-8.6,0.4-12.1-1.2c-4.3-1.9-10-5.1-10.9-8.8c-0.7-2.9,4.3-8.1,7.8-11
						c12.2-10.1,27.5-11.4,42.3-12.5c5.6-0.4,14.4,3.3,16.8,7.7c3.9,7.4-3.2,13.8-9.7,16.6
						C21918.4,1302.7,21906.9,1305.4,21895.7,1309z"/>
					<path class="st1" d="M25157,2310.5c6.5-8,12.7-16.3,16.7-25.7c4.8-11.1,6.3-24.2,1.4-35.2c-1.5-3.3-4.1-6.7-7.8-7
						c-2.8-0.2-5.3,1.4-7.5,3.3c-4.4,3.7-8,8.3-12.6,11.7s-10.9,5.4-16.1,3c-3-1.4-5.3-4-7.2-6.7c-11.6-16.2-12.5-38.1-14.8-57.3
						c-2.8-22.9-4.6-45.9-5.2-69c-0.1-2.7-0.1-5.5,1-7.9c2.4-5.4,9.3-4.9,14-3.5c15.2,4.6,30.1,10.3,45.1,15.9
						c27.3,10.2,54.6,20.7,81.9,31.1c24.7,9.4,49.5,18.9,74.2,28.4c13,5,26,10,39,15c17.7,6.9,35.2,14.1,53.1,20.3
						c4,1.4,11,0.6,13.6-2.1c2.6-2.7,3.6-10.6,1.5-13.4c-5.9-8-12.6-16.5-20.9-21.4c-11.2-6.7-24.3-10.3-36.6-15.2
						c-22.4-8.8-44.8-17.6-67.2-26.4c-25.3-10-50.5-20.1-75.8-30.1c-25.3-10-50.5-19.9-75.9-29.7c-71.2-27.7-142.5-55.3-213.9-82.6
						c-18.4-7-36.8-14.1-55.3-21.1c-5.2-2-10.4-3.9-15.8-4.6c-2.9-0.4-6.4-0.2-8.2,2.1c-1,1.2-1.3,2.8-1.6,4.3
						c-1.2,8.3,1,17.1,6,23.9c7.3,10,19.6,14.9,31.2,19.3c32.6,12.4,65.1,24.8,97.7,37.1c16.3,6.2,32.6,12.4,48.8,18.6
						c10.6,4,33,8,38.7,19.3c4.8,9.5-2.6,20.8-6.9,29.1c-5.4,10.4-9.6,21.4-14.6,32c-6,12.6-13.4,24.8-24.5,33.2
						c-9,6.8-19.9,10.7-28.5,18c-14.1,12-19.6,33.2-13.1,50.6c2.2,5.9,6.6,12,12.9,12.6c4.6,0.5,8.9-2.1,12.7-4.7
						c27.6-18.8,48.9-46.8,59.8-78.4c3.5-10.1,6.1-20.9,12.8-29.2c7,5.1,9,14.7,8.9,23.3c-0.3,21.9,0,42.2,5.7,63.6
						c5.5,20.7,14.5,40.4,26.9,57.9c3.2,4.6,7.8,9.4,13.3,8.8c4.1-0.5,7.1-3.9,9.7-7.1C25154.7,2313.3,25155.9,2311.9,25157,2310.5z
						"/>
					<path class="st1" d="M25763.1,1555.8c28.2-2.5,58.8-4.2,89.1-8.2c19.2-2.5,37.9-8,56.8-12.5c15.2-3.7,30.4-7.6,45.4-11.9
						c5.1-1.5,10.3-3.7,14.8-6.6c8.1-5.2,9.3-12.4,5.7-21.4c-6.4-16.1-11.5-32.7-18.7-48.4c-3.5-7.6-9.5-15.6-16.6-19.7
						c-16.5-9.4-34.2-16.5-51.4-24.6c-15.7-7.4-31.5-14.6-47-22.2c-8.3-4-9.5-10.4-2.9-17.2c27.1-27.7,59.6-41.4,98.7-35
						c33.2,5.5,64.6,16.2,92.1,36.2c8.1,5.9,17.1,11.4,22.7,19.2c4.6,6.4,6.8,16,6.4,24c-1.3,25.4-4.2,50.7-6.7,76.1
						c-5,50.1-9.4,100.4-15.3,150.4c-4.8,40.9-11.9,81.5-17.2,122.3c-3.6,28.4-5.9,56.9-8.7,85.4c-3.9,38.9-8.1,77.8-11.6,116.8
						c-3.1,33.9-5,67.9-8.1,101.7c-2.6,28.4-5.8,56.8-9.5,85c-2,15-0.5,28.8,6.2,42.7c5.6,11.6,9,24.2,14,36.1
						c1.4,3.3,5.2,5.6,7.8,8.4c2.7-2.7,6.8-4.9,8-8.2c7.1-18.8,13.4-37.9,20.1-56.8c3.8-10.6,8-20.9,11.7-31.5
						c9.9-28.2,20.2-56.2,29.4-84.6c5.8-17.8,10.4-35.9,14.4-54.2c0.9-4.3-2.6-9.5-4.1-14.3c-4.6,2.7-10.6,4.4-13.7,8.3
						c-5.4,6.9-8.8,15.3-13.8,22.7c-1.8,2.7-5.7,4.1-8.6,6.1c-1.8-3.3-5.2-6.6-5.1-9.9c0.5-17,1.6-34,3.2-51
						c3.2-33.2,6.6-66.3,10.3-99.4c2-17.9,5.2-35.7,7.1-53.6c5.4-50.4,10.2-100.8,15.7-151.2c3-28.1,7.8-56,10-84.1
						c2.6-32.9,5.1-66,4.2-98.9c-1.1-38.7-3.7-77.8-18-114.5c-13.2-33.8-28.4-67.2-62-85.9c-19.4-10.8-40.4-19.2-61.3-27.2
						c-11.3-4.3-23.7-6.2-35.8-8.1c-8.3-1.3-17.2-2-25.4-0.7c-23.7,3.7-46.6,9.8-65.5,26c-22.2,19-44.7,37.7-66.7,56.8
						c-11.6,10.1-20.4,10.8-36.1,1.3c-33.8-20.4-67.2-41.3-101.3-61.2c-31.7-18.4-65.4-28.9-103-28.2c-32.2,0.6-56,14.5-75.3,38.4
						c-4.4,5.5-8.3,11.7-11.4,18c-5.3,10.6-12.5,11.7-19.8,1.9c-5.1-6.8-9.2-14.3-14-21.3c-13.5-19.8-28.1-39.2-49.7-50.3
						c-12.9-6.6-28.2-11.6-42.5-11.9c-44.9-1.1-81,20.6-99.2,63.3c-1.7,4-5.4,7.2-8.2,10.7c-3.4-2.9-7.3-5.5-10.2-8.8
						c-14.6-17-28-35.2-43.7-51.2c-16.5-16.8-38.6-25.2-60.6-32.7c-23.9-8.2-48.8-10.6-73.6-7.9c-30.4,3.3-58.6,14.9-79.6,37.4
						c-17.3,18.5-31.4,40-45.9,60.8c-10.8,15.6-18.7,33.2-30,48.4c-10.3,13.8-22.9,15.6-38.1,7.4c-21.2-11.3-39.9-25.9-55.5-44.4
						c-20.3-24.1-36.8-50.6-48.5-79.8c-11.5-28.6-21.9-57.7-33-86.5c-14-36.6-33.4-69.2-68.2-90.1c-19.4-11.7-41.1-10.7-59.4,2.6
						c-32,23.2-52.5,54.7-66.4,90.9c-6.2,16.2-11.4,32.7-16.3,49.3c-2.2,7.4-2.5,15.4-3.5,23.1c-0.8,6.1-0.5,12.4-2.1,18.2
						c-3.1,11.9-12.9,15.5-21.4,6.8c-20.4-20.7-46.6-28-73.6-31.6c-13.4-1.8-27.6,1.9-41.3,3.8c-9.8,1.3-19.4,3.7-29.1,5.5
						c-6.7,1.2-11.6-1.1-13.3-7.9c-9-35.3-18.5-70.5-26.6-105.9c-3.4-14.9-1.5-30,9.1-42.5c8.8-10.4,19-9.2,25,2.9
						c1.1,2.1,1.4,4.8,2.8,6.5c2.1,2.6,5,4.6,7.5,6.8c1.6-3.1,4.5-6.2,4.6-9.4c0.1-5.7-0.6-11.8-2.6-17c-4.4-11-8.9-22.1-15.2-32.1
						c-5-8-12.3-14.7-23.5-13.4c-13.7,1.6-21.2,10.8-25.9,22c-6.3,14.9-9.6,31-6,47c6,26.5,13.1,52.8,20.4,79
						c5.1,18.3,11.2,36.4,16.9,54.6c3.3,10.4,0.4,18.2-8.3,24.9c-40.5,31.1-80.7,62.5-121.1,93.7c-0.5,0.4-1.1,1-1.7,1.2
						c-6.2,2.1-12.4,4.2-18.6,6.2c0.2-5.8,0.3-11.6,0.7-17.4c2-26.4,6.3-52.9,5.3-79.3c-0.9-23.8-4.1-48.4-17.2-69.6
						c-11.3-18.3-27.2-32-45.5-43.3c-46-28.4-95.2-49.9-146.8-65.4c-27.3-8.2-55.4-15.4-83.6-17.9c-25-2.2-49.9,4.6-71.6,19.7
						c-27.7,19.2-46.7,44.8-60.9,75.1c-19.4,41.4-26.1,85.5-32.2,130c-3.2,23.6-6.8,47.2-9.6,70.9c-1.6,13.5-2.1,27.1-2.9,40.7
						c-1.3,23.4-2.3,46.9-3.5,70.3c-1.8,34.6-3.7,69.2-5.4,103.8c-1.1,23.1-1.4,46.3-2.9,69.4c-3.6,56-6.6,112.1-12,167.9
						c-4.6,47.1-12.3,93.9-18.9,140.7c-4.8,34-9.4,68.1-15.2,101.9c-4.5,25.8-10.4,51.4-16.3,76.9c-7.7,33.3-9.3,66,4.4,98.3
						c5.3,12.5,9.6,25.4,15.4,37.6c1.9,3.9,7.1,8.6,10.8,8.6c3.2,0,7.9-5.8,9.2-9.8c4.9-15.9,8.6-32.1,12.8-48.2
						c15-56.8,21.8-115,29.5-173c2.2-16.5,2.5-33.3,4.2-49.8c2.7-27.8,5.9-55.5,8.6-83.3c2.6-27.4,4.7-54.9,7.1-82.4
						c0.8-8.8,1.6-17.7,3.6-26.3c0.8-3.7,4.6-6.7,7.1-10c3,2.3,7.1,4.1,8.7,7.1c11.4,21.6,29.8,36.3,49.5,49.2
						c30.4,20,61.4,39,92.3,58.2c28,17.4,55.8,35.1,84.4,51.6c29.7,17.2,60,33.3,90.3,49.4c27,14.4,54.1,28.5,81.4,42.3
						c26.4,13.3,52.7,26.8,79.7,38.9c23.2,10.4,47,19.6,71,27.9c20,6.9,40.9,9.2,62.4,7.7c22.5-1.6,40.3-22.2,42.4-41.8
						c1-9,1.2-18.6-0.7-27.4c-11.6-52.8-29.9-103.3-58.8-149.3c-21.8-34.5-46.1-67.3-67.5-102c-18.5-30-34.8-61.5-51.6-92.5
						c-4.8-8.9-7.9-18.8-12-28.1c-1.2-2.7-2.9-5.6-5.2-7.4c-2.1-1.6-5.5-2.6-8-2.1c-1.2,0.2-2.7,4.8-2.2,6.9
						c3.9,16.6,6.5,33.8,12.9,49.4c12.5,30.7,25.6,61.5,41.5,90.6c14.4,26.4,32.9,50.7,49.6,75.9c19.3,29.2,39.6,57.8,57.8,87.6
						c12.5,20.5-5.2,48.7-29.2,48.3c-9.1-0.2-18.5-1.5-27.1-4.4c-28.9-9.8-58.1-19-85.9-31.4c-34.1-15.2-67-33-100.1-50.2
						c-23.2-12.1-46.2-24.6-68.9-37.6c-29.5-16.9-59-33.8-87.9-51.7c-45.1-27.9-90-56.1-134.3-85.2c-21.9-14.4-42.4-30.7-63.2-46.7
						c-10-7.7-9.5-17.4,1-24.3c23.1-15,46.6-29.4,69.9-44.1c27.4-17.2,54.4-35,82.2-51.4c23.7-14,48.3-26.4,72.5-39.5
						c25.1-13.5,51-25.8,75.2-40.7c38.8-23.8,77.3-48.3,114.6-74.4c27.3-19.1,52.5-41.2,78.5-62c18.1-14.5,35.2-30.2,54.1-43.5
						c40.4-28.5,85.3-40.2,134.4-29.8c12.5,2.6,24.6,7.9,36.3,13.2c3.6,1.6,6.9,6.9,7.9,11c1.8,7.5,2.6,15.5,2.3,23.3
						c-1,25.8-2.2,51.7-4.2,77.5c-2.3,29.8-5.6,59.6-8.6,89.4c-4.7,46.7-9.5,93.5-14.4,140.2c-4.9,46.4-9.9,92.7-14.9,139
						c-3.7,34.2-7.7,68.3-10.8,102.5c-4.3,48.8-7.8,97.6-11.7,146.4c-2,24.7-4,49.5-6.6,74.2c-1.3,11.8-3.6,23.5-6.2,35.1
						c-2.5,11.3-2.5,21.8,2.2,32.9c6.2,14.6,10.2,30.2,16.2,44.9c1.9,4.6,6.5,10.5,10.8,11.3c7.1,1.4,8.2-6,10-11.6
						c5.8-17.7,11.9-35.4,18.1-53c4.2-11.8,9.4-23.3,13.2-35.3c13.7-43.8,27-87.7,40.5-131.5c0.1-0.3,0.2-0.7,0.3-1
						c1.2-7,4-15.6-4.5-18.9c-8.4-3.3-11.1,5.7-14.9,11c-5,6.8-9.1,14.2-14.4,20.7c-1.6,2-6.2,2.9-8.8,2.2c-1.5-0.4-2.7-5.2-2.5-7.9
						c4-38.9,8.2-77.7,12.6-116.6c2.4-21,5.2-41.8,7.8-62.8c1.3-10.5,7.7-13.7,16.3-7.1c22.7,17.3,45.6,34.6,67.3,53.1
						c13.1,11.2,17.6,26.4,14.9,44.3c-4.1,27.9-6.7,56.1-9.4,84.2c-3,30.8-5.7,61.6-8.3,92.5c-0.8,9.5-0.7,19.1-2,28.5
						c-1.2,9-3,18.1-5.7,26.8c-3.5,11.3-3.5,21.3,1.7,32.5c6.9,15.1,11.1,31.4,17.3,46.9c1.8,4.4,6.5,7.6,9.9,11.3
						c3.2-3.9,7.6-7.3,9.2-11.8c10.6-29,20.6-58.3,30.7-87.5c9.2-26.6,18.6-53.1,27.2-79.9c5.5-17.1,9.7-34.6,14.4-52
						c0.9-3.3,2.3-6.9,1.7-10c-0.8-3.9-2.7-9.4-5.5-10.5c-2.6-1-8.3,1.9-10.6,4.7c-4.3,5.2-6.8,11.8-10.6,17.4
						c-2.4,3.6-5.2,7.4-8.7,9.7c-6.3,4.1-10.9,1.3-10.2-6.1c2-22.7,4.2-45.4,6.7-68c1.2-10.8,9.1-13.9,18.6-6.8
						c10.1,7.5,19.6,15.9,28.7,24.5c27.9,26.5,55.8,52.9,83,80.1c8.1,8.1,14.1,18.3,20.5,27.9c4.3,6.4,2.7,12.5-4,16.6
						c-11.9,7.2-23.6,14.8-36,21.3c-18.5,9.7-33.5,28.1-25.9,53.9c5.3,18.1,5.2,37.7,17.2,54c9.9,13.4,23,21.6,38,25.9
						c18.2,5.3,35.5-6.7,39.6-28.8c4-21.5,10.1-43.1,4.2-65.7c-3.2-12.2,0.2-22.8,10.8-31.8c10.2-8.7,18.5-19.6,27-30.2
						c2.8-3.5,4.1-8.7,4.7-13.3c1.2-8.7,0.5-17.4-8.6-22.2c-8.5-4.4-15.1,0.7-21.3,5.5c-15,11.7-19.7,11.5-30.5-3.5
						c-13.5-18.8-25.2-38.8-39.7-56.7c-27.7-34.3-59-65-95.4-90.3c-4.7-3.3-10-6.4-13.5-10.8c-3.5-4.4-7.6-10.5-7.2-15.6
						c2-26.5,5.3-52.8,8.2-79.2c1.2-10.8,2.6-21.6,3.8-32.4c6-57.6,12.1-115.1,17.8-172.7c2.6-26.7,4.2-53.6,6.7-80.4
						c2.4-25.1,6-50,7.9-75.1c4.3-58.5,8.1-117.1-2.4-175.2c-5.4-30.1-12.9-59.9-26.3-87.8c-1-2.1-1.9-4.9-3.6-6.1
						c-2.8-1.8-6.6-3.9-9.5-3.3c-1.8,0.4-3.9,5.4-3.8,8.2c1.1,40.8,3.8,81.6,3.3,122.4c-0.3,28.1-4.8,56.2-7.3,84.3
						c-1.9,21-3.5,42.1-5.5,63.1c-2.4,25.4-5,50.8-7.8,76.1c-6,54.1-12.5,108.2-18.2,162.4c-4.4,41.6-7.9,83.3-11.8,125
						c-0.9,9.8-2.1,19.6-3.3,29.4c-1.3,11-8.6,14.9-18,9.3c-21.3-12.7-42.5-25.7-63.7-38.6c-10.8-6.6-16.8-15.9-15.9-28.8
						c1.8-25.1,3.9-50.2,5.8-75.4c3.3-42.4,6.3-84.8,9.8-127.1c2.2-26.4,5.1-52.7,7.7-79.1c0.6-6.4,1.8-12.9,1.7-19.3
						c-0.7-50.1-1.4-100.1-2.5-150.2c-0.2-9.5-3.5-18.9-3.5-28.3c0.1-37.7,5.6-74.7,20.1-109.7c10.5-25.3,25.7-47.9,47.1-65.8
						c13.3-11.1,44.2-11.6,60.1-1.3c18.3,11.9,29.2,29.6,37.9,48.4c9.9,21.2,16.6,43.8,25.6,65.5c9.3,22.6,19.6,44.7,29.6,67
						c18.2,40.5,46.1,73.8,78.5,103.3c13.2,12.1,27.9,23.1,43.4,31.9c25,14,49,6.1,63.2-19.1c11.4-20.1,21-41.2,33.2-60.8
						c15.7-25.3,35.2-46.9,62.8-61.1c27.8-14.3,56.3-20.1,86.7-15c46,7.7,82.8,31.5,111.9,67.6c12.6,15.6,24.2,32,36.7,47.8
						c4,5,8.6,10.1,14.1,13.1c3.8,2.1,10.2,2.1,14.1,0.2c2.6-1.2,4.1-7.7,3.5-11.5c-0.9-6.2-3.1-12.6-6.1-18.2
						c-18-33.5,2.1-64.4,34.6-70.6c45.3-8.7,83,4.9,109.9,43.4c14.6,20.9,27.8,42.7,41.7,64.1c3.5,5.4,8.1,11.6,14.4,7.5
						c3.9-2.6,6.9-10.7,6-15.5c-4.1-21.1,0.3-40.2,15-54.7c10-9.9,23.1-19.1,36.4-22.5c23-6,46.7-1.8,69.2,6.4
						c16,5.8,32.3,10.9,47.9,17.5c18.1,7.7,35.9,16.2,53.4,25.2c10,5.2,10.1,14.7,1,20.9c-22.8,15.5-45.4,31-72.1,39.6
						c-13.2,4.3-25.1,4.7-37.7-0.6c-6.9-2.9-13.9-5.9-21.1-7.7c-10-2.5-14.9,3.4-11.8,13.3c5.3,17.2,9.5,34.9,16.4,51.5
						c3.8,9.3,10.4,20.2,18.8,24.4c21.1,10.6,43.5,19.2,66.1,25.9c20.4,6.1,41.8,9.4,63,12.4
						C25719.1,1552.9,25739.8,1553.8,25763.1,1555.8z M23715.7,1351c-0.6-0.1-1.1-0.2-1.7-0.3c4.2-26.8,8.8-53.5,12.5-80.4
						c4.2-30.6,11.5-60.4,26.5-87.4c8.6-15.5,19.1-31,32.2-42.6c25.7-22.7,57.3-24.5,89.6-17.2c32.1,7.3,64.3,13.3,95.3,25.5
						c36.9,14.5,71.7,32.5,106.2,51.7c8.2,4.6,15.8,10.5,23,16.6c5.2,4.4,5.4,10.3,2,16.7c-16.3,30.7-37.8,57.8-62.8,81.3
						c-30.2,28.4-62.5,54.7-95.3,80.1c-38.7,29.9-78.9,58-118.5,86.7c-34.4,24.9-68.9,49.7-103.6,74.3c-3.1,2.2-8.9,4.1-11.6,2.6
						c-2.6-1.4-3.8-7.3-3.7-11.2c0.6-19,2.1-38,2.7-57.1c0.7-20.8,0.2-41.6,1.3-62.3C23711.3,1402.3,23713.7,1376.7,23715.7,1351z
						 M25737,1469.6c-2.3-1-9.3-2-10.4-5.1c-1.2-3.3,3-8.7,5-13.1c0.5-1.2,1.8-2,2.9-2.9c9.4-7.3,18.8-14.6,28.3-21.8
						c7.4-5.5,15.5-5.1,23.2-1.2c12.1,6.2,24,12.8,35.6,19.7c2.8,1.7,4.3,5.4,6.5,8.2c-3.2,2.1-6.1,5.6-9.5,6.1
						C25792.3,1463.2,25766,1466.1,25737,1469.6z M24768.4,2140c-1.3,4.9-2.3,12.6-5.5,19.1c-8.5,17.6-23,20.7-38.3,9.1
						c-8.9-6.7-9.8-15.4-0.9-21.9c9.2-6.8,19.3-12.6,29.6-17.7C24761.4,2124.6,24768.2,2129.3,24768.4,2140z"/>
					<path class="st1" d="M22061.3,1976.5c0-16.7-0.2-33.3,0.1-50c0.2-11.8,8.1-16.5,17.7-10c33.5,22.7,67.4,45,99.5,69.6
						c27.2,20.9,52.5,44.3,78.1,67.3c13.8,12.4,10.8,21.1-4.5,31c-13.8,8.9-27.2,19.6-37.7,32.2c-5.3,6.3-6.7,19.3-4.4,27.8
						c4.2,16.1,11.3,31.8,19.2,46.6c7.2,13.6,21.4,19.6,35.4,24.3c11.6,3.9,31.1-8,32.7-21.3c2.5-20.6,9.7-41,2.6-62.4
						c-6-17.9,0.9-32.4,14.8-44.4c11.6-10,13.4-23.4,10.5-37.4c-0.8-4.1-4.3-9.5-7.7-10.6c-3.4-1.1-9.3,1.4-12.4,4.2
						c-20.1,18.4-20.9,19.2-36-3.3c-31-46.2-72.7-80.8-118.3-111c-20.9-13.8-44.1-24.1-66.3-36c-13.6-7.3-17.5-14.6-15.6-29.6
						c4-31.4,8.6-62.8,11.9-94.3c5.3-49.7,9.8-99.6,14.8-149.3c3.2-31.5,7.4-62.9,10.1-94.4c4-46.4,8.2-92.8,9.9-139.4
						c0.8-21.1-3.6-42.6-7.2-63.7c-3.8-22.8-8.9-45.3-14.4-67.8c-3-12.2-7.4-24.1-12.5-35.5c-1.6-3.5-7.7-7.4-11.5-7.1
						c-6.8,0.5-5.8,6.9-4.9,12.2c7.2,42.9,7.5,86,2.9,129.2c-4.6,43.6-8.1,87.4-12.4,131c-5.1,51.1-10.7,102.2-16.1,153.2
						c-4.8,45-9.4,90.1-14.5,135c-2.4,20.9-5.9,41.6-8.7,62.5c-1.3,9.5-6,13.7-16,12.3c-3.8-0.5-7.9,1.7-11.9,2.6
						c2.5,3.2,4.4,7.4,7.6,9.6c14.5,9.9,19.3,22.9,17.6,40.4c-4.4,46-7.3,92.2-11.4,138.3c-1.5,16.6-5.5,33-6.7,49.5
						c-1.5,22-4,44.5-1.2,66.1c2.5,19.9,11.3,39,17.9,58.3c0.8,2.4,5.2,5.2,7.7,5c2.4-0.2,5.7-3.7,6.6-6.4
						c8-23.1,15.3-46.5,23.4-69.5c9-25.3,18.9-50.2,28-75.5c5.1-14.1,9.5-28.4,13.9-42.7c3-9.7,6-19.5,8.3-29.4
						c1.4-5.9,2.1-12.1,1.8-18.1c-0.2-3.2-2.8-8.2-5.2-8.7c-3.2-0.7-8.3,1-10.6,3.5c-4.8,5.2-8,11.8-12.4,17.4c-2.6,3.4-6.2,6-9.4,9
						c-1.8-4.1-4.1-8.1-5.4-12.4c-0.8-2.5-0.1-5.4-0.1-8.1C22059.9,1976.6,22060.6,1976.6,22061.3,1976.5z M22279.3,2142.9
						c-2.9,19.6-14.9,28.6-31.3,22.9c-10.6-3.6-12.9-11.3-5-19.3c4.7-4.8,10.4-8.7,16.2-12.2c4-2.4,10.2-5.8,13.2-4.3
						C22275.9,2131.8,22277.1,2138.4,22279.3,2142.9z"/>
					<path class="st1" d="M25942.8,2211.2c-4.1-12.6-9.2-28.1-24-36c-15.8-8.5-32.6-15.2-49.2-22c-25.2-10.2-50.6-19.8-75.9-29.7
						c-11.7-4.6-23.3-9.4-35.1-13.8c-34.4-12.9-68.9-25.3-103.1-38.5c-34.5-13.3-68.7-27.6-103.2-41c-24.3-9.5-49.1-17.9-73.5-27.3
						c-22.2-8.5-44-17.8-66.1-26.5c-25.3-10-50.7-19.6-76-29.4c-12-4.7-24-9.5-36-14.3c-26.9-10.5-53.8-20.9-80.6-31.5
						c-22.7-9-45.2-18.5-67.9-27.6c-22.7-9.1-45.5-17.9-68.1-27.1c-16.3-6.6-32.5-13.5-48.8-20.2c-19.8-8.2-39.7-16.1-59.4-24.4
						c-24.4-10.3-48.7-20.9-73-31.4c-20.9-9-41.9-17.9-62.8-27.1c-14-6.1-27.8-12.7-41.7-19c-2.8-1.3-5.6-3.3-8.4-3.4
						c-3.7-0.2-9-0.2-11,2.1c-2,2.3-2.3,8-0.9,11.1c15.7,37.2,42.2,63.2,80.3,77.8c22.8,8.7,44.9,19.5,67.4,28.8
						c32,13.2,64.3,25.8,96.3,39c23.2,9.5,46.2,19.6,69.5,29.1c22.6,9.2,45.4,18,68.1,27c12,4.7,24.1,9.3,36,14.2
						c23.2,9.6,46.3,19.4,69.5,28.9c9.4,3.9,19.1,7.1,28.6,10.8c38.9,15,77.8,30.4,116.8,45.1c35,13.2,70.3,25.4,105.3,38.6
						c25.4,9.5,50.5,20,75.9,29.7c22.8,8.7,45.9,16.7,68.7,25.3c26,9.8,52,19.9,78,29.7c12.4,4.7,24.9,9,37.3,13.7
						c29.9,11.1,59.7,22.5,89.6,33.5c20.1,7.4,40.3,14.3,60.4,21.4C25936.4,2230.5,25943.2,2225.3,25942.8,2211.2z"/>
					<path class="st1" d="M20578.2,1618.5c3.1,15.2,6.2,36.8,11.9,57.7c8.8,32.1,19.2,63.8,29.3,95.5c4.8,15.2,10.8,30.1,15.6,45.3
						c1.3,4.1,2.1,10.9-0.1,13.1c-2.8,2.7-9.6,3.7-13.7,2.3c-23.7-8.2-47.1-17.2-70.6-26.1c-26.1-9.8-52.1-19.6-78.1-29.6
						c-14.2-5.5-28.2-11.4-42.4-17.1c-12.3-5-24.5-9.9-36.8-14.8c-27.1-10.8-54.2-21.6-81.4-32.2c-21.8-8.5-43.9-16.5-65.7-25.2
						c-14.8-5.9-29.2-12.7-44-18.8c-14.1-5.8-28.1-11.9-42.6-16.4c-4.6-1.4-12.8,0.2-15.4,3.6c-2.7,3.4-1.9,11-0.3,16
						c8.4,25.3,26.8,39.5,51.6,47.9c23.8,8.1,46.8,18.5,70.2,27.8c25.3,10,50.7,19.8,76,29.6c11.4,4.4,22.8,8.8,34.1,13.3
						c32.8,13.1,65.4,26.6,98.3,39.3c25.4,9.8,51.2,18.4,76.6,28c23.8,9,47.3,18.9,71.1,27.9c14.9,5.7,30.1,10.6,45.1,16
						c11.5,4.1,22.9,8.4,34.4,12.8c26,9.9,51.9,20.2,78,29.7c25.5,9.3,51.4,17.7,76.9,26.8c25.2,9,50.2,18.7,75.4,27.9
						c24.3,8.9,48.7,17.5,73,26.3c18.8,6.8,37.5,13.9,56.4,20.6c24.3,8.6,48.8,16.9,73.1,25.5c17.9,6.4,35.7,13.2,53.5,19.8
						c3.2,1.2,6.3,2.8,9.6,3.4c9.9,2,15.5-4,13.9-14.1c-3.5-22.5-19.1-33.4-38.5-40.9c-27.2-10.5-54.3-21.4-81.7-31.7
						c-24.2-9.1-48.6-17.3-72.8-26.1c-24.2-8.9-48.4-18.1-72.6-27c-17.2-6.4-34.5-12.6-51.7-19c-23.5-8.8-46.9-17.8-70.5-26.5
						c-38.2-14.2-76.5-28.2-114.5-42.6c-16.1-6.1-32.1-12.8-47.6-20.3c-4.2-2-8-7.7-9.3-12.4c-10.9-40.4-21.7-80.8-31.5-121.5
						c-4.7-19.4-8.3-39.3-10.2-59.2c-2-20.3,5.9-37.9,20.3-52.6c8.6-8.8,19.3-9,25.7,1.7c6.4,10.7,10.6,22.7,15.7,34.2
						c1,2.2,1,5.1,2.6,6.6c2.4,2.3,5.8,3.6,8.7,5.4c1.6-3,4.8-6.3,4.4-9c-1.4-10.8-3-21.8-6.4-32c-6.3-18.6-12.9-37.3-21.4-54.9
						c-5.9-12.1-14.6-23.5-30.6-23.9c-16.8-0.4-25.5,11.9-33.6,23.5C20583.4,1569.8,20579.9,1590.7,20578.2,1618.5z"/>
					<path class="st1" d="M26296.7,1236.5c5.2-41.8-2.1-82.4-11.5-122.5c-5.4-22.7-14.3-44.7-22-66.8c-0.8-2.2-4.3-3.5-6.5-5.2
						c-1.7,3-5,6-5,9.1c-0.1,18,0.9,36.1,1,54.1c0.2,28.6,1.1,57.2-0.5,85.7c-3,52.2-7.2,104.3-11.6,156.4
						c-1.8,22-5.5,43.8-7.8,65.8c-2.7,25.7-4.5,51.5-7.1,77.2c-4.5,43.3-9.6,86.6-13.9,129.9c-2.1,21-2.4,42.2-4.6,63.2
						c-3.3,31.8-7.9,63.4-11.1,95.2c-4.5,45.3-8,90.8-12.3,136.1c-2.3,24-5.4,47.9-7.7,71.9c-2.5,25.7-4.1,51.5-6.7,77.2
						c-2.6,25.7-4.6,51.6-9.2,77c-3,17-0.9,32.4,4.8,47.9c3.5,9.6,6.5,19.3,10.1,28.9c1.4,3.8,3.1,7.7,5.6,10.8
						c5.3,6.6,12,5.6,14.8-2.2c8.1-22.7,15.8-45.6,23.9-68.3c9.5-26.5,19.7-52.9,29.1-79.4c5.4-15.4,9.9-31.1,14.6-46.7
						c3-10.1,5.8-20.2,8.3-30.4c1-3.9,2-8.3,0.9-11.9c-0.9-2.9-4.8-6.3-7.7-6.7c-2.9-0.4-7.5,1.7-9.4,4.2c-4.6,6.3-7.6,13.8-12.3,20
						c-2.9,3.8-7.8,6.1-11.9,9.1c-1.6-4.4-4.9-8.9-4.6-13.1c1.3-21.4,3.2-42.8,5.5-64.1c4.5-41.3,9.5-82.5,13.9-123.8
						c3.1-29.1,5.3-58.3,8.4-87.4c4.5-42.9,9.8-85.8,14-128.7c3.4-35.5,5.4-71.2,8.5-106.8c2.1-24,5.2-47.9,7.6-71.8
						c2.3-22,4.5-44,6.3-66.1c3.2-39.3,6.1-78.6,9.1-117.9C26298.9,1236.6,26297.8,1236.5,26296.7,1236.5z"/>
					<path class="st1" d="M20962.4,2150c-1.7,9.7-4,19.4-4.8,29.2c-0.8,10.3-0.6,20.7,0.5,31c0.3,2.8,5.2,7.2,7.8,7.1
						c2.9-0.1,7.4-4.1,8.1-7.2c2.8-11.9,3.9-24.2,6.4-36.1c2.9-14.3,5.3-28.8,10.2-42.4c2.2-6,9.5-11.5,15.8-14.1
						c4.6-1.9,13.3-0.5,16.5,2.9c3.1,3.3,3.3,11.7,1.6,16.7c-4,11.8-11.3,22.7-14.8,34.6c-3.6,12.5-4.9,25.8-5.9,38.8
						c-0.2,2.9,4.8,8.8,7.4,8.9c3.7,0,9.8-3.4,10.9-6.7c7.7-24.2,17.1-48.2,20.7-73.1c2.8-19.3-0.3-40.3-17.3-55.2
						c-13.3-11.6-26.7-13.2-43,5.7c-8.6,10-16,9.7-22.5-2.1c-8.4-15.3-25.6-25.8-38.1-23.4c-14.6,2.8-29.1,20.5-30.4,38.4
						c-1.1,15.3-0.8,30.7-1.1,46c-0.3,16.1-5.6,21.1-20.9,16.6c-18.8-5.5-37.2-12.6-55.7-19.2c-12.1-4.4-24-9.4-36.1-13.7
						c-25.6-9.1-51.4-17.4-76.9-26.8c-25.2-9.3-49.9-19.8-75-29.3c-23.5-8.9-47.3-17-70.8-25.7c-26.4-9.8-52.8-19.8-79.2-29.7
						c-15-5.6-30-10.9-45-16.6c-25.1-9.5-50.2-19-75.2-28.6c-13-5-26-10-39-15c-28.2-10.8-56.3-21.7-84.5-32.5
						c-22.8-8.7-45.9-17.1-68.6-26c-22.1-8.7-44.1-17.8-66-27.1c-32.2-13.7-64.4-27.4-96.5-41.5c-21.8-9.5-43.3-19.6-65-29.4
						c-3.4-1.5-6.9-3.2-10.5-3.8c-8.7-1.5-12.8,2.5-12.5,11.2c0.6,18,15.8,38,32.4,44.9c21.9,9.1,43.3,19.6,65.1,29
						c21.8,9.4,43.9,18.3,65.8,27.3c11.3,4.6,22.7,9.1,33.9,13.8c32.3,13.4,64.4,27.2,96.9,40.1c33.8,13.4,68,25.6,101.9,38.6
						c34.9,13.4,69.5,27.4,104.5,40.4c26.1,9.7,52.6,18,78.8,27.4c25.2,9,50.2,18.6,75.3,27.8c12.1,4.5,24.3,9,36.5,13.2
						c27.3,9.4,54.7,18.4,81.9,28c25.3,9,50.2,19,75.5,28.1c25.6,9.2,51.4,17.9,77.1,26.8c14.5,5,28.8,10.2,43.4,14.9
						c15.1,4.9,29.7-5.7,29.2-21.5c-0.5-13.2-2.9-26.4-3.4-39.6c-0.6-14.9,1.8-29.2,14.4-39.5c6.7-5.5,13.6-5.8,20.4-0.1
						C20954.7,2121.3,20963.4,2133,20962.4,2150z"/>
					<path class="st1" d="M22479.8,1675.5c-6.7,3.5-14.3,5.9-19.8,10.7c-12.9,11.3-20,26.5-23.8,43c-7.1,31.1-2.6,61.4,6.7,91.4
						c9.2,29.9,17.9,60,26.9,89.9c5.5,18.2,11.2,36.4,16.3,54.7c1,3.7,0.9,9.2-1.2,11.9c-1.4,1.8-7.6,1.1-11.1-0.2
						c-27.5-9.8-54.9-19.9-82.2-30.2c-25.1-9.5-50-19.5-75.1-29c-27-10.2-54.1-20.3-81.3-29.9c-3.3-1.2-9.2,0.2-11.5,2.6
						c-1.9,2-1.9,8.4-0.1,11.1c12.2,18.9,24.8,38,45.5,48.5c14.5,7.4,29.9,12.9,45.1,18.8c27.2,10.4,54.6,20.5,82,30.6
						c24.8,9.2,49.7,18.1,74.6,27.2c24.9,9.1,49.8,18.4,74.7,27.4c16.9,6.1,33.9,11.9,50.9,17.9c14.4,5.1,28.7,10.4,43.1,15.4
						c30.5,10.5,61.1,20.7,91.6,31.3c15.1,5.2,29.9,11.2,44.9,16.6c14.4,5.1,28.9,9.8,43.4,14.8c18.9,6.5,37.7,13.3,56.7,19.7
						c26.7,9.1,53.4,17.9,80.1,27c17.7,6.1,35.2,12.6,52.8,18.9c8.2,2.9,17.5,8.8,24.7,0.8c7.3-8.2,1.4-16.9-3.1-25.3
						c-8.4-15.8-22.9-22.2-38.7-27.5c-15.8-5.2-31.4-10.9-47-16.6c-27.2-9.8-54.3-19.6-81.4-29.5c-27.1-9.9-54.2-20-81.4-29.7
						c-16-5.7-32.1-10.8-48.2-16.3c-11.5-4-23-8-34.5-12.3c-35.7-13.3-71.3-26.8-107-39.9c-15.3-5.6-31-10.1-46.3-15.4
						c-11.2-3.9-22.6-7.7-33-13.2c-4.3-2.3-7.9-8.4-9.3-13.5c-10.7-39-21.4-78.1-30.8-117.5c-4.9-20.4-9.6-41.5-9.6-62.3
						c0-17,3.5-34.9,18.6-48c12.4-10.8,25.1-9.7,31.7,5.5c4.5,10.3,8,21,12.9,31c1.9,3.8,7,9.1,10.1,8.7c7.3-0.9,6.5-7.8,4.8-13
						c-9.2-27.7-17.8-55.6-28.5-82.7C22507.8,1686.1,22496.5,1677.6,22479.8,1675.5z"/>
					<path class="st1" d="M25657.7,1639.8c-15.1-0.6-22.4,9.3-28.3,19.6c-11.4,19.6-12.2,41-6.2,62.4c8.7,31.1,18.5,62,27.1,93.2
						c1.4,5.1-0.7,11.3-1.2,17c-6-0.8-12.4-0.6-18-2.6c-12.5-4.3-24.4-10.1-36.8-14.6c-25.2-9.3-50.6-17.8-75.7-27.2
						c-24.5-9.2-48.5-19.4-72.9-28.7c-24.7-9.5-49.8-18.2-74.5-27.7c-24.1-9.3-47.9-19.4-71.8-28.9c-11.3-4.5-22.8-8.7-34.2-13.1
						c-9.5-3.7-18.8-8-28.5-10.9c-4.2-1.3-9.3,0.4-14,0.7c0.9,4.6,0.7,9.8,2.8,13.8c15.4,28.5,42.3,40.6,71.4,50.4
						c26,8.8,51.4,19.4,77.2,29.1c13.7,5.2,27.5,10,41.2,15.1c25.5,9.4,50.9,18.9,76.3,28.3c27.1,10,54.3,19.8,81.3,29.9
						c25.4,9.6,50.6,19.7,76,29.3c23.2,8.8,46.5,17.1,69.7,25.9c27,10.2,53.9,20.7,80.9,31c22.8,8.7,45.8,17.2,68.7,25.8
						c16.8,6.3,33.7,12.7,50.5,19c3.8,1.4,7.7,3.9,11.5,3.9c5,0.1,13.4-0.6,14.3-3c1.8-5.3,2-13.9-1.2-17.6
						c-6.7-7.8-15.2-15.2-24.5-19.5c-20.9-9.7-42.8-17.5-64.3-25.9c-25.9-10.1-51.9-20.1-77.9-30.1c-24.8-9.4-49.5-19-74.4-27.9
						c-15.9-5.6-29.4-11.8-33.6-31.1c-6.5-29.2-16.4-57.6-23-86.7c-3.9-17.2-3-34.8,12.4-48c8.3-7.1,15.6-6.2,20.6,3.6
						c2.5,4.8,3.6,10.4,6.4,15c1.8,3,5.4,4.9,8.2,7.4c1.3-3.5,3.9-7.1,3.6-10.5c-1.8-19.4-10-36.5-19.8-53
						C25672,1645.5,25667.2,1638.9,25657.7,1639.8z"/>
					<path class="st1" d="M24276.4,1546.4c-21.5-1.9-43.2-4-64.8-5.8c-8.8-0.7-17.7-1.4-26.5-1.3c-14.3,0.1-17.1,4.7-10.4,17.7
						c4.2,8.2,9.1,15.9,13.9,23.8c6.4,10.4,12.9,20.8,19.4,31.1c6.4,10.2,15.6,15.3,27.8,16.5c23.3,2.3,46.5,6.5,69.9,7.9
						c15.1,0.9,30.4-1.8,45.6-3.3c8.8-0.9,17.4-2.9,26.2-4.3c25.7-4.2,34.3-22.2,20.9-44.6c-9.9-16.6-19.3-33.7-30.9-49
						c-11.5-15-25.4-28.2-38.6-41.8c-12.9-13.3-31.1-15-47.6-19.5c-32.5-8.7-65.4-16.2-98.1-24.2c-1-0.2-2-0.6-3-0.7
						c-6.7-1.1-15.7-5.9-18.5,3.6c-2.6,8.6,6.7,11.8,12.9,14.6c26.9,12.3,54.1,24,81.2,36c18,8,36,16,53.8,24.4
						c2.9,1.4,6.7,5.7,6.3,7.8c-0.7,3.2-4.5,7.5-7.5,8.1C24297.8,1545,24287.2,1545.4,24276.4,1546.4z"/>
					<path class="st1" d="M22994.1,1948.7c-0.9-8.8-0.8-17.8-2.8-26.3c-4.9-21.4,1.4-38.7,16.6-53.7c8.2-8.1,16.1-16.6,23.4-25.5
						c6.9-8.4,7.4-18.3,2.6-27.9c-5-10-12.2-16.3-25-15.2c-18.1,1.5-36-0.6-52.7-9.1c-7.4-3.8-11.1-8.7-10.3-16.8
						c0.7-6.4,1.3-12.9,2.8-19.2c3.3-13.9,6.6-27.8,10.8-41.4c15.4-49.7,20.5-100.7,17.9-152.3c-1.1-23-5.5-45.9-8.9-68.8
						c-0.4-2.5-4.1-4.5-6.2-6.8c-2,2.4-5.5,4.7-5.8,7.2c-0.6,6-0.3,12.3,0.8,18.3c8.8,48.5,2.8,96.4-6.9,143.9
						c-7.4,36.3-16.3,72.3-23.9,108.6c-3.6,17.4-3.7,35.3,9.4,49.2c8.2,8.7,16.5,18.7,30.5,19.5c3.6,0.2,7.2,3.7,10.4,6.3
						c0.3,0.3-2,5.9-3.5,6.1c-4.3,0.4-9.2,0.3-13.2-1.3c-4.3-1.7-4.9-11.5-12.4-6.6c-7.5,4.9-3.6,12.2-0.9,17.5
						c4.2,8.4,10.7,15.6,15.1,23.9c3.1,6,7.1,13.5,5.9,19.4c-7.2,36.4-23.6,67.4-57.8,85.6c-21.1,11.2-27.8,29.9-17.5,51.8
						c4.9,10.3,14.5,13.4,23.4,6.3c25.6-20.5,44.2-45.9,53-78c1-3.8,4.1-7.1,6.2-10.6c2.9,3.8,7.7,7.3,8.3,11.4
						c1.8,12.4,0.6,25.3,3.2,37.5c3.7,17.2,8.6,34.4,15.2,50.6c8.6,21.2,25.3,23.9,41.6,7.9c10.5-10.3,16.1-23,13.2-37.9
						c-0.8-4.1-4.2-9.1-7.8-10.7c-2.6-1.1-7.5,2.6-11.2,4.4c-1.1,0.6-1.8,2-2.7,3c-12.1,13.3-24.9,11.3-31.2-5.5
						C22996,1992.9,22991,1971.3,22994.1,1948.7z"/>
					<path class="st1" d="M23982.7,1756.5c12.2-1,24.6-1.1,36.5-3.5c5-1,13.2-7.3,12.8-10.3c-0.9-7-4.9-14.7-10-19.7
						c-2.8-2.7-12.2-2.7-15.6,0c-9.3,7.2-19.2,7.7-29.9,7.5c-10.6-0.2-21.2,0.6-31.7-0.2c-3.8-0.3-9.5-2.9-10.4-5.8
						c-1.1-3.1,1.3-9,4.1-11.4c6.5-5.4,13.6-10.5,21.4-13.7c31.8-12.8,63.9-24.7,95.8-37c21.3-8.2,42.8-15.6,52.8-39.6
						c7.8-18.9,5.7-32.4-8-47.6c-16-17.6-34.7-17.9-55.1-11c-43.1,14.7-86.5,28.6-129.2,44.5c-23.8,8.8-47.1,19.4-69.2,31.9
						c-20.2,11.5-29.9,32.7-38.7,53.5c-1.1,2.6,0,8.3,2,9.6c2.2,1.4,7.8,0.4,9.8-1.6c20-21.4,45.8-33.9,71.3-46.7
						c11.8-5.9,24.3-10.5,36.7-14.9c37.1-13.1,74.4-25.8,111.7-38.7c7.4-2.6,14.5-6.4,22-7.7c4.5-0.8,9.7,2.4,14.6,3.8
						c-1.5,4.6-1.8,10.1-4.6,13.7c-12.5,16.1-31.6,21.6-49.5,28.6c-30,11.8-60.3,23-90.1,35.2c-8.4,3.4-16,9.1-23.3,14.6
						c-18.6,14.2-14.7,38.7,7.9,51.9C23937.3,1753.8,23950,1756.5,23982.7,1756.5z"/>
					<path class="st1" d="M21538.4,1837.1c5.1,20,9.3,38.2,14.4,56.1c5.9,20.6,12.8,41,18.7,61.6c1.1,3.8,1.2,10.2-1,12.1
						c-2.9,2.4-9.2,3.1-13,1.7c-25.3-8.9-50.3-18.7-75.5-28c-24.6-9.1-49.2-17.8-73.7-27c-26-9.8-51.9-20-77.9-29.8
						c-24.8-9.3-49.8-18-74.6-27.4c-24.5-9.3-48.7-19-73.1-28.5c-5.1-2-10-4.7-15.2-5.7c-3.9-0.7-10.7-0.5-11.8,1.6
						c-2,3.8-2.4,10.1-0.6,14.1c6.7,14.7,19.2,23.1,34.2,28.6c26.8,9.7,53.4,20,80.1,29.9c25.4,9.4,50.9,18.7,76.4,28.1
						c26.1,9.7,52.2,19.6,78.3,29.2c15.3,5.6,30.8,10.6,46.2,15.9c11.6,4,23.1,8,34.6,12.1c36.8,13.2,73.6,26.4,110.3,39.7
						c8.2,3,13.7,0,14.2-8.6c0.5-9-3-15.7-11.4-19.9c-12.2-6.1-24.6-12.1-29.9-26.2c-0.8-2.2-2.1-4.3-2.7-6.6
						c-7.2-27.6-14.4-55.2-21.3-82.9c-3.7-14.8-2.9-29,7.1-41.7c7.9-10.1,16.8-9.8,23.5,1.2c3,5,4.9,13.4,12.5,10
						c2.5-1.1,2.8-11.1,1.4-16.2c-3-10.7-6.4-21.6-12-31c-17.1-28.2-33.6-18-44.6,0.6C21545.1,1811.3,21542.6,1825.1,21538.4,1837.1
						z"/>
					<path class="st1" d="M23628.3,1221.1c-0.9-9.2-7.4-17.2-16.2-21.7c-16.9-8.6-34.5-15.9-52.1-23.2c-25.3-10.6-50.9-20.7-76.3-31
						c-10.7-4.3-21.5-8.5-32.2-12.9c-46.2-18.7-92.4-37.6-138.7-56.1c-23.6-9.4-47.6-18-71.2-27.3c-13.6-5.4-26.7-11.7-40.2-17.2
						c-7.2-2.9-14.7-5.6-22.3-6.9c-9.3-1.6-12.8,3.7-8.5,12.2c11.1,22.1,29.2,36.5,51.7,45.4c25.2,9.9,50.7,19.1,76.1,28.7
						c26.4,10,52.8,19.9,79,30.2c24,9.4,47.7,19.5,71.6,29c22.1,8.8,44.4,17,66.5,25.7c25.6,10,51.1,20.3,76.7,30.3
						c7.6,3,15.4,5.6,23.3,7.6C23623.5,1236,23628.4,1231.4,23628.3,1221.1z"/>
					<path class="st1" d="M20037.8,998.7c4.1,1.6,7.3,3.2,10.6,4.1c34.1,8.2,68.4,15.5,102.2,24.6c16.9,4.6,33.2,11.9,49.2,19.1
						c25.3,11.5,50.4,23.6,75.2,36.2c19.1,9.7,37.3,21,56.5,30.6c27.4,13.7,56.5,22.6,87.2,21.4c11.5-0.4,24.3-5.5,33.8-12.3
						c23.2-16.6,37.4-17.6,60.7-0.4c9.3,6.9,18.6,13.7,28.4,19.9c7.4,4.7,13.3,3.5,16.6-5.9c2.9-8.6,9.2-13.9,18.6-12.9
						c9.5,1,15.3,7.2,16.8,16.6c1.2,7.5,3.6,13.6,12.5,12.9c8.9-0.7,9.9-7.4,10.4-14.8c1.4-18.4-9.4-30.1-23.4-37.7
						c-14-7.6-30.5-9.4-45-0.6c-11.7,7.1-21.1,6.2-31.9-1.3c-8.8-6.1-18.6-11.1-28.6-15c-18.7-7.3-36.8-2.7-52.2,8.6
						c-21.4,15.6-42.3,16-67.3,8.2c-39.6-12.5-73.3-35.3-109-54.7c-35.4-19.2-72.3-34.8-112.3-41.2c-29.2-4.7-58.6-8.2-87.9-11.9
						C20051.9,991.2,20044.1,989.9,20037.8,998.7z"/>
					<path class="st1" d="M23884.1,2024.6c-9.4,0.2-12.5,4.7-9,11.6c8.6,16.7,19.7,30.3,38.5,37.3c33.6,12.7,66.6,27.1,100,40.4
						c21.8,8.7,43.8,16.7,65.7,25.2c26.6,10.4,53,21.1,79.6,31.4c23.1,8.9,46.3,17.5,69.4,26.4c22.8,8.8,45.6,17.7,68.2,26.9
						c6.9,2.8,13.8,5.9,19.5-1.1c5.8-7.3,0.6-13.3-3.7-19.1c-11.8-15.8-30.3-20.1-47-27.3c-25.3-10.8-50.7-21.2-76.3-31.3
						c-23.6-9.4-47.5-18.1-71.2-27.5c-23.6-9.4-47-19.4-70.6-29c-13.5-5.5-27.2-10.5-40.8-15.8c-12.3-4.8-24.7-9.5-36.9-14.6
						c-23.5-9.7-46.9-19.6-70.5-29.2C23893.7,2026.8,23887.9,2025.7,23884.1,2024.6z"/>
					<path class="st1" d="M21539.2,1682.9c-1.9-5.8-2.5-9.6-4.4-12.7c-8.9-14.4-18.1-28.8-27.5-42.9c-6.4-9.7-11.6-10-21.2-3.3
						c-15.9,11.1-32.1,21.8-48.1,32.7c-5.8,3.9-11.2,3.8-15.3-1.7c-7.7-10.3-14.7-21.1-22-31.7c-2.5-3.6-4.9-7.4-8-10.6
						c-6.1-6.4-13-6.5-20.2-1.6c-15.4,10.6-30.8,21.2-46.4,31.5c-12.2,8.1-14.2,15.9-6.4,28.2c8.5,13.5,17.3,26.9,25.9,40.4
						c6.1,9.6,14.8,11.6,24.3,5.1c13.5-9.1,26.9-18.5,40.2-27.9c11-7.8,20.3-5.7,27.3,5.5c7,11.2,14.8,22,22.2,33
						c4.2,6.2,10.3,8.5,16.9,5.4c6.7-3.1,12.8-7.5,18.9-11.7c11.2-7.7,22.6-15.2,33.2-23.7
						C21533.3,1693.2,21536.1,1687.2,21539.2,1682.9z"/>
					<path class="st1" d="M22417.1,1623.5c-2.9-6.3-4.6-11.3-7.3-15.5c-8-12.3-16.2-24.4-24.7-36.3c-8.1-11.4-14.2-11.7-25.4-3.3
						c-13.6,10.1-27.7,19.6-41.9,29c-8,5.3-15.7,4-21.7-3.7c-6.7-8.6-12.8-17.6-19.5-26.1c-8.7-11-16.7-13.3-28.4-6
						c-17.9,11.1-35.1,23.3-52.3,35.4c-6.5,4.6-7.8,11.1-3.1,17.9c10.1,14.9,20.1,29.9,30.7,44.5c5.5,7.6,13.1,8.4,20.7,3.2
						c13.5-9.1,27.2-18.1,40.1-28.1c13.2-10.2,19.6-9.9,29,3.5c7,10,14.1,20,21.2,30c5.6,8,14.5,9.4,23.2,3.3
						c16.1-11.3,32.3-22.7,48-34.6C22410.4,1633.4,22413.5,1627.9,22417.1,1623.5z"/>
					<path class="st1" d="M25446.7,1568.4c-1.8-4.6-2.3-7.4-3.8-9.6c-10.5-15-21.2-30-31.9-44.9c-4.8-6.8-10.7-7.8-17.6-3.1
						c-15.1,10.4-30.2,20.9-45.4,31.2c-11.6,7.9-18,6.4-26.2-5.4c-6.5-9.5-13-19.2-20.5-27.9c-8.1-9.5-13.9-10.5-24.1-3.8
						c-17.9,11.8-35.4,24.2-52.6,36.9c-7.2,5.3-6.9,13.1-2.3,20.2c7.7,12,15.8,23.8,24,35.4c10.5,14.8,19.7,16.3,34.4,5.9
						c13-9.2,25.9-18.6,38.9-27.9c7.8-5.6,15.5-3.9,21.8,5.1c5.5,7.8,10.4,16,15.6,23.9c11.4,17.1,20.5,18.5,37.1,6.3
						c13.7-10.1,27.9-19.4,41.5-29.7C25440.3,1577.6,25443.4,1572.3,25446.7,1568.4z"/>
					<path class="st1" d="M19962.9,1510.2c-12.4,7.1-23.3,12.6-33.4,19.2c-10.5,6.9-20.4,14.7-30.4,22.3c-8.3,6.3-9.8,14.2-4.1,22.3
						c9.6,13.6,19.7,26.9,29.3,40.5c5.8,8.2,13,9.7,21.2,4.2c14.4-9.6,28.8-19.4,42.8-29.6c10.9-8,18.8-6.9,26.4,4.5
						c7,10.5,14.5,20.6,21.6,31c5.7,8.5,13,9.8,21,4.5c13-8.7,25.5-18.1,38.2-27.2c4.7-3.4,9.5-6.7,14-10.2
						c7.6-5.9,8.9-13.5,3.8-21.6c-7.1-11.2-14.2-22.4-21.3-33.5c-9.3-14.5-25.2-16-41.8-4.3c-10.6,7.4-21.6,14.1-32.1,21.6
						c-8.2,5.9-15.1,3.7-20.7-2.9c-6.6-7.7-11.8-16.7-18.2-24.5C19974.6,1520.9,19969.1,1516.3,19962.9,1510.2z"/>
					<path class="st1" d="M24888,1535.1c-10.8,7-20.1,12.8-29.2,19.1c-7.6,5.2-14.7,11-22.1,16.4c-11.8,8.5-20,6.4-27.7-5.8
						c-6.7-10.6-14.2-20.8-21.6-30.9c-5.2-7.1-12.1-7.5-18.8-2.8c-17.6,12.2-35.1,24.6-52.2,37.4c-10.8,8.1-10.8,14.2-2.9,25.1
						c8.9,12.4,17,25.5,26,37.8c7.9,10.8,13.2,11.2,23.9,3.5c13-9.3,26-18.6,39.1-27.7c13-9.1,20.7-7.4,29.7,5.8
						c7.1,10.4,14.3,20.7,21.6,31c4.1,5.7,9.7,8.4,15.9,4.1c18-12.8,36.1-25.5,53.3-39.5c12.2-9.9,11.7-12.5,3-25.6
						c-8.1-12.2-15.8-24.6-24.3-36.5C24898.4,1542.2,24893.3,1539.5,24888,1535.1z"/>
					<path class="st1" d="M22738,1032.4c-17.4,3.5-29.2,13.3-40.8,22.6c-26,20.9-29.6,20.5-46.5-8.5c-3.6-6.1-8.1-11.8-12.7-17.2
						c-5.5-6.5-12.9-8.7-20.1-3.9c-18.8,12.3-37.5,24.6-55.2,38.4c-3.6,2.8-4.9,13.8-2.4,18.2c8.8,15.6,19.2,30.5,30,44.8
						c5.4,7.2,13.6,7.2,21.1,2c13.6-9.6,27.4-19,40.7-29c12.6-9.5,17.3-9.2,26.5,3.6c6.7,9.4,13.1,19,19.8,28.5
						c7,10,16.5,11.6,26.5,4.5c15.8-11.2,31.6-22.5,47.4-33.8c11.2-8,12.4-11.8,5.2-23.6c-7.4-12.2-15-24.3-23.7-35.6
						C22750,1038.6,22743.3,1036,22738,1032.4z"/>
					<path class="st1" d="M25646.7,1014.5c-7.2,0-13.1-0.5-18.8,0.1c-16,1.6-26.6,9.5-29,25.4c-1.8,11.8-0.9,24.5,1.7,36.2
						c2.3,10.7,8.3,20.7,13,30.8c3.4,7.3,0.4,12.6-5,17c-5.2,4.3-11.2,7.8-16.1,12.4c-9.5,8.8-12.1,20.9-6,32.4
						c9.9,18.6,20.4,36.9,40.1,47.6c8.8,4.7,17.1,6.8,26,1.2c9.4-5.9,11.4-14.8,9.7-25c-2-12-10.3-17-21.5-12.1
						c-9,4-16.5,2.9-23.3-3.9c-5-5-5-10,0.2-15.1c11-10.7,31.8-13.2,44.6-4.6c6.2,4.1,11.5,9.7,17.8,13.6c3.3,2.1,9.1,4.2,11.6,2.7
						c2.7-1.6,4.2-7.6,3.8-11.4c-1.7-13.9-11.6-22.3-21.7-30.9c-17-14.5-34.4-28.8-49.9-45c-15.6-16.3-8.8-34.2,14.1-36.2
						c16.3-1.4,33.4,0,49.5,3.3c28.4,5.8,55.3,16.7,80.5,31c13.2,7.5,24.8,17.8,37.6,26.3c3.6,2.4,8.6,2.6,12.9,3.7
						c-1.2-4.1-1.3-9.2-3.9-12.1c-11.9-13.6-24.5-26.5-36.8-39.7c-15.4-16.5-35.3-25.6-56-32.5
						C25697,1021.8,25672.2,1012.3,25646.7,1014.5z"/>
					<path class="st1" d="M22550.2,1555.1c-0.5-8.1-1-15.6-1.6-23c-0.9-12.6,3.9-23.4,10.5-33.5c5.1-7.8,16.9-9.5,25.4-2.6
						c14.6,11.9,24.9,26.4,21.1,46.7c-1.7,9.4-3.9,18.7-6.4,27.9c-3.1,11.2-1.1,21.7,4.4,31.5c1.5,2.7,5.2,6.4,7.1,6
						c2.9-0.6,6.7-4,7.4-6.9c3.6-14.2,6.5-28.5,9.2-42.9c2.8-14.9,1.1-30.9,10.4-44.2c1.9-2.8,3.8-5.8,6.3-7.9
						c7.4-6,20.6-7.5,25.8-2.6c8.2,7.7,3.9,16.1,0.6,24.4c-7,17.6-14.7,35-20.1,53.2c-2.2,7.5-0.2,16.8,1.9,24.8
						c2.2,8.2,9,8.7,14.4,1.8c1.8-2.4,3.3-5.2,4.3-8.1c6.8-19.2,14.9-38,19.9-57.7c6.9-27,2.3-53-15.7-74.8c-10-12-33.6-10.3-44,1.4
						c-1.8,2-3.3,4.4-5.2,6.3c-8.5,9-14.7,7.3-21.6-2.9c-5.4-8-12.2-15.8-20.2-21c-14.8-9.7-37.6-1.9-45.4,14.2
						c-9.3,19.3-11.3,39.5-8.3,60.7c1.2,8.1-0.5,16.6-1,24.9c-0.6,11-2.1,22.1-1.8,33.1c0.2,7.3,4.7,13.4,13.1,12.7
						c8.5-0.7,9.3-7.7,9.3-14.5C22550.2,1572.9,22550.2,1563.7,22550.2,1555.1z"/>
					<path class="st1" d="M21315.2,1008.7c5.2,12,14.9,13.9,23.7,16.4c43.8,12.6,88.3,23,131.4,37.5c32.9,11.1,65.9,23.6,93.9,45.5
						c7.4,5.8,13.2,13.6,19.8,20.5c8.6,9,16.8,18.5,26.1,26.7c8.6,7.6,18.2,14.2,27.7,20.8c12.9,9,23.6,7.6,34.4-3.7
						c17.3-18.2,16.5-55.7-1.6-73.3c-6.9-6.7-23.7-6.8-34.5,0.5c-7.6,5.1-14.8,10.7-22,16.5c-8.6,6.9-13.9,6.2-20-2.8
						c-15.4-22.7-35.2-40.5-60-52.5c-20.5-9.9-40.4-21.4-61.8-28.7c-27.2-9.4-55.4-16.1-84.6-17.6c-19-1-37.8-4.3-56.7-6.2
						C21325.7,1007.7,21320.4,1008.5,21315.2,1008.7z"/>
					<path class="st1" d="M20235.5,2121.8c2.9,27.5,1.5,99.4,39.9,106.6c9.4,1.7,19-3,25.4-10c6.4-7,10.1-16.1,13.3-25
						c4.8-13.6,1.1-38.4-19-24.7c-6.2,4.2-11.6,10.8-19.1,11.6c-7,0.7-13.6-4.1-17.1-10.1c-3.5-6.1-4.5-13.2-5.5-20.1
						c-4.3-30.8-6.6-62.7-13.1-93.1c-3-14-12.4-47.4-26.2-19.1c-3.5,7.3-5.2,15.3-7.6,23.1c-9.1,29.4-30.4,54.9-57.6,69.1
						c-5.3,2.8-11,5.3-15.3,9.5c-7.5,7.3-9.6,18.7-8,29c2.5,15.9,12,43.5,31.1,26.3c28.8-26,55.6-57.5,62.8-96.7
						c0.6-3.2,1.5-7,4.6-7.9c4.5-1.4,7.5,4.6,8.4,9.2C20233.7,2106.8,20234.7,2114.3,20235.5,2121.8z"/>
					<path class="st1" d="M21361.8,2089.1c2.9,27.5,1.5,99.4,39.9,106.6c9.4,1.7,19-3,25.4-10c6.4-7,10.1-16.1,13.3-25
						c4.8-13.6,1.1-38.4-19-24.7c-6.2,4.2-11.6,10.8-19.1,11.6c-7,0.7-13.6-4.1-17.1-10.1c-3.5-6.1-4.5-13.2-5.5-20.1
						c-4.3-30.8-6.6-62.7-13.1-93.1c-3-14-12.4-47.4-26.2-19.1c-3.5,7.3-5.2,15.3-7.6,23.1c-9.1,29.4-30.4,54.9-57.6,69.1
						c-5.3,2.8-11,5.3-15.3,9.5c-7.5,7.3-9.6,18.7-8,29c2.5,15.9,12,43.5,31.1,26.3c28.8-26,55.6-57.5,62.8-96.7
						c0.6-3.2,1.5-7,4.6-7.9c4.5-1.4,7.5,4.6,8.4,9.2C21360.1,2074.1,21361,2081.6,21361.8,2089.1z"/>
					<path class="st1" d="M23308.6,2167c0.9,5.7,1,11.6,2.8,17c4.1,12.1,17.4,16.7,27.3,8.7c22.4-18.1,42.4-38.4,52.6-66.3
						c3.4-9.2,6.3-18.7,10.1-27.7c1.3-3,4.7-5,7.2-7.5c2.4,2.9,6.3,5.7,6.8,8.9c1.7,12.1,2.4,24.3,3.2,36.5
						c1.6,24.1,8.5,46.8,17.8,68.9c7.4,17.7,25.4,24.1,42.2,14.8c18.9-10.5,27.9-39.1,18.8-59.2c-3-6.7-9.4-7.9-14.8-2.4
						c-3.3,3.4-5.7,7.6-9,11.1c-10.6,11.3-23.6,10.2-31.1-3.1c-10.5-18.9-13-39.9-14.4-61c-1.8-26-3.1-52.1-5.3-78
						c-0.3-3.6-4.7-9.2-7.8-9.6c-3.4-0.5-9.4,3-11,6.4c-5.3,11.3-9.2,23.3-13.5,35.1c-8.4,22.9-21.4,42.5-41.2,57
						c-7.1,5.2-14.7,9.8-22.4,14.1C23312.4,2138.8,23307.8,2151.3,23308.6,2167z"/>
					<path class="st1" d="M20771.2,1704c0.7,5.8,2.5,11.7,4.4,17.2c1.6,4.5,3.6,9.3,7.8,11.5c5.4,2.8,12-0.1,17.1-3.4
						c24.7-15.8,41.4-41.7,52.6-68.8c4.6-11.2,8.6-24.3,18.1-32.4c12.6,12.4,10.6,37.2,11.8,53.5c1.7,22.5,4.8,48.4,19,66.7
						c3.7,4.8,8.4,9.1,14,11.3c12.9,5,27.9-2.1,36.4-12.9c7.1-9,21.4-50.6,0.2-53.6c-5-0.7-9.4,3.1-12.3,7.2
						c-2.9,4.1-5.2,8.8-9.4,11.6c-5.4,3.5-12.8,2.8-18.3-0.5c-5.5-3.3-9.5-8.7-12.5-14.4c-19.5-36.2-10.8-82.7-13.2-122.2
						c-0.3-4.6-0.7-9.3-3-13.2c-2.3-3.9-7.1-6.8-11.5-5.4c-3.9,1.2-6.2,5.2-8,8.8c-7.7,15.7-12.1,32.6-19.6,48.3
						c-8.4,17.4-21,32.9-37.1,43.6c-12.8,8.5-28.6,15-34.4,29.1C20770.7,1691.7,20770.4,1697.8,20771.2,1704z"/>
					<path class="st1" d="M20368,1521.7c-1.1,33.1,6.8,64.1,22.1,93.2c10,19,31.5,20.2,46.5,4.7c14.8-15.3,11.4-33.4,11.1-51
						c-0.1-7.6-8-9.9-14.6-4.9c-4,3.1-7.2,7.2-10.9,10.7c-13,12.2-25.8,10.1-31.6-6.7c-4.9-14.3-7.7-29.5-9.5-44.6
						c-3.3-28.4-4.8-57-7.9-85.4c-0.5-4.8-5.8-9.1-8.8-13.6c-4.7,3.3-11.5,5.6-13.6,10.1c-6.2,13.5-9.9,28.2-15.7,41.9
						c-9.7,22.9-24.3,41.8-47.7,52.2c-28.4,12.7-37.4,33.9-25.1,61.2c6.1,13.5,13.1,15.8,25.5,8.1c20.4-12.6,33.9-31.6,45.2-51.7
						c9-16.1,14.2-34.4,21.5-51.5c1.4-3.3,4.7-5.8,7.1-8.6c2.2,3.2,5.8,6.2,6.2,9.5C20368.6,1503.9,20368,1512.8,20368,1521.7z"/>
					<path class="st1" d="M22757.6,1846.9c1,32.9,6.6,64.8,21.6,94.4c10.2,20.2,36,19.8,51.6-0.2c10.8-13.9,12.8-28.9,6.6-45.2
						c-3.6-9.7-9.4-10.7-16.7-3.1c-3.1,3.2-6,6.5-9.3,9.4c-16.1,14-27.9,6-33-10.7c-5.3-17.4-7.2-35.9-9.2-54.1
						c-2.7-24.9-3.9-49.9-6-74.9c-0.5-6.1-2.1-13.9-9.8-12.9c-4.2,0.5-9.2,6.4-11.1,11c-11.9,28.4-20.8,58.7-44.8,80.1
						c-11.1,9.9-23.9,17.9-36.2,26.4c-15.2,10.5-18.2,36.9-7.2,53.6c4.9,7.5,17.1,9.1,25.6,1.4c13.5-12.2,27.8-24.8,37.5-39.9
						c10.8-16.8,16.8-36.8,25.2-55.2c1.4-3.1,4.4-5.4,6.7-8c2.5,2.8,6.4,5.3,7.1,8.5C22757.5,1833.9,22757.2,1840.5,22757.6,1846.9z
						"/>
					<path class="st1" d="M24999.7,1534.8c4.2,19.2,7.6,38.5,12.7,57.5c8,29.9,16.9,59.5,25.7,89.2c7.3,24.8,15,49.5,22.8,74.1
						c0.7,2.2,3.4,5.1,5.2,5.1c1.9-0.1,4.9-2.9,5.3-5c1-4.5,1.6-9.5,0.6-14c-4.1-18.2-8.9-36.3-13.5-54.5
						c-8.8-34.9-17.7-69.9-26.5-104.8c-5-19.6,9.6-54.6,27-64.6c7.6-4.4,14.6-2.1,18.6,4.7c6.1,10.2,10.8,21.1,16,31.8
						c1.2,2.4,1.1,5.8,2.8,7.6c2.5,2.6,6.2,4.1,9.3,6.1c1.6-3.1,5.1-6.4,4.6-9.2c-2.2-13.4-4.3-27-8.5-39.8
						c-4.7-14.5-11.6-28.2-17.5-42.3c-6.1-14.8-17.1-24.7-32.7-25.8c-16.1-1.1-26,10.7-33.6,23.1c-12.7,20.6-16.1,35.2-15.9,60.2
						C25001.3,1534.5,25000.5,1534.7,24999.7,1534.8z"/>
					<path class="st1" d="M23817.8,1997.6c-0.2-7-0.5-14-1.1-21.1c-0.9-11.4-4.3-75.6-21-74.1c-7.7,0.7-4.5,11-4,16.4
						c7.8,77.2-5.9,146.5-47.2,212.9c-8.7,13.9-18.3,27.7-22.7,43.5c-4.4,15.8-2.7,34.5,9.1,46c1.9,1.8,4.1,3.5,6.8,3.8
						c4.8,0.5,8.6-3.7,11.5-7.5c34.4-45.3,56-99.7,64.6-155.8C23816.9,2040.6,23818.3,2019.1,23817.8,1997.6z"/>
					<path class="st1" d="M26100.1,1119.8c-2.1-21.3-1.7-42.7-4.5-64c-0.6-4.9-1.4-9.9-3.8-14.2c-1.4-2.6-4-5.1-6.8-4.4
						c-1.6,0.4-2.7,1.7-3.7,3c-10.8,14.1-14.6,32.3-23,48c-8.2,15.4-20.6,28.2-34.8,38.3c-8,5.6-16.8,10.6-22.6,18.5
						c-6,8.1-8.2,18.9-5.9,28.8c2,8.5,8.7,16.8,17.5,16.9c5.1,0.1,9.9-2.7,14.1-5.7c8.9-6.4,16.8-14.3,23.1-23.2
						c13-18.3,17.3-42,33.6-58.1c2-2,4.3-3.9,6.6-5.5c0.2-0.2,0.5-0.3,0.8-0.2c0.1,0.1,0.2,0.2,0.3,0.4c1.9,4.8,3.2,10.6,2.5,15.7
						c-0.7,5.3-2.3,10.4-2.5,15.8c-0.6,13.2,1.7,26.4,5.4,39c2.5,8.5,5.4,16.8,8.3,25.1c4.7,13.6,14.6,24.1,30.1,21.1
						c7.2-1.4,13.7-5.7,18.5-11.4c7.7-9.1,11-21.8,8.7-33.5c-0.8-3.8-2.3-7.8-5.7-9.7c-5.5-3.1-12.2,1-16.8,5.4
						c-4.6,4.3-9.7,9.5-16,8.8c-5.8-0.7-9.6-6.1-12.2-11.3C26104.5,1149.7,26101.5,1134.8,26100.1,1119.8z"/>
					<path class="st1" d="M21490.7,2107.2c-0.4,15.9,2.5,30.6,9.8,45.3c6.9,14.1,10.5,29.9,15.6,45c1.1,3.2,1.5,7,3.5,9.4
						c2.9,3.3,7,5.6,10.6,8.3c1.3-3.5,1.9-7.5,3.9-10.5c4.5-6.5,9-13.1,14.7-18.4c10-9.1,21.4-16.7,31.3-25.9
						c10.2-9.6,15.1-22.4,13.1-36.2c-5.7-39.9-20.2-62.7-63-67.6c-20.1-2.3-34.7,8.6-38,28.3
						C21491.1,2092.2,21491.2,2099.7,21490.7,2107.2z M21535.7,2097.1c6.4,2.3,15.9,4.9,24.7,9.1c4,1.9,8.6,6.8,9,10.7
						c0.4,3.9-3.4,9.3-6.9,12.2c-8.9,7.3-18.7,13.5-28.1,20.2c-10.4,7.4-18.8,5.4-23.7-6.3c-2.2-5.2-3.7-11.1-4-16.7
						C21506.2,2111.6,21519.1,2097.4,21535.7,2097.1z"/>
					<path class="st1" d="M25856.4,1706.2c-0.7,24.9,8.4,47.1,18.3,69.2c5.1,11.4,8.4,23.7,13.1,35.3c1.3,3.3,4.7,5.8,7.1,8.7
						c2-3.1,5.3-6,5.8-9.3c1.6-10.8,9.6-15.9,17.1-21.8c8.6-6.7,17.6-12.9,25.6-20.2c20.6-18.7,19.5-42.9,10.7-65.1
						c-11.4-28.7-30.8-43.8-64.2-40.9c-21.1,1.8-33.3,14.3-33.5,35.8C25856.4,1700.8,25856.4,1703.5,25856.4,1706.2z
						 M25874.9,1732.3c0-20,10-31.7,26.8-30.6c8.9,0.6,18,3.8,26.3,7.5c11.2,5,11.6,16,1.7,23.4c-8.2,6.1-16.5,12-24.8,18
						c-14.5,10.6-24.9,6.7-28.9-10.9C25875.4,1736.6,25875.1,1733.5,25874.9,1732.3z"/>
					<path class="st1" d="M23197.9,1132.6c-2.6-2.8-6.3-9.7-12-12.4c-19.3-9-39.3-16.7-59.2-24.6c-24.6-9.7-49.4-19.2-74.1-28.7
						c-14.9-5.7-29.8-11.3-44.7-17.1c-14.2-5.5-28.4-11-42.5-16.7c-12.6-5.1-24.8-10.9-37.6-15.3c-3.7-1.3-10.6-0.2-12.6,2.4
						c-1.9,2.5-0.6,9,1.2,12.7c7.5,14.7,21.7,20.8,36.2,26.2c28.3,10.5,56.5,21.2,84.8,31.8c22.6,8.4,45.2,16.8,67.7,25.2
						c25.8,9.6,51.6,19,77.2,28.8C23191.8,1148.6,23198.3,1145.5,23197.9,1132.6z"/>
					<path class="st1" d="M23503.9,1785.9c-5.3-8.5-10.2-16.9-15.6-24.9c-6.4-9.6-13.5-18.7-19.9-28.3c-5-7.4-10.9-9-18.1-3.8
						c-18.5,13.2-37.1,26.3-55.3,40c-7,5.2-7.6,13.5-3.1,20.3c9.4,14.1,19.6,27.6,29.9,41.1c6.2,8.1,14.4,9,22.6,3.4
						c18-12.2,35.8-24.6,53.4-37.3C23500.5,1794.4,23501.5,1790.2,23503.9,1785.9z"/>
					<path class="st1" d="M25182.6,1019.6c-6.1,3.4-11.1,5.6-15.4,8.7c-14.6,10.5-29.1,21.2-43.4,32.2c-10.5,8.1-11.7,16.6-4.4,27.5
						c8,11.8,16,23.6,24.4,35.1c7.4,10.2,13.7,11.9,23.4,5.5c16.4-10.8,32.8-21.8,48.4-33.7c12.9-9.9,13.3-14.6,4.7-28.2
						c-7.9-12.3-15.9-24.5-24.6-36.2C25192.5,1026.2,25187.3,1023.4,25182.6,1019.6z"/>
					<path class="st1" d="M25436.1,1162.8c30.1,0.6,39.1-24.9,28.1-49.6c-14.7-32.9-39.9-55.7-72.2-70.3
						c-14.4-6.5-30.3-10.1-45.7-14.3c-10.8-3-21.8-5.5-32.8-7.1c-3.9-0.6-8.2,2.1-12.3,3.2c2,3.9,3,9.7,6.1,11.2
						c10.7,5.1,21.9,9.7,33.3,12.4c21.3,5.1,42.5,10.3,60.4,23.5c7.6,5.6,14.6,12.4,20.4,19.7c5.5,7,6.6,16.1,1.8,24.1
						c-4.9,8.1-13.3,6.9-21.2,5.4c-4.7-0.9-9.3-2.4-14-2.5c-6.9-0.1-10.8,5.9-6.6,10.9
						C25395.9,1146.7,25411.6,1162.2,25436.1,1162.8z"/>
					<path class="st1" d="M20186.8,1184c2.2-14.7-6.3-28.7-16.8-41.5c-27.4-33.2-63.4-51.5-105.5-58.6c-9.4-1.6-18.4-4.8-27.8-6.7
						c-5.5-1.1-13.3-3.1-14.3,4.6c-0.5,3.6,5.4,10.3,9.7,11.9c23.3,8.4,47.4,14.9,70.6,23.7c18,6.8,34,17.3,41.7,36.5
						c5.8,14.5-2.9,26-18.7,24.2c-5.1-0.6-10.1-2.1-15.1-2c-7.8,0.3-10,4.7-6.6,11.8c8.1,17.2,44.4,34.9,63,30.7
						C20180.2,1215.8,20186.7,1205.5,20186.8,1184z"/>
					<path class="st1" d="M21105,1085.1c-2.6,26.8,10,50.8,16.5,76c5.1,20,12.4,39.5,18.8,59.2c2.3,7.1,4.5,14.3,7.9,20.9
						c1.7,3.2,6,5,9.1,7.4c0.8-4,2.9-8.3,2.1-11.9c-3.1-13.6-7.5-26.9-10.9-40.4c-6.7-26-13.5-52-19.5-78.2
						c-3.9-16.9,3.6-30.7,15.3-42.2c6.5-6.4,15.2-5.4,20,2.4c4.1,6.6,6.9,14,10.9,20.8c1.3,2.3,4.3,3.6,6.6,5.3
						c1.8-2.6,3.7-5.1,5.5-7.7c0.3-0.5,0.3-1.4,0.1-2c-7.1-20-11.7-41.5-22.1-59.6c-11.2-19.4-35.3-16.4-48,2.2
						C21107.3,1051.9,21104.3,1067.8,21105,1085.1z"/>
					<path class="st1" d="M24772,1081c6.2,24.3,12.1,48.6,18.7,72.8c6,21.6,12.8,43,19.3,64.5c0.4,1.3,0.3,3,1.1,3.9
						c2.6,2.6,5.6,4.8,8.4,7.1c1.3-3.2,3.9-6.5,3.6-9.5c-0.7-7.1-2.3-14.1-4.3-21c-5.5-19.7-12.1-39-16.7-58.9
						c-3-12.8-3.5-26.2-4.6-39.4c-0.9-10.6,4.3-19.1,11.6-26.3c8.1-8,17-6.4,22.4,3.6c3.5,6.6,6.9,13.3,11.1,19.5
						c1.3,1.9,4.9,2.3,7.4,3.4c0.6-2.5,2.3-5.2,1.8-7.4c-5.3-19.2-8.1-39.1-20.1-56.3c-13.2-18.9-33.6-18.8-46.4,0.3
						c-9,13.4-10.3,27.7-10.4,42.8C24774,1080.5,24773,1080.7,24772,1081z"/>
					<path class="st1" d="M22267,1071.7c3.8,16.9,6,31.8,10.6,45.9c8.5,26.5,18.4,52.6,27.7,78.8c0.8,2.2,1.7,4.7,3.4,6.2
						c1.9,1.9,4.7,2.9,7.1,4.3c0.8-2.8,2.7-5.8,2.1-8.2c-3.3-13.5-7.2-26.9-11.1-40.3c-4.5-15.7-9.8-31.2-13.8-47
						c-4.1-16-0.3-30.4,11.7-42.2c7.8-7.6,13-7.5,19.4,1.1c3.8,5.1,5.9,11.4,9.4,16.8c1.8,2.8,4.8,4.8,7.3,7.1
						c1.7-3.3,4.4-6.5,4.9-10c0.5-3.5-0.5-7.6-1.8-11c-4.6-11.7-8.8-23.7-14.7-34.7c-5.8-10.7-14.9-18.1-28.3-15.8
						c-12.4,2.2-20.7,9.5-24.6,21.7C22273.2,1054.3,22269.8,1063.8,22267,1071.7z"/>
					<path class="st1" d="M23879,1278.6c-1.9,22.4,6.9,43.7,14.8,65.1c2.2,6,7.6,11.3,12.5,15.9c6,5.8,13.5,6.1,20.9,2.4
						c17.6-8.9,28-31.9,22.8-51.2c-0.9-3.2-3.6-7.7-6.2-8.2c-3.2-0.6-7.1,2.3-10.6,3.7c-0.6,0.2-0.9,1-1.3,1.5
						c-16.3,17.5-27.7,15.9-33.3-7c-5.3-22-6.5-45-9.5-67.5c-1.7-12.8-2.6-25.7-5.2-38.3c-0.9-4.2-5.3-10.1-8.9-10.7
						c-3.2-0.5-8.9,4.5-10.9,8.4c-6.1,12.4-10.8,25.5-16.4,38.2c-9.2,20.8-25.2,35.2-44.5,46.3c-19.6,11.2-26.1,32.4-15.6,52.4
						c4.2,8.1,11.8,11.7,18.5,6.4c13.2-10.4,26.6-21.4,36.5-34.7c9.8-13.1,15.2-29.4,22.8-44.2c1.6-3,4.4-5.5,6.6-8.2
						c2.3,3.4,6,6.5,6.7,10.2C23879.8,1265,23879,1271.3,23879,1278.6z"/>
				</g>
			</g>
			<g>
				<path class="st1" d="M754.8,217.2c-0.3,0.4-0.7,0.8-0.8,1.2c-2,5.1-3.5,10.4-6.6,15c-1.2,1.7-2.4,3.4-3.8,5
					c-0.6,0.6-1.5,0.9-2.4,1.2c-0.7,0.2-1.4,0.4-2.1,0.4c-0.8,0-1.6-0.1-2.4-0.2c-0.5-0.1-1.1-0.2-1.6-0.2
					c-3.9,0.1-7.7,0.3-11.6,0.4c-0.5,0-1-0.4-1.5-0.7c0.3-0.5,0.4-1.2,0.9-1.5c3.2-2.2,5.8-5,7.9-8.3c3.2-4.8,5.1-10.1,5.7-15.9
					c1-8.6-0.8-16.7-3.8-24.5c-6.6-17.2-17.6-31-29.5-44.2c-12-13.3-25.1-25.2-38.8-36.3c-2.6-2.1-5.1-4.2-7.6-6.4
					c-1.1-1-2.1-1.1-3.3-0.1c-9.2,7.8-18.5,15.6-27.6,23.5c-3.9,3.4-7.6,7.2-11.4,10.8c-1.2,1.2-1.2,1.9,0.1,3.2
					c9.2,8.6,17.9,17.8,25.7,27.9c6.4,8.3,11.9,17.2,15.7,27.2c3.5,9.3,4.9,18.9,2,28.8c-1.7,5.8-4.7,10.9-8.7,15.3
					c-0.6,0.6-1.7,0.9-2.6,0.9c-4.2,0.1-8.5,0-12.7,0c-1.2,0-2.4,0.3-3.6,0.3c-0.6,0-1.3-0.4-1.9-0.6c0.3-0.6,0.6-1.3,1-1.8
					c2.3-2.5,5-4.7,7.1-7.4c3.8-5,5.8-11,6.2-17.5c0.7-9-1.2-17.5-4.6-25.7c-5.5-13.3-13.6-24.7-22.7-35.3c-5-5.9-10.4-11.4-15.7-17
					c-1.1-1.2-2.2-0.9-3.4-0.2c-4.6,2.7-9,5.9-14.1,7.6c-2.2,0.7-4.5,1.2-6.7,1.7c-5.7,1.4-11.4,2.7-17.1,4.1
					c-2.7,0.7-5.3,1.5-8,2.2c-0.4,0.1-1-0.1-1.5-0.2c0.2-0.5,0.4-1.2,0.7-1.4c1.7-0.9,3.5-1.6,5.2-2.4c4.8-2.1,9.5-4.3,14.3-6.4
					c4.1-1.8,8.3-3.6,12.4-5.5c3.4-1.6,6.7-3.4,10-5.2c0.9-0.5,0.8-1.5-0.3-2.5c-3.3-2.9-6.6-5.8-9.9-8.7
					c-6.2-5.2-12.4-10.4-18.6-15.6c-1.2-1-2.2-0.8-3.2,0.1c-7.5,6.3-15.2,12.4-22.6,18.9c-10.6,9.2-20.6,19.2-29.7,30
					c-6.8,8-13.2,16.5-18.4,25.9c-4.5,8.1-8.1,16.6-9.1,26.1c-1.4,13.3,3.6,23.6,13.2,31.8c1.3,1.1,2.7,1.9,4,2.9
					c0.3,0.3,0.4,0.9,0.6,1.3c-0.4,0.1-0.8,0.4-1.2,0.4c-5.8,0.1-11.7,0.2-17.5,0.2c-0.9,0-2-0.4-2.7-1.1
					c-7-6.9-10.9-15.6-12.4-25.5c-0.5-3.5,0.5-6.8,1.2-10.2c1.5-7.3,4.1-14.2,7.9-20.5c3.6-6,7.5-11.8,11.6-17.2
					c9.1-12,19.7-22.6,31-32.2c8.7-7.5,17.6-14.6,26.6-21.7c5-3.9,10.4-7.4,15.6-11c1.9-1.3,2.1-2.2,0.5-3.9c-1.1-1.2-1.2-3.5,0-4.9
					c1.2-1.4,1.8-2.7,0.6-4.4c-0.2-0.3,0-1.1,0.1-1.6c0.4-1.5,0.9-2.9,1.3-4.3c0.1-0.5,0-1.1,0.2-1.6c0.2-0.4,0.6-0.9,0.9-0.9
					c0.3,0,0.9,0.4,1,0.8c0.3,0.9,0.2,1.9,0.5,2.8c0.3,1,0.6,2,1.1,2.9c0.5,0.9,0.8,1.6,0,2.4c-0.9,1.1-0.6,2.2,0.2,3.1
					c2.1,2.4,2.2,4,0.1,6.3c-1,1.1-0.8,2.3,0.6,3.2c10.5,6.8,20.4,14.5,30.3,22.4c0.7,0.6,1.4,1.2,2.1,1.8c1,0.9,2.1,0.9,3.2,0.1
					c4.6-3.4,9.2-6.8,13.7-10.3c1.2-0.9,2.2-2.1,3.2-3.2c2-2.2,1.3-4.7-1.5-5.6c-2.2-0.7-4.5-1-6.8-0.8c-3.5,0.3-6.3-1.2-8.5-4
					c-0.3-0.4-0.6-0.8-0.7-1.2c-0.3-3.8-0.2-7.5,2.1-10.7c1.7-2.3,3.3-4.5,5.9-5.8c1.2-0.6,2.1-0.6,3.3,0c4.1,2.2,6.3,6,8.1,10.2
					c2.3,5.2,2.6,10.7,1.5,16.2c-0.5,2.6-1.5,5.2-2.9,7.3c-2.9,4.5-6.5,8.3-11,11.1c-3,1.8-3,2.2-0.5,4.6c1.6,1.5,2.1,1.4,3.7,0
					c4.5-3.9,8.9-7.8,13.5-11.4c6.2-4.9,12.5-9.7,18.9-14.5c2.8-2.1,5.6-4,8.5-5.8c2-1.3,2.2-2.1,0.7-3.9c-1.5-1.8-1.5-3.4-0.1-5.4
					c1-1.3,1.8-2.6,0.4-4.2c-0.2-0.3-0.2-1.3,0.1-1.6c1.2-1.2,1.2-2.8,1.3-4.3c0.1-1-0.1-2.5,1.3-2.5c1.3,0,1.3,1.4,1.4,2.5
					c0.1,1.6,0,3.3,1.4,4.6c0.2,0.2,0.1,1.3-0.2,1.7c-1,1.3-0.7,2.3,0.2,3.4c2.1,2.4,2.1,3.6,0.1,6c-1,1.2-0.6,2.4,1,3.5
					c1.5,1,3.1,2,4.6,3.1c7.6,5.6,15.1,11.2,22.6,16.9c11.5,8.8,22.3,18.4,32.5,28.9c9.8,10.1,18.8,20.8,25.9,33.3
					c2.9,5.1,5.4,10.4,7,16.2c0.8,3,1.8,5.9,2.8,8.8c0.1,0.3,0.5,0.5,0.7,0.7C754.8,210.9,754.8,214.1,754.8,217.2z M607.3,90.4
					c-0.5,0.1-1,0-1.3,0.2c-0.9,0.8-2.1,1.6-2.4,2.6c-0.4,1.4,0.9,2.1,2,2.3c1.9,0.4,3.9,0.5,5.8,0.5c1.1,0,1.6-1.4,0.9-2.3
					C611.1,91.9,609.4,90.7,607.3,90.4z M564.1,93.6c0-1.6-1.1-3-2.3-3.1c-1.6,0-2.6,1.2-2.7,3c0,1.9,1,3.3,2.4,3.3
					C562.8,96.8,564,95.3,564.1,93.6z M654.4,96.9c1.9,0,2.3-0.6,2.7-2.5c0.3-1.6-0.4-3.8-1.4-3.8c-0.8,0-1.9,0.2-2.4,0.8
					c-1.1,1.2-1.1,2.7-0.2,4.1C653.4,96.2,654.1,96.7,654.4,96.9z M654.2,87.9c1.2-0.3,2.1-0.4,2-1.7c0-0.9-0.4-1.5-1.3-1.6
					c-1.2-0.1-1.7,0.7-1.7,1.7C653.3,86.9,653.9,87.4,654.2,87.9z M563.4,86.3c-1-0.8-1.6-1.6-2.1-1.5c-0.5,0-1.1,1-1.2,1.6
					c-0.2,1,0.6,1.5,1.4,1.3C562,87.6,562.4,87,563.4,86.3z"/>
			</g>
			<g>
				<path class="st1" d="M324.8,194.2c-1.6-0.5-3.3-0.3-4.9-0.9c-1.6-0.6-2.9-2.6-2-4c0.4-0.6,1-0.9,1.6-1.2
					c5.7-2.9,11.6-5.5,17.6-7.8c0.5-0.2,1.1-0.3,1.5,0c0.3,0.3,0.3,0.9,0.2,1.4c-0.4,2.3-1.5,4.4-1.7,6.7c-0.2,2.3,0.9,5,3,5.4
					c1.6,0.3,3.1-0.9,4.1-2.3c0.8-1.1,1.2-3.2-0.1-3.6c-1-0.3-2.2,0.8-3.1,0.2c-0.5-0.3-0.6-1-0.6-1.6c0-5.3,3.8-9.6,7-13.7
					c3.2-4,6.3-9.4,4.5-14.4c-1-2.6-3.1-4.6-5.5-5.9c-0.9-0.5-1.9-0.9-2.9-0.8c-1,0.1-1.8,0.6-2.6,1.2c-5.3,3.6-9.9,8.4-13.5,13.9
					c-0.7,1.1-2.3,2.4-3.1,1.3c-0.4-0.5-0.3-1.2-0.2-1.8c0.8-5.5,0.4-11.2-1.2-16.6c-1-3.4-2.4-6.9-1.8-10.4
					c0.4-1.9,1.4-3.7,1.9-5.6c0.9-3.2,0.3-6.9-1.6-9.5c-1.8-2.6-4.8-4.6-5-7.9c-0.1-0.9,0-2-0.7-2.6c-1.1-0.8-2.3,0.7-2.8,2
					c-2,5.8-2,12.4,0.1,18.2c0.6,1.8,1.4,3.8,0.5,5.4c-0.4,0.8-1.2,1.3-1.9,1.7c-2,1.3-4.1,2.6-6.1,3.9c-1,0.6-2.1,2.1-1.2,2.9
					c0.4,0.4,1.1,0.3,1.6,0.1c1.9-0.5,3.6-1.3,5.3-2.3c1-0.6,2.1-1.3,3.1-0.8c0.8,0.4,1.1,1.3,1.5,2.1c1.5,4,2.7,8.1,3.6,12.3
					c1.2,5,1.9,10.3,0.4,15.2c-1.7,5.5-6.1,9.9-7.2,15.6c-0.2,0.8-0.3,1.8-1,2.2c-0.9,0.6-2.1-0.3-2.8-1.2
					c-2.8-3.5-3.8-8.2-4.8-12.7c-1-4.7-2.1-9.4-3.1-14.1c-0.2-0.9-0.4-1.8-1-2.5c-0.6-0.7-1.6-1-2.3-0.5c-0.4,0.3-0.6,0.9-0.7,1.4
					c-0.8,3-0.3,6.2-0.3,9.3c0,3.1-0.8,6.6-3.3,8.2c-1.9,1.2-4.4,1-6.4,0.1c-2-1-3.7-2.7-5.2-4.4c-0.8-0.9-1.7-1.8-2.8-1.6
					c-1.1,0.2-1.7,1.4-1.9,2.5c-0.7,3.7,1.3,7.4,3.7,10.2c1.1,1.3,2.3,2.6,3,4.2c0.9,1.9,0.7,3.8-0.7,5.2c-1.6,1.5-2.9,3.4-4.5,4.9
					c-3.1,3-6.6,5.5-10.4,7.5c-2.7,1.4-5.4,2.9-8.2,4.3c-2.2,1.1-4.5,2.3-6.8,3.3c-2.6,1-5.3,1.9-7.9,2.7c-3.1,1-6.2,2.1-9.4,2.8
					c-5.2,1.1-10.4,2-15.6,2.6c-3.6,0.4-7.2,0.3-10.9,0.4c-8.5,0.2-16.9-0.4-25.3-1.4c-6.5-0.8-12.9-2-19.3-3.7
					c-2.4-0.7-4.7-1.6-7.1-2.3c-2.1-0.6-4.3-1.3-6.2-2.4c-0.1-0.1-0.2-0.1-0.3-0.1c-0.9-0.5-1.9-0.9-2.8-1.4
					c-1.4-0.8-2.7-1.7-4.1-2.5c-0.6-0.3-1.2-0.6-1.7,0.1c-0.5,0.6-0.3,1.3,0.1,1.9c0.6,0.7,1.2,1.5,1.9,2c2.9,2,5.1,3.9,7.3,6.7
					c2,2.4,4.3,4.4,7,5.8c4.8,2.6,10.5,3.2,15.6,4.8c4.6,1.4,9.2,2.9,13.9,4c0.7,0.2,1.5,0.3,2.2,0.5c7,1.3,14.3,1.4,21.4,0.7
					c4.7-0.4,9.4-1.2,14-2.2c2.1-0.4,4.4-0.7,6.4-1.6c1.9-0.8,3.6-1.7,5.6-2.2c4-1,7.9-2.6,11.8-4.1c2.1-0.8,4.3-1.7,6.4-2.5
					c0.1,0,0.1-0.1,0.2-0.1c2.2-1.1,4.3-2.1,6.5-3.2c1.9-1,3.8-1.9,5.6-3.1c2.5-1.7,5-3.5,7.4-5.4c1.8-1.4,3.5-3.1,5-4.9
					c3.7-4.3,6.3-9.1,7.7-14.8c0.3-1.1,0.9-1.7,2-1.9c3.9-0.4,7.1-4.1,7.9-8c0.2-0.9,0.4-2.1,1.3-2.3c1.1-0.3,1.8,1.3,2,2.6
					c0.9,6.5,2.1,13.5,6.6,17.9c2.3,2.2,5.3,3.6,8.3,4.4c2.1,0.6,4.2,0.9,6.3,0.5c2.1-0.4,4.1-1.7,5.1-3.7
					C329.5,199.6,327.9,195.3,324.8,194.2z M328.6,172.7c0.2-0.5,0.6-1,1-1.4c1.8-2,3.7-4,5.7-5.8c1.7-1.5,3.6-3.1,5.8-3.4
					c1.5-0.2,4.1,1.1,4.7,2.6c0.1,0.3,0.2,0.7,0.2,0.9c0.5,1.9-2.7,2.9-3.8,3.4c-3.5,1.7-7.3,2.7-10.6,4.8c-0.5,0.3-1.1,0.7-1.7,0.8
					C328.8,174.8,328.1,173.9,328.6,172.7z"/>
				<path class="st1" d="M162.3,199.1c1-0.4,2-0.8,2.9-1.2c0.6-0.2,1.2-0.4,1.8-0.7c2.3-1.1,4.7-2.3,7-3.5c1-0.5,2-1.2,3-1.9
					c1.5-1.1,2.6-0.9,3.6,0.6c0.3,0.4,0.6,0.9,0.8,1.4c1.1,1.8,2.6,3.2,4.5,4c3,1.2,6.1,1,9-0.4c2.4-1.1,4.6-2.8,6.7-4.4
					c3-2.3,5.9-4.9,8.9-7.3c1.3-1.1,2.6-0.9,3.8,0.3c0.7,0.7,1.5,1.3,2.2,2c1.4,1.4,2.8,2.8,4.2,4.2c0.9,1,1,2.2,0.2,3.2
					c-1.6,2.1-2.1,4.8-2.5,7.3c-0.4,2.5-0.3,5.2-0.4,7.7c-0.1,2,0.4,3.9,1.5,5.5c1.1,1.7,2.8,2.7,4.9,1.5c1.9-1.1,3.4-2.7,4.6-4.5
					c1-1.4,1.5-3,0.9-4.8c-0.5-1.6-1.7-1.8-2.7-0.6c-0.4,0.5-0.8,1.1-1.2,1.7c-0.8,1-1.7,1-2.6,0.1c-0.9-0.9-1.4-2.1-1.4-3.4
					c-0.1-2.9,0.4-5.7,1.2-8.5c0.6-1.9,1.7-2.7,3.5-1.7c2.1,1.2,4.3,1.8,6.8,1.3c4.3-1,7.9-3.3,10.8-6.8c2.9-3.5,5-7.5,6-12.2
					c0.6-3.2,0.7-6.4,0.1-9.5c-0.8-3.9-1.8-7.7-2.6-11.6c-1.1-5.3-2.2-10.7-3.2-16c-0.3-1.3-0.3-2.5,0.1-3.7c0.5-1.4,1-2.8,1.7-4
					c2.2-3.8,1.9-7.5-0.6-11c-1.1-1.6-2.4-3.1-3.8-4.5c-1.4-1.5-2.4-3.2-2.4-5.4c0-0.3-0.1-0.7-0.2-1c-0.4-1.2-1.6-1.6-2.5-0.7
					c-0.4,0.3-0.7,0.8-1,1.2c-1.6,3.2-2.4,6.5-1.6,10.1c0.9,4.4,1.9,8.8,2.9,13.2c0.4,1.9,0.1,2.9-1.5,3.8c-1.5,0.9-2.9,1.8-4.5,2.6
					c-2.4,1.3-5,2.4-7.4,3.6c-0.8,0.4-1.6,1-2.2,1.7c-0.3,0.3-0.5,1.1-0.3,1.5c0.3,0.4,0.9,0.8,1.4,0.8c0.8,0,1.6-0.3,2.4-0.5
					c1.2-0.4,2.4-0.9,3.7-1.3c0.8-0.3,1.6-0.6,2.4-0.9c1.6-0.7,3.1-1.5,4.7-2.1c1.4-0.6,2.3,0,2.8,1.5c0.1,0.3,0.1,0.7,0.2,1
					c2,8.7,4.1,17.3,6.2,26c0.4,1.8,0.9,3.6,0.5,5.4c-0.4,1.9-1.6,3.5-3.1,4.8c-3,2.6-6.9,3.8-10.7,3.4c-3.2-0.4-9.4-2.8-10.4-6.6
					c-0.6-2.4,1.9-2.6,3.5-3.5c1.9-1.1,3.6-2.5,5-4.3c1.8-2.2,3-5.6,1.3-7.9c-0.7-1-1.8-1.5-2.9-2c-4.2-1.8-8.7-2.6-13.2-2.6
					c-3.3,0-6.6,0.3-9.8,0.9c-2.3,0.4-4.6,1-6.6,2.3c-2.8,1.8-5.3,6.1-4.5,9.6c0.2,1.1,1.1,1.7,2.2,1.3c0.5-0.2,0.9-0.4,1.4-0.7
					c2.2-1.5,4-1,5.8,1.1c0.8,0.9,1.7,1.8,2.5,2.6c1.4,1.3,1.5,2.4,0,3.6c-2,1.6-3.9,3.3-6.1,4.5c-3.2,1.8-6.3,3.2-10.1,2.8
					c-2.3-0.3-5.6-1.8-4.8-4.8c0.1-0.5,0.2-0.9,0.3-1.4c0-1.2-0.6-2-1.8-1.9c-0.6,0.1-1.2,0.4-1.8,0.7c-0.5,0.2-0.9,0.6-1.4,0.9
					c-7.8,4.3-15.5,8.2-23.9,10.7c-0.5,0.2-1.2,0.3-1.6-0.1c-0.8-0.6-0.2-2,0.4-2.8c2.2-2.9,4.3-6.2,4.2-9.9
					c-0.1-2.8-1.5-5.4-3.3-7.3c-1.7-1.8-4-3.1-6.3-3.5c-4-0.7-8.1,1.2-11.1,4c-4.2,3.9-6.7,9.4-10,14.1c-2.3,3.2-4.7,7.1-8.4,8.5
					c-1,0.4-2.1,0.5-3.2,0.7c-5,0.5-10,0.5-15-0.3c-1.2-0.2-2.8-0.1-3.2,1.1c-0.3,0.8,0.2,1.7,0.9,2.2c0.7,0.5,1.5,0.6,2.3,0.9
					c3.8,1.3,6.4,5.5,10.4,6.5c1.7,0.4,3.4,0.2,5.2,0.1c7.5-0.7,15-0.6,22.5-1.3c7.2-0.7,14.1-2.8,21-4.9
					C161.4,199.5,161.9,199.3,162.3,199.1z M214.3,169.3c1.2,0,2,0.8,2,1.8c0,1.1-1,2-2.2,1.9c-1.2,0-2.1-0.8-2.1-1.8
					C212.1,170.1,213.1,169.3,214.3,169.3z M151.1,184.8c-2.2,1.5-4.3,3.1-6.7,4.3c-2.3,1.1-4.8,1.7-7.2,2.5c-1.8,0.6-3.6,1.3-5.4,2
					c-0.6,0.2-1.2,0.4-1.7,0.4c-0.9,0-1.4-0.6-1.3-1.5c0.1-0.4,0.2-0.9,0.4-1.2c1.9-2.6,3.8-5.3,5.9-7.7c1.4-1.5,3.1-2.8,4.8-3.8
					c1.5-0.9,3.2-1.3,4.3-1.7c2.4,0.2,4.1,0.7,5.4,2.1c0.5,0.6,1.2,1,1.7,1.6C152.3,182.8,152.2,184.1,151.1,184.8z"/>
				<path class="st1" d="M406.9,194.9c-1.3,3-1.9,6.2-2.2,9.4c-0.3,3.2,1,5.8,3.5,7c0.7,0.3,1.6,0.4,2.3,0.1c2.3-0.7,4.2-2.1,5.7-4
					c1.2-1.5,1.8-3.3,1.9-5.3c0-0.9-0.3-1.7-1.1-2c-0.8-0.3-1.4,0.1-2,0.7c-0.5,0.5-1,1.1-1.5,1.6c-0.9,0.9-2,0.8-2.8-0.2
					c-1-1.3-1.2-2.9-0.8-4.5c0.5-1.9,1.1-3.8,1.7-5.7c0.3-1.1,0.8-2.2,1.2-3.2c0.7-1.6,1.8-1.9,2.9-0.8c1.7,1.9,3.7,3.3,6.2,4.1
					c2.3,0.7,4.9-0.1,6.4-2c3.8-4.9,4.8-11.4,4.4-17.5c-0.4-5.4-1.9-10.6-3.3-15.8c-0.5-1.9-1-3.8-0.6-5.7c0.5-2,1.9-3.5,2.8-5.3
					c0.7-1.4,1-3,1-4.5c0-1.9-0.5-3.7-1.4-5.3c-2.3-3.8-6.9-6-7.7-10.4c-0.1-0.8-0.1-1.7-0.4-2.5c-0.3-0.8-0.9-1.5-1.7-1.5
					c-0.8,0.1-1.3,0.8-1.7,1.5c-1.9,3.8-2.3,8.3-1.8,12.6c0.5,4.3,1.7,8.5,2.7,12.7c0.2,0.9,0.4,1.8,0.1,2.7c-0.4,1.2-1.5,2-2.5,2.7
					c-1.9,1.2-3.8,2.4-5.8,3.6c-0.6,0.4-1.2,0.7-1.5,1.3c-0.4,0.6-0.4,1.5,0,1.9c0.6,0.6,1.6,0.3,2.4,0c2.3-1,4.6-2.1,6.8-3.1
					c0.5-0.2,1.1-0.5,1.6-0.3c0.9,0.2,1.3,1.3,1.6,2.2c1.6,5.1,2.8,10.3,3.7,15.6c0.1,0.8,0.3,1.7,0.1,2.5c-0.4,1.6-2,2.7-3.6,2.8
					s-3.1-0.5-4.6-1.1c-8.8-4.2-15.8-11.5-24.2-16.5c-9-5.4-18.9-8.8-27.7-15c-1.6-1.1-1.6-2.5,0-3.6c0.7-0.5,1.5-1.1,2.2-1.6
					c11.8-8.6,24.7-15.6,38.2-20.8c0.4-0.2,0.8-0.5,1.2-0.8c0.8-0.4,3.1-1.4,3,0.6c0,0.9-0.8,1.6-1.4,2.2c-5,4.5-9.5,9.4-13.6,14.8
					c-0.3,0.4-0.6,0.8-0.7,1.3c-0.1,0.5,0.2,1.1,0.7,1.1c0.3,0,0.6-0.2,0.9-0.3c6.5-4.6,13.1-9.3,17.9-15.8
					c2.5-3.4,4.6-7.8,3.4-11.9c-0.3-0.9-0.7-1.9-1.5-2.5c-1.2-1-3-0.9-4.5-0.7c-6.4,1.1-12.2,4.1-18,7.2
					c-10.3,5.6-20.9,11.2-30.4,18.3c-1.5,1.1-3.2,2.6-3.3,4.6c0,1.2,0.4,2.7-0.6,3.2c-0.6,0.3-1.4,0-1.8-0.6c-0.4-0.6-0.5-1.3-0.6-2
					c-1.3-7.9-3.9-15.5-6.5-23c-0.2-0.6-0.5-1.3-1.1-1.4c-0.6-0.1-1,0.5-1.3,1c-1,1.5-1.9,3-1.9,4.8c0,1.9,0.9,3.5,1.7,5.2
					c4.2,8.3,5.4,17.3,6.7,26.5c1.4,9.7,3.2,19.4,5,29c0.7,4,1.5,8,3.5,11.5c0.8,1.4,3.2,3.8,3.2,5.5c0,1.4-1.7,3.6-2.3,5
					c-0.3,0.7-0.4,1.5-0.7,2.3c-1,3-1,6-1,9.1c0,2.5,2.6,4.2,4.9,3.7c2.1-0.5,3.4-2.1,4.5-3.7c0.8-1.1,1.3-2.4,1.8-3.7
					c0.3-0.8,0.1-1.7-0.6-2.1c-0.5-0.3-1.3-0.2-1.8,0c-0.5,0.2-0.9,0.6-1.4,1c-1.4,1.1-2.9,0.4-3.2-1.4c-0.1-0.7-0.1-1.5,0.1-2.2
					c0.5-1.9,1-3.8,1.6-5.6c0.6-1.7,1.5-2.1,3.2-1.6c0.7,0.2,1.4,0.5,2.1,0.5c5.8,0.2,11.3-0.9,16.2-4.4c4.2-3,6.5-7.3,7.9-12.2
					c0.3-1.2,0.3-2.5,0.4-3.7c0.2-1.9,1.3-2.5,2.8-1.5c0.2,0.1,0.3,0.2,0.4,0.3c1,0.7,2.1,1.4,3.1,2.1c1.2,0.8,2.3,1.6,3.4,2.5
					c1.1,0.9,1.4,1.9,1,2.9C409.1,189.5,408.1,192.2,406.9,194.9z M427.2,144.6c-0.7-0.1-1.1-0.6-1.2-1.2c-0.1-1-0.2-2.1,0-3.1
					c0.1-1.1,0.9-1.7,1.6-1.6c0.7,0,1.4,0.7,1.6,1.7c0.1,0.3,0.1,0.6,0.1,1.2c-0.2,0.6-0.3,1.4-0.6,2.1
					C428.4,144.3,427.9,144.7,427.2,144.6z M394,183.2c-3,5-9.8,6.7-14.9,7.4c-1.2,0.2-2.4,0.3-3.5,0.2c-1.4-0.1-2.7-0.3-3.9-1
					c-2.3-1.3-3.6-3.9-4.7-6.4c-3.2-8.1-4.2-17-5.4-25.7c-0.1-0.8-0.2-1.7,0.6-2.2c0.8-0.5,1.5-0.2,2.2,0.3c1.2,0.9,2.3,1.8,3.5,2.7
					c1.5,1.1,3.1,2.2,4.7,3.2c2.6,1.7,5.2,3.2,7.7,4.9c3.6,2.5,7.2,5,10.1,8.4c1.4,1.5,2.5,3.2,3.7,4.9
					C394.7,181,394.7,182,394,183.2z"/>
				<path class="st1" d="M160.2,143.1c-2.5,2.2-3.9,5.2-4.9,8.4c-0.1,0.3-0.1,0.7-0.1,1c0.1,0.9,0.6,1.6,1.5,1.4
					c0.7-0.2,1.5-0.6,2.1-1c1.6-1.1,3.2-2.3,4.8-3.4c1.8-1.2,3.7-2.4,5.6-3.5c0.2-0.1,0.4-0.4,0.7-0.5c0.5-0.1,1.2-0.2,1.5,0
					c0.3,0.3,0.5,1,0.5,1.5c0,0.6-0.4,1.1-0.7,1.6c-0.3,0.7-0.7,1.3-0.9,2.1c-0.9,3.7-1.9,7.3-2.1,11.2c-0.2,3.5,0,6.9,2.2,9.8
					c0.8,1.1,1.9,2,3.2,1.7c1.3-0.3,2.6-0.8,3.7-1.6c2.9-2.2,4.1-5.6,5.2-9c0.1-0.5,0.1-1,0-1.5c-0.1-0.9-0.5-1.5-1.3-1.8
					c-0.8-0.3-1.3,0.2-1.7,0.9c-0.2,0.3-0.4,0.6-0.6,0.8c-1.9,2.2-4.4,1.7-5.6-1.1c-0.9-2.1-0.7-4.2-0.1-6.3
					c0.9-3.1,1.8-6.2,2.7-9.4c0.4-1.5,1.2-2.6,2.5-3.2c1.5-0.8,3.1-1.4,4.6-2.1c1.4-0.6,2.7-1.2,4.1-1.7c0.6-0.2,1.2-0.5,1.8-0.7
					c0.8-0.3,1.5-0.7,2.3-1.1c0.6-0.3,1.2-0.6,1.9-0.9c2.4-0.9,4.8-1.9,7.1-2.8c0.3-0.1,0.5-0.3,0.7-0.4c0.7-0.4,1.5-0.7,2.2-1.1
					c2.3-1,4.6-1.9,6.9-2.9c2.6-1.1,5.3-2.2,7.9-3.4c0.7-0.3,1.4-0.4,2-0.8c2.1-1.3,4-3.1,5.4-5.3c0.5-0.8,0.8-1.7,0.9-2.6
					c0.3-1.9-1.2-3.2-2.9-2.5c-0.8,0.3-1.6,0.8-2.4,1.1c-2.4,1.1-4.8,2.2-7.1,3.3c-0.1,0-0.1,0-0.2,0c-1,0.4-2,0.8-2.9,1.2
					c-0.8,0.4-1.5,0.8-2.3,1.2c-1.8,0.8-3,0-3.1-2c0-0.6,0-1.2,0-1.8c0,0,0,0,0,0c0-0.4,0-0.8,0-1.2c0.1-1.2,0.1-2.4,0.3-3.6
					c0.3-1.8,1.4-2.2,2.8-1.1c0.2,0.2,0.4,0.4,0.6,0.5c0.7,0.5,1.6,0.4,2.2-0.2c1.3-1.3,1.9-4.4,1.2-6.1c-0.3-0.6-0.5-1.3-0.9-1.9
					c-1.9-2.7-5-3.7-7.5-0.7c-1,1.3-1.7,2.8-1.8,4.5c-0.3,3.4-0.6,6.8-0.2,10.2c0.1,0.9,0.1,1.7,0,2.6c0,0.7-0.1,1.4-0.9,1.6
					c-0.8,0.2-1.2-0.4-1.5-1.1c-0.4-0.8-0.7-1.7-0.9-2.6c-0.9-3.5-2.7-6.3-5.1-8.7c-1.7-1.6-3.6-2.9-5.8-3.6
					c-2.1-0.7-3.4,0.3-3.6,2.6c0,0.2,0,0.3,0,0.5c-0.1,1.7-0.1,3.4-0.2,5.1c-0.1,2.9,2.1,5,4.8,4.6c0.6-0.1,1.1-0.2,1.7-0.4
					c1.6-0.3,2.6,0.1,3.5,1.6c0.4,0.6,0.8,1.3,1.2,1.9c1.7,2.2,1.2,4.2-1.3,5.2c-1.2,0.5-2.4,1.1-3.6,1.6c-0.4,0.2-0.8,0.4-1.3,0.5
					c-2.4,1-4.8,1.9-7.2,2.9c-0.7,0.3-1.4,0.8-2.2,1.2c-2.3,1-4.6,2-6.8,3.1c-2,1-4,2.3-6,3.3C164.3,139.8,162.2,141.3,160.2,143.1z
					"/>
				<path class="st1" d="M451.7,165.9c-0.7-6.1-1.6-12.2-2.4-18.2c-0.7-5-1.5-10-2.4-14.9c-0.8-4.4-2-8.8-2.8-13.2
					c-0.6-2.9-0.9-5.8-1.3-8.7c-0.2-1.6-0.2-3.2-0.4-4.8c-0.1-0.8-0.3-1.6-0.4-2.7c-0.5,0-1.2-0.1-1.8-0.1c-0.5,0-0.7,0.3-0.7,0.9
					c0,0.6-0.1,1.2-0.5,1.6c-1.6,2.1-2.3,4.5-2.8,7.1c-0.9,3.3-0.3,5.9,0.6,9c0.9,3.4,1.4,7.1,2,10.6c1.3,7.2,2.6,14.4,3.8,21.7
					c1.6,10.1,4.5,21.3,4.1,31.6c-0.2,3.9-1.2,7.6-3.2,10.8c-8.1,13-23.1,19.4-35.8,25.9c-1,0.5-2.1,1.3-1.8,2.4
					c0.2,1,1.4,1.2,2.3,1c1.5-0.4,3-1.2,4.5-1.7c0.7-0.3,1.3-0.6,2-0.8c0.9-0.2,1.8-0.3,2.7-0.6c4.3-1.3,8.5-2.6,12.7-4.1
					c2.3-0.8,4.4-2.1,6.3-3.7c3.2-2.6,5.8-5.7,7.9-9.4c1.2-2.2,2.3-4.4,3.4-6.6c1.4-2.8,2.5-5.8,3.2-8.9
					C452.5,182.1,452.6,174,451.7,165.9z"/>
				<path class="st1" d="M260.9,119.4c0.9,5.6,1.7,11.2,2.7,16.8c1.5,8.2,2.9,16.5,3.8,24.8c0.6,5.4,1.4,10.8,1.3,16.3
					c0,1.4-0.3,2.8-0.3,4.2c0,0.5,0.3,1.1,0.6,1.3c0.4,0.2,1,0,1.4-0.1c0.3-0.1,0.6-0.4,0.7-0.7c0.6-1.2,1.4-2.4,1.7-3.7
					c0.6-3,1-6,1.5-8.8c-0.6-5.9-1.1-11.5-1.7-17.1c-0.8-7-1.7-14.1-2.6-21.1c-0.7-5.7-1.5-11.5-2.4-17.2c-0.3-2.1-0.9-4.2-1.6-6.2
					c-0.5-1.5-2.3-1.7-3-0.2c-1.7,3.2-3.3,6.4-2.2,10.3C260.8,118.5,260.8,118.9,260.9,119.4z"/>
				<path class="st1" d="M122,150.4c1.2,11.9,1.7,23.9,0.8,35.9c0,0.5-0.1,1.1,0.2,1.5c0.4,0.5,1.3,0.5,1.8,0.1
					c0.5-0.4,0.8-1.1,1-1.8c2.1-6.1,2.8-12.6,2.8-19.1c0-2.6-0.1-5.2-0.3-7.7c-0.5-6.5-1.5-13-2.3-19.5c-0.6-4.9-2.4-11.3,0.4-15.8
					c1.1-1.8,1-3.6-0.4-5.2c-0.3-0.4-0.6-0.8-0.8-1.2c-1.2-2-2.3-4-1.4-6.5c0.2-0.7,0.2-1.6-0.1-2.3c-0.4-1.4-1.8-1.6-2.9-0.7
					c-0.3,0.3-0.5,0.5-0.7,0.9c-1.4,2.1-2,4.5-2.1,7.1c-0.2,5.6,1,11.3,1.8,16.8C120.6,138.7,121.4,144.5,122,150.4z"/>
				<path class="st1" d="M279.5,132c1.3,1,2.7,0.5,3.9-0.4c0.2-0.1,0.4-0.3,0.6-0.4c0.7-0.3,1.6-0.4,2.1,0.3
					c0.9,1.1,1.8,2.2,2.4,3.5c0.9,2,1.3,4.2,2.1,6.3c0.7,1.8,1.5,3.5,2.4,5.2c0.3,0.5,1,0.8,1.6,0.9c1,0.1,1.9-0.8,2.1-2.3
					c0.2-2,0.3-3.9,0.3-5.9c0-2.6-0.2-5.2-0.3-7.9c0,0,0,0,0.1,0c0-1.6,0-3.2,0-4.8c0-1.3,0.2-2.6,1-3.6c0.8-1.1,1.8-1.1,2.8-0.2
					c0.3,0.3,0.5,0.6,0.8,0.9c0.8,0.7,1.8,0.7,2.5-0.1c0.4-0.5,0.6-1.1,0.8-1.7c0.7-2.8-0.2-5-2.1-7c-1.7-1.6-3.2-1.7-4.8,0
					c-0.4,0.4-0.8,0.8-1,1.3c-1.9,3.8-3,7.8-2.7,12.1c0.1,0.8,0.1,1.6,0,2.3c-0.1,0.5-0.6,1.1-1,1.2c-0.4,0.1-1.1-0.3-1.4-0.7
					c-0.4-0.6-0.7-1.4-0.9-2.2c-0.7-2.6-2.1-4.8-4-6.6c-1.5-1.4-3.2-2.6-4.8-3.8c-1.3-1-2.6-0.6-3.1,1c-0.7,2.5-1.4,5-1.8,7.6
					C276.7,129.4,278,130.9,279.5,132z"/>
				<path class="st1" d="M150.6,119.9c0.3,0.2,1,0.1,1.4-0.1c0.5-0.3,0.8-0.9,1.3-1.3c1.2-1.3,2-3.1,3.7-2.9
					c1.5,0.1,2.5,0.1,3.6,0.2c0.9,0.1,1.8,0.1,2.7,0.3c1,0.2,1.4,1.1,0.9,2c-0.3,0.6-0.9,1.2-1.5,1.6c-0.6,0.5-1.4,0.8-2.1,1.2
					c-0.8,0.4-1.5,0.8-2.3,1.3c-0.7,0.4-1.4,0.8-1.9,1.3c-0.5,0.5-0.7,1.2-0.4,1.9c0.3,0.7,1,1,1.6,0.9c1.1-0.2,2.3-0.3,3.3-0.8
					c1.9-1,3.7-2.2,5.4-3.5c2.9-2.2,4.6-5.4,5.7-9c0.9-3-0.9-4.9-3.3-5.8c-1.6-0.5-3.2-0.7-4.9-1c-0.9-0.2-1.9-0.4-2.9-0.3
					c-3.6,0.5-6.3,2.6-8.1,5.9c-0.9,1.7-1.7,3.4-2.5,5.1c-0.2,0.4-0.5,1-0.4,1.4C150,119,150.2,119.6,150.6,119.9z"/>
				<path class="st1" d="M308.8,214.2c-1.3-0.8-2.7-1.4-4-2.2c-2.2-1.3-3.1-1.1-4.4,1.3c-0.7,1.2-1.4,2.4-2.3,3.4
					c-1.5,1.9-3,2.7-5.4,0.9c-1-0.7-2.2-1-3.4-1.2c-0.6-0.1-1.5,0.1-1.9,0.6c-1.4,1.7-2.7,3.6-3.9,5.5c-0.6,1-0.3,1.8,0.6,2.5
					c0.5,0.4,1,0.7,1.5,1c1.3,0.7,2.6,1.4,3.9,1.9c1,0.4,2,0.1,2.8-0.7c0.5-0.5,1-1.2,1.5-1.8c1-1.4,1.8-2.9,3.2-4
					c1.1-0.8,2.2-0.9,3.3-0.2c0.5,0.3,1,0.7,1.4,1.1c0.9,0.8,1.9,1.1,3.4,1.2c0.4-0.3,1.3-0.6,2-1.2c0.8-0.8,1.5-1.7,2.2-2.7
					C311.2,217.3,311.3,215.9,308.8,214.2z"/>
				<path class="st1" d="M198.9,203.4c-1.4-0.8-2.2-0.6-3.1,0.9c-0.6,1-1.2,2.1-1.9,3.1c-0.3,0.5-0.8,0.9-1.3,1.1
					c-1.9,0.8-3.6,0.3-5.3-0.7c-0.5-0.3-1-0.8-1.5-1.1c-1.8-1.1-3.2-0.7-4.4,1c-1,1.4-2,2.9-3,4.3c-0.8,1.2-0.7,2.7,0.5,3.5
					c0.7,0.5,1.5,0.8,2.3,1.2c1,0.4,2,0.8,2.9,1.2c0.8,0.4,1.5,0.4,2.1-0.2c0.6-0.5,1.1-1.2,1.6-1.8c0.6-0.7,1-1.6,1.7-2.3
					c1-1.2,2.4-1.7,3.9-1.2c1.3,0.5,2.6,1.1,3.8,1.9c1.4,0.9,2.6,0.9,3.7-0.3c1-1.2,1.8-2.4,2.7-3.7c0.4-0.6,0.6-1.4,0.8-1.9
					c-0.1-1.4-0.7-2.2-1.5-2.7C201.5,204.8,200.2,204.1,198.9,203.4z"/>
				<path class="st1" d="M358.4,193.2c-0.6,0.2-1.2,0.5-1.8,0.9c-1,0.6-2,1.2-3.1,1.8c-0.5,0.3-1.1,0.6-1.6,0.8c-1.7,1-3.5,2-5.2,3
					c-1.7,0.9-3.5,1.8-5.2,2.7c-2.2,1.2-4.4,2.5-6.7,3.7c-2.8,1.5-4.6,4-6,6.8c-0.2,0.4-0.3,1-0.3,1.5c-0.1,1.2,0.7,1.8,1.7,1.3
					c0.9-0.4,1.8-1,2.6-1.5c0.9-0.6,1.8-1.2,2.8-1.7c1.8-1,3.6-1.8,5.4-2.8c1.9-1,3.7-2.1,5.5-3.1c2.1-1.2,4.3-2.4,6.4-3.6
					c2.5-1.4,4.7-3.4,6.5-5.8c0.5-0.6,0.8-1.4,1-1.8C360.5,193.8,359.5,192.9,358.4,193.2z"/>
				<path class="st1" d="M364.9,121.7c0.6,0.1,1.3-0.1,1.9-0.4c0.5-0.2,0.8-0.6,1.3-0.9c2.8-1.7,5.6-3.4,8.4-5.1
					c2.8-1.6,5.6-3.3,8.4-4.8c2-1.1,4.4-1.6,6.1-3.3c1.4-1.3,2.7-2.7,2.7-5c0-0.9-0.1-1.8-1-2.4c-0.8-0.5-1.6,0-2.2,0.5
					c-0.9,0.6-1.8,1.3-2.7,1.8c-3.3,1.9-6.5,3.8-9.8,5.6c-2.4,1.3-4.8,2.5-7.3,3.8c-2.2,1.1-4.2,2.5-5.6,4.6
					c-0.7,1.1-1.4,2.3-1.3,3.7C364,120.6,364.2,121.5,364.9,121.7z"/>
				<path class="st1" d="M403.6,154.2c-0.6,0.3-1.2,0.6-1.7,1c-0.6,0.5-1.2,1.3-0.8,2.1c0.2,0.5,1,0.7,1.6,1c0-0.1,0.1-0.1,0.1-0.2
					c0.6-0.1,1.2-0.1,1.8-0.4c0.9-0.4,1.7-1,2.5-1.5c2.8-1.5,4.5-3.9,5.6-6.8c1-2.6-0.7-5.6-3.4-5.8c-1.4-0.2-2.8-0.1-4.1-0.1
					c-3.2,0-5.6,1.6-7.4,4.3c-0.7,1.1-1.3,2.2-1.8,3.4c-0.3,0.8-0.4,1.7-0.4,2.5c0.1,1.2,1,1.7,2,1.2c0.5-0.2,0.9-0.6,1.3-1
					c1.2-0.9,2.3-1.9,3.5-2.6c1-0.6,2.3-0.1,2.6,0.6C405.4,152.7,404.9,153.5,403.6,154.2z"/>
				<path class="st1" d="M136.5,148.5c0.4,0.4,1,0.6,1.5,0.9c1.2,0.5,2.4,1,3.6,1.5c0.5,0.2,1,0.3,1.6,0.6c0.5-0.3,1.2-0.5,1.5-0.9
					c1.1-1.5,2.3-3,3.2-4.6c0.9-1.5-0.2-3.7-2.1-4.6c-1.3-0.7-2.6-1.3-3.9-2c-2.1-1.1-3.4-0.7-4.5,1.6c-0.2,0.4-0.3,0.8-0.5,1.1
					c-0.3,0.7-0.6,1.5-1,2.1C134.7,146,134.8,147,136.5,148.5z"/>
				<path class="st1" d="M213,137.2c-1.3-0.5-2.6-1-3.8-1.7c-1.1-0.6-2-0.5-2.8,0.7c-1,1.4-1.9,2.8-2.8,4.3c-0.8,1.5-0.5,3.1,0.8,4
					c1.1,0.8,2.2,1.7,3.4,2.4c0.7,0.4,1.4,0.5,2.4,0.9c0.7-0.4,1.7-0.7,2.3-1.3c1.1-1.2,2.1-2.6,2.9-4.1c1.2-2,0.7-3.6-1.3-4.8
					C213.8,137.5,213.4,137.3,213,137.2z"/>
				<path class="st1" d="M254.9,198.2c1.4,0.9,2.8,1.6,4.2,2.4c1.3,0.7,2.1,0.7,3.2-0.5c1.2-1.4,2.3-2.8,3.2-4.4
					c0.9-1.4,0.5-3.1-0.9-3.9c-1.7-1.1-3.6-1.9-5.4-2.7c-0.5-0.2-1.4,0-1.8,0.3c-1.9,1.5-2.8,3.7-3.7,6c-0.1,0.1,0,0.3-0.1,0.4
					C253.6,197,254.2,197.7,254.9,198.2z"/>
				<path class="st1" d="M331.7,127.1c0.9,0.8,1.8,1,2.8,0.3c2.1-1.3,3.8-3.2,5.1-5.4c0.4-0.7,0.6-1.6,0.7-2.4
					c0-0.5-0.4-1.3-0.8-1.5c-0.4-0.2-1.1,0-1.6,0.3c-0.5,0.3-0.9,0.9-1.4,1.2c-1,0.8-2.1,0.5-2.6-0.7c-0.2-0.6-0.4-1.3-0.2-1.9
					c0.4-1.8,0.9-3.5,1.4-5.2c0.1-0.5,0.5-1,0.5-1.4c0-0.5-0.2-1.2-0.6-1.4c-0.3-0.2-1.1-0.1-1.3,0.2c-0.6,0.7-1,1.5-1.3,2.3
					c-0.4,0.8-0.5,1.8-0.9,2.6c-1.4,2.5-1.3,5.3-1.8,7.8C329.7,124.1,330.2,125.9,331.7,127.1z"/>
				<path class="st1" d="M336.2,134.6c-1.1-1-2.4-0.9-3.2,0.5c-0.5,0.9-0.8,2-1.1,3.1c-0.2,0.7-0.3,1.4-0.6,2c-1,2.2-0.4,4.1,1.7,5
					c0.9,0.4,1.7,0.8,2.6,1.2c0.8,0.4,1.6,0.5,2.3,0c2-1.5,3.2-3.7,3.9-6.2c0.1-0.2,0-0.4,0-0.5c0-1.4-0.4-2.2-1.6-2.6
					C338.8,136.5,337.5,135.7,336.2,134.6z"/>
				<path class="st1" d="M318.6,210.6c-1.1-0.5-2.3,0.3-2.4,1.6c-0.1,1,0.3,1.6,0.9,2.3c1.7,1.9,3.3,4,3.7,6.8
					c0,0.2,0.1,0.6,0.3,0.7c0.4,0.3,0.8,0.8,1.2,0.8c0.4-0.1,0.9-0.6,1.2-1c0.2-0.3,0.2-0.8,0.3-1.2c-0.5-3.7-2-6.9-4.5-9.6
					C318.9,210.8,318.8,210.7,318.6,210.6z"/>
			</g>
		</g>
	</g>
	<g>
		<path class="st1" d="M1601.7,222.5c-1.5-0.4-3-0.7-5.1-1.2c0.2-4.1,0.4-8.4,0.6-13c1.8,0,3.3,0,4.8,0c5.7,0.1,9.2-2.3,10.6-7.7
			c0.6-2.3,0.8-4.8,0.8-7.1c0.1-18.4,0-36.9,0-55.3c0-1.5,0-3,0-4.7c5.5,0,10.5,0,16,0c0,15.2,0,30.1,0,45.3c8.6,0,16.8,0,25.5,0
			c0-23.2,0-46.2,0-69.5c5.4,0,10.3,0,15.6,0c0,27.7,0,55.3,0,83.5c-13.6,0-27.1,0-40.7,0c-0.4,3.4-0.6,6.4-1.2,9.3
			c-2.3,11-10.3,18.3-21.6,19.9c-1,0.1-1.9,0.4-2.9,0.6C1603.4,222.5,1602.5,222.5,1601.7,222.5z"/>
		<path class="st1" d="M1472.2,222.5c-1.5-0.4-3-0.7-5.1-1.2c0.2-4.1,0.4-8.4,0.6-13c1.7,0,3,0,4.4,0c6.4,0.2,9.8-2.3,11.2-8.5
			c0.5-2.2,0.6-4.5,0.7-6.7c0.1-18.3,0-36.6,0-54.9c0-1.5,0-3,0-4.7c5.5,0,10.5,0,15.4,0c0.2,0.5,0.5,0.7,0.5,1
			c0,20.8,0.5,41.7-0.2,62.5c-0.5,15-7.6,21.4-25,25.6C1473.9,222.5,1473.1,222.5,1472.2,222.5z"/>
		<path class="st1" d="M1202.3,108.5c0.2,4.3,0.4,8.7,0.6,13.3c-5.5,0-10.5,0-15.9,0c0-4.4,0-8.9,0-13.3
			C1192.1,108.5,1197.2,108.5,1202.3,108.5z"/>
		<path class="st1" d="M1628.9,108.5c0.2,4.3,0.4,8.7,0.6,13.3c-5.5,0-10.5,0-15.9,0c0-4.4,0-8.9,0-13.3
			C1618.7,108.5,1623.8,108.5,1628.9,108.5z"/>
		<path class="st1" d="M1124.6,192.8c-15,0-29.7,0.1-44.5,0c-10.3-0.1-20.7,0.2-31-0.9c-11.6-1.2-18.3-7.7-20-19.3
			c-1-7-0.8-14.5,0.7-21.4c2.3-11.1,10.8-17.1,24-17.7c9.9-0.5,19.8-0.1,30.4-0.1c0,15.1,0,30.2,0,45.5c8.5,0,16.4,0,24.8,0
			c0-15.1,0-30.1,0-45.3c5.4,0,10.3,0,15.6,0C1124.6,153,1124.6,172.6,1124.6,192.8z M1068.3,179.3c0-11.1,0-21.5,0-31.8
			c-5.3,0-10.4-0.2-15.4,0c-4.6,0.2-7.5,3.1-7.9,7.5c-0.5,5.4-0.5,11-0.1,16.4c0.3,4.1,2.9,6.7,7.2,7
			C1057.3,178.8,1062.5,179,1068.3,179.3z"/>
		<path class="st1" d="M1231.9,125.6c5.7,0,10.5,0,15.9,0c0,17.7,0,35.3,0,53.2c7,0,13.3,0,20.2,0c0-23.1,0-46.1,0-69.5
			c5.6,0,10.6,0,15.8,0c0,27.7,0,55.3,0,83.2c-22.6,0-45.2,0-68,0c0-4.3,0-8.5,0-13.2c5.2,0,10.3,0,16.1,0
			C1231.9,161.2,1231.9,143.6,1231.9,125.6z"/>
		<path class="st1" d="M1582.5,133.5c0,19.8,0,39.3,0,59c-21.3,0-42.4,0-63.6,0c0-27.8,0-55.4,0-83.3c5.1,0,10,0,15.3,0
			c0,23,0,46,0,69.4c11,0,21.5,0,32.5,0c0-14.9,0-29.9,0-45.1C1572.1,133.5,1577.1,133.5,1582.5,133.5z"/>
		<path class="st1" d="M1202.1,192.5c-19,0-38,0-57.1,0c0-27.8,0-55.4,0-83.3c5.1,0,10,0,15.4,0c0,23,0,46.1,0,69.5
			c8.8,0,17.2,0,26.2,0c0-15.1,0-30.1,0-45.3c5.4,0,10.3,0,15.6,0C1202.1,153.1,1202.1,172.7,1202.1,192.5z"/>
		<path class="st1" d="M1319,178.8c8.8,0,17.1,0,25.9,0c0-15,0-30,0-45.3c5.5,0,10.5,0,15.8,0c0,19.7,0,39.2,0,59
			c-19,0-37.9,0-57.2,0c0-27.6,0-55.2,0-83.2c5.1,0,10.1,0,15.5,0C1319,132.5,1319,155.5,1319,178.8z"/>
		<path class="st1" d="M1464.4,192.6c-21.1,0-42.3,0-64.6,0c0.6-13.3,0.4-26.5,2.2-39.5c1.5-11.1,9.8-17.5,20.8-18.9
			c6.7-0.9,13.6-0.9,20.3,0c12.1,1.7,20.1,9.3,21.2,21.6C1465.3,167.9,1464.4,180.1,1464.4,192.6z M1449.7,178.9
			c-0.5-7.8-0.5-15.1-1.5-22.3c-0.8-6-4.4-8.6-11.9-9.2c-6.6-0.6-13.5-1.1-17.9,5.7c-0.2,0.4-0.4,0.7-0.6,1.1
			c-2.5,8.1-1.7,16.4-1.5,24.7C1427.5,178.9,1438.1,178.9,1449.7,178.9z"/>
		<path class="st1" d="M1705.4,192.6c-5.3,0-10.2,0-15.3,0c0-27.8,0-55.4,0-83.3c5.1,0,10.1,0,15.3,0
			C1705.4,137,1705.4,164.6,1705.4,192.6z"/>
		<path class="st1" d="M1109.4,218c0-4.4,0-8.5,0-12.9c5.1,0,10.1,0,15.5,0c0,4.2,0,8.5,0,12.9C1119.7,218,1114.6,218,1109.4,218z"
			/>
		<path class="st1" d="M1345.5,204.9c5.1,0,10,0,15.3,0c0,4.3,0,8.6,0,13.1c-5,0-10,0-15.3,0
			C1345.5,213.7,1345.5,209.4,1345.5,204.9z"/>
		<path class="st1" d="M1040.1,109.4c5,0,9.6,0,14.6,0c0,4.4,0,8.6,0,13.2c-4.8,0-9.5,0-14.6,0
			C1040.1,118.3,1040.1,114.1,1040.1,109.4z"/>
		<path class="st1" d="M1429.6,122.6c-5.1,0-9.8,0-14.8,0c0-4.4,0-8.5,0-13c4.9,0,9.7,0,14.8,0
			C1429.6,113.8,1429.6,118,1429.6,122.6z"/>
		<path class="st1" d="M1567.6,204.9c0,4.4,0,8.5,0,12.9c-5,0-9.8,0-14.9,0c0-4.3,0-8.4,0-12.9
			C1557.6,204.9,1562.4,204.9,1567.6,204.9z"/>
		<path class="st1" d="M1076.5,122.7c-5.1,0-9.7,0-14.7,0c0-4.4,0-8.7,0-13.2c4.9,0,9.6,0,14.7,0
			C1076.5,113.8,1076.5,118.1,1076.5,122.7z"/>
		<path class="st1" d="M1451.2,109.6c0,4.4,0,8.6,0,13c-5,0-9.7,0-14.7,0c0-4.3,0-8.5,0-13C1441.2,109.6,1446,109.6,1451.2,109.6z"
			/>
		<path class="st1" d="M1574.4,218c0-4.4,0-8.6,0-13c4.9,0,9.7,0,14.8,0c0,4.4,0,8.7,0,13C1584.1,218,1579.4,218,1574.4,218z"/>
	</g>
</g>
</svg>
