<?xml version="1.0" encoding="utf-8"?>
<!-- Generator: Adobe Illustrator 28.0.0, SVG Export Plug-In . SVG Version: 6.00 Build 0)  -->
<svg version="1.1" id="Layer_1" xmlns="http://www.w3.org/2000/svg" xmlns:xlink="http://www.w3.org/1999/xlink" x="0px" y="0px"
	 viewBox="0 0 2637.9 257.4" style="enable-background:new 0 0 2637.9 257.4;" xml:space="preserve">
<style type="text/css">
	.st0{fill:#056354;}
</style>
<g transform="translate(0.000000,331.000000) scale(0.100000,-0.100000)">
	<path class="st0" d="M885.8,3300.2c-88-13-216-54-336-110c-58-27-112-49-120-49c-25,0-159-130-221-214c-102-137-167-295-193-466
		c-21-134-21-697,0-833c51-339,261-627,570-782c61-30,155-67,210-83l100-27h12295h12295l100,27c134,37,300,121,404,206
		c167,135,301,344,358,557c26,98,26,108,30,465c4,292,1,385-11,465c-36,242-147,452-324,615c-42,39-82,70-91,70c-8,0-62,22-120,49
		c-130,60-242,96-345,110C25391.8,3313.2,978.8,3313.2,885.8,3300.2z M3254.8,2846.2c8-23,7-68-2-83c-5-7-23-11-43-10l-34,3l-3-53
		c-2-37,1-54,11-57c7-3,62,15,122,40s115,43,122,41c7-3,13-17,13-32c0-57-54-88-350-206c-151-60-282-117-291-127c-9-11-26-56-39-101
		c-21-75-22-85-9-109c19-34,43-37,69-11c32,32,54,19,47-26c-13-77-92-148-137-124c-60,32-66,195-11,299c9,16,10,26,2,34
		c-7,7-37-7-100-47c-112-71-136-64-91,23c36,72,113,119,365,222c152,62,164,73,125,122c-18,22-30,27-65,27c-60,0-80,28-70,100
		c4,27,11,53,16,56c40,24,153-67,179-146c8-25,20-45,25-45c6,0,12,44,15,101c5,105,14,129,55,144
		C3199.8,2890.2,3245.8,2869.2,3254.8,2846.2z M5635.8,2870.2c12-36-26-70-146-132c-63-32-136-72-163-88c-53-33-80-34-84-3
		c-5,37,38,74,157,134c64,33,134,70,156,84C5605.8,2895.2,5627.8,2897.2,5635.8,2870.2z M7590.8,2826.2c7-25,10-48,6-52
		c-3-4,1-17,10-31c13-20,14-29,3-53c-6-16-10-31-8-33s47-32,99-66c52-35,133-92,179-127s91-63,99-63c17,0,132,79,180,123
		c55,52,44,66-61,77c-60,7-75,12-95,36c-20,23-23,34-18,68c8,48,52,107,90,121c40,14,75-12,114-85c26-51,32-73,32-126
		c0-36-6-80-14-99c-18-42-87-117-133-146l-35-22l21-20l20-21l43,35c82,66,288,218,360,265c40,26,75,49,77,51s-2,14-9,28
		c-11,20-11,30-1,51c6,14,9,34,6,44s-1,21,5,25c5,3,10,19,10,36c0,18,5,29,14,29c17,0,27-27,30-80c1-21,8-46,16-55c11-13,11-21,2-36
		c-7-10-12-23-12-28s81-66,180-135c394-278,641-516,777-751c51-87,103-240,103-301c0-56-61-192-107-241l-31-33h-111
		c-61,0-111,3-111,6s23,27,50,54c96,94,131,230,96,370c-63,252-299,540-716,874c-80,63-151,116-158,116c-13,0-312-237-407-323
		l-50-45l96-90c217-205,363-417,399-583c27-123-4-255-80-342l-32-37h-109c-60,0-109,3-109,6c0,4,27,35,59,69c73,79,95,136,94,250
		c-1,194-133,424-387,675c-91,90-97,94-119,81c-76-48-164-82-277-106c-69-15-147-33-174-41c-64-18-87-2-30,22
		c352,146,434,184,434,198c-1,13-304,257-328,262c-34,8-338-244-523-433c-309-315-423-568-348-769c21-56,104-155,154-182
		c36-20-3-32-105-32h-96l-40,43c-22,23-48,54-57,68c-25,42-57,145-57,186c0,51,34,172,67,236c69,137,224,328,383,472
		c106,95,351,285,488,377c56,37,102,71,102,74s-5,15-11,26c-8,14-8,27-1,42c6,11,13,43,16,69
		C7554.8,2886.2,7571.8,2894.2,7590.8,2826.2z M23502.8,2854.2c21-24,29-55,19-71c-7-12-12-12-29-1c-33,21-44,0-50-85
		c-4-61-2-76,9-76c8,1,93,31,189,69c170,66,209,73,184,34c-12-19-645-272-681-272c-13-1-23,4-23,9c0,24,44,49,154,90
		c65,24,120,49,123,56c8,20-35,91-72,120c-26,19-35,34-35,56c0,66,64,33,103-52l21-45l10,66c11,62,37,119,55,119
		C23483.8,2871.2,23494.8,2863.2,23502.8,2854.2z M6272.8,2800.2c4-24,11-73,17-109c5-36,21-117,35-180c40-183,76-451,76-557
		c0-116-18-200-61-286c-72-144-143-208-274-250c-204-64-258-78-267-69c-18,18,1,31,135,99c213,106,312,186,364,291
		c24,49,25,59,20,160c-4,99-79,531-123,716c-14,55-15,78-6,116c13,56,50,122,66,117C6260.8,2846.2,6268.8,2824.2,6272.8,2800.2z
		 M2685.8,2797.2c46-20,56-42,40-90c-17-48-63-96-119-124c-55-28-86-29-86-3c0,13,17,29,53,48c70,38,69,57-3,61c-49,3-59,0-80-23
		c-26-28-50-33-50-10c0,17,31,80,52,105C2533.8,2811.2,2614.8,2826.2,2685.8,2797.2z M2100.8,2747.2c0-24,9-55,21-75
		c15-25,19-43,14-65c-16-75-15-141,4-278c22-157,27-344,11-418c-16-68-31-101-47-98c-11,2-14,43-17,208c-3,193-14,302-52,519
		c-18,107-18,163,1,208C2063.8,2815.2,2100.8,2814.2,2100.8,2747.2z M3969.8,2769.2c26-82,93-585,95-713c1-106-22-185-55-185
		c-17,0-19,8-19,85c0,100-18,233-70,528c-39,218-40,242-11,296C3927.8,2812.2,3957.8,2807.2,3969.8,2769.2z M4870.8,2766.2
		c0-8-5-35-12-60c-15-56-2-76,33-51c28,19,35,20,42,3c9-23-24-76-61-99l-35-21l-24,28c-21,24-24,35-18,72c7,45,30,109,47,131
		C4856.8,2785.2,4870.8,2784.2,4870.8,2766.2z M5952.8,2754.2c12-11,18-30,18-58c0-52-37-112-111-180c-68-61-178-137-190-129
		c-16,9,10,43,107,139c52,51,94,96,94,99c0,34-338-122-512-236c-89-59-90-59-72-80c11-11,102-60,203-109c108-53,224-118,281-158
		c180-127,236-152,278-125c20,13,24,22,19,53c-9,70-50,203-63,208c-8,3-38-5-68-17c-93-39-115-4-27,43c81,44,83,49,60,142
		c-23,96-24,193-4,241c19,46,44,42,62-10c7-22,36-63,63-92c43-46,50-58,50-94c0-24-10-60-26-90l-26-50l27-107c43-166,36-273-21-350
		c-39-52-103-51-166,4c-27,24-43,10-66-62c-17-50-20-71-12-85c13-24,33-26,50-5c7,8,21,15,31,15c14,0,19-7,19-30
		c0-81-107-143-156-89c-29,32-22,103,21,207c19,47,35,90,35,94c0,11-108,78-125,78c-9,0-15-9-15-24c0-33-19-85-48-128
		c-49-76-169-125-274-114c-57,6-59,5-69-22c-27-69-18-135,14-103c17,17,57,14,57-5c0-23-38-82-60-94c-53-28-90,0-90,68
		c1,44,7,66,41,148c11,28,10,34-14,65c-14,19-31,48-37,64c-15,39-54,229-86,420c-33,198-51,268-85,337c-16,32-29,70-29,85
		c0,33,32,79,48,69c12-7,86-228,96-288c8-46,36-53,36-10c0,17,9,37,23,49c63,60,434,260,562,305
		C5887.8,2775.2,5926.8,2778.2,5952.8,2754.2z M21639.8,2628.2c11-62,28-188,37-282c9-93,17-172,19-174c3-2,16,10,30,27
		c49,59,477,304,630,361c100,37,165,19,165-46c-1-54-49-165-118-271c-38-59-83-133-98-164c-31-64-50-76-40-26c11,54,54,138,126,248
		c94,142,92,177-9,151c-137-35-671-347-658-384c5-15,176-123,282-179c115-60,207-120,310-203c50-40,105-80,123-89
		c38-20,130-23,161-6c29,15,28,56-9,402c-16,156-37,364-45,462c-9,99-18,182-20,186c-8,13,26,100,39,100c11,0,106-267,106-297
		c0-20-20-15-41,10l-20,22l5-30c3-16,8-59,11-95c8-87,15-120,25-120c4,0,30,21,58,48l50,47l-19,170c-17,157-17,173-2,213
		c9,23,20,41,26,39c10-3,66-154,91-244c16-60,6-77-25-41l-20,23l6-50c8-59,8-59,32-47c24,13,153,147,153,160c0,5-19,22-41,37
		c-41,27-41,27-36,78c3,39,11,56,31,74c55,47,86,24,93-71c5-51,11-70,29-87c38-35,23-84-17-58c-22,14-26,12-58-33
		c-36-53-73-92-128-138l-42-35l29-290c39-386,38-490-7-578c-21-42-28-26-25,61c2,42-4,148-13,235c-34,339-54,520-58,524
		c-3,2-28-10-56-27c-60-38-59-25-36-285c8-93,14-233,12-310c-2-149,4-180,50-242c20-27,31-33,63-33c45,0,63,20,100,115
		c42,108,82,173,140,230c69,65,108,73,136,28c70-114,87-135,127-154c88-40,164-15,247,80c66,76,95,83,70,15c-23-58,45-98,118-69
		c27,11,49,32,77,75c22,33,45,58,50,56c6-1,12-20,15-42c4-33,11-42,42-59c32-17,42-18,81-8c25,7,71,24,104,38l58,26l-30,25
		c-44,35-89,48-126,35c-40-14-47,4-21,62c18,40,26,47,78,67c84,32,229,38,340,15c46-10,91-23,101-30c17-12,17-16,2-57
		c-13-38-23-47-85-80c-38-20-69-42-69-49s18-21,39-32c34-18,45-19,92-9c58,12,121,48,129,74c6,17-16,246-40,423c-7,55-19,159-25,230
		c-6,72-15,168-20,215c-8,70-7,92,6,127c18,46,28,53,39,26c50-125,96-278,87-287c-3-4-16,4-29,16c-29,27-30,47,8-285
		c38-341,38-454-4-539c-30-62-60-85-141-113c-74-24-114-13-193,51l-66,54l-36-22c-110-66-184-98-227-98c-52,0-96,22-115,57
		c-12,23-13,23-64-32c-49-53-52-55-104-55c-50,0-57,3-92,40l-38,40l-49-49c-37-37-60-51-100-60c-105-26-167,6-242,125
		c-22,35-46,64-53,64c-24,0-77-40-106-81c-17-22-47-84-67-137c-41-107-94-172-139-172c-54,0-145,135-145,215c0,34-12,37-56,14
		c-32-17-51-20-101-15l-62,5l-10-37c-5-20-15-56-21-79c-8-31-8-49,0-63c13-24,19-25,35-3c20,27,25-1,7-38c-13-25-24-34-42-34
		c-42,0-48,52-17,165c14,51,24,97,21,102c-6,10-161,128-167,128c-3,0-7-42-9-94c-3-89-5-97-33-126c-64-67-286-150-363-135
		c-46,8-105,65-131,125c-30,70-48,209-61,460c-15,311-49,612-80,721c-15,53-11,110,11,159c19,41,22,43,34,27
		C21612.8,2748.2,21627.8,2689.2,21639.8,2628.2z M3620.8,2723.2c5-21,21-49,36-62c68-65,77-113,38-211l-18-47l42-188
		c23-104,42-211,42-239c0-110-103-246-206-275c-41-12-54-11-91,2c-55,20-66,9-71-76c-3-48-1-65,12-75c14-12,20-11,41,9
		c28,26,45,19,45-19c0-33-67-101-99-101c-67,0-82,146-29,279c13,33,13,33-37,77c-27,24-57,44-66,44c-8,0-48-25-89-55
		c-124-95-152-108-217-103c-52,5-60,9-93,47l-36,42l-90-45c-165-82-336-120-604-134c-167-9-204-4-247,32c-15,13-46,32-68,42
		c-22,11-41,27-43,37c-3,15,8,17,128,17c94,0,139,4,158,14c36,19,80,67,131,144c60,90,98,130,145,154c89,46,188,12,221-75
		c15-40,15-47,1-81c-8-20-25-50-36-67c-12-16-19-33-15-39c8-13,159,42,278,101c54,28,102,47,107,44c6-4,10-19,10-35
		c0-55,78-78,155-46c53,22,125,75,125,92c0,19-61,73-83,74c-10,0-28-5-39-11c-16-8-24-8-35,4c-34,34,25,122,97,146
		c125,42,357,14,390-48c20-39-23-107-92-142c-50-25-49-51,0-84c46-30,113-41,169-26c47,13,103,69,103,104c-1,12-22,105-49,207
		c-56,213-42,201-173,153c-58-21-80-25-89-16c-18,18-4,30,97,78c52,25,97,52,100,60s-4,54-15,103c-26,111-26,158-1,200
		C3586.8,2772.2,3607.8,2770.2,3620.8,2723.2z M17500.8,2741.2c19-19,26-50,14-63c-3-3-17-1-30,5s-27,8-30,5c-4-3-13-43-20-88
		c-16-104-27-116-53-57c-11,26-37,60-60,79c-23,18-41,40-41,50c0,27,11,49,25,49c18,0,75-67,88-104l11-31l7,25c4,14,7,41,8,61
		c1,35,32,89,52,89C17476.8,2761.2,17489.8,2752.2,17500.8,2741.2z M24460.8,2714.2c-17-30,13-17-595-254c-306-119-661-264-822-336
		c-8-3-13,3-13,17c0,41,68,92,186,139c60,24,192,78,294,119c368,150,944,362,955,351C24471.8,2744.2,24470.8,2731.2,24460.8,2714.2z
		 M24825.8,2636.2c51-145,61-185,45-185c-7,0-20,10-31,23c-10,12-18,17-19,12c0-6,11-112,24-235c47-431,68-694,63-775
		c-5-77-33-185-47-185c-4,0-10,71-13,158c-4,86-15,243-26,347c-43,409-83,822-83,865c-1,52,17,103,33,98
		C24778.8,2757.2,24802.8,2701.2,24825.8,2636.2z M20877.8,2735.2c3-9-3-24-14-35c-10-11-151-67-313-125s-302-110-312-115
		c-24-13-74-227-61-265c14-42,48-44,61-5c10,28,32,43,32,23c0-23-35-109-50-126c-37-39-91,15-89,91c0,21,15,88,33,148
		c18,61,30,111,26,113s-74-22-155-53c-81-30-152-55-156-55c-20,0-7,30,25,58c42,37,133,72,796,305
		C20883.8,2758.2,20869.8,2755.2,20877.8,2735.2z M21105.8,2598.2c50-148,53-196,9-142c-13,17-24,27-24,22c0-4,9-87,20-185
		c21-178,27-374,15-425c-4-15-4-27-1-27c4,0,30,18,58,41c144,113,245,122,366,32c45-34,56-67,42-119c-38-135-219-213-557-240l-83-7
		v-47c0-64-7-80-37-80c-59,0-127,63-138,130c-4,22-10,40-13,40c-4-1-16-15-27-33c-34-54-79-77-152-77c-66,0-87,11-120,66
		c-11,18-14,16-52-27c-47-54-101-79-172-79c-79,0-125,33-185,132c-41,67-59,72-111,32c-44-33-69-75-123-202c-48-114-82-152-132-152
		c-43,0-98,60-127,138c-22,58-24,60-65,66c-51,8-97,35-127,75c-13,17-29,31-36,31s-38-14-68-31c-77-43-166-54-272-33l-81,16l-48-28
		c-35-20-61-28-98-28c-93-1-145,47-166,152c-22,116-26,129-34,107c-21-59-37-82-106-151c-74-74-201-169-295-218
		c-57-31-137-35-174-10c-27,20-60,88-61,126c0,22-8,31-45,47c-32,14-50,30-62,55c-9,20-20,36-24,36s-27-23-50-52
		c-88-105-224-125-314-47c-18,17-52,59-75,95s-47,64-57,64c-49,0-134-107-178-223c-53-141-89-187-149-187c-40,0-96,54-125,121
		c-33,74-47,186-33,271c10,68,10,74-14,113c-33,58-31,97,17,271c45,163,47,170,60,157c5-5-3-57-17-118c-37-160-39-177-20-213
		c9-18,21-32,26-32s19,18,30,40c22,42,40,52,40,22c0-37-41-137-66-163c-26-27-26-31-22-131c3-91,7-109,32-156c36-64,49-75,87-75
		c45,0,74,36,115,142c46,121,81,177,151,241c67,61,105,65,136,15c74-119,84-131,127-152c24-13,63-23,85-23c55,0,137,42,171,88
		c73,99,104,111,104,40c0-29,6-45,26-63c15-14,33-25,41-25s25,24,38,54s29,58,36,62c12,7,11-10-7-89c-6-24-4-26,12-21
		c31,11,55,37,79,85c29,56,52,78,60,57c3-8,5-19,4-24c-8-43,33-74,97-74c35,0,36,1,31,29c-7,33,13,103,30,108c26,9,35-115,13-182
		s-90-93-154-60c-16,9-36,25-43,35c-20,28-28,25-63-24c-17-24-42-49-56-56c-31-17-30-34,2-59c40-31,91-27,170,14
		c114,59,287,200,339,276c35,49,33,65-35,240c-110,283-102,256-90,316c7,33,16,53,23,50c15-5,91-159,129-262c16-44,50-162,74-263
		s51-196,59-212c17-34,42-43,106-38l44,3l-3,65c-1,38,4,83,13,111c33,99,109,179,156,164c54-18,82-184,45-269c-10-21-14-41-11-45
		c4-3,37-6,73-5c51,0,81,7,123,27c83,40,82,39,59,152c-11,54-22,101-25,103c-3,4-63-30-132-75c-12-8-24-10-27-5s28,35,69,66
		c68,53,93,84,82,103c-3,5-12,100-21,213s-21,263-27,333c-7,96-7,138,2,165c13,41,25,59,35,49c8-8,94-267,94-283c0-19-20-17-37,4
		c-13,15-14,3-8-93c8-155,26-337,35-354c6-11,27,4,84,60c42,41,76,80,76,87c0,6-18,21-40,32c-41,21-63,49-56,72c2,7,7,25,10,40
		c13,60,92,92,116,48c6-12,13-45,14-75c3-40,9-60,24-72c41-36,36-96-6-74c-31,16-36,14-56-23c-10-19-49-65-87-102
		c-38-36-69-71-69-78c0-24,32-183,39-195c6-9,20-10,59-3c66,12,95,6,126-24c36-36,49-103,35-174c-11-56-10-60,17-111
		c50-93,114-92,158,3c14,29,40,88,60,131c38,83,116,176,166,197c40,17,63,1,101-71c53-100,131-142,217-118c37,10,62,27,118,86
		c39,40,75,73,79,73s5-18,2-40c-7-57,15-81,79-87c71-7,113,14,164,81c23,31,45,56,48,56s13-7,23-16c28-25,112-53,135-44
		c11,5,42,33,67,63l47,54v99c0,54-4,137-10,184c-5,47-16,162-25,255c-9,94-20,208-25,254c-9,75-7,89,10,129c12,27,24,42,29,36
		C21054.8,2740.2,21079.8,2674.2,21105.8,2598.2z M21438.8,2739.2c14-14,16-64,3-72c-5-3-14,1-21,9c-30,36-48,2-58-103
		c-4-42-11-76-17-76c-5,1-20,22-32,47s-40,60-62,78c-44,34-53,67-26,89c13,11,21,8,50-20c19-19,40-49,46-67c14-42,20-37,30,24
		c12,76,25,103,52,103C21416.8,2751.2,21431.8,2746.2,21438.8,2739.2z M21784.8,2709.2c42-74,58-137,59-228c0-47-3-95-7-107
		c-14-43-26-23-26,40c0,76-21,152-63,227c-23,42-29,62-23,83C21733.8,2763.2,21756.8,2757.2,21784.8,2709.2z M22460.8,2736.2
		c0-8-10-21-22-28c-41-25-518-211-524-204c-4,3,0,17,9,30c10,16,64,43,183,90c93,36,203,80,244,96
		C22435.8,2754.2,22460.8,2758.2,22460.8,2736.2z M18250.8,2679.2c6-64,14-77,38-62c12,8,18,28,20,68c3,59,18,75,27,29
		c15-73,22-88,39-91c16-3,18,0,12,19c-19,63-23,90-15,95c16,10,27-5,39-56c19-81-18-143-62-104c-17,16-20,16-41-4
		c-45-42-72-24-84,55l-8,51l-45-15c-195-66-893-333-1048-402c-51-22-95-41-98-41s-4,12-2,27c2,21,14,34,46,52c66,36,398,168,662,264
		c129,47,291,105,360,131c69,25,132,44,140,43C18241.8,2736.2,18246.8,2719.2,18250.8,2679.2z M19096.8,2617.2c-11-59-85-98-116-61
		c-16,19-9,96,13,147l16,37l46-46C19096.8,2654.2,19101.8,2644.2,19096.8,2617.2z M19683.8,2592.2c37-109,46-146,37-155
		c-8-8-15-7-24,7c-7,9-16,17-19,17c-5,0,3-82,9-89c10-11,234,165,234,184c0,7-11,20-25,29c-42,28-48,51-26,101c14,31,27,46,45,51
		c41,10,56-10,56-75c0-35,6-65,15-77c30-40,10-85-23-52c-10,10-16,7-29-12c-30-46-110-115-177-154c-53-31-66-44-66-63
		c0-13,12-135,26-271c17-165,24-277,21-337c-5-92-30-195-47-195c-6,0-10,39-10,89c0,82-54,649-65,679c-2,6-12,12-21,12
		c-16,0-16,2,1,20c17,19,17,30,5,189c-11,136-11,179-1,211c7,23,17,40,23,38C19629.8,2736.2,19656.8,2670.2,19683.8,2592.2z
		 M4449.8,2697.2c31-33,27-99-6-104c-13-2-23,1-23,7c0,17-37,13-44-5c-3-9-6-73-6-144c0-96-3-130-14-139c-21-18-42-4-61,42
		c-68,159-67,159-120,138c-24-10-51,2-65,29c-11,21,9,123,29,143c22,22,119-61,146-126c22-54,39-42,46,34c5,64,18,98,47,132
		C4399.8,2728.2,4422.8,2725.2,4449.8,2697.2z M4624.8,2690.2c3-18,21-49,40-70c50-55,59-95,36-174c-17-61-18-70-3-123
		c31-114,34-138,31-201c-2-41,1-66,8-68c6-2,30,21,53,51c40,52,119,119,169,145c19,10,30,9,60-7c50-26,77-65,76-110
		c-2-46-20-83-74-147c-79-95-105-175-56-175c34,0,41-16,22-45c-12-17-26-25-46-25c-44,0-58,35-41,101c7,28,11,53,7,56
		c-14,14-253-89-263-113c-8-22,22-44,59-44c54,0,92-62,72-115c-9-23-57-45-98-45c-50,0-138,35-168,68c-43,45-54,75-84,220
		c-7,33-20,27-44-22c-22-46-50-71-93-81c-18-5-28-16-32-35c-8-35-67-136-103-174c-87-92-260-182-510-265c-225-75-356-96-545-88
		c-117,5-154,11-318,55c-102,27-203,57-222,67c-44,21-217,174-217,192c0,20,14,16,91-22c97-49,307-101,483-120
		c407-42,710,3,1014,152c107,52,147,77,203,130c38,36,69,73,69,83s-20,44-45,75c-48,63-63,111-46,144c16,29,26,27,77-18
		c103-90,174-47,174,106c0,79,11,103,37,87c11-7,28-58,52-155c20-79,45-160,57-179c27-47,53-46,70,3c7,21,30,65,51,99
		c37,60,38,65,38,152c0,71-7,110-28,177c-15,48-33,91-39,97c-9,7-25,5-53-8c-57-26-79-28-83-9c-2,12,15,27,51,48c78,45,82,51,64,108
		c-26,80-29,109-18,169C4575.8,2722.2,4611.8,2752.2,4624.8,2690.2z M18890.8,2701.2c19-19,26-50,14-63c-3-3-17-1-30,5s-26,9-29,6
		s-12-42-19-87c-16-105-29-119-55-59c-11,26-37,60-60,79c-44,34-53,67-26,89c13,11,21,8,47-16c17-16,39-47,49-69c16-37,18-38,23-15
		c2,14,7,44,10,68c4,41,28,82,48,82C18866.8,2721.2,18879.8,2712.2,18890.8,2701.2z M18623.8,2585.2c3-3,1-17-5-30
		c-12-26-10-25-398-169c-129-48-247-93-261-101c-22-11-29-28-53-132c-25-106-26-123-15-148c20-41,35-40,58,3c30,59,37,18,9-53
		c-19-50-27-59-50-62c-22-3-32,3-48,30c-28,46-25,90,14,220c19,62,33,114,31,116c-6,6-70-17-329-119c-137-55-255-99-262-99
		c-21,0-17,26,9,54c15,18,94,54,257,118c256,100,1008,377,1026,378C18612.8,2591.2,18619.8,2588.2,18623.8,2585.2z M20896.8,2536.2
		c21-31,10-48-26-40c-32,7-30,10-45-107c-5-42-3-50,25-81c45-52,36-87-24-87c-58,0-62-10-43-92c9-40,20-92,23-115c8-51-4-173-17-173
		c-5,0-9,33-9,73c0,39-10,119-22,177c-24,119-21,147,19,173c24,15,24,17,6,12c-27-8-28-4-7,37c22,42,11,73-42,125
		c-24,24-44,48-44,53c0,19,13,40,24,40c17,0,63-50,77-85c13-30,13-30,16-5C20823.8,2548.2,20861.8,2589.2,20896.8,2536.2z
		 M19140.8,2486.2c0-8-11-22-24-30c-17-11-28-34-40-80c-18-74-19-85-7-104c8-12,12-13,25-1c24,19,29,6,12-34c-17-41-38-46-60-14
		c-21,30-20,63,4,140c11,34,20,64,20,66c0,8-45-7-261-88c-132-49-245-90-250-90c-18,0-8,30,15,45c13,9,109,47,212,84
		c104,38,221,80,259,94C19127.8,2504.2,19140.8,2506.2,19140.8,2486.2z M4907.8,2449.2c24-13,45-29,48-36c6-17-17-61-45-87
		c-21-19-22-19-58,0c-20,11-38,28-40,39c-5,25,27,106,41,106C4860.8,2471.2,4884.8,2461.2,4907.8,2449.2z M3270.8,2432.2
		c48-22,50-50,7-97c-38-41-61-42-110-3c-34,26-34,44-1,92C3193.8,2465.2,3198.8,2465.2,3270.8,2432.2z M24470.8,2432.2
		c0-22-28-36-207-105c-134-52-124-42-153-154c-17-67,5-107,36-65c21,29,26,8,9-35c-20-49-39-58-65-32c-25,25-25,56-3,142
		c9,37,14,70,11,73s-113-35-244-85c-286-110-274-106-274-88c0,33,61,63,350,172c168,63,352,133,410,155
		C24461.8,2456.2,24470.8,2458.2,24470.8,2432.2z M20624.8,2399.2c31-44,12-85-24-53c-34,30-40,16-55-127c-4-32-10-58-15-58
		s-21,25-35,54c-17,36-38,62-60,76c-29,18-35,28-35,56c0,26,4,34,18,34c24,0,67-46,88-95l18-40l7,57
		C20546.8,2408.2,20588.8,2451.2,20624.8,2399.2z M2375.8,2388.2c49-28,54-48,20-92c-29-39-52-43-105-17c-43,21-49,53-20,100
		C2294.8,2418.2,2319.8,2420.2,2375.8,2388.2z M5866.8,2338.2c31-27,29-55-7-101c-25-32-95-70-115-62c-22,9-16,35,11,48
		c26,12,34,38,12,38c-7,0-28-11-47-25c-44-32-60-32-60,1C5660.8,2331.2,5797.8,2397.2,5866.8,2338.2z M21423.8,2240.2l37-30l-27-40
		c-14-21-29-39-32-39c-10,0-91,61-91,68c0,16,47,72,60,72C21379.8,2271.2,21402.8,2257.2,21423.8,2240.2z M24420.8,2241.2
		c0-6,16-24,35-41c27-24,35-39,35-65c0-40-37-84-70-84c-63,0-76,47-39,144C24401.8,2245.2,24420.8,2268.2,24420.8,2241.2z
		 M18304.8,2159.2c31-43,12-85-24-53c-17,16-19,15-35-9c-10-14-19-56-22-100c-3-42-10-76-15-76c-4,0-20,25-34,55c-17,35-38,62-60,76
		c-26,16-34,27-34,50c0,64,59,37,103-46l21-40l11,67c6,37,17,74,24,82C18258.8,2188.2,18286.8,2185.2,18304.8,2159.2z
		 M23371.8,2055.2c-25-99-27-115-15-143c17-40,34-39,58,2c27,45,33,13,11-54c-29-87-87-88-116-2c-12,39-8,64,42,227
		C23392.8,2219.2,23407.8,2197.2,23371.8,2055.2z M22105.8,2161.2c4-6,2-17-4-24c-9-11-19-12-45-4c-19,6-42,8-52,4
		c-27-10-1-29,86-61c114-42,148-86,100-130c-25-23-67-17-182,25c-101,37-146,64-167,102c-20,35-7,47,22,21c12-11,36-27,52-36
		c48-24,237-88,243-82c12,11-26,35-103,65c-44,17-88,39-97,47c-45,40,1,82,89,83C22075.8,2171.2,22102.8,2166.2,22105.8,2161.2z
		 M18996.8,2115.2c19-15,34-30,34-35c0-14-44-79-53-79c-4,0-25,11-45,25l-37,25l-30-36l-30-35l-42,30c-24,17-43,37-43,44
		s13,28,28,46l28,34l40-27l39-27l24,31C18938.8,2148.2,18952.8,2148.2,18996.8,2115.2z M20073.8,2046.2c43-30,45-44,15-85
		c-25-35-34-36-68-10c-33,26-47,25-74-7l-23-27l-47,30c-25,16-46,32-46,37c0,14,45,77,55,77c6,0,27-11,47-25l37-25l23,30
		C20019.8,2077.2,20025.8,2078.2,20073.8,2046.2z M23185.8,2008.2l39-34l-23-36c-26-42-38-45-74-17c-33,26-51,25-71-5
		c-9-14-21-25-26-25c-17,0-90,52-90,64c0,7,13,27,28,45l28,34l43-29l43-28l19,25c10,13,19,27,19,32
		C23120.8,2050.2,23149.8,2039.2,23185.8,2008.2z M17231.8,1994.2c45-33,48-47,15-88l-25-30l-41,23l-42,24l-30-29l-29-28l-37,21
		c-55,33-59,46-28,87c27,35,29,36,54,22c15-9,35-21,45-28c15-10,21-7,43,21c14,17,28,32,31,32
		C17189.8,2021.2,17209.8,2009.2,17231.8,1994.2z M17662.8,2004.2c10-9,18-29,18-45c0-31-3-33-32-17c-30,16-38,2-51-91
		c-7-46-17-85-23-87s-20,19-32,47c-15,35-31,56-56,71c-38,22-51,47-41,79c14,45,71,4,108-78l21-47l6,60c6,59,23,103,44,117
		C17639.8,2024.2,17641.8,2023.2,17662.8,2004.2z M22544.8,2011.2c14-5,26-17,26-26c0-21-51-102-82-131c-21-19-162-63-203-63
		c-35,0-6,23,74,58c46,21,82,42,80,47c-3,6-36,9-81,6c-58-2-78,0-78,9c0,20,53,99,70,104
		C22381.8,2023.2,22520.8,2021.2,22544.8,2011.2z M23823.8,1970.2c39-33,39-36-2-88l-19-25l-42,28l-42,28l-28-34l-28-33l-43,31
		c-24,17-44,35-46,40s10,25,26,44c26,31,32,34,50,23c67-41,62-40,84-10C23760.8,2009.2,23777.8,2008.2,23823.8,1970.2z
		 M20369.8,1954.2c5-21,12-50,15-65c4-19,13-28,26-28c24,0,24,1,5,47c-8,19-15,47-15,60c0,42,24,21,45-40c18-53,18-58,2-91
		c-18-39-40-45-74-21c-20,14-23,14-33-5c-14-27-65-27-80-1c-5,11-10,51-10,90c0,56,3,71,15,71s15-13,15-55c0-60,16-79,46-54
		c12,10,15,25,11,55c-4,36,5,74,18,74C20357.8,1991.2,20363.8,1974.2,20369.8,1954.2z M3915.8,1778.2c49-28,54-48,20-92
		c-30-41-42-42-95-15c-48,25-52,54-14,99C3857.8,1807.2,3863.8,1807.2,3915.8,1778.2z M5198.8,1728.2c7-35-63-88-228-172
		c-90-47-170-85-177-85c-23,0-14,39,19,75c22,26,81,62,197,120c91,46,171,83,176,81C5191.8,1746.2,5196.8,1737.2,5198.8,1728.2z
		 M3111.8,1609.2c48-27,51-55,10-100c-28-32-30-33-63-19c-68,28-83,26-114-14c-24-32-32-36-58-31c-41,9-76,33-76,54
		c0,24,58,92,78,92c9,0,26-7,36-15c11-8,34-15,52-15c26,0,37,7,54,35C3055.8,1637.2,3060.8,1638.2,3111.8,1609.2z M4673.8,1511.2
		c35-41,53-96,37-115s-27-12-45,28c-7,18-22,44-31,58c-17,26-14,59,5,59C4644.8,1541.2,4659.8,1528.2,4673.8,1511.2z
		 M18560.8,1531.2c0-5-9-43-21-85c-15-57-17-79-9-95c13-25,26-26,39-3c18,32,25,3,11-40c-26-74-90-51-90,32c0,39,50,201,62,201
		C18556.8,1541.2,18560.8,1537.2,18560.8,1531.2z M4548.8,1459.2c4-21-55-88-77-88c-10,0-26,7-37,15c-33,25-61,18-95-25
		c-37-46-66-51-116-20c-40,24-41,33-6,83c29,41,26,41,119,22c28-6,34-3,54,27c41,59,47,61,104,30
		C4522.8,1488.2,4546.8,1469.2,4548.8,1459.2z M21610.8,1506.2c0-8-13-21-29-29c-31-17-526-216-535-216c-14,0-4,28,17,48
		c18,17,305,137,497,207C21598.8,1530.2,21610.8,1527.2,21610.8,1506.2z M23090.8,1513.2c0-5-7-31-15-58c-29-96-13-163,27-113l20,24
		l-6-35c-8-42-38-75-60-67c-29,11-39,57-26,112c25,98,41,145,50,145C23086.8,1521.2,23090.8,1517.2,23090.8,1513.2z M17348.8,1499.2
		c38-38-27-128-111-153c-28-8-59-15-70-15c-32,0-3,25,45,39c59,17,88,38,88,61c0,15-7,20-25,20c-32,0-32,13,1,39
		C17306.8,1514.2,17330.8,1517.2,17348.8,1499.2z M24115.8,1481.2c0-20-4-24-22-22c-16,2-23-2-23-12c0-19,50-22,68-4c9,9,15,9,24,0
		s0-23-40-59c-64-59-68-83-13-83c47,0,113,23,164,56c22,14,41,23,44,21c2-3-12-23-32-46c-43-48-128-83-188-79c-54,4-65,24-49,83
		c12,44,11,48-10,64c-20,17-21,21-8,50C24054.8,1509.2,24115.8,1531.2,24115.8,1481.2z M24728.8,1489.2c17-17,15-58-2-58
		c-8,0-18,5-21,10c-15,24-34-15-41-81c-4-38-10-72-15-75c-4-2-17,12-28,33c-10,21-35,54-55,72c-36,34-46,64-26,76c22,13,51-8,77-57
		l28-51l6,49C24661.8,1490.2,24693.8,1524.2,24728.8,1489.2z M19976.8,1421.2c-23-81-6-131,29-83c7,9,15,12,18,6c9-14-25-77-44-81
		c-25-5-49,26-49,62c0,30,29,131,46,157C19991.8,1507.2,19991.8,1477.2,19976.8,1421.2z M19201.8,1437.2c14-30,4-75-18-83
		c-9-4-30,1-46,11c-30,17-30,17-66-17c-43-42-78-60-151-80s-170-30-170-17c0,5,26,17,58,25c177,50,213,66,279,126
		C19158.8,1466.2,19184.8,1474.2,19201.8,1437.2z M23869.8,1432.2c20-13,16-55-8-89s-86-67-145-78c-58-10-42,15,24,38
		c85,29,123,78,60,78c-37,0-38,12-4,39C23825.8,1442.2,23847.8,1446.2,23869.8,1432.2z M17890.8,1402.2c0-31-33-52-81-50
		c-24,1-59-4-76-12c-29-12-36-11-62,4c-46,27-79,21-196-38c-86-44-129-59-199-71c-119-21-133-4-21,24c51,12,136,46,208,81
		c133,66,181,75,235,44c30-17,31-17,69,10c33,24,39,25,49,12c15-21,31-19,44,5C17872.8,1434.2,17890.8,1429.2,17890.8,1402.2z
		 M21075.8,1401.2c0-14-29-28-225-104c-112-44-143-47-118-13c13,17,314,137,333,133C21071.8,1415.2,21075.8,1408.2,21075.8,1401.2z
		 M20529.8,1381.2l42-31l-18-30c-28-48-45-52-88-23l-38,25l-27-33l-27-32l-42,27c-46,31-51,52-20,91c25,32,32,32,75,0l34-26l20,23
		c10,13,19,27,20,32C20460.8,1419.2,20489.8,1410.2,20529.8,1381.2z M23549.8,1371.2c26-19,39-35,35-43c-22-38-47-67-57-67
		c-7,0-30,15-52,34l-39,33l27,37c16,20,32,36,36,36S23526.8,1387.2,23549.8,1371.2z"/>
	<path class="st0" d="M7560.8,2791.2c0-5,5-10,10-10c6,0,10,5,10,10c0,6-4,10-10,10C7565.8,2801.2,7560.8,2797.2,7560.8,2791.2z"/>
	<path class="st0" d="M8575.8,2791.2c-3-5,1-10,9-10c9,0,16,5,16,10c0,6-4,10-9,10C8585.8,2801.2,8578.8,2797.2,8575.8,2791.2z"/>
	<path class="st0" d="M7552.8,2714.2c2-17,9-28,18-28s16,11,18,28c3,22-1,27-18,27S7549.8,2736.2,7552.8,2714.2z"/>
	<path class="st0" d="M8040.8,2726.2c-17-20-10-26,39-32c31-4,41-2,41,9C8120.8,2739.2,8064.8,2755.2,8040.8,2726.2z"/>
	<path class="st0" d="M8567.8,2727.2c-7-19,17-51,31-42c20,12,15,56-7,56C8581.8,2741.2,8570.8,2735.2,8567.8,2727.2z"/>
	<path class="st0" d="M6060.8,2376.2c0-39,14-46,30-16c12,23,3,51-16,51C6065.8,2411.2,6060.8,2399.2,6060.8,2376.2z"/>
	<path class="st0" d="M5216.8,2203.2c-6-11,18-158,40-246c21-81,57-149,88-165c32-17,146-9,202,14c45,18,94,62,94,83
		c0,29-76,105-161,160c-118,77-242,156-250,160C5225.8,2211.2,5219.8,2208.2,5216.8,2203.2z"/>
	<path class="st0" d="M22973.8,2684.2c-21-8-15-29,12-41c22-10,25-9,25,7C23010.8,2672.2,22990.8,2690.2,22973.8,2684.2z"/>
	<path class="st0" d="M21713.8,1783.2c10-224,40-335,100-377c32-22,109-18,193,10c83,28,184,81,184,97c0,23-44,80-105,136
		c-63,58-354,272-370,272C21711.8,1921.2,21710.8,1859.2,21713.8,1783.2z M21992.8,1674.2c21-19,24-63,5-63c-7,0-18,5-25,12
		c-17,17-22,8-35-78c-7-42-17-79-23-81s-19,15-29,38c-11,22-34,52-52,66c-36,27-45,69-17,80c19,7,58-29,74-68c18-42,27-36,32,21
		c3,28,13,59,23,70C21967.8,1695.2,21969.8,1695.2,21992.8,1674.2z"/>
	<path class="st0" d="M24215.8,1791.2c27-29,53-34,83-14l27,18l-25,7c-14,4-43,7-64,8C24198.8,1811.2,24197.8,1811.2,24215.8,1791.2
		z"/>
	<path class="st0" d="M3260.8,2017.2c0-16,19-25,38-19c22,8,13,33-13,33C3270.8,2031.2,3260.8,2025.2,3260.8,2017.2z"/>
	<path class="st0" d="M2313.8,1906.2c-31-16-67-46-96-83c-47-57-58-82-34-82c21,0,160,46,197,65c90,46,103,68,57,98
		C2394.8,1931.2,2365.8,1932.2,2313.8,1906.2z"/>
	<path class="st0" d="M19434.8,2289.2c-8-12,21-38,43-38c16,0,17,22,1,38C19463.8,2304.2,19443.8,2304.2,19434.8,2289.2z"/>
	<path class="st0" d="M21243.8,1839.2c-52-28-203-147-203-159c0-28,225,4,391,57c95,30,99,43,25,88
		C21389.8,1867.2,21303.8,1872.2,21243.8,1839.2z"/>
	<path class="st0" d="M18913.8,1779.2c-11-13-28-35-38-51c-17-26-17-28,1-48c36-40,50-42,89-8c40,35,42,44,18,94
		C18964.8,1806.2,18942.8,1810.2,18913.8,1779.2z"/>
	<path class="st0" d="M19450.8,1596.2c13-16,70-21,70-6c0,12-25,21-57,21C19442.8,1611.2,19439.8,1609.2,19450.8,1596.2z"/>
	<path class="st0" d="M18994.8,2646.2c-10-25,4-45,30-45c36,0,43,20,15,41C19010.8,2665.2,19001.8,2665.2,18994.8,2646.2z"/>
	<path class="st0" d="M19905.8,2671.2c-8-13,3-30,21-30s18,14,0,29C19916.8,2678.2,19910.8,2679.2,19905.8,2671.2z"/>
	<path class="st0" d="M4884.8,2092.2c-55-40-107-97-100-109c3-6,43,6,96,29c50,21,94,39,99,39s14,7,21,15c10,13,10,19-5,35
		C4970.8,2129.2,4930.8,2126.2,4884.8,2092.2z"/>
	<path class="st0" d="M24396.8,2164.2c-3-3-6-17-6-30c0-21,4-24,32-21c17,2,33,8,35,13
		C24461.8,2139.2,24406.8,2173.2,24396.8,2164.2z"/>
</g>
</svg>
