<?xml version="1.0" encoding="utf-8"?>
<!-- Generator: Adobe Illustrator 28.0.0, SVG Export Plug-In . SVG Version: 6.00 Build 0)  -->
<svg version="1.1" id="Layer_1" xmlns="http://www.w3.org/2000/svg" xmlns:xlink="http://www.w3.org/1999/xlink" x="0px" y="0px"
	 viewBox="0 0 2734 331" style="enable-background:new 0 0 2734 331;" xml:space="preserve">
<style type="text/css">
	.st0{fill:#056354;}
	.st1{fill:#FFFFFF;}
</style>
<g>
	<path class="st0" d="M658.3,96.7c-0.8,0-1.9,0.2-2.4,0.8c-1.1,1.2-1.1,2.7-0.2,4.1c0.3,0.7,1,1.2,1.3,1.4c1.9,0,2.3-0.6,2.7-2.5
		C660,98.9,659.3,96.7,658.3,96.7z"/>
	<path class="st0" d="M658.8,92.3c0-0.9-0.4-1.5-1.3-1.6c-1.2-0.1-1.7,0.7-1.7,1.7c0.1,0.6,0.7,1.1,1,1.6
		C658,93.7,658.9,93.6,658.8,92.3z"/>
	<path class="st0" d="M564.4,96.6c-1.6,0-2.6,1.2-2.7,3c0,1.9,1,3.3,2.4,3.3c1.3,0,2.5-1.5,2.6-3.2
		C566.7,98.1,565.6,96.7,564.4,96.6z"/>
	<path class="st0" d="M1335.3,161.8c-4.2-0.5-8.5-0.5-12.7-0.7c-2.3-0.1-3.3,1-3.4,3.3c-0.1,8.8-0.4,17.6-0.3,26.4
		c0,0.9,1.8,2.5,2.8,2.5c7.3,0.2,14.5,0.1,22.9,0.1c-0.4-8.3-0.6-16.1-1.4-23.8C1342.7,165.3,1339.7,162.3,1335.3,161.8z"/>
	<path class="st0" d="M2321.7,202.5c0,0.1,0,0.1,0,0.2c2.3-0.3,4.6-0.7,6.9-0.8c4-0.3,7.9-1.1,11.8-2.1c3.4-0.8,6.8-1.7,10.2-2.7
		c2.1-0.6,4.1-1.3,6-2.1c1.5-0.6,1.6-1.5,0.4-2.6c-2.1-2.1-4.4-3.7-7.1-4.8c-2.2-0.9-4.5-1.4-6.8-1.4c-4.3,0.1-8.1,1.9-11.5,4.5
		c-2.7,2.1-5.4,4.3-8.1,6.4c-1.4,1.1-2.8,2.3-4.1,3.6c-0.4,0.3-0.4,1-0.6,1.5c0.5,0.2,0.9,0.4,1.4,0.5
		C2320.8,202.6,2321.3,202.5,2321.7,202.5z"/>
	<path class="st0" d="M2195.5,207.3c-1.1-0.5-2.2-0.7-3.4-1.1c0,0.1,0,0.1-0.1,0.2c-0.4,0-0.9,0-1.2,0.1c-0.4,0.2-1,0.5-1.1,0.9
		c-0.1,0.3,0.4,0.8,0.8,1.1c1.2,1,2.8,1.1,4.2,1.2c0.6,0,1.4-0.3,1.7-0.8C2196.8,208.2,2196.1,207.6,2195.5,207.3z"/>
	<path class="st0" d="M564.1,93.8c0.5-0.1,0.9-0.7,1.9-1.4c-1-0.8-1.6-1.6-2.1-1.5c-0.5,0-1.1,1-1.2,1.6
		C562.5,93.5,563.3,94,564.1,93.8z"/>
	<path class="st0" d="M2148.7,191.5c-2.3,2.1-4.2,4.4-5.7,7.1c-0.4,0.7-0.3,1.4,0.2,2c0.9,0.9,1.8,1.9,2.8,2.7
		c1.2,1,2.5,1.2,3.8,0.3c1.4-1,2.7-2.1,4-3.3c0.5-0.4,0.6-1.2,0.8-1.7c-0.4-2.8-1.4-5.1-3.1-7.1
		C2150.7,190.7,2149.5,190.8,2148.7,191.5z"/>
	<path class="st0" d="M2193.9,154.4c0-2.8-2.1-4.3-4.4-3.2c-0.4,0.2-1,0.8-1,1.2c0,0.4,0.5,1,0.9,1.3c0.9,0.6,1.9,1,2.9,1.6
		C2193.4,156,2193.9,155.7,2193.9,154.4z"/>
	<path class="st0" d="M152.2,186.3c-1.3-1.4-3-1.9-5.4-2.1c-1.1,0.4-2.8,0.8-4.3,1.7c-1.7,1-3.4,2.3-4.8,3.8c-2.1,2.4-4,5.1-5.9,7.7
		c-0.2,0.3-0.3,0.8-0.4,1.2c-0.1,0.9,0.4,1.5,1.3,1.5c0.5,0,1.1-0.2,1.7-0.4c1.8-0.7,3.6-1.4,5.4-2c2.4-0.8,4.9-1.4,7.2-2.5
		c2.4-1.2,4.5-2.8,6.7-4.3c1.1-0.7,1.2-2,0.2-3C153.4,187.3,152.7,186.9,152.2,186.3z"/>
	<path class="st0" d="M2229.8,124.1c0.4-0.2,0.5-0.8,0.7-1.3c-0.3-2-1.5-2.9-3.1-2.3c-1.1,0.4-1.3,1.1-0.5,1.9
		c0.5,0.5,1,0.9,1.6,1.2C2228.9,123.9,2229.5,124.3,2229.8,124.1z"/>
	<path class="st0" d="M216.7,179.1c1.2,0.1,2.2-0.8,2.2-1.9c0-1-0.8-1.8-2-1.8s-2.2,0.8-2.3,1.9
		C214.6,178.3,215.5,179.1,216.7,179.1z"/>
	<path class="st0" d="M2595.5,163.8c-0.8-0.6-1.7-1.2-2.5-1.8c-1.4-1.1-2.5-0.7-2.9,1.1c-0.1,0.3-0.1,0.6-0.1,0.7c0,2,1,3.2,2.7,3.1
		c0.9-0.1,1.8-0.4,2.6-0.8C2596.5,165.7,2596.5,164.6,2595.5,163.8z"/>
	<path class="st0" d="M332.5,180.7c0.6-0.1,1.2-0.5,1.7-0.8c3.3-2.1,7.1-3.1,10.6-4.8c1.1-0.5,4.3-1.5,3.8-3.4
		c0-0.2-0.1-0.6-0.2-0.9c-0.6-1.5-3.2-2.8-4.7-2.6c-2.2,0.3-4.1,1.9-5.8,3.4c-2,1.8-3.9,3.8-5.7,5.8c-0.4,0.4-0.8,0.9-1,1.4
		C330.7,180,331.4,180.9,332.5,180.7z"/>
	<path class="st0" d="M393,181.1c-2.9-3.4-6.5-5.9-10.1-8.4c-2.5-1.7-5.1-3.2-7.7-4.9c-1.6-1-3.2-2.1-4.7-3.2
		c-1.2-0.9-2.3-1.8-3.5-2.7c-0.7-0.5-1.4-0.8-2.2-0.3c-0.8,0.5-0.7,1.4-0.6,2.2c1.2,8.7,2.2,17.6,5.4,25.7c1.1,2.5,2.4,5.1,4.7,6.4
		c1.2,0.7,2.5,0.9,3.9,1c1.1,0.1,2.3,0,3.5-0.2c5.1-0.7,11.9-2.4,14.9-7.4c0.7-1.2,0.7-2.2,0.1-3.3
		C395.5,184.3,394.4,182.6,393,181.1z"/>
	<path class="st0" d="M431.3,149.8c0.3-0.7,0.4-1.5,0.6-2.1c0-0.6,0-0.9-0.1-1.2c-0.2-1-0.9-1.7-1.6-1.7c-0.7-0.1-1.5,0.5-1.6,1.6
		c-0.2,1-0.1,2.1,0,3.1c0.1,0.6,0.5,1.1,1.2,1.2C430.5,150.8,431,150.4,431.3,149.8z"/>
	<path class="st0" d="M609.9,96.5c-0.5,0.1-1,0-1.3,0.2c-0.9,0.8-2.1,1.6-2.4,2.6c-0.4,1.4,0.9,2.1,2,2.3c1.9,0.4,3.9,0.5,5.8,0.5
		c1.1,0,1.6-1.4,0.9-2.3C613.7,98,612,96.8,609.9,96.5z"/>
	<path class="st0" d="M2156.1,127.4c0.6-0.2,1.6-0.5,2.5-0.9c0.4-0.2,0.9-0.7,0.9-1.1s-0.3-0.9-0.7-1.2c-0.9-0.7-1.9-1.4-2.8-2
		c-1-0.7-1.9-0.5-2.4,0.6c-0.2,0.5-0.4,1.1-0.4,1.7C2153.2,125.9,2154.5,127.4,2156.1,127.4z"/>
	<path class="st0" d="M2479.4,123.1c-0.1-0.5-0.2-1.3-0.6-1.9c-0.9-1.8-2.3-2.1-3.8-0.9c-0.9,0.7-1,1.5-0.1,2.2
		c0.9,0.7,1.9,1.3,3,1.8C2478.7,124.6,2479.4,124.2,2479.4,123.1z"/>
	<path class="st0" d="M2684.7,113.3c-3.6-29.2-14.7-54.5-32.4-74.1c-4.2-4.7-8.2-8.4-9.1-8.4c-0.8,0-6.2-2.7-12-5.9
		c-13-7.2-24.2-11.6-34.5-13.2c-9.5-1.6-2450.8-1.6-2460.1,0c-8.8,1.6-21.6,6.5-33.6,13.2c-5.8,3.2-11.2,5.9-12,5.9
		c-2.5,0-15.9,15.7-22.1,25.8c-10.2,16.5-16.7,35.5-19.3,56.2c-2.1,16.2-2.1,84,0,100.4c5.1,40.8,26.1,75.5,57,94.2
		c6.1,3.6,15.5,8.1,21,10l10,3.2h1229.5h1229.5l10-3.2c13.4-4.5,30-14.6,40.4-24.8c16.7-16.3,30.1-41.5,35.8-67.1
		c2.6-11.8,2.6-13,3-56C2686.2,134.2,2685.9,122.9,2684.7,113.3z M2597,139.3c0.2,0.5,0.2,1.4-0.1,1.8c-0.7,0.8-1.5,1.5-2.4,2
		c-2.1,1-4.3,1.8-6.4,2.6c-2.6,1-5.2,2-7.8,3c-2.5,0.9-4.9,1.9-7.4,2.8c-1.6,0.6-2.9,1.2-3.4,3.1c-0.6,2.9-1.6,5.8-2.3,8.7
		c-0.4,1.7-0.3,3.5,1.2,4.8c0.8,0.7,1.6,0.6,2.1-0.4c0.2-0.5,0.4-1,0.6-1.5c0.2-0.3,0.5-0.5,0.8-0.7c0.1,0.4,0.4,0.7,0.4,1
		c-0.2,1.9-1,3.7-2,5.3c-0.5,0.8-1,1.4-1.9,1.3c-1.5,0.1-2.2-0.9-2.8-2c-1.1-2-1.2-4.1-0.6-6.2c0.9-3.1,1.9-6.2,2.7-9.3
		c0.1-0.5-0.1-1.1-0.1-1.7c-0.6,0.1-1.2,0.1-1.8,0.3c-1.2,0.4-2.4,1-3.7,1.5c-2.5,0.9-5.1,1.8-7.6,2.7c-2.4,0.9-4.8,1.9-7.3,2.9
		c-2.5,1-5,1.8-7.4,2.8c-2.4,0.9-4.8,1.9-7.2,2.9c-1.1,0.4-2.3,0.9-3.4,1.3c-1,0.4-1.9,0.8-2.9,1.1c-0.4,0.1-0.9,0-1.4-0.1
		c0.1-0.5,0.1-1,0.3-1.4c1.5-2.8,4.2-4.1,7.1-5c2.6-0.9,5.1-1.9,7.7-2.9c1.4-0.5,2.8-1,4.1-1.5c2.6-0.9,5.1-1.9,7.6-2.8
		c2.7-1,5.4-2,8.1-3c2.5-1,5.1-2,7.6-2.9c2.3-0.9,4.6-1.7,7-2.6c2.7-1,5.4-2.1,8.1-3.1c2.3-0.9,4.6-1.7,6.9-2.6
		c1.7-0.6,3.4-1.3,5.1-1.9c0.4-0.1,0.8-0.4,1.2-0.4C2596.1,139,2596.9,139.1,2597,139.3z M2598,166.8c-1.1,2.9-3.1,4.4-6.4,4.1
		c-2.1-0.2-3.3-1.4-3.3-3.6c0-0.3,0-0.6,0-0.8c-0.1-2.5,0.8-4.7,1.8-6.9c0.5-1.1,0.8-2.4,1.3-3.5c0.1-0.3,0.5-0.6,0.7-0.9
		c0.2,0.3,0.5,0.6,0.6,0.9c0.2,1.1,1,1.6,1.7,2.2c0.9,0.7,1.8,1.3,2.6,2C2599,162.2,2598.8,164.6,2598,166.8z M2547.2,180.3
		c-0.2,0.5-0.2,0.7-0.4,1c-1.1,1.5-2.1,3-3.2,4.5c-0.5,0.7-1.1,0.8-1.8,0.3c-1.5-1-3-2.1-4.5-3.1c-1.2-0.8-1.8-0.6-2.6,0.5
		c-0.7,1-1.3,1.9-2.1,2.8c-0.8,1-1.4,1-2.4,0.4c-1.8-1.2-3.5-2.4-5.3-3.7c-0.7-0.5-0.7-1.3-0.2-2c0.8-1.2,1.6-2.4,2.4-3.5
		c1.1-1.5,2-1.6,3.4-0.6c1.3,0.9,2.6,1.9,3.9,2.8c0.8,0.6,1.6,0.4,2.2-0.5c0.5-0.8,1-1.6,1.6-2.4c1.1-1.7,2.1-1.8,3.7-0.6
		c1.4,1,2.8,1.9,4.2,3C2546.6,179.3,2546.9,179.9,2547.2,180.3z M2561.7,126.8c2.3-0.9,4.6-1.7,6.9-2.5c2.6-1,5.2-2,7.8-3
		c1.2-0.5,2.5-0.9,3.7-1.4c3-1.1,6-2.2,9-3.3c2-0.7,4-1.4,6-2.1c1.1-0.4,1.7,0.2,1.7,1.6c-0.4,1.3-0.9,2.8-2.4,3.6
		c-1.6,0.8-3.3,1.5-4.9,2.2c-2.5,1-5.1,2-7.6,3c-1.2,0.5-2.3,0.9-3.5,1.4c-3.4,1.3-6.9,2.5-10.3,3.8c-3.5,1.3-6.9,2.8-10.3,4.1
		c-2.4,0.9-4.9,1.8-7.3,2.7c-2.2,0.8-4.4,1.8-6.6,2.7c-2.5,1-5.1,2-7.6,2.9c-1.2,0.5-2.4,0.9-3.6,1.4c-2.7,1-5.4,2.1-8.1,3.1
		c-2.3,0.9-4.5,1.9-6.8,2.8c-2.3,0.9-4.5,1.8-6.8,2.7c-1.6,0.7-3.2,1.3-4.9,2c-2,0.8-4,1.6-5.9,2.4c-2.4,1-4.9,2.1-7.3,3.1
		c-2.1,0.9-4.2,1.8-6.3,2.7c-1.4,0.6-2.8,1.3-4.2,1.9c-0.3,0.1-0.6,0.3-0.8,0.3c-0.4,0-0.9,0-1.1-0.2c-0.2-0.2-0.2-0.8-0.1-1.1
		c1.6-3.7,4.2-6.3,8-7.8c2.3-0.9,4.5-2,6.7-2.9c3.2-1.3,6.4-2.6,9.6-3.9c2.3-1,4.6-2,6.9-2.9c2.3-0.9,4.5-1.8,6.8-2.7
		c1.2-0.5,2.4-0.9,3.6-1.4c2.3-1,4.6-1.9,6.9-2.9c0.9-0.4,1.9-0.7,2.9-1.1c3.9-1.5,7.8-3,11.7-4.5c3.5-1.3,7-2.5,10.5-3.9
		C2556.7,128.8,2559.2,127.8,2561.7,126.8z M2508.5,185.3c0.8,0.4,1.5,0.2,1.9-0.5c0.6-1,1.1-2.1,1.6-3.2c0.1-0.2,0.1-0.6,0.3-0.8
		c0.2-0.3,0.6-0.4,0.9-0.6c0.2,0.3,0.5,0.6,0.5,0.9c-0.2,1.3-0.4,2.7-0.8,4c-0.5,1.5-1.2,2.8-1.8,4.2c-0.6,1.5-1.7,2.5-3.3,2.6
		c-1.6,0.1-2.6-1.1-3.4-2.3c-1.3-2.1-1.6-3.5-1.6-6c-0.1,0-0.2,0-0.2-0.1c0.4-1.9,0.8-3.9,1.3-5.8c0.8-3,1.7-6,2.6-8.9
		c0.7-2.5,1.5-5,2.3-7.4c0.1-0.2,0.3-0.5,0.5-0.5c0.2,0,0.5,0.3,0.5,0.5c0.1,0.5,0.2,1,0.1,1.4c-0.4,1.8-0.9,3.6-1.3,5.5
		c-0.9,3.5-1.8,7-2.7,10.5C2505.3,180.8,2506.7,184.3,2508.5,185.3z M2495.2,178.8c-0.8,1.2-1.6,2.5-2.4,3.7
		c-0.3,0.4-0.8,0.7-1.4,1.1c-1.1-0.7-2-1.3-2.9-1.9c-0.8-0.5-1.5-1.1-2.2-1.6c-1.2-0.8-2-0.6-2.8,0.6c-0.7,1.1-1.4,2.1-2.2,3.1
		c-0.5,0.7-1.2,0.8-1.9,0.3c-1.8-1.2-3.5-2.5-5.2-3.7c-1.1-0.8-1.1-1.4-0.3-2.5c0.9-1.2,1.7-2.5,2.6-3.8c0.8-1.1,1.3-1.1,2.4-0.4
		c1.3,0.9,2.6,1.9,3.9,2.8c1.3,0.9,2.1,0.7,3-0.6c0.7-1,1.4-2.1,2.2-3.1c0.4-0.6,1-0.8,1.6-0.4c1.8,1.3,3.6,2.5,5.3,4
		C2496.1,177.2,2496,177.5,2495.2,178.8z M2488.8,136c0.7-1,2-1.5,3.1-1.9c3.3-1.2,6.5-2.5,9.8-3.7c1.6-0.6,3.3-1.2,4.9-1.9
		c1.1-0.4,3.3-0.8,3.9-1.9c0.5-1-0.3-2.1-0.7-2.9c-0.5-1-1-2.1-1.5-3.2c-0.6-1.3-1.3-2.5-2.5-3.3c-0.9-0.7-2-1.1-2.8-1.8
		c-1.4-1.2-2-3.3-1.3-5.1c0.2-0.6,0.7-1.2,1.3-1.3c0.5,0,0.9,0.2,1.3,0.5c2.8,1.9,4.9,4.7,6,7.8c0.4,1,0.6,2.1,1.3,2.9
		c0.7-0.5,0.9-1.5,0.9-2.3c0-2.2,0-4.2,0.6-6.4c0.6-2.1,1.5-4,2.7-5.8c0.3-0.5,0.8-0.9,1.3-0.9c0.4,0,0.7,0.4,1,0.7
		c0.1,0.1,0.2,0.3,0.3,0.4c0.7,0.8,1.3,1.6,1.7,2.6c0.5,1.1,0.6,2.4,0.1,3.5c-0.2,0.3-0.4,0.7-0.8,0.7c-0.3,0-0.5-0.1-0.8-0.3
		c-0.4-0.4-0.8-0.8-1.3-1.2c-0.5-0.3-1.1-0.5-1.6-0.3c-0.3,0.1-0.5,0.4-0.7,0.7c-1.2,1.6-1.2,3.8-1.5,5.7c-0.3,2.3-0.5,4.6-0.5,6.9
		c0,0.3,0,0.5,0.1,0.8c0.2,0.5,0.9,0.5,1.4,0.4c1.5-0.5,3-1,4.5-1.6c2.7-1,5.5-2.1,8.2-3.1c2.5-0.9,4.9-1.9,7.4-2.8
		c1.3-0.5,2.6-1,3.9-1.5c1.8-0.7,3.5-1.4,5.3-2c0.4-0.1,1.1-0.1,1.4,0.2c0.3,0.3,0.4,1.1,0.2,1.3c-0.6,0.8-1.3,1.7-2.1,2.1
		c-1.1,0.7-2.4,1-3.7,1.5c-2.2,0.9-4.5,1.8-6.7,2.6c-2.5,1-5.1,2-7.6,3s-5.1,2-7.6,3c-7.1,2.8-14.2,5.5-21.4,8.3
		c-1.8,0.7-3.7,1.4-5.5,2.1c-0.5,0.2-1,0.4-1.6,0.5c-0.3,0-0.6,0-0.8-0.2c-0.1-0.1-0.1-0.3-0.2-0.4
		C2488,137.6,2488.3,136.7,2488.8,136z M2390.1,133.5c0.9-1.7,2-3,3.8-3.7c3.4-1.3,6.7-2.7,10-4c2.2-0.9,4.4-1.7,6.6-2.5
		c2.7-1,5.3-2.1,8-3.1c2.3-0.9,4.6-1.8,6.9-2.6c2.3-0.9,4.6-1.8,6.8-2.7c0.7-0.3,1.4-0.6,1.9,0.1c0.6,0.7,0.1,1.3-0.4,1.9
		c-1.2,1.6-3,2-4.7,2.7c-2.5,1.1-5.1,2.1-7.6,3.1c-2.4,0.9-4.8,1.8-7.1,2.8c-2.4,0.9-4.7,1.9-7.1,2.9c-1.4,0.5-2.7,1-4.1,1.6
		c-1.2,0.5-2.5,1-3.7,1.5c-2.3,1-4.7,2-7,2.9c-0.5,0.2-1.1,0.3-1.5,0.4C2390,134.6,2389.7,134.2,2390.1,133.5z M2375.6,115
		c0.2-0.2,0.4-0.3,0.7-0.4c0.5,0,0.9,0.4,1.2,0.8c3.4,4.5,5.6,10,6.5,15.6c0.3,2.1,0.4,4.3,0.4,6.4c0,0.7-0.1,1.4-0.1,2.1
		c-0.1,1.1-0.4,7.6-2.1,7.4c-0.8-0.1-0.4-1.1-0.4-1.6c0.8-7.7-0.6-14.6-4.7-21.3c-0.9-1.4-1.8-2.8-2.3-4.3
		C2374.3,118,2374.5,116.1,2375.6,115z M2333.4,120.4c0.1-0.6,0.1-1.2,0.3-1.7c0.4-1.2,1.7-1.7,2.7-0.9c2.2,1.8,4.2,3.8,5.3,6.6
		c0.3,0.9,0.6,1.9,1,2.8c0.1,0.3,0.5,0.5,0.7,0.8c0.2-0.3,0.6-0.6,0.7-0.9c0.2-1.2,0.2-2.4,0.3-3.7c0.2-2.4,0.9-4.7,1.8-6.9
		c0.7-1.8,2.5-2.4,4.2-1.5c1.9,1,2.8,3.9,1.9,5.9c-0.3,0.7-0.9,0.8-1.5,0.2c-0.3-0.3-0.6-0.8-0.9-1.1c-1.1-1.1-2.4-1-3.1,0.3
		c-1.1,1.9-1.3,4-1.4,6.1c-0.2,2.6-0.3,5.2-0.5,7.8c0,0.4-0.5,0.9-0.8,1c-0.3,0-0.9-0.3-1.1-0.6c-0.5-1.1-0.9-2.3-1.4-3.5
		c-0.8-2.3-2.1-4.2-4.1-5.7c-0.7-0.5-1.5-1-2.2-1.4C2333.8,123.2,2333.3,122,2333.4,120.4z M2352.9,158.5c-0.5,0.8-1,1.7-1.6,2.5
		c-0.6,1-1.4,1.9-2,2.8c-0.5,0.7-1.1,0.9-1.8,0.4c-1.8-1.3-3.7-2.6-5.5-4c-0.7-0.5-0.8-1.4-0.3-2c0.9-1.4,2-2.8,3-4.1
		c0.6-0.8,1.4-0.9,2.3-0.3c1.8,1.2,3.6,2.5,5.3,3.7C2352.6,157.7,2352.7,158.1,2352.9,158.5z M2308.2,134.9
		c-0.1,0.4-0.4,0.9-0.8,1.1c-0.3,0.1-0.8-0.3-1.1-0.4c-0.1-0.1-0.2-0.2-0.3-0.3c-1.2-1.3-2.5-1.1-3.1,0.5c-0.8,2.1-1.3,4.2-1,6.5
		c-0.1,0.9-0.1,1.8-0.3,2.6c-0.5,2.1,0.1,3.9,1.7,5.4c0.8,0.8,1.6,1.7,2.3,2.5c0.7,0.8,0.7,1.8,0.3,2.8c-0.5,1-1.2,1.6-2.5,1.5
		c-1.8-0.1-3.6,0.1-5.3,0.9c-0.7,0.4-1.1,0.9-1,1.7c0.1,0.6,0.1,1.3,0.3,1.9c0.3,1.4,0.7,2.8,1.1,4.1c1.5,5,2.1,10.1,1.8,15.2
		c-0.1,2.3-0.6,4.6-0.9,6.9c0,0.2-0.4,0.5-0.6,0.7c-0.2-0.2-0.5-0.5-0.6-0.7c-0.1-0.6,0-1.2,0.1-1.8c0.9-4.8,0.3-9.6-0.7-14.4
		c-0.7-3.6-1.6-7.2-2.4-10.9c-0.4-1.7-0.4-3.5,0.9-4.9c0.8-0.9,1.6-1.9,3.1-2c0.4,0,0.7-0.4,1-0.6c0,0-0.2-0.6-0.4-0.6
		c-0.4,0-0.9,0-1.3,0.1c-0.4,0.2-0.5,1.2-1.2,0.7c-0.8-0.5-0.4-1.2-0.1-1.8c0.4-0.8,1.1-1.6,1.5-2.4c0.3-0.6,0.7-1.4,0.6-1.9
		c-0.7-3.6-2.4-6.7-5.8-8.6c-2.1-1.1-2.8-3-1.8-5.2c0.5-1,1.4-1.3,2.3-0.6c2.6,2,4.4,4.6,5.3,7.8c0.1,0.4,0.4,0.7,0.6,1.1
		c0.3-0.4,0.8-0.7,0.8-1.1c0.2-1.2,0.1-2.5,0.3-3.8c0.4-1.7,0.9-3.4,1.5-5.1c0.9-2.1,2.5-2.4,4.2-0.8
		C2307.9,132.1,2308.5,133.4,2308.2,134.9z M2249.6,134.4c2.5-0.9,5-1.8,7.5-2.7c1.7-0.6,3.4-1.2,5.1-1.8c1.4-0.5,2.9-1,4.3-1.5
		c3.1-1,6.1-2.1,9.2-3.1c1.5-0.5,3-1.1,4.5-1.7c1.4-0.5,2.9-1,4.3-1.5c1.9-0.6,3.8-1.3,5.7-2c2.7-0.9,5.3-1.8,8-2.7
		c1.8-0.6,3.5-1.3,5.3-1.9c0.8-0.3,1.8-0.9,2.5-0.1c0.7,0.8,0.1,1.7-0.3,2.5c-0.8,1.6-2.3,2.2-3.9,2.8c-1.6,0.5-3.1,1.1-4.7,1.7
		c-2.7,1-5.4,2-8.1,3s-5.4,2-8.1,3c-1.6,0.6-3.2,1.1-4.8,1.6c-1.2,0.4-2.3,0.8-3.5,1.2c-3.6,1.3-7.1,2.7-10.7,4
		c-1.5,0.6-3.1,1-4.6,1.5c-1.1,0.4-2.3,0.8-3.3,1.3c-0.4,0.2-0.8,0.8-0.9,1.3c-1.1,3.9-2.1,7.8-3.1,11.8c-0.5,2-1,4.2-1,6.2
		c0,1.7,0.4,3.5,1.9,4.8c1.2,1.1,2.5,1,3.2-0.5c0.5-1,0.8-2.1,1.3-3.1c0.2-0.4,0.7-0.9,1-0.9c0.7,0.1,0.7,0.8,0.5,1.3
		c-0.9,2.8-1.8,5.6-2.9,8.3c-0.5,1.3-1.6,2.1-3.3,2.3c-0.7-0.3-1.4-0.6-2-1.1c-1.3-1.1-2-2.6-2.4-4.3c-0.7-3.1-0.3-6.1,0.7-9.1
		c0.9-3,1.8-6,2.7-9c0.5-1.8,1.1-3.6,1.6-5.5c0.1-0.4,0.1-0.9-0.1-1.2c-0.1-0.2-0.8-0.1-1.1,0c-2.8,1-5.5,2-8.2,3
		c-2.5,1-5,2-7.5,2.9c-2.7,1-5.4,2-8.1,3c-0.3,0.1-0.9,0-1.1-0.3c-0.2-0.2-0.2-0.8,0-1.1c1.2-1.9,2.5-3.8,4.6-4.9
		c1.4-0.7,3-1.3,4.5-1.9c2.7-1,5.5-2,8.2-3.1C2244.7,136.2,2247.1,135.3,2249.6,134.4z M2255.5,182c-0.1-1.1-0.2-2.2-0.2-3.3
		c0-0.7,0.5-1.3,1.3-1.3c0.9,0.1,0.9,0.8,0.9,1.5c0,0.9,0,1.8,0,2.7c-0.1,0.8-0.1,1.6-0.2,2.3c-0.1,1.3,0.4,2.3,1.1,3.3
		c0.5,0.8,1.7,1,2.5,0.3c1.5-1.2,2.5-2.6,2.1-4.7c-0.2-0.9-0.4-1.9-0.6-2.8c-0.3-1.1-0.1-2.2,0.4-3.1c0.2-0.3,0.5-0.6,0.7-0.6
		c0.3,0.1,0.7,0.4,0.7,0.7c0.4,1.4,0.6,2.9,0.9,4.3c0.3,1.5,0.1,3.1,1,4.4c0.2,0.3,0.4,0.6,0.6,0.8c0.7,0.6,2.1,0.8,2.6,0.3
		c0.8-0.8,0.4-1.6,0.1-2.4c-0.7-1.8-1.5-3.5-2-5.3c-0.2-0.8,0-1.7,0.2-2.5c0.2-0.8,0.9-0.9,1.4-0.2c0.2,0.2,0.3,0.5,0.4,0.8
		c0.7,1.9,1.5,3.8,2,5.8c0.7,2.7,0.2,5.3-1.6,7.5c-1,1.2-3.4,1-4.4-0.1c-0.2-0.2-0.3-0.4-0.5-0.6c-0.8-0.9-1.5-0.7-2.2,0.3
		c-0.5,0.8-1.2,1.6-2,2.1c-1.5,1-3.8,0.2-4.5-1.4c-0.9-1.9-1.1-3.9-0.8-6.1C2255.7,183.7,2255.5,182.8,2255.5,182z M2268.7,150.4
		c-1.5-1-1.8-3.7-0.7-5.4c0.5-0.8,1.7-0.9,2.6-0.1c1.3,1.2,2.8,2.5,3.8,4c1.1,1.7,1.7,3.7,2.5,5.5c0.1,0.3,0.4,0.5,0.7,0.8
		c0.2-0.3,0.6-0.5,0.7-0.8c0.1-0.6,0.1-1.3,0.1-1.9c0.1-3.3,0.7-6.5,2.2-9.4c1-2,3.6-2,5.2,0c1.1,1.4,1.3,2.9,0.7,4.5
		c-0.4,1-0.9,1.1-1.7,0.3c-0.3-0.3-0.6-0.6-0.9-0.9c-1.6-1.4-2.8-0.6-3.3,1.1c-0.5,1.7-0.7,3.6-0.9,5.4c-0.3,2.5-0.4,5-0.6,7.5
		c0,0.6-0.2,1.4-1,1.3c-0.4,0-0.9-0.6-1.1-1.1c-1.2-2.8-2.1-5.9-4.5-8C2271.2,152,2269.9,151.2,2268.7,150.4z M2244.3,174.8
		c-0.3,0.6-0.5,1.1-0.7,1.5c-0.8,1.2-1.6,2.4-2.5,3.6c-0.8,1.1-1.4,1.2-2.5,0.3c-1.4-1-2.8-2-4.2-2.9c-0.8-0.5-1.6-0.4-2.2,0.4
		c-0.7,0.9-1.3,1.8-1.9,2.6c-0.9,1.1-1.7,1.3-2.8,0.6c-1.8-1.1-3.5-2.3-5.2-3.5c-0.6-0.5-0.8-1.1-0.3-1.8c1-1.5,2-3,3.1-4.5
		c0.6-0.8,1.3-0.8,2.1-0.3c1.4,0.9,2.7,1.8,4,2.8c1.3,1,2,1,2.9-0.3c0.7-1,1.4-2,2.1-3c0.6-0.8,1.4-0.9,2.3-0.3
		c1.6,1.1,3.2,2.3,4.8,3.5C2243.6,173.8,2243.9,174.3,2244.3,174.8z M2203.9,147.1c-0.4-4.6-0.7-9.2-1.1-13.8
		c-0.2-1.7-0.6-3.3-0.7-4.9c-0.2-2.2-0.4-4.5-0.1-6.6c0.2-2,1.1-3.9,1.8-5.8c0.1-0.2,0.5-0.5,0.8-0.5c0.2,0,0.6,0.4,0.7,0.6
		c0.8,2.3,1.5,4.7,2.3,7c0.9,2.5,1.9,5,2.8,7.5c0.5,1.4,0.9,2.8,1.4,4.3c0.3,1,0.6,1.9,0.8,2.9c0.1,0.6,0.2,1.2,0.2,1.8
		c0,0.3-0.3,0.8-0.5,0.9c-0.3,0.1-0.8-0.1-1.1-0.4c-0.5-0.5-0.8-1.2-1.2-1.7c-0.3-0.3-0.6-0.6-0.9-0.9c-0.2,0.4-0.4,0.8-0.5,1.2
		c-0.1,0.2,0,0.5,0,0.8c0.1,0,0.2,0,0.2,0c0,1.7,0,3.3,0,5c0,1.2,0.8,1.6,1.8,1c3.4-2.3,6.7-4.5,9.9-7c2.7-2.1,5.2-4.4,7.8-6.7
		c1.4-1.2,1.1-2.1-0.4-3.1c-1.4-0.9-2.7-2-3.8-3.2c-0.5-0.6-0.7-1.9-0.4-2.8c0.4-1.6,1.1-3.2,1.9-4.7c0.7-1.4,2.1-2,3.5-2.4
		c1.2-0.4,3.1,0.8,3.3,2.1c0.2,2.1,1,4.1,0.3,6.2c-0.6,1.8,0.1,3.2,1.5,4.4c1.2,1,1.3,2.3,1,3.7c-0.1,0.4-0.4,1-0.8,1.1
		c-0.3,0.1-0.9-0.1-1.2-0.4c-2-1.8-2.1-1.9-3.6,0.3c-3.1,4.6-7.3,8.1-11.8,11.1c-2.1,1.4-4.4,2.4-6.6,3.6c-1.4,0.7-1.8,1.5-1.6,3
		c0.4,3.1,0.9,6.3,1.2,9.4c0.5,5,1,10,1.5,14.9c0.3,3.1,0.7,6.3,1,9.4c0.4,4.6,0.8,9.3,1,13.9c0.1,2.1-0.4,4.3-0.7,6.4
		c-0.4,2.3-0.9,4.5-1.4,6.8c-0.3,1.2-0.7,2.4-1.2,3.6c-0.2,0.3-0.8,0.7-1.1,0.7c-0.7,0-0.6-0.7-0.5-1.2c0.7-4.3,0.8-8.6,0.3-12.9
		c-0.5-4.4-0.8-8.7-1.2-13.1c-0.5-5.1-1.1-10.2-1.6-15.3c-0.5-4.5-0.9-9-1.4-13.5c-0.2-2.1-0.6-4.2-0.9-6.2
		c-0.1-0.9-0.6-1.4-1.6-1.2c-0.4,0-0.8-0.2-1.2-0.3c0.2-0.3,0.4-0.7,0.8-1C2203.6,150.1,2204.1,148.8,2203.9,147.1z M2152.6,121.8
		c0.7-1.4,1.1-3,1.6-4.5c0.1-0.3,0.2-0.7,0.4-0.9c0.3-0.3,0.7-0.6,1.1-0.8c0.1,0.3,0.2,0.8,0.4,1c0.4,0.6,0.9,1.3,1.5,1.8
		c1,0.9,2.1,1.7,3.1,2.6c1,1,1.5,2.2,1.3,3.6c-0.6,4-2,6.3-6.3,6.8c-2,0.2-3.5-0.9-3.8-2.8c-0.1-0.7-0.1-1.5-0.2-2.2
		C2151.6,124.8,2151.9,123.3,2152.6,121.8z M2153,138.9c3.7-1.3,7.4-2.6,11-4c0.8-0.3,1.4,0,1.4,0.9c0.1,0.9-0.3,1.6-1.1,2
		c-1.2,0.6-2.5,1.2-3,2.6c-0.1,0.2-0.2,0.4-0.3,0.7c-0.7,2.8-1.4,5.5-2.1,8.3c-0.4,1.5-0.3,2.9,0.7,4.2c0.8,1,1.7,1,2.4-0.1
		c0.3-0.5,0.5-1.3,1.2-1c0.2,0.1,0.3,1.1,0.1,1.6c-0.3,1.1-0.6,2.2-1.2,3.1c-1.7,2.8-3.4,1.8-4.5-0.1c-0.7-1.1-0.9-2.5-1.4-3.7
		c0.5-2,0.9-3.8,1.4-5.6c0.6-2.1,1.3-4.1,1.9-6.2c0.1-0.4,0.1-1-0.1-1.2c-0.3-0.2-0.9-0.3-1.3-0.2c-2.5,0.9-5,1.9-7.6,2.8
		c-2.5,0.9-4.9,1.8-7.4,2.7c-2.6,1-5.2,2-7.8,3c-2.5,0.9-5,1.8-7.5,2.7c-2.4,0.9-4.9,1.9-7.3,2.8c-0.5,0.2-1,0.5-1.5,0.6
		c-0.4,0.1-1.1,0-1.2-0.2c-0.2-0.4-0.2-1-0.1-1.4c0.7-1.5,1.9-2.3,3.4-2.9c2.7-1,5.3-2,8-3c2.5-0.9,5.1-1.9,7.6-2.8
		c2.6-1,5.2-2,7.8-2.9c1.5-0.6,3.1-1.1,4.6-1.6C2150.7,139.7,2151.9,139.3,2153,138.9z M2156.5,168.8c-0.2,0.6-0.2,1-0.4,1.3
		c-0.9,1.4-1.8,2.9-2.8,4.3c-0.6,1-1.2,1-2.1,0.3c-1.6-1.1-3.2-2.2-4.8-3.3c-0.6-0.4-1.1-0.4-1.5,0.2c-0.8,1-1.5,2.1-2.2,3.2
		c-0.2,0.4-0.5,0.7-0.8,1.1c-0.6,0.6-1.3,0.7-2,0.2c-1.5-1.1-3.1-2.1-4.6-3.2c-1.2-0.8-1.4-1.6-0.6-2.8c0.8-1.3,1.7-2.7,2.6-4
		c0.6-1,1.5-1.2,2.4-0.5c1.4,0.9,2.7,1.9,4,2.8c1.1,0.8,2,0.6,2.7-0.6s1.5-2.2,2.2-3.3c0.4-0.6,1-0.8,1.7-0.5
		c0.7,0.3,1.3,0.8,1.9,1.2c1.1,0.8,2.3,1.5,3.3,2.4C2155.9,167.8,2156.2,168.4,2156.5,168.8z M2127.7,123.5c0.2-1.6,1.2-4.3,3.1-2.6
		c2.9,2.6,5.6,5.8,6.3,9.7c0.1,0.3,0.1,0.7,0.5,0.8c0.4,0.1,0.8-0.5,0.8-0.9c0.1-0.7,0.2-1.5,0.3-2.2c0.3-2.7,0.1-9.9,4-10.7
		c0.9-0.2,1.9,0.3,2.5,1c0.6,0.7,1,1.6,1.3,2.5c0.5,1.4,0.1,3.8-1.9,2.5c-0.6-0.4-1.2-1.1-1.9-1.2c-0.7-0.1-1.4,0.4-1.7,1
		c-0.3,0.6-0.4,1.3-0.6,2c-0.4,3.1-0.7,6.3-1.3,9.3c-0.3,1.4-1.2,4.7-2.6,1.9c-0.4-0.7-0.5-1.5-0.8-2.3c-0.9-2.9-3-5.5-5.8-6.9
		c-0.5-0.3-1.1-0.5-1.5-1C2127.8,125.7,2127.6,124.5,2127.7,123.5z M2116,130c1.8-0.6,3.6-1.3,5.4-2c0.3-0.1,0.6-0.3,1-0.3
		c1-0.2,1.6,0.4,1.4,1.4c-0.3,2.2-1.9,3.3-3.8,4.1c-2.7,1-5.4,2.1-8.2,3.2c-2.4,0.9-4.9,1.7-7.3,2.6c-2.4,0.9-4.8,1.8-7.3,2.7
		c-1.7,0.6-3.4,1.3-5.2,1.9c-2.4,0.9-4.7,1.8-7.1,2.7c-3.8,1.4-7.6,2.8-11.4,4.3c-1.6,0.6-3.2,1.3-4.8,2c-0.4,0.2-0.8,0.8-0.9,1.2
		c-1.1,4-2.2,8.1-3.1,12.2c-0.5,1.9-0.8,3.9-1,5.9c-0.2,2,0.6,3.8,2,5.3c0.9,0.9,1.9,0.9,2.6-0.2c0.6-1.1,1.1-2.3,1.6-3.4
		c0.1-0.2,0.1-0.5,0.3-0.7c0.2-0.2,0.6-0.4,0.9-0.5c0.2,0.3,0.5,0.6,0.4,0.9c-0.1,1.1-0.3,2.2-0.6,3.2c-0.6,1.9-1.3,3.7-2.1,5.5
		c-0.6,1.2-1.5,2.4-3.1,2.4c-1.7,0-2.6-1.2-3.4-2.3c-1.2-1.8-1.6-3.9-1.7-6.6c0.3-1.5,0.6-3.7,1.2-5.8c0.9-3.2,1.9-6.4,2.9-9.5
		c0.5-1.5,1.1-3,1.6-4.5c0.1-0.4,0.2-1.1,0-1.3c-0.3-0.3-1-0.4-1.4-0.2c-2.4,0.8-4.7,1.7-7.1,2.6c-2.6,1-5.2,2-7.8,3
		c-1.4,0.5-2.8,1.1-4.2,1.7c-1.2,0.5-2.5,1-3.7,1.5c-2.7,1.1-5.4,2.2-8.1,3.2c-2.2,0.9-4.4,1.7-6.6,2.5c-1.5,0.6-2.9,1.3-4.4,1.9
		c-1.4,0.6-2.8,1.2-4.3,1.6c-0.5,0.1-1.3,0-1.5-0.4c-0.3-0.3-0.2-1.1,0-1.6c0.8-2.5,2.7-4,5.2-4.8c2.4-0.8,4.7-1.9,7-2.8
		c2.5-1,5.1-2,7.6-3c1.1-0.4,2.3-0.9,3.4-1.3c3.3-1.3,6.5-2.7,9.8-3.9c2.5-1,5.1-1.8,7.7-2.8c2.4-0.9,4.7-1.9,7.1-2.8
		c1.5-0.6,3-1.1,4.5-1.6c1.1-0.4,2.3-0.8,3.4-1.3c2.6-1,5.2-2,7.8-3c2.6-0.9,5.1-1.8,7.7-2.7c2.5-0.9,5-1.9,7.5-2.8
		c2.4-0.9,4.9-1.8,7.3-2.6c1.9-0.7,3.8-1.4,5.6-2.1C2111.1,131.7,2113.5,130.8,2116,130z M2091.2,179.6c0,0.5-0.1,0.9-0.3,1.3
		c-0.2,0.4-0.7,0.7-1.2,0.5c-0.4-0.1-0.6-0.5-0.8-0.9c-0.8-1.6-1.2-3.3-2-4.8c-0.8-1.7-2.1-3.3-3.7-4.4c-1.3-0.8-2.9-1.5-3.4-2.9
		c-0.3-0.6-0.3-1.2-0.2-1.8c0.1-0.6,0.2-1.2,0.4-1.7c0.2-0.5,0.4-0.9,0.8-1.1c0.5-0.3,1.2,0,1.7,0.3c2.5,1.6,4.1,4.2,5.3,6.9
		c0.5,1.1,0.9,2.4,1.8,3.2c1.3-1.2,1.1-3.7,1.2-5.3c0.2-2.2,0.5-4.8,1.9-6.7c0.4-0.5,0.8-0.9,1.4-1.1c1.3-0.5,2.8,0.2,3.6,1.3
		c0.7,0.9,2.1,5.1,0,5.4c-0.5,0.1-0.9-0.3-1.2-0.7s-0.5-0.9-0.9-1.2c-0.5-0.4-1.3-0.3-1.8,0s-0.9,0.9-1.2,1.4
		C2090.6,171,2091.5,175.7,2091.2,179.6z M2039.4,184.9c-0.1-3.3,0.7-6.4,2.2-9.3c1-1.9,3.1-2,4.6-0.5c1.5,1.5,1.1,3.3,1.1,5.1
		c0,0.8-0.8,1-1.5,0.5c-0.4-0.3-0.7-0.7-1.1-1.1c-1.3-1.2-2.6-1-3.2,0.7c-0.5,1.4-0.8,3-1,4.5c-0.3,2.8-0.5,5.7-0.8,8.5
		c0,0.5-0.6,0.9-0.9,1.4c-0.5-0.3-1.2-0.6-1.4-1c-0.6-1.3-1-2.8-1.6-4.2c-1-2.3-2.4-4.2-4.8-5.2c-2.8-1.3-3.7-3.4-2.5-6.1
		c0.6-1.4,1.3-1.6,2.6-0.8c2,1.3,3.4,3.2,4.5,5.2c0.9,1.6,1.4,3.4,2.1,5.2c0.1,0.3,0.5,0.6,0.7,0.9c0.2-0.3,0.6-0.6,0.6-1
		C2039.4,186.7,2039.4,185.8,2039.4,184.9z M2015.1,120.2c0.2-1.6,1.2-4.4,3.1-2.6c2.9,2.6,5.6,5.8,6.3,9.7c0.1,0.3,0.1,0.7,0.5,0.8
		c0.4,0.1,0.8-0.5,0.8-0.9c0.1-0.7,0.2-1.5,0.3-2.2c0.3-2.8,0.1-9.9,4-10.7c0.9-0.2,1.9,0.3,2.5,1c0.6,0.7,1,1.6,1.3,2.5
		c0.5,1.4,0.1,3.8-1.9,2.5c-0.6-0.4-1.2-1.1-1.9-1.2c-0.7-0.1-1.4,0.4-1.7,1c-0.3,0.6-0.4,1.3-0.5,2c-0.4,3.1-0.7,6.3-1.3,9.3
		c-0.3,1.4-1.2,4.7-2.6,1.9c-0.4-0.7-0.5-1.5-0.8-2.3c-0.9-2.9-3-5.5-5.8-6.9c-0.5-0.3-1.1-0.5-1.5-1
		C2015.2,122.4,2015,121.3,2015.1,120.2z M1997.1,151.4c2.2-0.9,4.3-2,6.5-2.9s4.4-1.8,6.6-2.7c1.1-0.5,2.3-0.9,3.4-1.4
		c3.2-1.3,6.4-2.7,9.7-4c3.4-1.3,6.8-2.6,10.2-3.9c3.5-1.3,6.9-2.7,10.4-4c2.6-1,5.3-1.8,7.9-2.7c2.5-0.9,5-1.9,7.5-2.8
		c1.2-0.5,2.4-0.9,3.7-1.3c2.7-0.9,5.5-1.8,8.2-2.8c2.5-0.9,5-1.9,7.6-2.8c2.6-0.9,5.1-1.8,7.7-2.7c1.4-0.5,2.9-1,4.3-1.5
		c1.5-0.5,3,0.6,2.9,2.1c-0.1,1.3-0.3,2.6-0.3,4c-0.1,1.5,0.2,2.9,1.4,4c0.7,0.5,1.4,0.6,2,0c1.2-1,2.1-2.2,2-3.9
		c-0.2-1-0.4-1.9-0.5-2.9c-0.1-1-0.1-2.1,0.1-3.1c0-0.3,0.5-0.7,0.8-0.7c0.3,0,0.7,0.4,0.8,0.7c0.3,1.2,0.4,2.4,0.6,3.6
		c0.3,1.4,0.5,2.9,1,4.2c0.2,0.6,0.9,1.1,1.6,1.4c0.5,0.2,1.3,0,1.6-0.3c0.3-0.3,0.3-1.2,0.2-1.7c-0.4-1.2-1.1-2.3-1.5-3.5
		c-0.4-1.2-0.5-2.6-0.6-3.9c0-0.3,0.5-0.9,0.7-0.9c0.4,0,1,0.3,1.1,0.7c0.8,2.4,1.7,4.8,2.1,7.3c0.3,1.9,0,4-1.7,5.5
		c-1.3,1.2-2.7,1.3-4.3-0.6c-0.9-1-1.6-1-2.2,0.2c-0.8,1.5-2.6,2.6-3.8,2.3c-1.5-0.3-2.9-2-3-3.8c-0.1-1.5-0.1-3.1-0.1-4.6
		c0-1.6-0.6-2.1-2.1-1.7c-1.9,0.6-3.7,1.3-5.6,1.9c-1.2,0.4-2.4,0.9-3.6,1.4c-2.6,0.9-5.1,1.7-7.7,2.7c-2.5,0.9-5,2-7.5,2.9
		c-2.3,0.9-4.7,1.7-7.1,2.6c-2.6,1-5.3,2-7.9,3c-1.5,0.6-3,1.1-4.5,1.7c-2.5,0.9-5,1.9-7.5,2.9c-1.3,0.5-2.6,1-3.9,1.5
		c-2.8,1.1-5.6,2.2-8.4,3.2c-2.3,0.9-4.6,1.7-6.9,2.6c-2.2,0.9-4.4,1.8-6.6,2.7c-3.2,1.4-6.4,2.7-9.6,4.1c-2.2,1-4.3,2-6.5,2.9
		c-0.3,0.2-0.7,0.3-1.1,0.4c-0.9,0.2-1.3-0.2-1.2-1.1C1993.9,154.1,1995.4,152.1,1997.1,151.4z M1992.1,179.7c1-1.4,2-2.7,2.9-4.1
		c0.6-0.8,1.3-1,2.1-0.4c1.4,1,2.9,1.9,4.3,3c1.1,0.8,1.9,0.7,2.6-0.5c0.7-1,1.4-2.1,2.2-3.1c0.6-0.9,1.3-1,2.1-0.5
		c1.3,0.9,2.6,1.8,3.8,2.7c0.5,0.3,0.9,0.7,1.4,1c0.8,0.6,0.9,1.3,0.4,2.2c-0.7,1.1-1.4,2.2-2.1,3.4c-0.9,1.4-2.5,1.6-4.2,0.4
		c-1.1-0.7-2.2-1.4-3.2-2.2c-0.8-0.6-1.5-0.4-2.1,0.3c-0.7,0.8-1.2,1.7-1.8,2.5c-0.5,0.6-1,1-1.6,1.6c-1.2-0.7-2.3-1.3-3.3-1.9
		c-1.1-0.7-2-1.5-3-2.2C1991.6,181.3,1991.5,180.5,1992.1,179.7z M1516.1,114.4c4.5,0,8.8,0,13.4,0c0,3.8,0,7.4,0,11.4
		c-4.4,0-8.8,0-13.4,0C1516.1,121.7,1516.1,118.2,1516.1,114.4z M1541.4,131.1c0,4.5,0,8.5,0,13c-5,0-9.9,0-15,0c0-4.3,0-8.5,0-13
		C1531.2,131.1,1536.1,131.1,1541.4,131.1z M1504.6,131c5.1,0,9.9,0,14.9,0c0,4.4,0,8.7,0,13.2c-4.9,0-9.7,0-14.9,0
		C1504.6,140,1504.6,135.7,1504.6,131z M1149.7,106c4.5,0,9.1,0,13.7,0c0,3.9,0,7.9,0,12.1c-4.5,0-8.9,0-13.7,0
		C1149.7,114,1149.7,110,1149.7,106z M1174.9,123.3c0,4.4,0,8.6,0,13.1c-4.9,0-9.8,0-14.9,0c0-4.3,0-8.5,0-13.1
		C1165.1,123.3,1169.9,123.3,1174.9,123.3z M1138.1,123.4c5.1,0,10,0,15.1,0c0,4.4,0,8.6,0,13.1c-5,0-9.8,0-15.1,0
		C1138.1,132,1138.1,127.8,1138.1,123.4z M367.7,122.2c1.4-2.1,3.4-3.5,5.6-4.6c2.5-1.3,4.9-2.5,7.3-3.8c3.3-1.8,6.5-3.7,9.8-5.6
		c0.9-0.5,1.8-1.2,2.7-1.8c0.6-0.5,1.4-1,2.2-0.5c0.9,0.6,1,1.5,1,2.4c0,2.3-1.3,3.7-2.7,5c-1.7,1.7-4.1,2.2-6.1,3.3
		c-2.8,1.5-5.6,3.2-8.4,4.8c-2.8,1.7-5.6,3.4-8.4,5.1c-0.5,0.3-0.8,0.7-1.3,0.9c-0.6,0.3-1.3,0.5-1.9,0.4c-0.7-0.2-0.9-1.1-1.1-1.9
		C366.3,124.5,367,123.3,367.7,122.2z M344.4,145.8c0,0.1,0.1,0.3,0,0.5c-0.7,2.5-1.9,4.7-3.9,6.2c-0.7,0.5-1.5,0.4-2.3,0
		c-0.9-0.4-1.7-0.8-2.6-1.2c-2.1-0.9-2.7-2.8-1.7-5c0.3-0.6,0.4-1.3,0.6-2c0.3-1.1,0.6-2.2,1.1-3.1c0.8-1.4,2.1-1.5,3.2-0.5
		c1.3,1.1,2.6,1.9,4,2.5C344,143.6,344.4,144.4,344.4,145.8z M334.1,120.2c0.4-0.8,0.5-1.8,0.9-2.6c0.3-0.8,0.7-1.6,1.3-2.3
		c0.2-0.3,1-0.4,1.3-0.2c0.4,0.2,0.6,0.9,0.6,1.4c0,0.4-0.4,0.9-0.5,1.4c-0.5,1.7-1,3.4-1.4,5.2c-0.2,0.6,0,1.3,0.2,1.9
		c0.5,1.2,1.6,1.5,2.6,0.7c0.5-0.3,0.9-0.9,1.4-1.2s1.2-0.5,1.6-0.3c0.4,0.2,0.8,1,0.8,1.5c-0.1,0.8-0.3,1.7-0.7,2.4
		c-1.3,2.2-3,4.1-5.1,5.4c-1,0.7-1.9,0.5-2.8-0.3c-1.5-1.2-2-3-2-5.2C332.8,125.5,332.7,122.7,334.1,120.2z M279.7,133.1
		c0.4-2.6,1.1-5.1,1.8-7.6c0.5-1.6,1.8-2,3.1-1c1.6,1.2,3.3,2.4,4.8,3.8c1.9,1.8,3.3,4,4,6.6c0.2,0.8,0.5,1.6,0.9,2.2
		c0.3,0.4,1,0.8,1.4,0.7c0.4-0.1,0.9-0.7,1-1.2c0.1-0.7,0.1-1.5,0-2.3c-0.3-4.3,0.8-8.3,2.7-12.1c0.2-0.5,0.6-0.9,1-1.3
		c1.6-1.7,3.1-1.6,4.8,0c1.9,2,2.8,4.2,2.1,7c-0.2,0.6-0.4,1.2-0.8,1.7c-0.7,0.8-1.7,0.8-2.5,0.1c-0.3-0.3-0.5-0.6-0.8-0.9
		c-1-0.9-2-0.9-2.8,0.2c-0.8,1-1,2.3-1,3.6c0,1.6,0,3.2,0,4.8c-0.1,0-0.1,0-0.1,0c0.1,2.7,0.3,5.3,0.3,7.9c0,2-0.1,3.9-0.3,5.9
		c-0.2,1.5-1.1,2.4-2.1,2.3c-0.6-0.1-1.3-0.4-1.6-0.9c-0.9-1.7-1.7-3.4-2.4-5.2c-0.8-2.1-1.2-4.3-2.1-6.3c-0.6-1.3-1.5-2.4-2.4-3.5
		c-0.5-0.7-1.4-0.6-2.1-0.3c-0.2,0.1-0.4,0.3-0.6,0.4c-1.2,0.9-2.6,1.4-3.9,0.4C280.6,137,279.3,135.5,279.7,133.1z M265.6,113.8
		c0.7-1.5,2.5-1.3,3,0.2c0.7,2,1.3,4.1,1.6,6.2c0.9,5.7,1.7,11.5,2.4,17.2c0.9,7,1.8,14.1,2.6,21.1c0.6,5.6,1.1,11.2,1.7,17.1
		c-0.5,2.8-0.9,5.8-1.5,8.8c-0.3,1.3-1.1,2.5-1.7,3.7c-0.1,0.3-0.4,0.6-0.7,0.7c-0.4,0.1-1,0.3-1.4,0.1c-0.3-0.2-0.6-0.8-0.6-1.3
		c0-1.4,0.3-2.8,0.3-4.2c0.1-5.5-0.7-10.9-1.3-16.3c-0.9-8.3-2.3-16.6-3.8-24.8c-1-5.6-1.8-11.2-2.7-16.8c-0.1-0.5-0.1-0.9-0.1-1.4
		C262.3,120.2,263.9,117,265.6,113.8z M256.3,201.5c0.9-2.3,1.8-4.5,3.7-6c0.4-0.3,1.3-0.5,1.8-0.3c1.8,0.8,3.7,1.6,5.4,2.7
		c1.4,0.8,1.8,2.5,0.9,3.9c-0.9,1.6-2,3-3.2,4.4c-1.1,1.2-1.9,1.2-3.2,0.5c-1.4-0.8-2.8-1.5-4.2-2.4c-0.7-0.5-1.3-1.2-1.3-2.4
		C256.3,201.8,256.2,201.6,256.3,201.5z M182.2,137.9c0.8-0.4,1.5-0.9,2.2-1.2c2.4-1,4.8-1.9,7.2-2.9c0.5-0.1,0.9-0.3,1.3-0.5
		c1.2-0.5,2.4-1.1,3.6-1.6c2.5-1,3-3,1.3-5.2c-0.4-0.6-0.8-1.3-1.2-1.9c-0.9-1.5-1.9-1.9-3.5-1.6c-0.6,0.2-1.1,0.3-1.7,0.4
		c-2.7,0.4-4.9-1.7-4.8-4.6c0.1-1.7,0.1-3.4,0.2-5.1c0-0.2,0-0.3,0-0.5c0.2-2.3,1.5-3.3,3.6-2.6c2.2,0.7,4.1,2,5.8,3.6
		c2.4,2.4,4.2,5.2,5.1,8.7c0.2,0.9,0.5,1.8,0.9,2.6c0.3,0.7,0.7,1.3,1.5,1.1s0.9-0.9,0.9-1.6c0.1-0.9,0.1-1.7,0-2.6
		c-0.4-3.4-0.1-6.8,0.2-10.2c0.1-1.7,0.8-3.2,1.8-4.5c2.5-3,5.6-2,7.5,0.7c0.4,0.6,0.6,1.3,0.9,1.9c0.7,1.7,0.1,4.8-1.2,6.1
		c-0.6,0.6-1.5,0.7-2.2,0.2c-0.2-0.1-0.4-0.3-0.6-0.5c-1.4-1.1-2.5-0.7-2.8,1.1c-0.2,1.2-0.2,2.4-0.3,3.6c0,0.4,0,0.8,0,1.2
		c0,0.6,0,1.2,0,1.8c0.1,2,1.3,2.8,3.1,2c0.8-0.4,1.5-0.8,2.3-1.2c0.9-0.4,1.9-0.8,2.9-1.2c0.1,0,0.1,0,0.2,0
		c2.3-1.1,4.7-2.2,7.1-3.3c0.8-0.3,1.6-0.8,2.4-1.1c1.7-0.7,3.2,0.6,2.9,2.5c-0.1,0.9-0.4,1.8-0.9,2.6c-1.4,2.2-3.3,4-5.4,5.3
		c-0.6,0.4-1.3,0.5-2,0.8c-2.6,1.2-5.3,2.3-7.9,3.4c-2.3,1-4.6,1.9-6.9,2.9c-0.7,0.4-1.5,0.7-2.2,1.1c-0.2,0.1-0.4,0.3-0.7,0.4
		c-2.3,0.9-4.7,1.9-7.1,2.8c-0.7,0.3-1.3,0.6-1.9,0.9c-0.8,0.4-1.5,0.8-2.3,1.1c-0.6,0.2-1.2,0.5-1.8,0.7c-1.4,0.5-2.7,1.1-4.1,1.7
		c-1.5,0.7-3.1,1.3-4.6,2.1c-1.3,0.6-2.1,1.7-2.5,3.2c-0.9,3.2-1.8,6.3-2.7,9.4c-0.6,2.1-0.8,4.2,0.1,6.3c1.2,2.8,3.7,3.3,5.6,1.1
		c0.2-0.2,0.4-0.5,0.6-0.8c0.4-0.7,0.9-1.2,1.7-0.9c0.8,0.3,1.2,0.9,1.3,1.8c0.1,0.5,0.1,1,0,1.5c-1.1,3.4-2.3,6.8-5.2,9
		c-1.1,0.8-2.4,1.3-3.7,1.6c-1.3,0.3-2.4-0.6-3.2-1.7c-2.2-2.9-2.4-6.3-2.2-9.8c0.2-3.9,1.2-7.5,2.1-11.2c0.2-0.8,0.6-1.4,0.9-2.1
		c0.3-0.5,0.7-1,0.7-1.6c0-0.5-0.2-1.2-0.5-1.5c-0.3-0.2-1-0.1-1.5,0c-0.3,0.1-0.5,0.4-0.7,0.5c-1.9,1.1-3.8,2.3-5.6,3.5
		c-1.6,1.1-3.2,2.3-4.8,3.4c-0.6,0.4-1.4,0.8-2.1,1c-0.9,0.2-1.4-0.5-1.5-1.4c0-0.3,0-0.7,0.1-1c1-3.2,2.4-6.2,4.9-8.4
		c2-1.8,4.1-3.3,6.6-4.9c2-1,4-2.3,6-3.3C177.6,139.9,179.9,138.9,182.2,137.9z M218,148.5c-0.8,1.5-1.8,2.9-2.9,4.1
		c-0.6,0.6-1.6,0.9-2.3,1.3c-1-0.4-1.7-0.5-2.4-0.9c-1.2-0.7-2.3-1.6-3.4-2.4c-1.3-0.9-1.6-2.5-0.8-4c0.9-1.5,1.8-2.9,2.8-4.3
		c0.8-1.2,1.7-1.3,2.8-0.7c1.2,0.7,2.5,1.2,3.8,1.7c0.4,0.1,0.8,0.3,1.1,0.4C218.7,144.9,219.2,146.5,218,148.5z M152.9,123
		c0.8-1.7,1.6-3.4,2.5-5.1c1.8-3.3,4.5-5.4,8.1-5.9c1-0.1,2,0.1,2.9,0.3c1.7,0.3,3.3,0.5,4.9,1c2.4,0.9,4.2,2.8,3.3,5.8
		c-1.1,3.6-2.8,6.8-5.7,9c-1.7,1.3-3.5,2.5-5.4,3.5c-1,0.5-2.2,0.6-3.3,0.8c-0.6,0.1-1.3-0.2-1.6-0.9s-0.1-1.4,0.4-1.9
		s1.2-0.9,1.9-1.3c0.8-0.5,1.5-0.9,2.3-1.3c0.7-0.4,1.5-0.7,2.1-1.2c0.6-0.4,1.2-1,1.5-1.6c0.5-0.9,0.1-1.8-0.9-2
		c-0.9-0.2-1.8-0.2-2.7-0.3c-1.1-0.1-2.1-0.1-3.6-0.2c-1.7-0.2-2.5,1.6-3.7,2.9c-0.5,0.4-0.8,1-1.3,1.3c-0.4,0.2-1.1,0.3-1.4,0.1
		c-0.4-0.3-0.6-0.9-0.7-1.6C152.4,124,152.7,123.4,152.9,123z M138.5,150.3c0.4-0.6,0.7-1.4,1-2.1c0.2-0.3,0.3-0.7,0.5-1.1
		c1.1-2.3,2.4-2.7,4.5-1.6c1.3,0.7,2.6,1.3,3.9,2c1.9,0.9,3,3.1,2.1,4.6c-0.9,1.6-2.1,3.1-3.2,4.6c-0.3,0.4-1,0.6-1.5,0.9
		c-0.6-0.3-1.1-0.4-1.6-0.6c-1.2-0.5-2.4-1-3.6-1.5c-0.5-0.3-1.1-0.5-1.5-0.9C137.4,153.1,137.3,152.1,138.5,150.3z M120.6,122.2
		c0.1-2.6,0.7-5,2.1-7.1c0.2-0.4,0.4-0.6,0.7-0.9c1.1-0.9,2.5-0.7,2.9,0.7c0.3,0.7,0.3,1.6,0.1,2.3c-0.9,2.5,0.2,4.5,1.4,6.5
		c0.2,0.4,0.5,0.8,0.8,1.2c1.4,1.6,1.5,3.4,0.4,5.2c-2.8,4.5-1,10.9-0.4,15.8c0.8,6.5,1.8,13,2.3,19.5c0.2,2.5,0.3,5.1,0.3,7.7
		c0,6.5-0.7,13-2.8,19.1c-0.2,0.7-0.5,1.4-1,1.8c-0.5,0.4-1.4,0.4-1.8-0.1c-0.3-0.4-0.2-1-0.2-1.5c0.9-12,0.4-24-0.8-35.9
		c-0.6-5.9-1.4-11.7-2.2-17.5C121.6,133.5,120.4,127.8,120.6,122.2z M120.4,212c-1.8,0.1-3.5,0.3-5.2-0.1c-4-1-6.6-5.2-10.4-6.5
		c-0.8-0.3-1.6-0.4-2.3-0.9c-0.7-0.5-1.2-1.4-0.9-2.2c0.4-1.2,2-1.3,3.2-1.1c5,0.8,10,0.8,15,0.3c1.1-0.2,2.2-0.3,3.2-0.7
		c3.7-1.4,6.1-5.3,8.4-8.5c3.3-4.7,5.8-10.2,10-14.1c3-2.8,7.1-4.7,11.1-4c2.3,0.4,4.6,1.7,6.3,3.5c1.8,1.9,3.2,4.5,3.3,7.3
		c0.1,3.7-2,7-4.2,9.9c-0.6,0.8-1.2,2.2-0.4,2.8c0.4,0.4,1.1,0.3,1.6,0.1c8.4-2.5,16.1-6.4,23.9-10.7c0.5-0.3,0.9-0.7,1.4-0.9
		c0.6-0.3,1.2-0.6,1.8-0.7c1.2-0.1,1.8,0.7,1.8,1.9c-0.1,0.5-0.2,0.9-0.3,1.4c-0.8,3,2.5,4.5,4.8,4.8c3.8,0.4,6.9-1,10.1-2.8
		c2.2-1.2,4.1-2.9,6.1-4.5c1.5-1.2,1.4-2.3,0-3.6c-0.8-0.8-1.7-1.7-2.5-2.6c-1.8-2.1-3.6-2.6-5.8-1.1c-0.5,0.3-0.9,0.5-1.4,0.7
		c-1.1,0.4-2-0.2-2.2-1.3c-0.8-3.5,1.7-7.8,4.5-9.6c2-1.3,4.3-1.9,6.6-2.3c3.2-0.6,6.5-0.9,9.8-0.9c4.5,0,9,0.8,13.2,2.6
		c1.1,0.5,2.2,1,2.9,2c1.7,2.3,0.5,5.7-1.3,7.9c-1.4,1.8-3.1,3.2-5,4.3c-1.6,0.9-4.1,1.1-3.5,3.5c1,3.8,7.2,6.2,10.4,6.6
		c3.8,0.4,7.7-0.8,10.7-3.4c1.5-1.3,2.7-2.9,3.1-4.8c0.4-1.8-0.1-3.6-0.5-5.4c-2.1-8.7-4.2-17.3-6.2-26c-0.1-0.3-0.1-0.7-0.2-1
		c-0.5-1.5-1.4-2.1-2.8-1.5c-1.6,0.6-3.1,1.4-4.7,2.1c-0.8,0.3-1.6,0.6-2.4,0.9c-1.3,0.4-2.5,0.9-3.7,1.3c-0.8,0.2-1.6,0.5-2.4,0.5
		c-0.5,0-1.1-0.4-1.4-0.8c-0.2-0.4,0-1.2,0.3-1.5c0.6-0.7,1.4-1.3,2.2-1.7c2.4-1.2,5-2.3,7.4-3.6c1.6-0.8,3-1.7,4.5-2.6
		c1.6-0.9,1.9-1.9,1.5-3.8c-1-4.4-2-8.8-2.9-13.2c-0.8-3.6,0-6.9,1.6-10.1c0.3-0.4,0.6-0.9,1-1.2c0.9-0.9,2.1-0.5,2.5,0.7
		c0.1,0.3,0.2,0.7,0.2,1c0,2.2,1,3.9,2.4,5.4c1.4,1.4,2.7,2.9,3.8,4.5c2.5,3.5,2.8,7.2,0.6,11c-0.7,1.2-1.2,2.6-1.7,4
		c-0.4,1.2-0.4,2.4-0.1,3.7c1,5.3,2.1,10.7,3.2,16c0.8,3.9,1.8,7.7,2.6,11.6c0.6,3.1,0.5,6.3-0.1,9.5c-1,4.7-3.1,8.7-6,12.2
		s-6.5,5.8-10.8,6.8c-2.5,0.5-4.7-0.1-6.8-1.3c-1.8-1-2.9-0.2-3.5,1.7c-0.8,2.8-1.3,5.6-1.2,8.5c0,1.3,0.5,2.5,1.4,3.4
		c0.9,0.9,1.8,0.9,2.6-0.1c0.4-0.6,0.8-1.2,1.2-1.7c1-1.2,2.2-1,2.7,0.6c0.6,1.8,0.1,3.4-0.9,4.8c-1.2,1.8-2.7,3.4-4.6,4.5
		c-2.1,1.2-3.8,0.2-4.9-1.5c-1.1-1.6-1.6-3.5-1.5-5.5c0.1-2.5,0-5.2,0.4-7.7c0.4-2.5,0.9-5.2,2.5-7.3c0.8-1,0.7-2.2-0.2-3.2
		c-1.4-1.4-2.8-2.8-4.2-4.2c-0.7-0.7-1.5-1.3-2.2-2c-1.2-1.2-2.5-1.4-3.8-0.3c-3,2.4-5.9,5-8.9,7.3c-2.1,1.6-4.3,3.3-6.7,4.4
		c-2.9,1.4-6,1.6-9,0.4c-1.9-0.8-3.4-2.2-4.5-4c-0.2-0.5-0.5-1-0.8-1.4c-1-1.5-2.1-1.7-3.6-0.6c-1,0.7-2,1.4-3,1.9
		c-2.3,1.2-4.7,2.4-7,3.5c-0.6,0.3-1.2,0.5-1.8,0.7c-0.9,0.4-1.9,0.8-2.9,1.2c-0.4,0.2-0.9,0.4-1,0.6c-6.9,2.1-13.8,4.2-21,4.9
		C135.4,211.4,127.9,211.3,120.4,212z M207,214.5c-0.2,0.5-0.4,1.3-0.8,1.9c-0.9,1.3-1.7,2.5-2.7,3.7c-1.1,1.2-2.3,1.2-3.7,0.3
		c-1.2-0.8-2.5-1.4-3.8-1.9c-1.5-0.5-2.9,0-3.9,1.2c-0.7,0.7-1.1,1.6-1.7,2.3c-0.5,0.6-1,1.3-1.6,1.8c-0.6,0.6-1.3,0.6-2.1,0.2
		c-0.9-0.4-1.9-0.8-2.9-1.2c-0.8-0.4-1.6-0.7-2.3-1.2c-1.2-0.8-1.3-2.3-0.5-3.5c1-1.4,2-2.9,3-4.3c1.2-1.7,2.6-2.1,4.4-1
		c0.5,0.3,1,0.8,1.5,1.1c1.7,1,3.4,1.5,5.3,0.7c0.5-0.2,1-0.6,1.3-1.1c0.7-1,1.3-2.1,1.9-3.1c0.9-1.5,1.7-1.7,3.1-0.9
		c1.3,0.7,2.6,1.4,4,2.3C206.3,212.3,206.9,213.1,207,214.5z M311.9,225.7c-0.7,1-1.4,1.9-2.2,2.7c-0.7,0.6-1.6,0.9-2,1.2
		c-1.5-0.1-2.5-0.4-3.4-1.2c-0.4-0.4-0.9-0.8-1.4-1.1c-1.1-0.7-2.2-0.6-3.3,0.2c-1.4,1.1-2.2,2.6-3.2,4c-0.5,0.6-1,1.3-1.5,1.8
		c-0.8,0.8-1.8,1.1-2.8,0.7c-1.3-0.5-2.6-1.2-3.9-1.9c-0.5-0.3-1-0.6-1.5-1c-0.9-0.7-1.2-1.5-0.6-2.5c1.2-1.9,2.5-3.8,3.9-5.5
		c0.4-0.5,1.3-0.7,1.9-0.6c1.2,0.2,2.4,0.5,3.4,1.2c2.4,1.8,3.9,1,5.4-0.9c0.9-1,1.6-2.2,2.3-3.4c1.3-2.4,2.2-2.6,4.4-1.3
		c1.3,0.8,2.7,1.4,4,2.2C313.9,222,313.8,223.4,311.9,225.7z M326.1,227.9c-0.3,0.4-0.8,0.9-1.2,1c-0.4,0-0.8-0.5-1.2-0.8
		c-0.2-0.1-0.3-0.5-0.3-0.7c-0.4-2.8-2-4.9-3.7-6.8c-0.6-0.7-1-1.3-0.9-2.3c0.1-1.3,1.3-2.1,2.4-1.6c0.2,0.1,0.3,0.2,0.7,0.4
		c2.5,2.7,4,5.9,4.5,9.6C326.3,227.1,326.3,227.6,326.1,227.9z M325.5,212.7c-2.1,0.4-4.2,0.1-6.3-0.5c-3-0.8-6-2.2-8.3-4.4
		c-4.5-4.4-5.7-11.4-6.6-17.9c-0.2-1.3-0.9-2.9-2-2.6c-0.9,0.2-1.1,1.4-1.3,2.3c-0.8,3.9-4,7.6-7.9,8c-1.1,0.2-1.7,0.8-2,1.9
		c-1.4,5.7-4,10.5-7.7,14.8c-1.5,1.8-3.2,3.5-5,4.9c-2.4,1.9-4.9,3.7-7.4,5.4c-1.8,1.2-3.7,2.1-5.6,3.1c-2.2,1.1-4.3,2.1-6.5,3.2
		c-0.1,0-0.1,0.1-0.2,0.1c-2.1,0.8-4.3,1.7-6.4,2.5c-3.9,1.5-7.8,3.1-11.8,4.1c-2,0.5-3.7,1.4-5.6,2.2c-2,0.9-4.3,1.2-6.4,1.6
		c-4.6,1-9.3,1.8-14,2.2c-7.1,0.7-14.4,0.6-21.4-0.7c-0.7-0.2-1.5-0.3-2.2-0.5c-4.7-1.1-9.3-2.6-13.9-4c-5.1-1.6-10.8-2.2-15.6-4.8
		c-2.7-1.4-5-3.4-7-5.8c-2.2-2.8-4.4-4.7-7.3-6.7c-0.7-0.5-1.3-1.3-1.9-2c-0.4-0.6-0.6-1.3-0.1-1.9c0.5-0.7,1.1-0.4,1.7-0.1
		c1.4,0.8,2.7,1.7,4.1,2.5c0.9,0.5,1.9,0.9,2.8,1.4c0.1,0,0.2,0,0.3,0.1c1.9,1.1,4.1,1.8,6.2,2.4c2.4,0.7,4.7,1.6,7.1,2.3
		c6.4,1.7,12.8,2.9,19.3,3.7c8.4,1,16.8,1.6,25.3,1.4c3.7-0.1,7.3,0,10.9-0.4c5.2-0.6,10.4-1.5,15.6-2.6c3.2-0.7,6.3-1.8,9.4-2.8
		c2.6-0.8,5.3-1.7,7.9-2.7c2.3-1,4.6-2.2,6.8-3.3c2.8-1.4,5.5-2.9,8.2-4.3c3.8-2,7.3-4.5,10.4-7.5c1.6-1.5,2.9-3.4,4.5-4.9
		c1.4-1.4,1.6-3.3,0.7-5.2c-0.7-1.6-1.9-2.9-3-4.2c-2.4-2.8-4.4-6.5-3.7-10.2c0.2-1.1,0.8-2.3,1.9-2.5c1.1-0.2,2,0.7,2.8,1.6
		c1.5,1.7,3.2,3.4,5.2,4.4c2,0.9,4.5,1.1,6.4-0.1c2.5-1.6,3.3-5.1,3.3-8.2c0-3.1-0.5-6.3,0.3-9.3c0.1-0.5,0.3-1.1,0.7-1.4
		c0.7-0.5,1.7-0.2,2.3,0.5c0.6,0.7,0.8,1.6,1,2.5c1,4.7,2.1,9.4,3.1,14.1c1,4.5,2,9.2,4.8,12.7c0.7,0.9,1.9,1.8,2.8,1.2
		c0.7-0.4,0.8-1.4,1-2.2c1.1-5.7,5.5-10.1,7.2-15.6c1.5-4.9,0.8-10.2-0.4-15.2c-0.9-4.2-2.1-8.3-3.6-12.3c-0.4-0.8-0.7-1.7-1.5-2.1
		c-1-0.5-2.1,0.2-3.1,0.8c-1.7,1-3.4,1.8-5.3,2.3c-0.5,0.2-1.2,0.3-1.6-0.1c-0.9-0.8,0.2-2.3,1.2-2.9c2-1.3,4.1-2.6,6.1-3.9
		c0.7-0.4,1.5-0.9,1.9-1.7c0.9-1.6,0.1-3.6-0.5-5.4c-2.1-5.8-2.1-12.4-0.1-18.2c0.5-1.3,1.7-2.8,2.8-2c0.7,0.6,0.6,1.7,0.7,2.6
		c0.2,3.3,3.2,5.3,5,7.9c1.9,2.6,2.5,6.3,1.6,9.5c-0.5,1.9-1.5,3.7-1.9,5.6c-0.6,3.5,0.8,7,1.8,10.4c1.6,5.4,2,11.1,1.2,16.6
		c-0.1,0.6-0.2,1.3,0.2,1.8c0.8,1.1,2.4-0.2,3.1-1.3c3.6-5.5,8.2-10.3,13.5-13.9c0.8-0.6,1.6-1.1,2.6-1.2s2,0.3,2.9,0.8
		c2.4,1.3,4.5,3.3,5.5,5.9c1.8,5-1.3,10.4-4.5,14.4c-3.2,4.1-7,8.4-7,13.7c0,0.6,0.1,1.3,0.6,1.6c0.9,0.6,2.1-0.5,3.1-0.2
		c1.3,0.4,0.9,2.5,0.1,3.6c-1,1.4-2.5,2.6-4.1,2.3c-2.1-0.4-3.2-3.1-3-5.4s1.3-4.4,1.7-6.7c0.1-0.5,0.1-1.1-0.2-1.4
		c-0.4-0.3-1-0.2-1.5,0c-6,2.3-11.9,4.9-17.6,7.8c-0.6,0.3-1.2,0.6-1.6,1.2c-0.9,1.4,0.4,3.4,2,4c1.6,0.6,3.3,0.4,4.9,0.9
		c3.1,1.1,4.7,5.4,3.2,8.7C329.6,211,327.6,212.3,325.5,212.7z M362,203.3c-1.8,2.4-4,4.4-6.5,5.8c-2.1,1.2-4.3,2.4-6.4,3.6
		c-1.8,1-3.6,2.1-5.5,3.1c-1.8,1-3.6,1.8-5.4,2.8c-1,0.5-1.9,1.1-2.8,1.7c-0.8,0.5-1.7,1.1-2.6,1.5c-1,0.5-1.8-0.1-1.7-1.3
		c0-0.5,0.1-1.1,0.3-1.5c1.4-2.8,3.2-5.3,6-6.8c2.3-1.2,4.5-2.5,6.7-3.7c1.7-0.9,3.5-1.8,5.2-2.7c1.7-1,3.5-2,5.2-3
		c0.5-0.2,1.1-0.5,1.6-0.8c1.1-0.6,2.1-1.2,3.1-1.8c0.6-0.4,1.2-0.7,1.8-0.9c1.1-0.3,2.1,0.6,2,2.2
		C362.8,201.9,362.5,202.7,362,203.3z M411.4,190c-1.1-0.9-2.2-1.7-3.4-2.5c-1-0.7-2.1-1.4-3.1-2.1c-0.1-0.1-0.2-0.2-0.4-0.3
		c-1.5-1-2.6-0.4-2.8,1.5c-0.1,1.2-0.1,2.5-0.4,3.7c-1.4,4.9-3.7,9.2-7.9,12.2c-4.9,3.5-10.4,4.6-16.2,4.4c-0.7,0-1.4-0.3-2.1-0.5
		c-1.7-0.5-2.6-0.1-3.2,1.6c-0.6,1.8-1.1,3.7-1.6,5.6c-0.2,0.7-0.2,1.5-0.1,2.2c0.3,1.8,1.8,2.5,3.2,1.4c0.5-0.4,0.9-0.8,1.4-1
		s1.3-0.3,1.8,0c0.7,0.4,0.9,1.3,0.6,2.1c-0.5,1.3-1,2.6-1.8,3.7c-1.1,1.6-2.4,3.2-4.5,3.7c-2.3,0.5-4.9-1.2-4.9-3.7
		c0-3.1,0-6.1,1-9.1c0.3-0.8,0.4-1.6,0.7-2.3c0.6-1.4,2.3-3.6,2.3-5c0-1.7-2.4-4.1-3.2-5.5c-2-3.5-2.8-7.5-3.5-11.5
		c-1.8-9.6-3.6-19.3-5-29c-1.3-9.2-2.5-18.2-6.7-26.5c-0.8-1.7-1.7-3.3-1.7-5.2c0-1.8,0.9-3.3,1.9-4.8c0.3-0.5,0.7-1.1,1.3-1
		c0.6,0.1,0.9,0.8,1.1,1.4c2.6,7.5,5.2,15.1,6.5,23c0.1,0.7,0.2,1.4,0.6,2c0.4,0.6,1.2,0.9,1.8,0.6c1-0.5,0.6-2,0.6-3.2
		c0.1-2,1.8-3.5,3.3-4.6c9.5-7.1,20.1-12.7,30.4-18.3c5.8-3.1,11.6-6.1,18-7.2c1.5-0.2,3.3-0.3,4.5,0.7c0.8,0.6,1.2,1.6,1.5,2.5
		c1.2,4.1-0.9,8.5-3.4,11.9c-4.8,6.5-11.4,11.2-17.9,15.8c-0.3,0.1-0.6,0.3-0.9,0.3c-0.5,0-0.8-0.6-0.7-1.1c0.1-0.5,0.4-0.9,0.7-1.3
		c4.1-5.4,8.6-10.3,13.6-14.8c0.6-0.6,1.4-1.3,1.4-2.2c0.1-2-2.2-1-3-0.6c-0.4,0.3-0.8,0.6-1.2,0.8c-13.5,5.2-26.4,12.2-38.2,20.8
		c-0.7,0.5-1.5,1.1-2.2,1.6c-1.6,1.1-1.6,2.5,0,3.6c8.8,6.2,18.7,9.6,27.7,15c8.4,5,15.4,12.3,24.2,16.5c1.5,0.6,3,1.2,4.6,1.1
		c1.6-0.1,3.2-1.2,3.6-2.8c0.2-0.8,0-1.7-0.1-2.5c-0.9-5.3-2.1-10.5-3.7-15.6c-0.3-0.9-0.7-2-1.6-2.2c-0.5-0.2-1.1,0.1-1.6,0.3
		c-2.2,1-4.5,2.1-6.8,3.1c-0.8,0.3-1.8,0.6-2.4,0c-0.4-0.4-0.4-1.3,0-1.9c0.3-0.6,0.9-0.9,1.5-1.3c2-1.2,3.9-2.4,5.8-3.6
		c1-0.7,2.1-1.5,2.5-2.7c0.3-0.9,0.1-1.8-0.1-2.7c-1-4.2-2.2-8.4-2.7-12.7s-0.1-8.8,1.8-12.6c0.4-0.7,0.9-1.4,1.7-1.5
		c0.8,0,1.4,0.7,1.7,1.5c0.3,0.8,0.3,1.7,0.4,2.5c0.8,4.4,5.4,6.6,7.7,10.4c0.9,1.6,1.4,3.4,1.4,5.3c0,1.5-0.3,3.1-1,4.5
		c-0.9,1.8-2.3,3.3-2.8,5.3c-0.4,1.9,0.1,3.8,0.6,5.7c1.4,5.2,2.9,10.4,3.3,15.8c0.4,6.1-0.6,12.6-4.4,17.5c-1.5,1.9-4.1,2.7-6.4,2
		c-2.5-0.8-4.5-2.2-6.2-4.1c-1.1-1.1-2.2-0.8-2.9,0.8c-0.4,1-0.9,2.1-1.2,3.2c-0.6,1.9-1.2,3.8-1.7,5.7c-0.4,1.6-0.2,3.2,0.8,4.5
		c0.8,1,1.9,1.1,2.8,0.2c0.5-0.5,1-1.1,1.5-1.6c0.6-0.6,1.2-1,2-0.7c0.8,0.3,1.1,1.1,1.1,2c-0.1,2-0.7,3.8-1.9,5.3
		c-1.5,1.9-3.4,3.3-5.7,4c-0.7,0.3-1.6,0.2-2.3-0.1c-2.5-1.2-3.8-3.8-3.5-7c0.3-3.2,0.9-6.4,2.2-9.4c1.2-2.7,2.2-5.4,2.9-8.1
		C412.8,191.9,412.5,190.9,411.4,190z M407.6,158c-0.3-0.7-1.6-1.2-2.6-0.6c-1.2,0.7-2.3,1.7-3.5,2.6c-0.4,0.4-0.8,0.8-1.3,1
		c-1,0.5-1.9,0-2-1.2c0-0.8,0.1-1.7,0.4-2.5c0.5-1.2,1.1-2.3,1.8-3.4c1.8-2.7,4.2-4.3,7.4-4.3c1.3,0,2.7-0.1,4.1,0.1
		c2.7,0.2,4.4,3.2,3.4,5.8c-1.1,2.9-2.8,5.3-5.6,6.8c-0.8,0.5-1.6,1.1-2.5,1.5c-0.6,0.3-1.2,0.3-1.8,0.4c0,0.1-0.1,0.1-0.1,0.2
		c-0.6-0.3-1.4-0.5-1.6-1c-0.4-0.8,0.2-1.6,0.8-2.1c0.5-0.4,1.1-0.7,1.7-1C407.5,159.6,408,158.8,407.6,158z M453.5,196.2
		c-0.7,3.1-1.8,6.1-3.2,8.9c-1.1,2.2-2.2,4.4-3.4,6.6c-2.1,3.7-4.7,6.8-7.9,9.4c-1.9,1.6-4,2.9-6.3,3.7c-4.2,1.5-8.4,2.8-12.7,4.1
		c-0.9,0.3-1.8,0.4-2.7,0.6c-0.7,0.2-1.3,0.5-2,0.8c-1.5,0.5-3,1.3-4.5,1.7c-0.9,0.2-2.1,0-2.3-1c-0.3-1.1,0.8-1.9,1.8-2.4
		c12.7-6.5,27.7-12.9,35.8-25.9c2-3.2,3-6.9,3.2-10.8c0.4-10.3-2.5-21.5-4.1-31.6c-1.2-7.3-2.5-14.5-3.8-21.7
		c-0.6-3.5-1.1-7.2-2-10.6c-0.9-3.1-1.5-5.7-0.6-9c0.5-2.6,1.2-5,2.8-7.1c0.4-0.4,0.5-1,0.5-1.6c0-0.6,0.2-0.9,0.7-0.9
		c0.6,0,1.3,0.1,1.8,0.1c0.1,1.1,0.3,1.9,0.4,2.7c0.2,1.6,0.2,3.2,0.4,4.8c0.4,2.9,0.7,5.8,1.3,8.7c0.8,4.4,2,8.8,2.8,13.2
		c0.9,4.9,1.7,9.9,2.4,14.9c0.8,6,1.7,12.1,2.4,18.2C455.2,180.1,455.1,188.2,453.5,196.2z M756.6,224.5c-2,5.1-3.5,10.4-6.6,15
		c-1.2,1.7-2.4,3.4-3.8,5c-0.6,0.6-1.5,0.9-2.4,1.2c-0.7,0.2-1.4,0.4-2.1,0.4c-0.8,0-1.6-0.1-2.4-0.2c-0.5-0.1-1.1-0.2-1.6-0.2
		c-3.9,0.1-7.7,0.3-11.6,0.4c-0.5,0-1-0.4-1.5-0.7c0.3-0.5,0.4-1.2,0.9-1.5c3.2-2.2,5.8-5,7.9-8.3c3.2-4.8,5.1-10.1,5.7-15.9
		c1-8.6-0.8-16.7-3.8-24.5c-6.6-17.2-17.6-31-29.5-44.2c-12-13.3-25.1-25.2-38.8-36.3c-2.6-2.1-5.1-4.2-7.6-6.4
		c-1.1-1-2.1-1.1-3.3-0.1c-9.2,7.8-18.5,15.6-27.6,23.5c-3.9,3.4-7.6,7.2-11.4,10.8c-1.2,1.2-1.2,1.9,0.1,3.2
		c9.2,8.6,17.9,17.8,25.7,27.9c6.4,8.3,11.9,17.2,15.7,27.2c3.5,9.3,4.9,18.9,2,28.8c-1.7,5.8-4.7,10.9-8.7,15.3
		c-0.6,0.6-1.7,0.9-2.6,0.9c-4.2,0.1-8.5,0-12.7,0c-1.2,0-2.4,0.3-3.6,0.3c-0.6,0-1.3-0.4-1.9-0.6c0.3-0.6,0.6-1.3,1-1.8
		c2.3-2.5,5-4.7,7.1-7.4c3.8-5,5.8-11,6.2-17.5c0.7-9-1.2-17.5-4.6-25.7c-5.5-13.3-13.6-24.7-22.7-35.3c-5-5.9-10.4-11.4-15.7-17
		c-1.1-1.2-2.2-0.9-3.4-0.2c-4.6,2.7-9,5.9-14.1,7.6c-2.2,0.7-4.5,1.2-6.7,1.7c-5.7,1.4-11.4,2.7-17.1,4.1c-2.7,0.7-5.3,1.5-8,2.2
		c-0.4,0.1-1-0.1-1.5-0.2c0.2-0.5,0.4-1.2,0.7-1.4c1.7-0.9,3.5-1.6,5.2-2.4c4.8-2.1,9.5-4.3,14.3-6.4c4.1-1.8,8.3-3.6,12.4-5.5
		c3.4-1.6,6.7-3.4,10-5.2c0.9-0.5,0.8-1.5-0.3-2.5c-3.3-2.9-6.6-5.8-9.9-8.7c-6.2-5.2-12.4-10.4-18.6-15.6c-1.2-1-2.2-0.8-3.2,0.1
		c-7.5,6.3-15.2,12.4-22.6,18.9c-10.6,9.2-20.6,19.2-29.7,30c-6.8,8-13.2,16.5-18.4,25.9c-4.5,8.1-8.1,16.6-9.1,26.1
		c-1.4,13.3,3.6,23.6,13.2,31.8c1.3,1.1,2.7,1.9,4,2.9c0.3,0.3,0.4,0.9,0.6,1.3c-0.4,0.1-0.8,0.4-1.2,0.4
		c-5.8,0.1-11.7,0.2-17.5,0.2c-0.9,0-2-0.4-2.7-1.1c-7-6.9-10.9-15.6-12.4-25.5c-0.5-3.5,0.5-6.8,1.2-10.2
		c1.5-7.3,4.1-14.2,7.9-20.5c3.6-6,7.5-11.8,11.6-17.2c9.1-12,19.7-22.6,31-32.2c8.7-7.5,17.6-14.6,26.6-21.7
		c5-3.9,10.4-7.4,15.6-11c1.9-1.3,2.1-2.2,0.5-3.9c-1.1-1.2-1.2-3.5,0-4.9c1.2-1.4,1.8-2.7,0.6-4.4c-0.2-0.3,0-1.1,0.1-1.6
		c0.4-1.5,0.9-2.9,1.3-4.3c0.1-0.5,0-1.1,0.2-1.6c0.2-0.4,0.6-0.9,0.9-0.9c0.3,0,0.9,0.4,1,0.8c0.3,0.9,0.2,1.9,0.5,2.8
		c0.3,1,0.6,2,1.1,2.9c0.5,0.9,0.8,1.6,0,2.4c-0.9,1.1-0.6,2.2,0.2,3.1c2.1,2.4,2.2,4,0.1,6.3c-1,1.1-0.8,2.3,0.6,3.2
		c10.5,6.8,20.4,14.5,30.3,22.4c0.7,0.6,1.4,1.2,2.1,1.8c1,0.9,2.1,0.9,3.2,0.1c4.6-3.4,9.2-6.8,13.7-10.3c1.2-0.9,2.2-2.1,3.2-3.2
		c2-2.2,1.3-4.7-1.5-5.6c-2.2-0.7-4.5-1-6.8-0.8c-3.5,0.3-6.3-1.2-8.5-4c-0.3-0.4-0.6-0.8-0.7-1.2c-0.3-3.8-0.2-7.5,2.1-10.7
		c1.7-2.3,3.3-4.5,5.9-5.8c1.2-0.6,2.1-0.6,3.3,0c4.1,2.2,6.3,6,8.1,10.2c2.3,5.2,2.6,10.7,1.5,16.2c-0.5,2.6-1.5,5.2-2.9,7.3
		c-2.9,4.5-6.5,8.3-11,11.1c-3,1.8-3,2.2-0.5,4.6c1.6,1.5,2.1,1.4,3.7,0c4.5-3.9,8.9-7.8,13.5-11.4c6.2-4.9,12.5-9.7,18.9-14.5
		c2.8-2.1,5.6-4,8.5-5.8c2-1.3,2.2-2.1,0.7-3.9c-1.5-1.8-1.5-3.4-0.1-5.4c1-1.3,1.8-2.6,0.4-4.2c-0.2-0.3-0.2-1.3,0.1-1.6
		c1.2-1.2,1.2-2.8,1.3-4.3c0.1-1-0.1-2.5,1.3-2.5c1.3,0,1.3,1.4,1.4,2.5c0.1,1.6,0,3.3,1.4,4.6c0.2,0.2,0.1,1.3-0.2,1.7
		c-1,1.3-0.7,2.3,0.2,3.4c2.1,2.4,2.1,3.6,0.1,6c-1,1.2-0.6,2.4,1,3.5c1.5,1,3.1,2,4.6,3.1c7.6,5.6,15.1,11.2,22.6,16.9
		c11.5,8.8,22.3,18.4,32.5,28.9c9.8,10.1,18.8,20.8,25.9,33.3c2.9,5.1,5.4,10.4,7,16.2c0.8,3,1.8,5.9,2.8,8.8
		c0.1,0.3,0.5,0.5,0.7,0.7c0.2,2.5,0.2,5.7,0.2,8.8C757.1,223.7,756.7,224.1,756.6,224.5z M1199.8,206.2c-12.4,0-24.4,0.8-36.2-0.4
		c-5.5-0.5-10.3-1.1-16-0.2c-11,1.9-22.4,1.3-34,1.7c0-11.8,0-22.9,0-34.3c-8.5,0-16.5,0-25.1,0c0,3.9,0,7.7,0,11.5
		c-0.1,9.3,0.4,18.6-0.4,27.8c-1.3,14.1-9.1,21.8-23,24c-0.7,0.1-1.4,0.4-2.1,0.5c-2.6,0-5.1,0-7.7,0c0-3,0-6.4,0-9.9
		c0.4-1.3,0.7-2.7,1.1-4.2c0.7,0,1.2,0,1.8,0c10.2,0.3,14.2-3.4,14.2-13.9c0.1-18.9,0-37.7,0-56.6c0-1.5,0-3.1,0-4.9
		c5.5,0,10.5,0,16,0c0,3.8,0,7.4,0,11.4c8.5,0,16.6,0,25,0c0-3.8,0-7.4,0-11.3c5.5,0,10.5,0,16.1,0c0,15.2,0,30.3,0,45.7
		c4.5,0,8.4,0.2,12.4-0.1c3.7-0.2,5.8-2.6,6-6.2c0.5-7.1,0.6-14.3,0.8-21.4c0.1-3.8,0-7.7,0-11.9c5.3,0,10.4,0,16.5,0
		c-0.4,11.4-0.6,22.8-1.5,34.1c-0.3,3.3,0.5,4.8,3.3,5c5.4,0.5,10.8,0.6,16.6,0.8c1-14.8,0.1-29.1-3.1-43.9
		c5.1-0.8,10.1-1.7,15.4-2.5C1201.2,166.8,1199.7,186.7,1199.8,206.2z M1276.8,232.8c-5.2,0-10.1,0-15.4,0c0-4.4,0-8.7,0-13.4
		c5.2,0,10.2,0,15.4,0C1276.8,223.9,1276.8,228.2,1276.8,232.8z M1401.9,206.7c-60.8,0-121.7,0-182.9,0c0.1-27.6,0.1-55.5,0.1-83.7
		c5.2,0,10.1,0,15.5,0c0,23.4,0,46.6,0,70.1c8.8,0,17.2,0,26.1,0c0-15.1,0-30.1,0-45.6c5.5,0,10.6,0,16.1,0c0,15.1,0,30.2,0,45.5
		c9,0,17.4,0,26.1,0c-1.2-13.4-0.9-26.6,2.1-39.5c0.4-1.6,1.9-3.7,3.3-4.1c10.6-3,21.4-3.6,32.2-1.3c12.1,2.6,18.6,10.8,19.3,23.9
		c0.3,6.8,0.1,13.7,0.1,20.8c8.9,0,17.3,0,26.1,0c0-23.1,0-46.3,0-69.9c5.6,0,10.6,0,15.9,0C1401.9,150.8,1401.9,178.6,1401.9,206.7
		z M1436.7,207c-5.2,0-10.2,0-15.3,0c0-28,0-55.8,0-83.9c5.1,0,10,0,15.3,0C1436.7,150.9,1436.7,178.8,1436.7,207z M1607.1,232.7
		c-5.1,0-10.1,0-15.4,0c0-4.3,0-8.6,0-13.2c5,0,10.1,0,15.4,0C1607.1,223.9,1607.1,228.2,1607.1,232.7z M1649,207.4
		c-1.5,0-2.9,0-4.3,0c-41.6,0-83.2,0.2-124.8-0.1c-7.7-0.1-15.7-1.2-23.1-3.4c-11.4-3.4-17.7-11.9-17.8-24c0-7.6,1.3-15.1,2-23.1
		c6.2,1.2,11.1,2.2,16.1,3.2c-0.8,4.9-1.6,9.4-2.1,13.9c-1.4,11.5,3.3,18.2,14.9,18.8c13.4,0.7,26.8,0.2,40.7,0.2
		c0-14.8,0-29.9,0-45.3c5.6,0,10.6,0,16.1,0c0,15.2,0,30.3,0,45.6c8.2,0,16,0,24.3,0c0-15.2,0-30.3,0-45.6c5.4,0,10.4,0,16,0
		c0,15.1,0,30.3,0,45.7c9,0,17.4,0,26.3,0c0-23.4,0-46.6,0-70.1c5.4,0,10.4,0,15.7,0C1649,151.1,1649,179,1649,207.4z M1683.9,206.9
		c-4.9,0-10,0-15.3,0c0-27.8,0-55.7,0-83.9c5.2,0,10.1,0,15.3,0C1683.9,150.9,1683.9,178.7,1683.9,206.9z M2004.8,228.9
		c0-0.4,0.5-1,1-1.2c2.3-0.8,4.7-1.5,7.1-2.4c1.8-0.7,3.4-1.7,4.2-3.7c0.6-1.4-0.3-2.6-1.9-2.4c-0.5,0.1-1,0.2-1.5,0.2
		c-0.8,0-1-0.5-0.7-1.2c0.8-1.7,4.4-3.5,6.3-3.1c1.3,0.3,2,1.3,2,3.5c0.2,1.5-0.6,2.9-1.7,4.1c-2.7,3.3-6.3,5.2-10.6,5.9
		c-0.9,0.2-1.8,0.5-2.8,0.7C2005.7,229.5,2004.9,229.7,2004.8,228.9z M2061.9,227.1c-1.4,0.8-3.1,0.9-4.5,0.1
		c-1.2-0.7-2.1-0.6-3.2,0.1c-0.9,0.6-1.9,1.1-2.9,1.5c-1.9,0.7-3.7,0.3-5.2-0.9c-2.1-1.6-4.2-1.6-6.7-0.8c-4,1.2-7.3,3.5-10.9,5.5
		c-3.5,1.9-7.2,3.5-11.2,4.1c-2.9,0.5-5.9,0.8-8.8,1.2c-0.7,0.1-1.5,0.2-2.1-0.7c0.4-0.2,0.7-0.3,1.1-0.4c3.4-0.8,6.8-1.5,10.2-2.5
		c1.7-0.5,3.3-1.2,4.9-1.9c2.5-1.2,5-2.4,7.5-3.6c1.9-1,3.7-2.1,5.7-3.1c2.7-1.4,5.6-2.3,8.7-2.1c1.2,0,2.4,0.5,3.4,1.2
		c2.3,1.7,3.7,1.8,6.1,0c0.9-0.7,1.9-1.4,2.8-2c0.7-0.5,1.3-0.3,1.7,0.6c0.3,0.9,0.9,1.4,1.9,1.3c0.9-0.1,1.5-0.7,1.7-1.7
		c0.1-0.8,0.4-1.4,1.2-1.3c0.9,0.1,1,0.7,1,1.5C2064.3,225.2,2063.3,226.3,2061.9,227.1z M2121.3,227.6c-0.7,2-1.2,4.2-2.2,6
		c-1.1,1.9-3.5,1.6-4.8-0.2c-1-1.5-1.3-3-1.2-4.8c-0.3-2.7,1-5.1,1.6-7.6c0.5-2,1.2-4,1.9-5.9c0.2-0.7,0.4-1.4,0.8-2.1
		c0.2-0.3,0.6-0.5,0.9-0.7c0.1,0.4,0.3,0.8,0.2,1.2c-0.3,1.4-0.8,2.7-1.1,4c-0.7,2.6-1.4,5.2-2,7.8c-0.4,1.7,0.4,3.1,1.5,4.2
		c0.6,0.6,1.5,0.5,2-0.2c0.4-0.7,0.7-1.4,1.1-2.1c0.1-0.2,0.4-0.4,0.7-0.5c0.2,0.3,0.4,0.5,0.5,0.8
		C2121.3,227.5,2121.3,227.6,2121.3,227.6z M2169.6,227.2c-0.7,0.7-2.4,0.7-3.5,0c-0.8-0.5-1.5-1.1-2.2-1.7c-0.9-0.7-1.4-0.6-2,0.3
		c-1.5,2.3-3.5,4-6,5.2c-2.1,1-4,2.1-6.2,2.9c-2.7,0.9-5.5,1.6-8.5,1.8c-1.9,0.1-3.8,0.4-5.7,0.6c-0.5,0.1-1.1,0-1.6,0
		c0.5-1.2,1.5-1.4,2.4-1.6c4.4-1.3,8.8-2.3,13.1-3.8c3.3-1.1,6.6-2.4,9.4-4.5c0.7-0.6,1.3-1.4,2-2c0.9-0.9,1.7-1.8,2.6-2.7
		c0.9-0.8,1.8-1.4,2.8-2.1c1.3-0.9,2.4-0.8,3.4,0.4C2171.5,221.7,2171.4,225.4,2169.6,227.2z M2236.9,229.8
		c-0.5,1.2-0.9,2.4-1.5,3.5c-0.6,1.1-1.5,1.8-2.8,1.6c-1.2-0.2-2.1-1-2.5-2.2c-0.3-1-0.6-1.9-0.9-2.7c0.4-1.7,0.6-3.2,1.1-4.6
		c0.8-2.6,1.8-5.3,2.8-7.9c0.1-0.2,0.2-0.5,0.3-0.6c0.2-0.2,0.5-0.3,0.7-0.4c0.1,0.3,0.3,0.6,0.2,0.8c-0.3,1.3-0.7,2.7-1.1,4
		c-0.4,1.6-1,3.1-1.4,4.7c-0.4,1.6,0,3,1.2,4.2c0.8,0.8,1.3,0.8,1.9-0.1c0.4-0.5,0.6-1.1,0.9-1.7c0.2-0.3,0.5-0.5,0.7-0.7
		c0.2,0.3,0.4,0.6,0.5,1C2237.2,229,2237.1,229.4,2236.9,229.8z M2280.3,229.2c-0.7,1.2-1.5,2.4-2.4,3.6c-0.4,0.5-1.1,0.7-1.6,1.1
		c-1.7-0.3-2.9-1.3-4.1-2.3c-2.6-2.1-3-2-4.7,0.9c-0.4,0.6-0.8,1.2-1.3,1.7c-0.6,0.7-1.3,0.9-2,0.4c-1.9-1.2-3.8-2.5-5.5-3.8
		c-0.4-0.3-0.5-1.4-0.2-1.8c0.9-1.6,1.9-3,3-4.5c0.5-0.7,1.4-0.7,2.1-0.2c1.4,1,2.7,1.9,4.1,2.9c1.3,1,1.7,0.9,2.6-0.4
		c0.7-0.9,1.3-1.9,2-2.9c0.7-1,1.6-1.2,2.6-0.5c1.6,1.1,3.2,2.2,4.7,3.4C2280.9,227.6,2281,228,2280.3,229.2z M2291.8,214.1
		c-2.3,2-4.9,3.2-7.9,3.3c-1.3,0.1-2.7,0-4-0.1c-3.1-0.2-5.2-2-6.6-4.7c-0.3-0.6-0.6-1.2-0.9-1.8c-0.4-0.8-1.2-0.8-1.7-0.1
		c-1,1.3-1.9,2.6-2.9,3.8c-2,2.6-4.7,4.2-7.8,5c-1.7,0.4-3.4,0.9-5.1,1c-5.3,0.3-9.4-2.1-12.4-6.3c-1.6-2.3-3-4.8-4.5-7.2
		c-0.5-0.7-1-1.4-1.7-2c-0.8-0.7-2.2-0.6-3.3,0.1c-3.9,2.3-6.8,5.5-8.8,9.5c-1.5,3-2.7,6.1-4.1,9.2c-0.9,2-1.6,4.2-2.6,6.2
		c-1.1,2.2-2.9,3.8-4.9,5.1c-2,1.3-4.5,1-6.3-0.6c-2.6-2.2-4.7-4.7-5.9-8c-0.6-1.8-1.3-3.6-1.9-5.4c-0.5-1.6-1-2-2.7-2.1
		c-1.5-0.1-3-0.3-4.5-0.6c-2.7-0.6-4.7-2.5-6.5-4.5c-0.8-0.9-1.5-1.9-2.3-2.8c-0.9-1.1-1.7-1.3-2.9-0.6c-2.3,1.3-4.6,2.7-6.9,3.9
		c-2.6,1.3-5.4,1.9-8.3,2c-2.3,0.1-4.6,0.2-6.9,0c-2.2-0.2-4.4-0.7-6.6-1.2c-1-0.2-2-0.7-3.1-0.8c-0.8,0-1.7,0.3-2.4,0.7
		c-1.5,0.8-2.9,1.9-4.5,2.6c-3.2,1.4-6.5,1.9-9.9,1c-1.2-0.3-2.4-0.8-3.6-1.4c-2.5-1.2-3.6-3.7-4.5-6.2c-1.1-3-1.7-6.1-2.1-9.3
		c-0.2-1.5-0.6-3-1-4.5c-0.1-0.3-0.5-0.4-0.7-0.6c-0.2,0.2-0.5,0.5-0.6,0.8c-0.3,4.9-3.7,7.9-6.6,11.2c-3.4,3.7-7.1,7.1-11.2,9.9
		c-4.2,2.9-8.4,5.8-12.8,8.5c-2.4,1.4-4.9,2.7-7.7,3c-2.9,0.3-5.7,0.4-8.1-1.5c-1.7-1.3-2.8-3-3.5-4.9c-0.8-2.1-1.4-4.3-1.3-6.6
		c0-0.9-0.9-1.8-2.1-1.9c-4-0.5-6-3-7.1-6.6c-0.1-0.2-0.1-0.4-0.2-0.6c-0.3-0.4-0.6-1.1-1.1-1.2c-0.3-0.1-0.9,0.5-1.2,0.8
		c-1.5,1.9-2.9,3.8-4.4,5.6c-2.3,2.6-5.2,4.3-8.6,5.2c-2.1,0.6-4.2,1.1-6.4,0.8c-1.7-0.2-3.4-0.6-5.1-1.2c-2.2-0.8-3.9-2.4-5.5-4.2
		c-2.4-2.7-4.3-5.9-6-9.1c-1.1-2.2-2.9-3.2-5.5-1.5c-3.6,2.4-6.3,5.5-8.4,9.1c-2,3.3-3.3,6.9-4.5,10.5c-0.9,2.6-2,5.1-3.3,7.4
		c-1.2,2.1-3,3.8-5.2,4.9c-2.1,1.1-4.2,0.9-6-0.6c-3-2.5-5.4-5.5-6.9-9.2c-1.2-2.8-1.8-5.6-2.2-8.6c-0.4-3-1-5.9-0.7-8.9
		c0.3-2.7,0.6-5.3,1.2-8c0.2-1.2,0.2-2.2-0.4-3.1c-1.5-2.2-2.7-4.1-3.2-6.8c-0.1-1.1-0.2-2.2-0.1-3.4c0.1-1.2,0.3-2.3,0.7-3.4
		c0.8-2.3,1.1-4.7,1.7-7c0.5-2,1.2-3.9,1.8-5.8c0.4-1.3,0.8-2.5,1.1-3.8c0.5-1.9,1-3.9,1.6-5.8c0.1-0.3,0.5-1,0.9-0.8
		c0.6,0.4,0.6,1.3,0.5,2.1c-0.8,4.7-1.8,9.3-3.1,13.9c-0.6,2.4-1.4,4.8-1.3,7.2c0,2.5,0.9,5,2.9,6.5c0.3,0.2,0.6,0.4,0.9,0.3
		c0.5,0,0.9-0.6,1.1-1c0.8-1.5,1.5-3,2-4.6c0.1-0.4,0.3-0.8,0.7-0.9c0.4-0.1,0.8,0.2,0.9,0.6c0.1,0.4,0.1,0.8,0.1,1.2
		c-0.3,2.2-1,4.3-1.7,6.4c-0.7,2.2-1.6,4.6-3.4,6c-0.5,0.4-1.1,0.7-1.4,1.2c-0.3,0.5-0.4,1.1-0.5,1.7c-0.5,4.2-0.5,8.6,0,12.7
		c0.5,4.7,2.3,9,5.6,12.5c2.4,2.6,5.7,2.6,8.3,0.2c2.2-2.1,3.4-4.7,4.4-7.5c1.7-4.5,3.1-9.1,5.6-13.3c2.9-4.8,6.5-9,11.4-12.1
		c2.3-1.5,5.4-0.8,6.8,1.6c1.5,2.5,2.8,5.1,4.3,7.6c1.8,3.1,4.6,4.9,7.8,6.3c4,1.7,7.9,1.2,11.7-0.4c3.2-1.4,6-3.5,8-6.5
		c1.2-1.7,2.4-3.3,3.7-4.9c0.4-0.5,1-0.9,1.6-1.3c1.1-0.7,2.2-0.1,2.4,1.2c0,0.3,0,0.6,0,0.9c-1.1,4.5,1.8,7.1,4.8,8.3
		c1.6,0.7,2.2,0.4,2.9-1.2c0.7-1.5,1.2-3,1.8-4.5c0.5-1.1,1-2.1,1.6-3.2c0.2-0.3,0.7-0.4,1.1-0.6c0.1,0.4,0.4,0.8,0.3,1.2
		c-0.4,1.5-0.9,2.9-1.4,4.4c-0.3,0.9-0.6,1.7-0.8,2.6c-0.3,1.1,0.4,1.7,1.4,1.3c2.3-0.9,4.4-2.3,5.7-4.5c0.9-1.6,1.6-3.3,2.4-4.9
		c0.5-1,1.2-1.9,1.9-2.7c0.2-0.3,1-0.5,1.3-0.4c0.3,0.2,0.4,0.9,0.4,1.3c0,0.8-0.4,1.5-0.4,2.3c0.1,0.7,0.3,1.5,0.8,2
		c2.2,2.6,5.1,3.7,8.5,3.4c0.5,0,1.1-0.2,1.6-0.4c0.8-0.4,1.2-1.2,0.6-2c-0.8-1.3-0.8-2.6-0.3-4.1c0.5-1.5,0.7-3,1.1-4.4
		c0.1-0.4,0.6-1,0.9-1c0.4,0,0.9,0.4,1.1,0.8c0.5,0.9,1,2,1.1,3c0.1,2.5,0,5.1-0.3,7.6c-0.2,1.7-0.9,3.3-1.4,4.9
		c-1,2.8-3.6,4.2-6.4,4.4c-4.2,0.4-7.2-1.6-9.6-4.7c-0.2-0.2-0.4-0.5-0.6-0.7c-0.9-0.7-1.3-0.7-1.8,0.3c-1.5,2.5-3,5-5.4,6.9
		c-0.8,0.6-1.6,1.1-2.4,1.7c-0.8,0.5-0.9,1.1-0.5,2c1.7,4,6.2,4.8,10,3.6c3.3-1,6.3-2.5,9.2-4.3c5.1-3.2,10.1-6.7,14.6-10.8
		c2.6-2.4,5.1-4.8,7.6-7.3c1.4-1.5,2.6-3.3,3.9-5c0.7-0.9,0.6-2.1,0.3-3.2c-0.3-1-0.5-2-0.8-3c-0.5-1.6-1.1-3.2-1.7-4.8
		c-0.4-1.2-0.8-2.4-1.3-3.5c-1.3-3.4-2.6-6.7-3.9-10c-0.9-2.2-1.9-4.3-2.8-6.4c-0.8-2.1-1.7-4.2-2.2-6.3c-0.3-1,0-2.2,0.1-3.2
		c0.1-1.1,0.4-2.3,0.6-3.4c0.2-0.8,0.4-1.5,0.7-2.2c0.1-0.3,0.5-0.7,0.9-0.7c0.2,0,0.7,0.3,0.8,0.6c0.7,1.3,1.3,2.6,1.9,4
		c1,2,1.9,4,2.9,6c1.1,2.3,2.1,4.6,3.2,6.9c0.4,1,0.8,2,1.2,3c1.2,3.5,2.4,6.9,3.4,10.5c1.3,4.9,2.4,9.8,3.5,14.7
		c0.7,3.2,1.3,6.4,2.2,9.5c0.6,2.1,1.1,4.4,2.7,6.1c1.4,1.5,3.2,2.3,5.2,2.4c1.6,0,3.1-0.2,4.7-0.4c0.6-0.1,1.2-0.5,1.7-0.8
		c0.7-0.5,0.8-1.2,0.7-2c-0.4-2-0.7-4-0.8-6c-0.1-2.4,0.4-4.7,1.3-7c0.9-2.5,2.2-4.9,3.8-7.1c1.4-1.9,3-3.6,5.2-4.7
		c2.5-1.3,5,0.3,5.8,2.1c2.2,4.7,3.1,9.7,2.1,14.8c-0.4,2.2-1.4,4.3-2.2,6.4c-0.5,1.2-0.2,1.7,1.1,1.9c3.1,0.5,6.1,0.6,9.2,0
		c1.9-0.4,3.8-1,5.6-1.8c1.8-0.8,3.4-1.8,5.1-2.8c1.3-0.8,2-2.3,1.6-3.8c-0.6-2.5-1.1-5-1.7-7.6c-0.4-1.9-0.7-3.9-1.1-5.8
		c-0.3-1.3-1.2-1.7-2.4-0.9c-3.3,2.1-6.6,4.1-9.9,6.2c-0.2,0.1-0.5,0.3-0.7,0.3c-0.2,0-0.6-0.1-0.7-0.2c-0.1-0.1,0-0.5,0.2-0.7
		c0.4-0.5,0.9-0.9,1.5-1.3c3.3-2.6,6.6-5.1,9.9-7.8c0.5-0.4,0.9-1.2,0.9-1.9c0.1-1-0.2-2-0.3-3c-0.3-2.7-0.5-5.5-0.8-8.2
		c-0.2-2.2-0.5-4.3-0.7-6.5c-0.2-2.4-0.3-4.8-0.5-7.1c-0.2-2.8-0.6-5.7-0.7-8.5c-0.2-2.9-0.2-5.9-0.4-8.9c-0.3-3.8-0.6-7.7-1-11.5
		c-0.2-2.1-0.2-4.1,0.8-6.1c0.5-1,0.7-2.2,1.2-3.3c0.1-0.3,0.5-0.7,0.8-0.8c0.2,0,0.6,0.4,0.7,0.7c0.7,2,1.3,4,2,6
		c0.5,1.4,1,2.8,1.5,4.2c1.1,3.6,2.2,7.1,3.3,10.7c0.2,0.6,0.5,1.1,0.5,1.7c0,0.5-0.3,0.9-0.5,1.4c-0.4-0.2-1-0.3-1.2-0.6
		c-0.4-0.5-0.6-1.3-1-1.9c-0.2-0.3-0.6-0.5-0.9-0.8c-0.2,0.3-0.6,0.7-0.6,1c0.1,2,0.2,3.9,0.3,5.9c0.4,5.6,0.8,11.3,1.3,16.9
		c0.4,4.5,0.9,9,1.5,13.5c0,0.5,0.4,1.2,0.8,1.3c0.4,0.1,1.1-0.2,1.5-0.6c2.3-2.1,4.6-4.2,6.8-6.3c1.5-1.5,2.9-3,4.2-4.6
		c1-1.3,0.7-2-0.7-2.7c-1.1-0.6-2.2-1.1-3.3-1.6c-1.5-0.8-2.8-1.7-3.1-3.5c0-0.1-0.1-0.3-0.1-0.4c0.4-3.2,0.5-6.4,3.3-8.7
		c1.1-0.9,2.4-1.3,3.9-1.3c1.6,0,2.9,1.6,3.3,3.2c0.6,2.5,0.8,5.1,0.4,7.7c-0.1,0.6,0.5,1.3,0.9,1.9c0.3,0.4,0.9,0.7,1.4,1
		c1.9,1.3,2.1,3.2,1.8,5.3c-0.1,0.8-0.9,1.2-1.6,0.8c-0.5-0.2-0.9-0.6-1.4-1c-1.3-1-2-0.9-2.9,0.4c-1.3,2-2.5,4.2-4,6
		c-1.8,2.1-3.9,3.9-5.9,5.8c-1,0.9-2.1,1.7-3.1,2.7c-0.8,0.8-1.1,1.7-0.9,3c0.6,3.2,1.1,6.4,1.8,9.5c0.4,1.8,0.9,3.6,1.4,5.3
		c0.3,1.1,1.2,1.5,2.4,1.2c1.6-0.4,3.2-0.9,4.9-1.1c1.2-0.2,2.5-0.2,3.7,0c2.8,0.4,4.8,2.2,5.9,4.8c1.7,3.8,2,7.7,1.1,11.7
		c-0.1,0.6-0.5,1.2-0.6,1.8c-0.2,0.7-0.5,1.5-0.3,2.1c0.7,2,1.5,3.9,2.4,5.8c0.8,1.5,1.8,2.9,3.3,3.9c2.8,1.9,5.7,1,7.6-1.2
		c1.8-2.1,2.9-4.7,3.8-7.3c1.5-4.3,3.1-8.5,5.5-12.3c2.5-4,5.7-7.5,9.7-10.1c2.7-1.8,5.1-1.8,7.4,1.6c0.8,1.2,1.3,2.5,1.9,3.7
		c1.7,3.6,4.1,6.7,7.6,8.5c3.2,1.6,6.5,2.2,10.1,1.2c5.4-1.6,9-5.2,12.1-9.7c0.7-1,1.6-1.9,2.4-2.7c0.3-0.3,1.2-0.5,1.4-0.3
		c0.3,0.3,0.5,1,0.4,1.5c-0.1,0.8-0.3,1.6-0.6,2.4c-0.6,1.9,0,4.2,2.2,5.2c3.7,1.7,7.4,1.5,11.2,0.2c3.1-1.1,4.9-3.5,6.8-6
		c0.9-1.1,1.7-2.3,2.5-3.5c0.8-1,1.4-1.1,2.3-0.2c1.9,2,4.3,3,6.9,3.6c0.3,0.1,0.7,0.2,1,0.4c2.4,1.1,4.4,0.5,6.2-1.4
		c2.3-2.5,4.5-5.2,6.6-7.9c0.4-0.5,0.7-1.3,0.7-2c0-4,0.1-8-0.2-12c-0.4-5.2-1.1-10.3-1.7-15.5c-0.2-2.2-0.3-4.4-0.5-6.5
		c-0.2-2.8-0.6-5.7-0.8-8.5c-0.1-1.1-0.1-2.2-0.2-3.3c-0.3-2.4-0.6-4.7-0.9-7.1c-0.1-1.1-0.2-2.2-0.2-3.3c-0.1-2.4-0.2-4.8-0.4-7.1
		c-0.1-1.3-0.4-2.6-0.6-4c-0.2-1.2-0.1-2.4,0.4-3.6c0.6-1.4,1.1-2.8,1.7-4.2c0.2-0.4,0.5-0.6,0.8-0.9c0.3,0.3,0.7,0.5,0.9,0.9
		c0.5,1.2,1,2.5,1.4,3.7c0.9,2.7,1.8,5.4,2.8,8.1c0.6,1.6,1.2,3.2,1.7,4.8c0.6,2,1.2,4.1,1.7,6.2c0.1,0.6,0.2,1.3-0.5,1.4
		c-0.4,0-1-0.4-1.4-0.8c-0.5-0.7-0.8-1.5-1.3-2.2c-0.2-0.3-0.6-0.5-0.9-0.8c-0.2,0.4-0.5,0.8-0.5,1.1c0.2,2.3,0.4,4.5,0.7,6.8
		c0.3,2.8,0.7,5.5,1,8.3c0.5,4.4,1,8.8,1.4,13.2c0.1,1.1,0.3,2.2,0.3,3.2c0.2,4.9,0.4,9.9-0.3,14.8c-0.2,1.3-0.6,2.5-0.8,3.8
		c-0.1,0.4,0.2,0.8,0.3,1.2c0.4-0.1,0.9-0.2,1.2-0.4c3.2-3.1,6.8-5.7,10.7-8c4.2-2.5,8.9-3.5,13.7-2.5c2.9,0.6,5.6,2,8.1,3.8
		c1.5,1.1,2.9,2.1,3.8,3.8c1.2,2,1.1,4,0.5,6c-0.6,2.1-1.5,4.2-2.9,5.9c-1.6,2-3.4,3.8-5.6,5.1c-2.8,1.6-5.8,2.8-8.8,3.6
		c-3.3,1-6.6,2.1-10,2.8c-3.9,0.8-7.8,1.3-11.7,1.7c-3.8,0.4-7.7,0.5-11.6,0.7c-1.1,0.1-1.5,0.6-1.4,1.8c0.1,2,0.2,3.9,0.1,5.9
		c-0.1,2.6-1.9,3.8-4.4,3.1c-4.1-1.2-7-3.9-8.8-7.8c-0.6-1.2-0.6-2.8-0.8-4.2c-0.1-0.5,0.1-1-0.1-1.5c-0.1-0.4-0.5-0.8-0.8-0.9
		c-0.3,0-0.8,0.4-0.9,0.7C2295.1,210.6,2293.6,212.5,2291.8,214.1z M2307.8,230.4c-1.5,0.6-3,1.1-4.5,1.7c-1.4,0.5-2.8,1.1-4.2,1.7
		c-1.3,0.5-2.5,1.1-3.8,1.5c-0.4,0.1-1.1,0-1.3-0.2c-0.2-0.2-0.1-0.9,0.1-1.3c0.8-1.5,2.2-2.1,3.6-2.6c2.8-1.1,5.6-2.1,8.5-3.2
		c2.3-0.8,4.5-1.7,6.8-2.5c2.6-1,5.2-1.9,7.7-2.9c1-0.4,1.6-0.1,1.6,1.2c-0.3,0.3-0.6,1-1.2,1.2c-1.9,0.9-3.9,1.7-5.9,2.5
		C2312.8,228.5,2310.3,229.5,2307.8,230.4z M2363.8,217.2c-1.7,0.9-3.4,1.6-5.2,2.3c-2.5,1.1-5.1,2.1-7.6,3.1
		c-1.1,0.4-2.1,0.9-3.2,1.3c-4.6,1.9-9.2,3.8-13.9,5.6c-2.4,0.9-4.8,1.8-7.1,2.7c-1.4,0.5-2.7,1.2-4,1.7c-0.7,0.3-1.5,0.6-2.2,0.7
		c-0.9,0.2-1.3-0.4-0.9-1.2c1.1-2.2,2.9-3.6,5.2-4.5c2.5-1,5.1-1.9,7.6-2.9c2.6-1,5.3-2,7.9-3c2.4-0.9,4.8-1.9,7.2-2.9
		c2.2-0.9,4.4-1.7,6.7-2.6c2.6-1,5.1-2,7.7-3c0.8-0.3,1.5-0.6,2.3-0.8c0.8-0.2,1.3,0.2,1.3,1.3
		C2365.3,215.9,2364.6,216.7,2363.8,217.2z M2487.7,227.8c-0.5,1.9-0.8,3.9-2,5.6c-1.3,1.9-3.4,1.9-4.6,0c-0.9-1.3-1-2.8-1-4.3
		c-0.1,0-0.2-0.1-0.3-0.1c0.6-2.4,1.2-4.9,1.9-7.3c0.6-2.2,1.3-4.3,1.9-6.5c0-0.1,0-0.3,0.1-0.4c0.3-0.3,0.6-0.5,0.8-0.7
		c0.1,0.3,0.4,0.7,0.4,1c-0.1,0.7-0.2,1.4-0.4,2.1c-0.6,2-1.2,3.9-1.7,5.9c-0.3,1.3-0.4,2.6-0.5,3.9c-0.1,1.1,0.4,1.9,1.2,2.6
		c0.8,0.8,1.7,0.6,2.2-0.4c0.4-0.7,0.7-1.3,1.1-2c0.1-0.2,0.5-0.2,0.7-0.3C2487.6,227.3,2487.8,227.5,2487.7,227.8z M2524.6,230.4
		c-0.8,1.2-1.6,2.5-2.5,3.6c-0.3,0.4-0.8,0.7-1.3,1.1c-0.6-0.3-1.1-0.6-1.5-0.9c-1.5-1.1-2.9-2.1-4.3-3.2c-1.1-0.8-1.2-1.7-0.4-2.8
		c0.8-1.2,1.6-2.4,2.4-3.5c0.7-1,1.4-1.2,2.3-0.5c1.6,1.1,3.3,2.2,4.8,3.4C2525.4,228.6,2525.4,229.1,2524.6,230.4z M2549,225.8
		c-1.5,3.3-4,5.6-7.2,7c-1.4,0.6-3,1-4.6,1.4c-1.1,0.3-2.2,0.5-3.3,0.7c-0.4,0.1-0.8-0.2-1.2-0.3c0.2-0.4,0.3-1,0.6-1.1
		c1.1-0.5,2.2-1,3.3-1.2c2.1-0.5,4.2-1,6-2.4c0.8-0.6,1.5-1.2,2-2c0.5-0.7,0.7-1.6,0.2-2.4c-0.5-0.8-1.3-0.7-2.1-0.5
		c-0.5,0.1-0.9,0.2-1.4,0.2c-0.7,0-1.1-0.6-0.7-1.1c1.4-1.7,3-3.3,5.5-3.3C2549.2,220.8,2550.1,223.3,2549,225.8z M2584,226.9
		c-1.2,1.4-2.4,2.7-3.7,4c-1.5,1.6-3.5,2.6-5.6,3.2c-2.5,0.8-5,1.7-7.5,1.5c-0.7,0-1.3,0.1-1.9,0c-1.6-0.2-2.7-1-2.9-2.5
		c-0.2-1.2-0.1-2.5,0.2-3.6c0.2-1.1,0.8-2.1,1.3-3.1c0.3-0.7,0-1.3-0.5-1.7c-0.5-0.4-1.1-0.8-1.6-1.2c-0.9-0.9-1.2-2.1-0.6-3.2
		c1-1.9,2-3.7,4-4.8c0.9-0.5,1.7-0.7,2.6-0.1c0.9,0.6,1.1,1.5,1,2.5c-0.2,1.2-1,1.7-2.2,1.2c-0.9-0.4-1.6-0.3-2.3,0.4
		c-0.5,0.5-0.5,1,0,1.5c1.1,1.1,3.2,1.3,4.5,0.5c0.6-0.4,1.1-1,1.8-1.4c0.3-0.2,0.9-0.4,1.2-0.3c0.3,0.2,0.4,0.8,0.4,1.1
		c-0.2,1.4-1.2,2.2-2.2,3.1c-1.7,1.5-3.4,2.9-5,4.5c-1.6,1.6-0.9,3.4,1.4,3.6c1.6,0.1,3.3,0,4.9-0.3c2.8-0.6,5.5-1.7,8.1-3.1
		c1.3-0.8,2.5-1.8,3.8-2.6c0.4-0.2,0.9-0.3,1.3-0.4C2584.3,226.1,2584.3,226.6,2584,226.9z M2594.6,213.5c-0.8,0.1-1.7,0.2-2.5,0.1
		c-2.4-0.4-4.7-1-6.6-2.6c-2.2-1.9-4.5-3.8-6.7-5.7c-1.2-1-2-1.1-3.6-0.1c-3.4,2-6.7,4.1-10.1,6.1c-3.2,1.8-6.5,2.9-10.3,2.8
		c-3.2-0.1-5.6-1.5-7.5-3.8c-0.4-0.5-0.8-1.2-1.1-1.8c-0.5-1.1-1.2-1.2-2-0.2c-0.5,0.7-0.9,1.4-1.4,2.1c-1.4,2-2.8,3.9-5,5
		c-1.3,0.7-2.8,1.2-4.2,1.2c-4.5,0.1-8.1-2.1-9.9-6.3c-0.2-0.4-0.5-0.7-0.8-1.1c-0.3,0.3-0.7,0.5-1,0.9c-1.5,1.7-2.8,3.5-4.4,5.1
		c-1.7,1.7-3.9,2.5-6.1,3.3c-2.4,0.8-4.9,1.1-7.4,0.8c-3-0.3-5.9-1.5-8-3.7c-1.7-1.9-3.1-4-4.6-6.1c-1.1-1.6-1.9-3.3-3-4.8
		c-1-1.4-2.3-1.6-3.8-0.7c-2.1,1.1-4,2.6-5.5,4.4c-2,2.4-3.7,5.1-4.9,8c-1.1,2.9-2.2,5.8-3.3,8.6c-1.4,3.7-3.3,6.9-6.8,9
		c-1.9,1.2-4.1,1.1-5.9-0.3c-3.2-2.3-5.2-5.5-6.6-9.1c-0.6-1.6-1.1-3.3-1.6-4.9c-0.2-0.7-0.2-1.5-0.4-2.3c-0.1-0.6,0-1.2-0.2-1.8
		c-0.3-1.2-1.3-1.6-2.1-0.7c-2,2.1-4.7,2.8-7.4,3.2c-1.3,0.2-2.8-0.2-4.1-0.4c-1-0.1-1.9-0.4-2.9-0.5c-0.7-0.1-1.2,0.1-1.3,0.8
		c-0.9,3.5-1.8,7-2.7,10.6c-0.3,1.5-0.1,3,0.9,4.2c0.9,1,1.9,0.9,2.5-0.3c0.1-0.2,0.1-0.5,0.3-0.6c0.2-0.3,0.5-0.5,0.8-0.7
		c0.2,0.3,0.4,0.6,0.5,0.9c0,0.6-0.1,1.2-0.3,1.7c-0.4,1.1-0.9,2.2-1.5,3.2c-0.5,0.8-1.2,1.5-2.3,1.3c-1.4-0.2-2.1-1.1-2.6-2.2
		c-0.6-1.5-1-3.1-0.6-4.7c0.6-2.7,1.3-5.3,2-7.9c0.5-1.8,1.1-3.6,1.7-5.5c0.3-1,0-1.8-0.8-2.5c-4.1-3.1-8.1-6.2-12.1-9.4
		c-0.1,0-0.1-0.1-0.2-0.1c-0.6-0.2-1.2-0.4-1.9-0.6c0,0.6,0,1.2,0.1,1.7c0.2,2.6,0.6,5.3,0.5,7.9c-0.1,2.4-0.4,4.8-1.7,7
		c-1.1,1.8-2.7,3.2-4.6,4.3c-4.6,2.8-9.5,5-14.7,6.5c-2.7,0.8-5.5,1.5-8.4,1.8c-2.5,0.2-5-0.5-7.2-2c-2.8-1.9-4.7-4.5-6.1-7.5
		c-1.9-4.1-2.6-8.5-3.2-13c-0.3-2.4-0.7-4.7-1-7.1c-0.2-1.3-0.2-2.7-0.3-4.1c-0.1-2.3-0.2-4.7-0.4-7c-0.2-3.5-0.4-6.9-0.5-10.4
		c-0.1-2.3-0.1-4.6-0.3-6.9c-0.4-5.6-0.7-11.2-1.2-16.8c-0.5-4.7-1.2-9.4-1.9-14.1c-0.5-3.4-0.9-6.8-1.5-10.2
		c-0.4-2.6-1-5.1-1.6-7.7c-0.8-3.3-0.9-6.6,0.4-9.8c0.5-1.2,1-2.5,1.5-3.8c0.2-0.4,0.7-0.9,1.1-0.9c0.3,0,0.8,0.6,0.9,1
		c0.5,1.6,0.9,3.2,1.3,4.8c1.5,5.7,2.2,11.5,2.9,17.3c0.2,1.7,0.2,3.3,0.4,5c0.3,2.8,0.6,5.6,0.9,8.3c0.3,2.7,0.5,5.5,0.7,8.2
		c0.1,0.9,0.2,1.8,0.4,2.6c0.1,0.4,0.5,0.7,0.7,1c0.3-0.2,0.7-0.4,0.9-0.7c1.1-2.2,3-3.6,4.9-4.9c3-2,6.1-3.9,9.2-5.8
		c2.8-1.7,5.6-3.5,8.4-5.2c3-1.7,6-3.3,9-4.9c2.7-1.4,5.4-2.8,8.1-4.2c2.6-1.3,5.3-2.7,8-3.9c2.3-1,4.7-2,7.1-2.8
		c2-0.7,4.1-0.9,6.2-0.8c2.2,0.2,4,2.2,4.2,4.2c0.1,0.9,0.1,1.9-0.1,2.7c-1.2,5.3-3,10.3-5.9,14.9c-2.2,3.5-4.6,6.7-6.8,10.2
		c-1.8,3-3.5,6.2-5.2,9.2c-0.5,0.9-0.8,1.9-1.2,2.8c-0.1,0.3-0.3,0.6-0.5,0.7c-0.2,0.2-0.5,0.3-0.8,0.2c-0.1,0-0.3-0.5-0.2-0.7
		c0.4-1.7,0.6-3.4,1.3-4.9c1.2-3.1,2.6-6.2,4.1-9.1c1.4-2.6,3.3-5.1,5-7.6c1.9-2.9,4-5.8,5.8-8.8c1.2-2-0.5-4.9-2.9-4.8
		c-0.9,0-1.8,0.1-2.7,0.4c-2.9,1-5.8,1.9-8.6,3.1c-3.4,1.5-6.7,3.3-10,5c-2.3,1.2-4.6,2.5-6.9,3.8c-2.9,1.7-5.9,3.4-8.8,5.2
		c-4.5,2.8-9,5.6-13.4,8.5c-2.2,1.4-4.2,3.1-6.3,4.7c-1,0.8-0.9,1.7,0.1,2.4c2.3,1.5,4.7,2.9,7,4.4c2.7,1.7,5.4,3.5,8.2,5.1
		c2.4,1.4,4.8,2.6,7.2,4c2.5,1.3,5.1,2.6,7.5,4.1c3.9,2.4,7.7,4.8,11.5,7.4c2.7,1.9,5.2,4.1,7.9,6.2c1.8,1.4,3.5,3,5.4,4.3
		c4,2.8,8.5,4,13.4,3c1.2-0.3,2.5-0.8,3.6-1.3c0.4-0.2,0.7-0.7,0.8-1.1c0.2-0.8,0.3-1.5,0.2-2.3c-0.1-2.6-0.2-5.2-0.4-7.8
		c-0.2-3-0.6-6-0.9-8.9c-0.5-4.7-0.9-9.3-1.4-14c-0.5-4.6-1-9.3-1.5-13.9c-0.4-3.4-0.8-6.8-1.1-10.2c-0.4-4.9-0.8-9.8-1.2-14.6
		c-0.2-2.5-0.4-4.9-0.7-7.4c-0.1-1.2-0.4-2.3-0.6-3.5c-0.2-1.1-0.2-2.2,0.2-3.3c0.6-1.5,1-3,1.6-4.5c0.2-0.5,0.7-1,1.1-1.1
		c0.7-0.1,0.8,0.6,1,1.2c0.6,1.8,1.2,3.5,1.8,5.3c0.4,1.2,0.9,2.3,1.3,3.5c1.4,4.4,2.7,8.8,4.1,13.2c0,0,0,0.1,0,0.1
		c0.1,0.7,0.4,1.6-0.4,1.9c-0.8,0.3-1.1-0.6-1.5-1.1c-0.5-0.7-0.9-1.4-1.4-2.1c-0.2-0.2-0.6-0.3-0.9-0.2c-0.2,0-0.3,0.5-0.2,0.8
		c0.4,3.9,0.8,7.8,1.3,11.7c0.2,2.1,0.5,4.2,0.8,6.3c0.1,1,0.8,1.4,1.6,0.7c2.3-1.7,4.6-3.5,6.7-5.3c1.3-1.1,1.8-2.6,1.5-4.4
		c-0.4-2.8-0.7-5.6-0.9-8.4c-0.3-3.1-0.6-6.2-0.8-9.2c-0.1-1-0.1-1.9-0.2-2.8c-0.1-0.9-0.3-1.8-0.6-2.7c-0.3-1.1-0.3-2.1,0.2-3.2
		c0.7-1.5,1.1-3.1,1.7-4.7c0.2-0.4,0.6-0.8,1-1.1c0.3,0.4,0.8,0.7,0.9,1.2c1.1,2.9,2.1,5.8,3.1,8.8c0.9,2.7,1.9,5.3,2.7,8
		c0.6,1.7,1,3.5,1.4,5.2c0.1,0.3,0.2,0.7,0.2,1c-0.1,0.4-0.3,0.9-0.5,1c-0.3,0.1-0.8-0.2-1.1-0.5c-0.4-0.5-0.7-1.2-1.1-1.7
		c-0.2-0.4-0.5-0.7-0.9-1c-0.6-0.4-1.1-0.1-1,0.6c0.2,2.3,0.4,4.5,0.7,6.8c0.1,1.1,0.9,1.4,1.9,0.7c1-0.8,2-1.6,2.9-2.5
		c2.8-2.7,5.6-5.3,8.3-8c0.8-0.8,1.4-1.8,2.1-2.8c0.4-0.6,0.3-1.2-0.4-1.7c-1.2-0.7-2.4-1.5-3.6-2.1c-1.9-1-3.4-2.8-2.6-5.4
		c0.5-1.8,0.5-3.8,1.7-5.4c1-1.3,2.3-2.2,3.8-2.6c1.8-0.5,3.5,0.7,4,2.9c0.4,2.1,1,4.3,0.4,6.6c-0.3,1.2,0,2.3,1.1,3.2
		c1,0.9,1.8,2,2.7,3c0.3,0.4,0.4,0.9,0.5,1.3c0.1,0.9,0,1.7-0.9,2.2c-0.8,0.4-1.5-0.1-2.1-0.6c-1.5-1.2-2-1.1-3,0.4
		c-1.4,1.9-2.5,3.9-4,5.7c-2.8,3.4-5.9,6.5-9.5,9c-0.5,0.3-1,0.6-1.4,1.1c-0.3,0.4-0.8,1.1-0.7,1.6c0.2,2.7,0.5,5.3,0.8,7.9
		c0.1,1.1,0.3,2.2,0.4,3.2c0.6,5.8,1.2,11.5,1.8,17.3c0.3,2.7,0.4,5.4,0.7,8c0.2,2.5,0.6,5,0.8,7.5c0.4,5.8,0.8,11.7-0.2,17.5
		c-0.5,3-1.3,6-2.6,8.8c-0.1,0.2-0.2,0.5-0.4,0.6c-0.3,0.2-0.7,0.4-0.9,0.3c-0.2,0-0.4-0.5-0.4-0.8c0.1-4.1,0.4-8.2,0.3-12.2
		c0-2.8-0.5-5.6-0.7-8.4c-0.2-2.1-0.4-4.2-0.6-6.3c-0.2-2.5-0.5-5.1-0.8-7.6c-0.6-5.4-1.2-10.8-1.8-16.2c-0.4-4.2-0.8-8.3-1.2-12.5
		c-0.1-1-0.2-2-0.3-2.9c-0.1-1.1-0.9-1.5-1.8-0.9c-2.1,1.3-4.2,2.6-6.4,3.9c-1.1,0.7-1.7,1.6-1.6,2.9c0.2,2.5,0.4,5,0.6,7.5
		c0.3,4.2,0.6,8.5,1,12.7c0.2,2.6,0.5,5.3,0.8,7.9c0.1,0.6,0.2,1.3,0.2,1.9c-0.1,5-0.1,10-0.2,15c0,1-0.3,1.9-0.3,2.8
		c0,3.8,0.6,7.5,2,11c1.1,2.5,2.6,4.8,4.7,6.6c1.3,1.1,4.4,1.2,6,0.1c1.8-1.2,2.9-3,3.8-4.8c1-2.1,1.7-4.4,2.6-6.5
		c0.9-2.3,2-4.5,3-6.7c1.8-4,4.6-7.4,7.8-10.3c1.3-1.2,2.8-2.3,4.3-3.2c2.5-1.4,4.9-0.6,6.3,1.9c1.1,2,2.1,4.1,3.3,6.1
		c1.6,2.5,3.5,4.7,6.3,6.1c2.8,1.4,5.6,2,8.7,1.5c4.6-0.8,8.3-3.1,11.2-6.8c1.3-1.6,2.4-3.2,3.7-4.8c0.4-0.5,0.9-1,1.4-1.3
		c0.4-0.2,1-0.2,1.4,0c0.3,0.1,0.4,0.8,0.4,1.2c-0.1,0.6-0.3,1.3-0.6,1.8c-1.8,3.3,0.2,6.4,3.5,7.1c4.5,0.9,8.3-0.5,11-4.3
		c1.5-2.1,2.8-4.3,4.2-6.4c0.4-0.5,0.8-1.2,1.4-0.8c0.4,0.3,0.7,1.1,0.6,1.5c-0.4,2.1,0,4,1.5,5.5c1,1,2.3,1.9,3.6,2.2
		c2.3,0.6,4.7,0.2,6.9-0.6c1.6-0.6,3.2-1.1,4.8-1.8c1.8-0.8,3.6-1.6,5.3-2.5c1-0.5,1-1.5,0.1-2.1c-2.3-1.5-4.5-3.1-7.2-4
		c-1.3-0.4-2.5-0.5-3.8,0.1c-0.7,0.3-1.4,0.6-2.1,0.8c-1,0.2-1.5-0.3-1.2-1.3c0.5-1.7,0.9-3.5,1.6-5.2c0.4-0.9,1-2,1.9-2.4
		c2.1-1.1,4.4-1.9,6.6-2.6c2-0.6,4.2-0.9,6.3-1.2c2-0.3,4-0.4,6.4-0.6c2.8,0.2,5.9,0.4,8.9,0.8c1.9,0.2,3.8,0.8,5.7,1.2
		c1.5,0.4,3,0.8,4.5,1.2c0.5,0.2,1,0.4,1.5,0.7c0.8,0.5,0.9,1.2,0.6,2.1c-0.6,1.6-1.1,3.3-1.9,4.8c-0.4,0.8-0.9,1.6-1.7,2
		c-1.7,0.9-3.4,1.7-5.1,2.5c-1.6,0.7-3.1,1.5-4.7,2.2c-0.8,0.4-0.9,1-0.3,1.7c2.7,2.8,6,4.1,9.9,3.5c3.3-0.5,6.5-1.6,9.2-3.6
		c0.8-0.6,1.7-1.1,2.3-1.9c0.5-0.6,0.7-1.6,0.6-2.4c-0.1-2.5-0.4-5.1-0.7-7.6c-0.5-5-0.9-10-1.5-15c-0.5-4.1-1.2-8.1-1.7-12.2
		c-0.4-2.8-0.6-5.7-0.9-8.5c-0.4-3.9-0.8-7.8-1.2-11.7c-0.3-3.4-0.5-6.8-0.8-10.2c-0.3-2.8-0.6-5.7-0.9-8.5
		c-0.2-1.5-0.1-2.9,0.6-4.3c0.6-1.2,0.9-2.4,1.4-3.6c0.1-0.3,0.5-0.6,0.8-0.8c0.3,0.3,0.7,0.5,0.8,0.8c0.7,1.9,1.3,3.8,2,5.7
		c0.4,1.1,0.8,2.1,1.2,3.1c1,2.8,2,5.6,2.9,8.5c0.6,1.8,1,3.6,1.4,5.4c0.1,0.4-0.3,1-0.4,1.4c-0.5-0.3-1.1-0.4-1.4-0.8
		c-0.5-0.7-0.9-1.5-1.4-2.3c-0.2-0.3-0.6-0.4-0.9-0.6c-0.2,0.3-0.5,0.7-0.5,1c0.1,1.7,0.2,3.4,0.3,5.1c0.3,3.3,0.7,6.6,1,9.9
		c0.2,1.8,0.5,3.6,0.7,5.4c0.5,5,1,10.1,1.6,15.1c0.3,2.8,0.8,5.6,1,8.4c0.3,3.3,0.5,6.6,0.4,9.9c-0.1,3.9-0.4,7.8-1.8,11.5
		c-1.3,3.4-2.8,6.7-6.2,8.6c-1.9,1.1-4,1.9-6.1,2.7C2597.1,213.1,2595.8,213.3,2594.6,213.5z M2433.4,182.8
		c-1.1-0.2-2.1-0.2-3.2-0.3c-2.2,0.2-4.3,0.4-6.5,0.6c-0.9,0.1-1.8,0.1-2.6,0.1c-1.4,0-1.7-0.5-1-1.8c0.4-0.8,0.9-1.6,1.4-2.4
		c0.6-1,1.3-2.1,1.9-3.1c0.6-1,1.6-1.5,2.8-1.6c2.3-0.2,4.6-0.7,7-0.8c1.5-0.1,3,0.2,4.6,0.3c0.9,0.1,1.7,0.3,2.6,0.4
		c2.6,0.4,3.4,2.2,2.1,4.5c-1,1.7-1.9,3.4-3.1,4.9c-1.1,1.5-2.5,2.8-3.9,4.2c-1.3,1.3-3.1,1.5-4.8,2c-3.2,0.9-6.5,1.6-9.8,2.4
		c-0.1,0-0.2,0.1-0.3,0.1c-0.7,0.1-1.6,0.6-1.8-0.4c-0.3-0.9,0.7-1.2,1.3-1.5c2.7-1.2,5.4-2.4,8.1-3.6c1.8-0.8,3.6-1.6,5.4-2.4
		c0.3-0.1,0.7-0.6,0.6-0.8C2434.1,183.2,2433.7,182.8,2433.4,182.8z M2409.7,175.9c-1.2-1.6-3.2-2.2-4.9-2.9c-3-1.2-6-2.3-9-3.5
		c-0.8-0.3-1.6-0.9-2.3-1.5c-1.9-1.4-1.5-3.9,0.8-5.2c2-1.2,3.3-1.5,6.6-1.5c1.2,0.1,2.5,0.1,3.6,0.3c0.5,0.1,1.3,0.7,1.3,1
		c-0.1,0.7-0.5,1.5-1,2c-0.3,0.3-1.2,0.3-1.6,0c-0.9-0.7-1.9-0.8-3-0.8c-1.1,0-2.1-0.1-3.2,0c-0.4,0-0.9,0.3-1,0.6
		c-0.1,0.3,0.1,0.9,0.4,1.1c0.6,0.5,1.4,1,2.1,1.4c3.2,1.3,6.4,2.5,9.6,3.7c2.1,0.8,4.3,1.6,5.3,4c0.8,1.9,0.6,3.2-0.8,4.8
		c-1.6,1.8-3.5,1.8-5.5,1.1c-4.3-1.5-8.7-2.9-12.9-4.5c-2.4-0.9-4.7-1.9-6.9-3.2c-2-1.2-3-3.3-3.9-5.3c-0.1-0.3,0-0.8,0.2-1
		c0.2-0.1,0.8,0,1,0.2c2,2.1,4.6,3.4,7.1,4.7c1.2,0.6,2.4,1,3.7,1.5c3.7,1.3,7.4,2.6,11.2,3.9c0.7,0.3,1.4,0.6,2.2,0.8
		c0.4,0.1,1-0.2,1.5-0.4C2410,176.8,2410,176.3,2409.7,175.9z M2618.8,220.1c-0.1,0.4-0.2,0.8-0.6,1c-0.6,0.3-1.2-0.1-1.7-0.5
		c-0.5-0.4-1-1-1.6-0.9c-0.6,0.1-1,0.6-1.2,1.1c-0.7,1.4-1,2.9-1.1,4.4c-0.2,2.1-0.2,4.3-0.4,6.4c-0.1,0.5-0.1,1-0.4,1.4
		c-0.1,0.3-0.4,0.5-0.7,0.4c-0.2,0-0.3-0.2-0.4-0.3c-1.1-1.4-1.5-3.2-2.3-4.8c-0.8-1.5-2.1-2.8-3.5-3.8c-0.8-0.6-1.7-1.1-2.3-1.8
		c-0.6-0.8-0.8-1.9-0.6-2.9c0.2-0.8,0.9-1.7,1.8-1.7c0.5,0,1,0.3,1.4,0.6c0.9,0.6,1.7,1.4,2.3,2.3c1.3,1.8,1.7,4.2,3.4,5.8
		c0.2,0.2,0.4,0.4,0.7,0.5c0,0,0,0,0.1,0c0,0,0,0,0,0c0.2-0.5,0.3-1.1,0.2-1.6c-0.1-0.5-0.2-1-0.2-1.6c-0.1-1.3,0.2-2.6,0.5-3.9
		c0.2-0.9,0.5-1.7,0.8-2.5c0.5-1.4,1.5-2.4,3-2.1c0.7,0.1,1.4,0.6,1.8,1.1C2618.7,217.6,2619,218.9,2618.8,220.1z M2631.1,225.7
		c-0.5,2.3-1.4,4.5-2.2,6.7c-0.1,0.2-0.4,0.3-0.6,0.5c-0.2-0.3-0.5-0.6-0.5-0.9c0-1.8,0.1-3.6,0.1-5.4c0-2.9,0.1-5.7-0.1-8.6
		c-0.3-5.2-0.7-10.4-1.2-15.6c-0.2-2.2-0.6-4.4-0.8-6.6c-0.3-2.6-0.4-5.1-0.7-7.7c-0.4-4.3-1-8.7-1.4-13c-0.2-2.1-0.2-4.2-0.5-6.3
		c-0.3-3.2-0.8-6.3-1.1-9.5c-0.4-4.5-0.8-9.1-1.2-13.6c-0.2-2.4-0.5-4.8-0.8-7.2c-0.2-2.6-0.4-5.2-0.7-7.7c-0.3-2.6-0.5-5.2-0.9-7.7
		c-0.3-1.7-0.1-3.2,0.5-4.8c0.3-1,0.6-1.9,1-2.9c0.1-0.4,0.3-0.8,0.6-1.1c0.5-0.7,1.2-0.6,1.5,0.2c0.8,2.3,1.6,4.6,2.4,6.8
		c0.9,2.7,2,5.3,2.9,7.9c0.5,1.5,1,3.1,1.5,4.7c0.3,1,0.6,2,0.8,3c0.1,0.4,0.2,0.8,0.1,1.2c-0.1,0.3-0.5,0.6-0.8,0.7
		c-0.3,0-0.8-0.2-0.9-0.4c-0.5-0.6-0.8-1.4-1.2-2c-0.3-0.4-0.8-0.6-1.2-0.9c-0.2,0.4-0.5,0.9-0.5,1.3c0.1,2.1,0.3,4.3,0.6,6.4
		c0.4,4.1,0.9,8.2,1.4,12.4c0.3,2.9,0.5,5.8,0.8,8.7c0.4,4.3,1,8.6,1.4,12.9c0.3,3.5,0.5,7.1,0.9,10.7c0.2,2.4,0.5,4.8,0.8,7.2
		c0.2,2.2,0.5,4.4,0.6,6.6c0.3,3.9,0.6,7.9,0.9,11.8c-0.1,0-0.2,0-0.3,0C2632.7,217.6,2632,221.7,2631.1,225.7z"/>
	<path class="st0" d="M2576.3,190.1c-0.2,0.1-0.9,0.2-1,0.5c-0.1,0.3,0.3,0.9,0.5,1.3c0.1,0.1,0.2,0.2,0.3,0.3
		c0.9,0.7,1.9,1.5,2.8,2.2c0.7,0.5,1.6,0.5,2.3,0.1c1.2-0.6,2.4-1.3,3.6-2c0.3-0.2,0.4-0.5,0.7-0.8c-0.3-0.2-0.6-0.6-1-0.6
		C2581.8,190.8,2579.2,190.5,2576.3,190.1z"/>
	<path class="st0" d="M2406.4,205.6c-3-2.8-6.2-5.5-9.5-8c-3.9-3-7.9-5.8-11.9-8.7c-3.4-2.5-6.9-5-10.4-7.4
		c-0.3-0.2-0.9-0.4-1.2-0.3c-0.3,0.1-0.4,0.7-0.4,1.1c0.1,1.9,0.2,3.8,0.3,5.7c0.1,2.1,0,4.2,0.1,6.2c0.2,2.6,0.4,5.1,0.6,7.7
		c-0.1,0-0.1,0-0.2,0c0.4,2.7,0.9,5.4,1.2,8c0.4,3.1,1.2,6,2.7,8.7c0.9,1.5,1.9,3.1,3.2,4.3c2.6,2.3,5.7,2.5,9,1.7
		c3.2-0.7,6.4-1.3,9.5-2.5c3.7-1.5,7.2-3.2,10.6-5.2c0.8-0.5,1.6-1,2.3-1.7c0.5-0.4,0.5-1,0.2-1.7
		C2411.1,210.7,2408.9,208,2406.4,205.6z M2397.6,206c-0.1,0.3-0.4,0.8-0.6,0.8c-0.3,0.1-0.7-0.2-1.1-0.4c-0.1,0-0.1-0.1-0.1-0.1
		c-1.6-1.8-2.8-1.6-3.3,0.7c-0.5,2.2-0.6,4.5-0.9,6.8c-0.2,1.3-0.3,2.6-0.5,3.8c-0.1,0.4-0.5,1-0.9,1.1c-0.3,0-0.9-0.5-1.1-0.8
		c-0.6-1.2-1.1-2.5-1.6-3.8c-0.9-2.1-2.5-3.5-4.4-4.6c-2-1.1-2.6-3.2-1.6-5.2c0.4-0.8,1.2-1.2,1.8-0.6c1.3,1,2.7,2.1,3.7,3.5
		c1,1.3,1.5,2.9,2.3,4.4c0.2,0.3,0.4,0.5,0.7,0.8c0.2-0.3,0.6-0.7,0.7-1c0.1-0.6,0-1.2,0-1.9c-0.2-2.2,0.7-4.4,1.5-6.5
		c0.2-0.6,0.8-1.1,1.2-1.6c0.6-0.6,1.3-0.6,2.1-0.2C2397,201.8,2398.1,204.1,2397.6,206z"/>
</g>
</svg>
