<?xml version="1.0" encoding="UTF-8"?>
<!DOCTYPE svg PUBLIC "-//W3C//DTD SVG 1.1//EN" "http://www.w3.org/Graphics/SVG/1.1/DTD/svg11.dtd">
<svg xmlns="http://www.w3.org/2000/svg" version="1.1" width="256px" height="256px" style="shape-rendering:geometricPrecision; text-rendering:geometricPrecision; image-rendering:optimizeQuality; fill-rule:evenodd; clip-rule:evenodd" xmlns:xlink="http://www.w3.org/1999/xlink">
<g><path style="opacity:0.786" fill="#fefffe" d="M 88.5,27.5 C 90.3588,27.4609 91.6921,28.2942 92.5,30C 93.2393,31.7646 93.2393,33.7646 92.5,36C 95.1667,38.3333 95.1667,40.6667 92.5,43C 101.597,49.2965 110.764,55.4631 120,61.5C 125.662,58.9196 130.496,55.253 134.5,50.5C 134.291,49.914 133.957,49.414 133.5,49C 118.104,48.4521 115.437,42.4521 125.5,31C 128.257,30.218 130.757,30.718 133,32.5C 141.898,46.2486 139.398,57.5819 125.5,66.5C 126,66.8333 126.5,67.1667 127,67.5C 138.489,59.348 149.989,51.1813 161.5,43C 160.196,42.196 159.529,41.0293 159.5,39.5C 159.938,35.5049 160.938,31.5049 162.5,27.5C 163.833,27.5 165.167,27.5 166.5,27.5C 167.013,30.4485 167.013,33.2819 166.5,36C 169.167,38.3333 169.167,40.6667 166.5,43C 191.033,57.5288 212.533,75.6955 231,97.5C 236.065,104.299 240.065,111.632 243,119.5C 245.963,131.305 242.797,140.971 233.5,148.5C 233.167,149.667 232.833,150.833 232.5,152C 234.753,162.092 236.587,172.259 238,182.5C 240.639,195.124 237.472,205.957 228.5,215C 221.988,217.799 215.321,220.299 208.5,222.5C 207.167,221.167 207.167,219.833 208.5,218.5C 217.848,215.254 225.681,209.921 232,202.5C 232.579,200.351 233.079,198.185 233.5,196C 230.845,182.736 228.512,169.403 226.5,156C 226.482,153.621 227.149,151.454 228.5,149.5C 224.085,148.728 219.752,148.395 215.5,148.5C 226.771,140.191 230.604,129.191 227,115.5C 223.67,105.52 218.67,96.5204 212,88.5C 198.083,73.2474 182.916,59.4141 166.5,47C 163.788,46.2619 161.455,46.9286 159.5,49C 150.085,56.3713 141.085,64.2047 132.5,72.5C 147.212,84.7047 158.712,99.3714 167,116.5C 170.634,128.318 168.467,138.818 160.5,148C 155.167,148.333 149.833,148.667 144.5,149C 141.953,151.361 141.12,150.861 142,147.5C 153.369,138.713 156.702,127.379 152,113.5C 144.492,96.31 133.492,81.6433 119,69.5C 115.378,72.0605 111.545,74.2272 107.5,76C 98.4729,78.0648 89.4729,80.2315 80.5,82.5C 78.1282,81.6372 78.1282,80.4705 80.5,79C 91.9076,75.0332 102.908,70.1999 113.5,64.5C 106.368,57.5278 98.5342,51.5278 90,46.5C 70.8188,59.3445 53.8188,74.6778 39,92.5C 33.4132,99.6736 29.4132,107.674 27,116.5C 24.9219,125.884 26.9219,134.217 33,141.5C 36.0036,143.674 38.8369,146.008 41.5,148.5C 41.1667,148.833 40.8333,149.167 40.5,149.5C 34.1898,148.87 27.8565,148.204 21.5,147.5C 13.7751,140.06 10.6085,131.06 12,120.5C 16.2918,108.577 22.6252,97.9103 31,88.5C 47.9133,70.8134 66.7466,55.6468 87.5,43C 86.7626,39.9356 86.4292,36.9356 86.5,34C 88.0128,32.1208 88.6795,29.9541 88.5,27.5 Z M 89.5,37.5 C 91.8519,38.5426 92.0185,39.8759 90,41.5C 88.6658,40.1221 88.4991,38.7887 89.5,37.5 Z M 125.5,37.5 C 132.204,40.2384 131.871,40.9051 124.5,39.5C 124.863,38.8165 125.196,38.1499 125.5,37.5 Z M 163.5,37.5 C 165.852,38.5426 166.019,39.8759 164,41.5C 163.51,40.2068 163.343,38.8734 163.5,37.5 Z"/></g>
<g><path style="opacity:0.662" fill="#fefffe" d="M 199.5,144.5 C 202.223,147.178 201.889,149.678 198.5,152C 193.04,154.564 187.706,157.397 182.5,160.5C 180.948,157.433 181.615,154.933 184.5,153C 189.855,150.66 194.855,147.826 199.5,144.5 Z"/></g>
<g><path style="opacity:0.703" fill="#fefffe" d="M 81.5,145.5 C 84.4799,145.641 86.4799,147.141 87.5,150C 86.978,152.97 85.478,153.804 83,152.5C 82.2025,154.259 82.3691,155.926 83.5,157.5C 86.9547,155.689 90.4547,154.022 94,152.5C 96.2321,156.058 95.3988,158.891 91.5,161C 82.5339,164.658 73.5339,168.324 64.5,172C 62.5219,175.346 62.1885,178.846 63.5,182.5C 65.6624,179.811 67.3291,180.145 68.5,183.5C 67.4692,187.198 65.1359,189.531 61.5,190.5C 59.9707,190.471 58.804,189.804 58,188.5C 57.0859,183.804 57.5859,179.304 59.5,175C 56.2654,176.03 53.0987,177.53 50,179.5C 49.5,179.167 49,178.833 48.5,178.5C 49.2607,174.134 51.5941,170.967 55.5,169C 61.9297,165.451 68.5964,162.451 75.5,160C 73.3669,158.101 70.8669,156.935 68,156.5C 67.5026,153.854 67.3359,151.187 67.5,148.5C 72.8251,148.647 76.3251,151.313 78,156.5C 77.7992,152.271 78.9659,148.604 81.5,145.5 Z"/></g>
<g><path style="opacity:0.649" fill="#fefffe" d="M 52.5,148.5 C 62.8303,149.643 64.1636,153.809 56.5,161C 54.3225,162.202 51.9892,162.702 49.5,162.5C 49.3505,161.448 49.5172,160.448 50,159.5C 56.082,157.097 55.9153,156.264 49.5,157C 48.287,159.326 46.9537,159.659 45.5,158C 46.5579,153.791 48.8912,150.625 52.5,148.5 Z"/></g>
<g><path style="opacity:0.735" fill="#fefffe" d="M 28.5,149.5 C 29.4959,149.414 30.3292,149.748 31,150.5C 32.4792,165.042 33.4792,179.708 34,194.5C 37.3364,187.745 42.5031,185.245 49.5,187C 54.2676,190.706 54.601,194.706 50.5,199C 50.8333,199.167 51.1667,199.333 51.5,199.5C 57.4483,197.742 63.115,195.409 68.5,192.5C 69.1667,192.833 69.8333,193.167 70.5,193.5C 69.2868,197.085 70.6201,198.251 74.5,197C 77.2385,196.088 79.5719,194.588 81.5,192.5C 79.8399,188.921 77.6733,188.588 75,191.5C 72.7838,188.243 73.2838,185.41 76.5,183C 83.9396,179.515 91.2729,179.682 98.5,183.5C 99.7349,188.475 97.7349,191.642 92.5,193C 95.0825,196.282 98.4158,197.282 102.5,196C 104.513,195.32 105.846,193.987 106.5,192C 104.78,185.675 102.78,179.509 100.5,173.5C 97.3199,175.095 93.9865,176.095 90.5,176.5C 90.33,175.178 90.6634,174.011 91.5,173C 95.1122,171.861 98.4456,170.194 101.5,168C 98.2638,162.904 97.9304,157.737 100.5,152.5C 101.325,151.614 102.325,151.281 103.5,151.5C 104.808,155.656 106.808,159.489 109.5,163C 108.148,165.312 107.481,167.812 107.5,170.5C 108.419,176.922 109.752,183.255 111.5,189.5C 110.622,197.638 106.289,202.638 98.5,204.5C 94.1943,203.001 92.361,204.668 93,209.5C 93.3333,209.833 93.6667,210.167 94,210.5C 95.8333,207.667 97.3333,207.833 98.5,211C 96.6598,217.034 93.4931,218.201 89,214.5C 87.9262,209.891 88.7596,205.724 91.5,202C 89.9458,200.108 88.1124,198.608 86,197.5C 82.4394,200.367 78.6061,202.867 74.5,205C 70.4971,205.835 67.1637,204.669 64.5,201.5C 48.2503,210.211 31.5837,211.544 14.5,205.5C 13.5713,204.311 13.238,202.978 13.5,201.5C 19.3905,203.017 25.0572,202.517 30.5,200C 28.1931,197.69 27.8597,195.024 29.5,192C 28.3047,180.493 26.9714,168.993 25.5,157.5C 25.3996,154.376 26.3996,151.71 28.5,149.5 Z M 40.5,193.5 C 43.3456,193.03 45.6789,193.863 47.5,196C 42.8919,198.303 38.2253,199.97 33.5,201C 36.0386,198.63 38.3719,196.13 40.5,193.5 Z"/></g>
<g><path style="opacity:0.65" fill="#fefffe" d="M 126.5,189.5 C 125.482,192.855 123.482,195.522 120.5,197.5C 119.99,183.562 118.323,169.562 115.5,155.5C 117.262,148.265 119.429,147.932 122,154.5C 123.502,166.176 125.002,177.842 126.5,189.5 Z"/></g>
<g><path style="opacity:0.545" fill="#fefffe" d="M 161.5,150.5 C 162.978,150.238 164.311,150.571 165.5,151.5C 164.071,153.331 163.571,155.331 164,157.5C 168.808,154.412 169.808,155.412 167,160.5C 163.051,164.936 160.551,164.269 159.5,158.5C 160.175,155.822 160.842,153.156 161.5,150.5 Z"/></g>
<g><path style="opacity:0.721" fill="#fefffe" d="M 180.5,201.5 C 178.554,193.267 177.054,184.933 176,176.5C 174.953,170.694 173.12,165.194 170.5,160C 171,158.5 171.5,157 172,155.5C 173,154.167 174,154.167 175,155.5C 176.954,159.981 178.287,164.648 179,169.5C 187.38,162.807 196.547,157.307 206.5,153C 209.738,151.632 213.072,151.299 216.5,152C 217.264,154.069 217.764,156.236 218,158.5C 218.333,158.167 218.667,157.833 219,157.5C 219.667,159.5 220.333,161.5 221,163.5C 223.438,165.429 225.272,167.762 226.5,170.5C 225.758,172.98 224.758,175.313 223.5,177.5C 227.45,185.344 227.284,193.011 223,200.5C 219.515,202.962 216.515,202.296 214,198.5C 212.282,201.091 211.782,203.758 212.5,206.5C 214.833,203.5 216.5,203.833 217.5,207.5C 216.124,210.377 213.958,212.377 211,213.5C 208.273,212.939 206.773,211.273 206.5,208.5C 207.07,204.553 208.403,200.887 210.5,197.5C 209.055,195.937 207.389,194.604 205.5,193.5C 203.167,203.708 196.5,208.041 185.5,206.5C 183.237,211.616 184.403,212.616 189,209.5C 190.018,213.674 188.518,216.674 184.5,218.5C 182.5,217.833 181.167,216.5 180.5,214.5C 181.188,211.217 182.188,208.051 183.5,205C 182.364,203.855 181.364,202.688 180.5,201.5 Z M 204.5,171.5 C 202.394,173.719 201.394,176.385 201.5,179.5C 203.277,179.786 204.944,180.453 206.5,181.5C 208.177,180.813 209.844,180.146 211.5,179.5C 210.972,180.721 210.305,181.887 209.5,183C 212.17,183.543 214.67,183.043 217,181.5C 217.945,181.905 218.612,182.572 219,183.5C 219.532,186.264 220.366,188.93 221.5,191.5C 219.579,192.641 217.579,192.808 215.5,192C 211.167,189 206.833,186 202.5,183C 196.057,180.613 190.057,177.446 184.5,173.5C 185.605,172.108 186.939,170.941 188.5,170C 195.511,165.578 202.844,162.245 210.5,160C 206.607,163.39 203.273,167.223 200.5,171.5C 201.7,172.292 203.033,172.292 204.5,171.5 Z M 215.5,161.5 C 214.336,166.536 215.003,171.369 217.5,176C 215.609,177.442 213.609,178.609 211.5,179.5C 215.249,172.228 212.916,169.562 204.5,171.5C 207.904,167.95 211.571,164.617 215.5,161.5 Z M 181.5,180.5 C 188.25,183.962 194.417,188.296 200,193.5C 199.969,196.201 198.469,197.701 195.5,198C 192.118,198.824 188.784,198.657 185.5,197.5C 183.205,192.07 181.872,186.403 181.5,180.5 Z"/></g>
<g><path style="opacity:0.667" fill="#fefffe" d="M 140.5,153.5 C 143.695,153.513 145.362,155.18 145.5,158.5C 144.595,161.86 143.095,162.193 141,159.5C 140.667,164.167 140.333,168.833 140,173.5C 139.612,174.428 138.945,175.095 138,175.5C 135.571,172.981 133.905,169.981 133,166.5C 131.355,166.307 129.521,166.14 127.5,166C 126.892,164.769 126.559,163.436 126.5,162C 126.305,157.018 128.305,155.684 132.5,158C 134.617,159.731 136.117,161.898 137,164.5C 136.799,160.271 137.966,156.604 140.5,153.5 Z"/></g>
<g><path style="opacity:0.736" fill="#fefffe" d="M 126.5,189.5 C 129.581,191.422 132.915,192.589 136.5,193C 137,192.5 137.5,192 138,191.5C 138.498,188.183 138.665,184.85 138.5,181.5C 139.833,181.5 141.167,181.5 142.5,181.5C 143.255,188.193 145.088,194.527 148,200.5C 149.651,197.198 151.318,193.864 153,190.5C 153.634,185.026 152.968,179.693 151,174.5C 150.586,174.043 150.086,173.709 149.5,173.5C 147.5,174.5 145.5,175.5 143.5,176.5C 143.167,176 142.833,175.5 142.5,175C 144.645,172.691 146.978,170.524 149.5,168.5C 146.872,163.633 146.872,158.8 149.5,154C 150.448,153.517 151.448,153.351 152.5,153.5C 152.343,154.873 152.51,156.207 153,157.5C 157.81,161.074 158.644,165.408 155.5,170.5C 156.988,175.373 157.822,180.373 158,185.5C 160.281,182.097 163.114,179.263 166.5,177C 174.475,176.429 176.975,179.929 174,187.5C 171.324,190.39 169.157,193.556 167.5,197C 172.015,197.237 172.682,198.903 169.5,202C 167.741,202.798 166.074,202.631 164.5,201.5C 163.785,198.896 163.785,196.563 164.5,194.5C 160.79,196.237 157.123,198.071 153.5,200C 154.949,201.117 156.616,201.784 158.5,202C 161.818,206.853 160.485,209.353 154.5,209.5C 151.622,209.614 148.956,208.948 146.5,207.5C 143.637,204.312 141.804,200.645 141,196.5C 139.809,199.534 137.642,201.201 134.5,201.5C 132.629,208.217 128.629,213.384 122.5,217C 99.2893,229.13 75.2893,230.797 50.5,222C 47.6312,218.796 44.4646,215.963 41,213.5C 40.2506,212.365 40.4173,211.365 41.5,210.5C 54.3523,216.813 68.019,219.813 82.5,219.5C 101.143,219.833 117.476,213.999 131.5,202C 127.752,198.67 126.085,194.503 126.5,189.5 Z M 161.5,188.5 C 162.871,186.133 164.871,184.467 167.5,183.5C 168.5,183.833 169.167,184.5 169.5,185.5C 167.083,187.107 164.416,188.107 161.5,188.5 Z"/></g>
<g><path style="opacity:0.638" fill="#fefffe" d="M 161.5,165.5 C 163.833,166.167 166.167,166.833 168.5,167.5C 169.329,172.501 167.329,174.668 162.5,174C 161.09,173.632 160.09,172.799 159.5,171.5C 160.747,169.677 161.414,167.677 161.5,165.5 Z"/></g>
<g><path style="opacity:0.647" fill="#fefffe" d="M 81.5,166.5 C 89.5886,166.042 91.2553,168.875 86.5,175C 79.9122,174.929 78.2455,172.096 81.5,166.5 Z"/></g>
<g><path style="opacity:0.632" fill="#fefffe" d="M 38.5,168.5 C 43.2635,168.089 45.7635,170.089 46,174.5C 43.4201,178.1 40.4201,178.434 37,175.5C 36.3911,172.935 36.8911,170.601 38.5,168.5 Z"/></g>
<g><path style="opacity:0.374" fill="#fefffe" d="M 113.5,169.5 C 115.935,171.708 115.935,174.208 113.5,177C 114.793,177.49 116.127,177.657 117.5,177.5C 117.597,181.692 115.764,183.025 112,181.5C 110.235,177.223 110.735,173.223 113.5,169.5 Z"/></g>
<g><path style="opacity:0.663" fill="#fefffe" d="M 204.5,171.5 C 212.916,169.562 215.249,172.228 211.5,179.5C 209.844,180.146 208.177,180.813 206.5,181.5C 204.944,180.453 203.277,179.786 201.5,179.5C 201.394,176.385 202.394,173.719 204.5,171.5 Z"/></g>
<g><path style="opacity:0.644" fill="#fefffe" d="M 114.5,197.5 C 121.639,199.578 122.305,202.911 116.5,207.5C 110.526,205.323 109.859,201.99 114.5,197.5 Z"/></g>
<g><path style="opacity:0.651" fill="#fefffe" d="M 180.5,201.5 C 180.249,203.17 179.582,204.67 178.5,206C 172.34,209.779 166.006,213.279 159.5,216.5C 158.386,215.277 158.219,213.944 159,212.5C 160.5,211 162,209.5 163.5,208C 168.5,205.5 173.5,203 178.5,200.5C 179.183,200.863 179.85,201.196 180.5,201.5 Z"/></g>
<g><path style="opacity:0.669" fill="#fefffe" d="M 75.5,206.5 C 82.095,207.383 83.095,210.216 78.5,215C 76.8932,215.115 75.3932,214.615 74,213.5C 72.0374,214.625 70.204,215.959 68.5,217.5C 62.6267,215.863 61.9601,213.03 66.5,209C 68.5269,208.502 70.5269,208.669 72.5,209.5C 74.1753,209.132 75.1753,208.132 75.5,206.5 Z"/></g>
<g><path style="opacity:0.689" fill="#fefffe" d="M 141.5,211.5 C 143.564,211.687 145.564,212.187 147.5,213C 149.169,216.698 148.003,219.198 144,220.5C 142.715,220.05 141.548,219.383 140.5,218.5C 139.061,220.36 137.395,222.027 135.5,223.5C 130.49,222.166 129.49,219.499 132.5,215.5C 134.781,214.815 137.114,214.649 139.5,215C 140.823,214.184 141.489,213.017 141.5,211.5 Z"/></g>
<g><path style="opacity:0.481" fill="#fefffe" d="M 151.5,211.5 C 152.822,211.33 153.989,211.663 155,212.5C 156.707,214.909 157.54,217.575 157.5,220.5C 156.167,220.5 154.833,220.5 153.5,220.5C 153.127,217.426 152.461,214.426 151.5,211.5 Z"/></g>
</svg>
