<?xml version="1.0" encoding="utf-8"?>
<!-- Generator: Adobe Illustrator 28.0.0, SVG Export Plug-In . SVG Version: 6.00 Build 0)  -->
<svg version="1.1" id="Layer_1" xmlns="http://www.w3.org/2000/svg" xmlns:xlink="http://www.w3.org/1999/xlink" x="0px" y="0px"
	 viewBox="0 0 640 65" style="enable-background:new 0 0 640 65;" xml:space="preserve">
<style type="text/css">
	.st0{fill:#779F98;}
	.st1{fill:#609088;}
	.st2{fill:#125D51;}
	.st3{fill:#4D827A;}
	.st4{fill:#1F6459;}
	.st5{fill:#347268;}
	.st6{fill:#407970;}
	.st7{fill:#276A5F;}
	.st8{fill:#4A8178;}
	.st9{fill:#608F88;}
	.st10{fill:#487F76;}
	.st11{fill:#EBECEC;}
	.st12{fill:#064F43;}
	.st13{fill:#03473D;}
	.st14{fill:#0C584C;}
	.st15{fill:#26695F;}
	.st16{fill:#045447;}
	.st17{fill:#105C50;}
	.st18{fill:#1D6358;}
	.st19{fill:#05594B;}
	.st20{fill:#085B4E;}
	.st21{fill:#155F53;}
	.st22{fill:#0E352F;}
	.st23{fill:#084037;}
	.st24{fill:#044F43;}
	.st25{fill:#035548;}
	.st26{fill:#063F36;}
	.st27{fill:#045B4D;}
	.st28{fill:#05594C;}
	.st29{fill:#045A4D;}
	.st30{fill:#045D4F;}
	.st31{fill:#075F50;}
	.st32{fill:#066152;}
	.st33{fill:#066051;}
	.st34{fill:#065F51;}
	.st35{fill:#046354;}
	.st36{fill:#FEFEFE;}
	.st37{fill:#FDFEFE;}
	.st38{fill:#FDFEFD;}
	.st39{fill:#FDFDFD;}
	.st40{fill:#FCFDFD;}
	.st41{fill:#FCFDFC;}
	.st42{fill:#F9FBFA;}
	.st43{fill:#FBFCFC;}
	.st44{fill:#FAFBFB;}
	.st45{fill:#F9FBFB;}
	.st46{fill:#F8FAFA;}
	.st47{fill:#F7FAF9;}
	.st48{fill:#F4F8F7;}
	.st49{fill:#F6F9F9;}
	.st50{fill:#F3F7F6;}
	.st51{fill:#F7FAFA;}
	.st52{fill:#F0F6F5;}
	.st53{fill:#F2F6F6;}
	.st54{fill:#EFF5F4;}
	.st55{fill:#F5F9F8;}
	.st56{fill:#F5F8F8;}
	.st57{fill:#EEF4F3;}
	.st58{fill:#F3F7F7;}
	.st59{fill:#E8F0EF;}
	.st60{fill:#DBE8E6;}
	.st61{fill:#80B0A8;}
	.st62{fill:#BCD5D0;}
	.st63{fill:#D0E1DE;}
	.st64{fill:#42897E;}
	.st65{fill:#D6E5E3;}
	.st66{fill:#D8E6E4;}
	.st67{fill:#9FC2BD;}
	.st68{fill:#D0E1DF;}
	.st69{fill:#056455;}
	.st70{fill:#076556;}
	.st71{fill:#1B7164;}
	.st72{fill:#217568;}
	.st73{fill:#046455;}
	.st74{fill:#0F6A5C;}
	.st75{fill:#106B5D;}
	.st76{fill:#136D5F;}
	.st77{fill:#076557;}
	.st78{fill:#056456;}
	.st79{fill:#1F7466;}
	.st80{fill:#166E60;}
	.st81{fill:#1E7366;}
	.st82{fill:#27796C;}
	.st83{fill:#187062;}
	.st84{fill:#2A7A6E;}
</style>
<g>
	<path class="st0" d="M24.17,1.05c196.38,0,392.75,0,589.13,0c1.91,0.29,3.89,0.34,5.67,1.2c0.32,0.16,1.22,0.14,0.54,0.94
		c-1.55,0.2-2.97-0.52-4.47-0.69c-1.35-0.15-2.68-0.4-4.05-0.4c-194.75,0.01-389.5,0.01-584.26,0c-2.46,0-4.83,0.52-7.2,1.1
		c-0.58,0.14-1.15,0.34-1.76,0.22c-0.88-0.68,0.04-0.83,0.36-0.97c1.37-0.56,2.77-1.05,4.26-1.17C23,1.25,23.6,1.25,24.17,1.05z"/>
	<path class="st1" d="M619.79,2.97c1.34,0.51,2.66,1.05,3.81,1.93c-0.37,0.49-0.83,0.35-1.27,0.15c-0.44-0.19-0.88-0.34-1.36-0.35
		c-0.62-0.12-1.23-0.29-1.75-0.69c-0.4-0.37-0.92-0.46-1.43-0.57c-0.1-0.02-0.2-0.05-0.3-0.09c-0.52-0.22-1.07-0.34-1.64-0.4
		c-0.1-0.02-0.21-0.05-0.31-0.07c-0.37-0.12-0.75-0.09-1.13-0.15c-0.12-0.01-0.23-0.04-0.35-0.07c-0.55-0.16-1.11-0.06-1.67-0.11
		c-0.22-0.01-0.43-0.06-0.63-0.13c-0.6-0.11-1.2-0.07-1.8-0.07c-194.08,0-388.16,0-582.24,0c-0.6,0-1.2-0.05-1.79,0.08
		c-0.81,0.41-1.74,0.28-2.58,0.55c-2.39,0.6-4.74,1.28-7.03,2.2C15.59,5.24,15.02,5.7,14.37,6c-0.93,0.43-1.77,1.29-2.95,0.81
		c1.76-1.58,3.76-2.78,5.98-3.62c1.76-0.08,3.4-0.8,5.14-1.01c1.26-0.15,2.51-0.41,3.79-0.41c195.03,0,390.06,0,585.09,0.01
		c2.24,0,4.42,0.48,6.59,0.99C618.61,2.91,619.19,3,619.79,2.97z"/>
	<path class="st2" d="M3.29,18.82c0.07-0.4,0.14-0.8,0.21-1.21c0.03-0.08,0.05-0.15,0.08-0.23c0.1-0.13,0.3-0.31,0.38-0.25
		c1.06,0.92,1.17-0.2,1.53-0.71C6,15.7,6.35,14.88,6.9,14.19c0.25-0.32,0.41-0.83,1-0.65c0.11,0.15,0.14,0.32,0.13,0.5
		c-0.97,1.89-2.01,3.75-2.83,5.71c-0.39,0.47-0.41,1.52-1.08,1.39c-0.7-0.13-0.48-1.14-0.69-1.75C3.37,19.21,3.4,19,3.29,18.82z"/>
	<path class="st3" d="M11.42,6.81c1.08-0.16,2.05-0.6,2.97-1.16c0.58-0.35,1.12-0.77,1.85-0.75c-0.17,0.85-1.07,0.89-1.56,1.39
		c-1,0.61-1.93,1.34-2.93,1.97c-0.65,0.3-1.18,0.78-1.73,1.22C9.56,9.84,9.09,10.1,8.62,9.46c0-0.07,0.01-0.14,0.02-0.21
		C9.58,8.45,10.37,7.48,11.42,6.81z"/>
	<path class="st4" d="M7.83,13.54c-1.08,1.03-1.68,2.39-2.42,3.64c-0.63,1.06-0.55,1.09-1.27,0.18c-0.07-0.09-0.37,0.01-0.57,0.03
		c0.38-0.72,0.76-1.44,1.14-2.16c0.9,0.12,1.41-0.39,1.82-1.09c0.24-0.41,0.52-0.79,0.78-1.19c0.06-0.1,0.12-0.19,0.2-0.27
		c0.32-0.27,0.53-0.77,1.1-0.56c0.1,0.15,0.11,0.31,0.07,0.48C8.47,12.96,8.3,13.38,7.83,13.54z"/>
	<path class="st5" d="M5.62,13.52c0.33-0.69,0.74-1.33,1.23-1.91c1.32-0.15,1.87-1.4,2.88-2.01c0.31-0.19,0.49-0.69,0.99-0.43
		c-0.13,1.3-1.33,1.75-2.06,2.56c-0.33,0.37-0.79,0.64-1.07,1.08l0,0C7.04,13.34,6.73,14.56,5.62,13.52z"/>
	<path class="st6" d="M10.71,9.21C9.62,9.57,9.09,10.59,8.3,11.3c-0.46,0.41-0.85,0.73-1.45,0.31c0.51-0.78,1.09-1.5,1.77-2.14
		c0.52,0.21,0.9,0.12,1.34-0.29c0.5-0.46,0.99-1,1.71-1.15c0.05,0.06,0.08,0.13,0.08,0.21c0,0.08-0.01,0.11-0.02,0.11
		C11.49,8.75,11.21,9.11,10.71,9.21z"/>
	<path class="st7" d="M5.62,13.52c0.95,0.6,1.35-0.37,1.98-0.7c-0.26,0.84-0.83,1.5-1.35,2.17c-0.4,0.51-0.87,1.12-1.52,0.23
		C4.89,14.59,5.24,14.05,5.62,13.52z"/>
	<path class="st8" d="M619.3,3.7c0.46,0.48,1.09,0.55,1.68,0.71c1.81,0.71,3.58,1.5,5.3,2.39c0.87,0.63,1.71,1.3,2.35,2.18
		c-0.55,0.67-1.06,0.07-1.59-0.04c-0.72-0.3-1.28-0.86-2-1.17c-3.66-2.52-7.68-4.07-12.09-4.64c-0.8-0.1-1.6-0.05-2.4-0.05
		c-152.36,0-304.72,0-457.08,0c-42.75,0-85.49,0-128.24,0C24.56,3,23.81,3.27,23.2,2.73c0.74-0.49,1.65-0.07,2.4-0.48
		c0.42-0.22,0.87-0.11,1.3-0.11c194.63-0.01,389.26-0.01,583.89,0c0.43,0,0.88-0.11,1.3,0.11c0.16,0,0.32,0,0.48,0
		c0.53,0.32,1.16-0.07,1.68,0.24c0.08,0,0.16,0,0.24,0c0.36,0.29,0.84-0.04,1.2,0.24v0c0.63,0.19,1.3,0.23,1.92,0.48v0
		C618.16,3.43,618.75,3.49,619.3,3.7z"/>
	<path class="st5" d="M630.78,11.63c0.48,0.64,0.95,1.29,1.43,1.93c0.14,0.05,0.17,0.14,0.1,0.27c-0.5,0.49-1.05,0.45-1.47-0.03
		c-1.3-1.5-2.74-2.87-4.06-4.35c-0.11-0.12-0.12-0.29-0.1-0.45c0.12-0.16,0.29-0.17,0.47-0.13c0.28,0.09,0.49,0.28,0.7,0.48
		C628.83,10.1,629.42,11.36,630.78,11.63z"/>
	<path class="st9" d="M626.28,6.81c-1.95-0.39-3.62-1.41-5.3-2.39c0.95-0.24,1.65,0.88,2.62,0.48
		C624.59,5.39,625.49,6.02,626.28,6.81z"/>
	<path class="st6" d="M630.78,11.63c-0.42,0.28-0.79,0.27-1.15-0.12c-0.63-0.69-1.29-1.37-1.93-2.05c0.72-0.36,1.17,0.31,1.75,0.45
		C630,10.4,630.5,10.93,630.78,11.63z"/>
	<path class="st10" d="M629.46,9.91c-0.68,0.24-1.15-0.36-1.75-0.45c-0.16-0.16-0.32-0.32-0.48-0.48c-0.08-0.05-0.11-0.11-0.08-0.16
		c0.03-0.05,0.06-0.08,0.08-0.08c0.48,0.03,0.87,0.56,1.41,0.25C629,9.21,629.26,9.53,629.46,9.91z"/>
	<path class="st11" d="M632.22,13.78c0.01-0.07,0.01-0.15,0-0.22c0.71,0.31,0.78,1.03,1.05,1.63c-0.04,0.03-0.07,0.07-0.11,0.1
		C632.41,15.05,632.2,14.49,632.22,13.78z"/>
	<path class="st9" d="M612.09,2.25c-195.5,0-390.99,0-586.49,0c0.37-0.48,0.89-0.23,1.32-0.23c84.42-0.01,168.84-0.01,253.25-0.01
		c110.2,0,220.39,0,330.59,0.01C611.21,2.03,611.73,1.78,612.09,2.25z"/>
	<path class="st6" d="M23.2,2.73c0.64,0,1.28,0,1.92,0c-0.11,0.72-0.8,0.46-1.2,0.7c-2.65,0.32-5.17,1.1-7.54,2.33
		c-0.42,0.22-0.83,0.47-1.31,0.53c-0.2,0-0.38-0.05-0.52-0.2c0.56-0.4,1.12-0.8,1.69-1.19C18.49,3.95,20.83,3.27,23.2,2.73z"/>
	<path class="st9" d="M617.62,3.22c-0.68,0.01-1.33-0.14-1.92-0.48C616.38,2.71,617.05,2.75,617.62,3.22z"/>
	<path class="st9" d="M619.3,3.7c-0.61,0-1.19-0.09-1.68-0.49C618.23,3.2,618.81,3.28,619.3,3.7z"/>
	<path class="st9" d="M614.26,2.49c-0.56-0.09-1.17,0.21-1.68-0.24C613.13,2.35,613.75,2.04,614.26,2.49z"/>
	<path class="st9" d="M615.7,2.74c-0.41-0.05-0.86,0.15-1.2-0.24C614.9,2.55,615.36,2.34,615.7,2.74z"/>
	<path class="st12" d="M2.1,26.02c-0.06-2.14,0.36-4.21,0.88-6.27c0.98,0.25,0.51,1.03,0.6,1.61c0.06,5.59-0.09,11.18,0.1,16.76
		c0.14,4.22,1.23,8.26,3.27,12.01c0.15,0.28,0.35,0.54,0.31,0.89c-0.03,0.14-0.11,0.25-0.24,0.31c-0.84,0.05-0.97-0.68-1.26-1.2
		c-0.25-0.44-0.49-0.9-0.62-1.39c-0.68-1.7-1.27-3.43-1.76-5.19c-0.46-1.64-0.92-3.28-0.92-5.01c-0.01-3.98,0.07-7.97-0.12-11.95
		C2.3,26.4,2.45,26.12,2.1,26.02z"/>
	<path class="st13" d="M2.1,26.02c0.13-0.19,0.25-0.38,0.38-0.56c-0.17,1.45,0.28,2.86,0.3,4.28c0.02,2.11,0.11,4.23-0.01,6.33
		c-0.23,4.1,0.87,7.89,2.35,11.63c0.15,0.37,0.36,0.71,0.32,1.13c-0.54,0.1-0.66-0.33-0.83-0.68c-1.02-2.04-1.75-4.17-2.16-6.42
		c-0.01-0.03,0.02-0.09,0.01-0.1c-0.08-0.09-0.14-0.07-0.17,0.05c-0.31-0.89-0.18-1.82-0.19-2.73c-0.03-4.24-0.04-8.47-0.06-12.71
		C2.06,26.17,2.08,26.1,2.1,26.02z"/>
	<path class="st14" d="M3.27,21.46c-0.1-0.57,0.25-1.21-0.29-1.71c0.1-0.31,0.21-0.62,0.31-0.93c0.83,0.52,0.45,1.47,0.79,2.18
		c0.55-0.33,0.45-1.06,0.87-1.46c0.36,0.38,0.24,0.8,0.11,1.22c-0.22,0.75-0.62,1.44-0.65,2.25c-0.01,0.36-0.26,0.56-0.66,0.44
		C3.25,22.88,3.49,22.11,3.27,21.46z"/>
	<path class="st15" d="M23.92,3.21c0.29-0.44,0.92-0.03,1.21-0.47c195.17,0,390.33,0,585.5,0c5.54,0,10.47,1.8,14.91,5.04
		c0.4,0.4,0.99,0.61,1.2,1.2c1.31,1.61,2.99,2.88,4.2,4.57c0.37,0.51,0.8,0.39,1.27,0.24c0.31,0.5,0.62,1,0.94,1.5
		c0.02,0.14,0.04,0.28,0.06,0.42c-0.54,0.66-1.03,0.36-1.53-0.07c-0.8-0.68-1.2-1.7-1.96-2.41c-2.24-2.73-4.73-5.17-7.85-6.91
		c-0.73-0.41-1.45-0.84-2.31-0.94c-0.11-0.03-0.21-0.07-0.31-0.13c-0.41-0.4-0.9-0.57-1.47-0.54c-0.29-0.02-0.56-0.11-0.8-0.26
		c-0.49-0.34-1.03-0.46-1.62-0.42c-0.5,0-0.98-0.07-1.44-0.29c-0.47-0.27-0.99-0.17-1.49-0.19c-0.29-0.01-0.57-0.04-0.86-0.11
		c-0.79-0.2-1.6-0.11-2.39-0.11c-154.44,0-308.87,0-463.31,0c-39.22,0-78.44,0-117.66,0c-0.71,0-1.44-0.08-2.14,0.12
		c-0.45,0.1-0.9,0.13-1.36,0.11C24.42,3.51,24.12,3.47,23.92,3.21z"/>
	<path class="st12" d="M634.68,20.23c0.66,0.95,0.66,2.06,0.72,3.15c0.06,5.24-0.15,10.48-0.19,15.72
		c-0.02,2.71-1.06,5.28-1.94,7.84c-0.19,0.56-0.48,1.09-0.66,1.66c-1.6,4-4.31,7.12-7.72,9.66c-0.87,0.65-1.64,1.55-2.89,1.46
		c-0.09-0.07-0.15-0.17-0.17-0.29c0.58-1.04,1.71-1.42,2.56-2.12c0.4-0.14,0.73-0.38,0.99-0.73c0.11-0.12,0.24-0.22,0.38-0.29
		c0.81-0.44,1.39-1.13,1.94-1.85c0.06-0.09,0.12-0.17,0.19-0.25c0.27-0.3,0.57-0.58,0.79-0.94c0.05-0.09,0.12-0.17,0.18-0.25
		c0.3-0.3,0.51-0.65,0.63-1.06c0.18-0.46,0.5-0.82,0.83-1.18c1.8-2.76,2.74-5.83,3.32-9.03c0.3-1.69,0.44-3.39,0.46-5.11
		c0.04-4.71-0.06-9.42,0.08-14.13C634.18,21.72,634.18,20.91,634.68,20.23z"/>
	<path class="st16" d="M634.68,20.23c-0.5,5.7-0.07,11.41-0.28,17.11c-0.18,4.83-1.2,9.47-3.81,13.64c-0.06,0.1-0.16,0.17-0.24,0.26
		c-0.34-0.43-0.11-0.82,0.08-1.22c1.97-4,2.96-8.22,2.92-12.68c-0.04-3.35-0.02-6.7-0.06-10.05c-0.02-1.97,0.29-3.96,0.56-5.94
		c-0.02-0.34,0.03-0.68,0.11-1.01c0.1-0.32,0.19-0.64,0.49-0.84C634.85,19.64,634.67,19.97,634.68,20.23z"/>
	<path class="st17" d="M634.19,20.26c0,0.32,0,0.64,0,0.96c-0.2,0.26-0.14,0.8-0.64,0.73c-0.34-0.05-0.47-0.41-0.58-0.71
		c-0.91-2.43-1.84-4.85-3.26-7.05c-0.05-0.18-0.05-0.36,0.01-0.53c0.05-0.11,0.14-0.18,0.26-0.2c0.99,0.97,1.73,2.13,2.33,3.36
		c0.38,0.78,0.76,1.26,1.61,0.56c0.28,0.52,0.54,1.05,0.53,1.67C634.11,19.4,634.48,19.9,634.19,20.26z"/>
	<path class="st18" d="M633.93,17.39c-0.11,0.16-0.23,0.32-0.34,0.48c-0.15,0.21-0.17,0.6-0.52,0.55c-0.29-0.04-0.4-0.33-0.54-0.58
		c-0.8-1.49-1.42-3.08-2.66-4.3c-0.13-0.16-0.13-0.32,0-0.48c0.9,0.53,1.15,1.59,1.88,2.28c0.47,0.44,0.88,0.61,1.46,0.36
		C633.55,16.22,633.81,16.77,633.93,17.39z"/>
	<path class="st12" d="M635.61,23.87c-0.01,0.71-0.01,1.43-0.02,2.14c-0.39-0.8-0.14-1.64-0.17-2.46
		C635.48,23.66,635.54,23.77,635.61,23.87z"/>
	<path class="st19" d="M634.19,20.26c0.06-0.41-0.17-0.88,0.26-1.21c0,0.15-0.01,0.3-0.01,0.45
		C634.42,19.78,634.47,20.08,634.19,20.26z"/>
	<path class="st19" d="M629.87,14.02c1.59,2.13,2.45,4.61,3.33,7.06c0.32,0.88,0.57,0.73,0.99,0.14c-0.32,1.89-0.16,3.82-0.62,5.7
		c-0.12,0.5,0.13,1.09,0.14,1.64c0.02,3.43,0.08,6.87-0.01,10.3c-0.12,4.1-1.2,7.96-3.15,11.58c-0.14,0.26-0.2,0.51-0.2,0.8
		c-0.43,0.18-0.52,0.61-0.72,0.96c-0.22,0.33-0.51,0.62-0.72,0.96c-0.27,0.44-0.7,0.75-0.96,1.2c-0.63,0.81-1.35,1.53-2.16,2.16
		c-0.08,0.08-0.16,0.16-0.24,0.24c-0.34,0.21-0.63,0.5-0.96,0.72c-0.88,0.64-1.76,1.28-2.64,1.92c-0.66,0.81-1.67,0.99-2.54,1.42
		c-0.51,0.06-0.93,0.33-1.34,0.62c-0.18,0.05-0.34,0.03-0.49-0.08c-0.39-0.79,0.24-0.98,0.74-1.2c1.65-0.73,3.24-1.55,4.72-2.59
		c2.51-1.76,4.49-3.96,5.98-6.62c0.25-0.45,0.51-0.91,0.86-1.3c0.74-0.81,0.96-1.83,1.21-2.85c0.02-0.11,0.06-0.22,0.1-0.33
		c0.51-1.49,1.01-2.98,0.87-4.59c-0.01-0.19,0.01-0.37,0.06-0.55c0.47-0.95,0.38-1.93,0.12-2.91c-0.07-0.67-0.09-1.34,0.05-2.01
		c0.57-1.55,0.56-3.1,0-4.65c-0.15-0.74-0.13-1.48-0.06-2.22c0.27-0.99,0.36-1.98-0.11-2.95c-0.05-0.18-0.07-0.37-0.07-0.56
		c-0.04-2.81-0.8-5.41-2.23-7.82c-0.15-0.25-0.21-0.51-0.22-0.8c0.11-0.72-0.08-1.44-0.51-1.93c-1.37-1.58-2.39-3.44-4.15-4.75
		c-1.48-1.1-2.94-2.14-4.59-2.98c-2.81-1.44-5.78-2.17-8.9-2.62c-2.8-0.41-5.56-0.09-8.33-0.09C413.46,4.99,223.79,5,34.13,4.99
		c-1.83,0-3.68-0.16-5.47-0.09C24.8,5.06,21,5.78,17.47,7.63c-1.81,0.95-3.56,1.95-5.06,3.31c-1.67,1.52-3.29,3.16-4.15,5.31
		c-0.53,1.34-1.48,2.46-1.89,3.85c-0.64,2.14-1.3,4.27-1.38,6.52c-0.01,0.46-0.05,0.89-0.54,1.11c-0.52,0-0.51-0.45-0.57-0.76
		c-0.23-1.19-0.63-2.38-0.13-3.59c0.11-0.04,0.32-0.09,0.32-0.11c-0.18-1.36,0.99-2.39,0.88-3.73c0.87-1.89,1.66-3.82,2.88-5.52
		c0.35-0.66,0.82-1.24,1.21-1.87c0.06-0.09,0.12-0.18,0.19-0.26c1.03-1.12,2.2-2.1,3.16-3.28c0.07-0.09,0.15-0.16,0.24-0.23
		c1.1-0.61,2.08-1.39,3.12-2.07c0.09-0.07,0.18-0.12,0.28-0.18c0.61-0.27,1.19-0.61,1.71-1.03c2.19-1.01,4.49-1.64,6.89-1.87
		c0.4,0,0.8,0,1.2,0C26.26,3,26.71,3.1,27.14,3.1c194.47-0.01,388.94-0.01,583.42,0c0.43,0,0.88-0.11,1.3,0.11c0.24,0,0.48,0,0.72,0
		c0.44,0.31,1-0.06,1.45,0.24c0.44,0.29,0.94,0.24,1.44,0.24c0.52,0.28,1.13,0.28,1.68,0.48c0.18,0.27,0.46,0.23,0.72,0.24
		c0.49,0.23,1.06,0.29,1.45,0.71c0.08,0,0.16,0,0.23,0c1.49,0.73,3.06,1.32,4.34,2.42c0.32,0.29,0.63,0.58,1,0.8
		c0.13,0.1,0.25,0.21,0.37,0.32c1.09,1.03,2.14,2.1,3.18,3.17c0.07,0.08,0.14,0.17,0.2,0.26C629.07,12.73,629.53,13.33,629.87,14.02
		z"/>
	<path class="st20" d="M9.28,12.1c-0.31,0.77-0.76,1.43-1.44,1.92c0-0.16,0-0.32,0-0.48c0.2-0.35,0.29-0.78,0.72-0.96
		C8.76,12.37,8.82,11.93,9.28,12.1z"/>
	<path class="st5" d="M14.56,6.09c0.16,0,0.32,0,0.49,0.01c0.14,0.52-0.29,0.7-0.6,0.89c-0.76,0.48-1.42,1.12-2.28,1.45
		c-0.19,0.01-0.36-0.04-0.49-0.18c0-0.08,0-0.16,0-0.24C12.6,7.32,13.52,6.63,14.56,6.09z"/>
	<path class="st7" d="M11.68,8.26c0.16,0,0.32,0,0.48,0c0.15,0.22,0.04,0.42-0.04,0.62c-0.21,0.39-0.55,0.67-0.87,0.97
		c-1.03,0.59-1.58,1.76-2.69,2.25c-0.32,0.24-0.64,0.48-0.96,0.72c0.3-1.06,1.31-1.52,1.94-2.3c0.37-0.46,0.78-0.87,1.17-1.31
		C10.95,8.81,11.27,8.49,11.68,8.26z"/>
	<path class="st2" d="M8.56,12.1c0.81-0.88,1.47-1.92,2.64-2.41c-0.02,0.73-0.7,0.96-1.08,1.43c-0.27,0.34-0.62,0.6-0.84,0.98
		c0,0,0,0,0,0c-0.24,0.16-0.48,0.32-0.72,0.48C8.55,12.42,8.55,12.26,8.56,12.1z"/>
	<path class="st6" d="M626.75,8.98c-0.4-0.4-0.95-0.65-1.2-1.2c0.7,0.08,1.02,0.81,1.68,0.96c0,0.08,0,0.16,0,0.24
		C627.06,8.98,626.91,8.98,626.75,8.98z"/>
	<path class="st21" d="M11.92,8.74c0.08-0.16,0.16-0.32,0.24-0.48c0.9-0.81,2.06-1.26,2.88-2.16c2.36-1.27,4.8-2.3,7.46-2.76
		c0.47-0.08,0.95-0.09,1.42-0.13c0.24,0,0.48,0,0.73,0.01c-0.85,0.45-1.83,0.37-2.73,0.62c-1.46,0.4-2.85,0.95-4.23,1.54
		C17.16,5.76,16.51,5.93,16,6.34l0,0c-1.19,0.61-2.21,1.49-3.36,2.16c0,0.08,0,0.16,0,0.24C12.4,8.91,12.16,8.95,11.92,8.74z"/>
	<path class="st22" d="M633.98,47.94c-0.94,2.37-2.11,4.61-3.64,6.66c-1.71,2.81-4.21,4.76-6.92,6.51
		c-3.95,2.54-8.31,3.68-12.96,3.68c-99.99,0.01-199.97,0-299.96,0.02c-15.57,0-31.14-0.05-46.71,0.04
		c-78.93,0.44-157.86,0.06-236.79,0.18c-4.46,0.01-8.66-1.15-12.43-3.5c-2.12-1.32-4.18-2.82-5.79-4.8
		c-1.94-2.04-3.4-4.39-4.56-6.95c-0.2-0.87-0.7-1.64-0.77-2.54c0.39-0.74,0.62-0.16,0.78,0.14c0.36,0.66,0.75,1.31,1.11,1.97
		c2.76,5.08,6.91,8.7,11.89,11.48c0.52,0.29,1.12,0.43,1.66,0.69c2.96,1.08,6.04,1.59,9.17,1.59c51.03,0.03,102.07,0.2,153.1-0.05
		c26.45-0.13,52.9-0.13,79.35-0.14c116.04-0.05,232.07-0.02,348.11-0.01c4.92,0,9.62-0.97,13.97-3.27c3.23-1.71,5.77-4.26,7.92-7.19
		c0.95-1.29,1.65-2.73,2.49-4.09C633.21,48.03,633.35,47.35,633.98,47.94z"/>
	<path class="st23" d="M18.4,61.56c-2.21-0.91-4.22-2.16-6.11-3.6c-3.65-2.78-6.22-6.43-8.27-10.49c-0.11-0.21-0.18-0.62-0.56-0.23
		c-0.75-1.77-1.1-3.63-1.18-5.55c0.02-0.16,0.04-0.32,0.08-0.66c0.85,2.52,1.46,4.94,2.57,7.17c0.13,0.26,0.22,0.51,0.5,0.63
		c0.5,0.79,0.65,1.78,1.44,2.4c1.1,1.11,1.9,2.46,2.96,3.61c2.08,2.26,4.58,3.95,7.28,5.38c0.66,0.35,1.52,0.5,1.78,1.38
		C18.72,61.69,18.55,61.7,18.4,61.56z"/>
	<path class="st24" d="M18.88,61.56c-3.28-1.82-6.64-3.54-9.17-6.42c-1.06-1.21-2.22-2.37-2.84-3.9c0.08,0,0.16,0,0.24,0
		c0.67-0.11,0.77,0.58,1.17,0.84c2.17,2.67,4.52,5.16,7.54,6.91c2.03,1.18,4.05,2.41,6.43,2.79c0.11,0.02,0.22,0.06,0.33,0.09
		c0.38,0.14,0.78,0.11,1.17,0.17c0.12,0.01,0.24,0.04,0.36,0.07c0.45,0.14,0.93,0.09,1.38,0.26c0.52,0.07,1.04,0.05,1.56,0.05
		c35.42,0,70.84,0.1,106.26-0.02c158.92-0.52,317.85-0.07,476.77-0.21c0.79,0,1.6-0.18,2.36,0.23c0.25,0.29,0.08,0.44-0.21,0.45
		c-0.56,0-1.11,0.07-1.66,0.13c-0.68,0.01-1.36,0-2.04,0c-141.16,0-282.33-0.01-423.49,0.03c-10.76,0-21.53,0-32.29,0.08
		c-41.82,0.3-83.64,0.05-125.46,0.13c-2.43-0.07-4.82-0.4-7.15-1.09C19.7,62.01,19.19,62,18.88,61.56z"/>
	<path class="st25" d="M8.08,52.2c-0.32-0.32-0.64-0.64-0.96-0.96c-1.23-2.45-2.4-4.91-2.99-7.62c-0.5-2.33-0.84-4.68-0.85-7.07
		c-0.02-4.7-0.02-9.4,0-14.1c0-0.33-0.42-0.66,0-0.99c0.36,0.59,0.35,1.27,0.48,1.92c-0.09,1.47,0.43,2.87,0.48,4.32
		c0.39,0.4,0.24,0.88,0.22,1.36c-0.19,4.46-0.4,8.95,0.37,13.35c0.5,2.83,1.17,5.7,2.92,8.14C8.1,51.03,8.43,51.56,8.08,52.2z"/>
	<path class="st20" d="M611.86,3.21c-195.34,0-390.67,0-586.01,0c0.37-0.47,0.89-0.22,1.33-0.23c28.94-0.01,57.88-0.01,86.82-0.01
		c165.43,0,330.86,0,496.29,0.02C610.8,2.99,611.4,2.71,611.86,3.21z"/>
	<path class="st17" d="M625.06,8.74c-0.08-0.08-0.16-0.16-0.24-0.24c-0.33-0.22-0.62-0.51-0.96-0.72c-1.23-1.22-3.1-1.41-4.32-2.64
		c2.05,0.22,3.58,1.53,5.13,2.67c1.99,1.47,3.76,3.21,5.2,5.25c0,0.16,0,0.32,0,0.48c0,0,0,0,0,0c-0.81-0.15-0.92-1.01-1.44-1.44v0
		C627.41,10.88,626.28,9.76,625.06,8.74z"/>
	<path class="st17" d="M619.31,5.13c-0.56-0.09-1.04-0.32-1.45-0.71C618.45,4.44,619.1,4.34,619.31,5.13z"/>
	<path class="st20" d="M617.14,4.18c-0.61,0-1.23,0.07-1.68-0.48C616.07,3.68,616.65,3.77,617.14,4.18z"/>
	<path class="st20" d="M614.02,3.45c-0.48-0.07-1.02,0.19-1.45-0.24C613.06,3.28,613.59,3.03,614.02,3.45z"/>
	<path class="st26" d="M610.65,62.76c0.64-0.11,1.33,0.24,1.92-0.24c0.04-0.04,0.08-0.09,0.13-0.13c0.86-0.29,1.79-0.19,2.64-0.52
		c0.37-0.11,0.77-0.1,1.14-0.23c0.3-0.09,0.56-0.29,0.85-0.41c0.11-0.02,0.2,0.01,0.28,0.09c0.16,0,0.32,0,0.48,0
		c0.21-0.21,0.45-0.34,0.72-0.44c1.13-0.18,2.06-0.86,3.12-1.24c2.64-1.02,4.62-2.93,6.47-4.95c1.59-1.73,2.9-3.68,3.86-5.85
		c1.57-2.25,2.12-4.91,3.04-7.62c0.05,0.34,0.08,0.52,0.1,0.7c0.07,1.29-0.39,2.49-0.54,3.75c-0.3,0.76-0.59,1.52-0.89,2.27
		c-0.63-0.29-0.58,0.35-0.71,0.6c-1.36,2.69-3.11,5.14-5.24,7.23c-3.44,3.38-7.51,5.74-12.3,6.77c-2.16,0.46-4.33,0.69-6.51,0.69
		c-141.44,0.02-282.87-0.13-424.31,0.09c-52.22,0.08-104.44,0.01-156.65,0.15c-2.99,0.01-5.95-0.43-8.81-1.37
		c-0.38-0.12-0.78-0.19-1.04-0.54c0.16,0,0.32,0,0.48,0c2.64,0.93,5.34,1.53,8.16,1.44c0.41,0.23,0.86,0.12,1.29,0.12
		c40.54,0.01,81.09,0.03,121.63-0.03c5.32-0.01,10.64,0.05,15.96-0.11c4.24-0.13,8.48-0.08,12.72-0.08
		c143.49-0.01,286.97-0.01,430.46-0.01C609.63,62.88,610.16,63,610.65,62.76z"/>
	<path class="st24" d="M621.94,59.64c-0.86,0.87-2,1.14-3.12,1.44c-0.15-0.47,0.38-0.26,0.48-0.48c0.88-0.4,1.76-0.8,2.64-1.2
		C621.94,59.48,621.94,59.56,621.94,59.64z"/>
	<path class="st16" d="M625.78,56.52c0.62-0.82,1.34-1.54,2.16-2.16C627.51,55.37,626.79,56.09,625.78,56.52z"/>
	<path class="st16" d="M627.95,54.36c0.06-0.61,0.51-0.9,0.96-1.2C628.85,53.76,628.39,54.06,627.95,54.36z"/>
	<path class="st16" d="M628.91,53.16c0.02-0.49,0.34-0.75,0.72-0.96C629.61,52.68,629.29,52.94,628.91,53.16z"/>
	<path class="st16" d="M624.58,57.48c0.21-0.39,0.48-0.7,0.96-0.72C625.33,57.14,625.07,57.46,624.58,57.48z"/>
	<path class="st20" d="M628.43,12.1c0.69,0.27,0.84,1.08,1.44,1.44c0,0.16,0,0.32,0,0.48C629.19,13.53,628.74,12.87,628.43,12.1z"/>
	<path class="st27" d="M617.62,61.32c-0.08,0-0.16,0-0.24,0c-0.5,0.26-1.03,0.42-1.58,0.53c-0.1,0.04-0.21,0.07-0.32,0.09
		c-0.36,0.16-0.78,0.01-1.13,0.23c-0.11,0.05-0.22,0.08-0.34,0.09c-0.5,0-1,0.03-1.49,0.13c-0.15,0-0.29,0-0.43,0
		c-158.23,0-316.46-0.01-474.68,0.03c-5.48,0-10.96,0.05-16.44,0.1c-31.69,0.27-63.39,0.04-95.08,0.12
		c-0.63-0.25-1.32-0.17-1.95-0.36c-0.08,0-0.16,0-0.24,0c-0.36-0.29-0.84,0.04-1.2-0.24h0c-5.34-1.73-10-4.52-13.38-9.09
		c-2.3-3.11-3.42-6.73-3.99-10.54c-0.39-2.58-0.41-5.19-0.41-7.77C4.69,30.07,4.7,25.43,6.16,21c1.37-4.16,3.5-7.83,7.07-10.57
		c1.44-1.1,2.93-2.06,4.53-2.87c0.48-0.09,0.94-0.25,1.35-0.54c1.75-0.76,3.56-1.33,5.48-1.49c0.44,0.01,0.88,0.01,1.3-0.15
		c0.26-0.06,0.52-0.09,0.78-0.09c0.88-0.04,1.78,0.1,2.64-0.19c0.74-0.08,1.48,0.09,2.22-0.07c191.54,0,383.07,0,574.61,0
		c0.74,0.15,1.48,0,2.22,0.07c0.86,0.29,1.76,0.15,2.64,0.19c0.27,0,0.53,0.03,0.78,0.09c0.42,0.15,0.86,0.16,1.3,0.19
		c1.84,0.36,3.68,0.71,5.41,1.46c0.41,0.23,0.84,0.42,1.29,0.57c4.03,1.98,7.27,4.82,9.53,8.73c0.24,0.42,0.37,0.86,0.54,1.3
		c0.01,0.2,0.05,0.38,0.24,0.48c1.18,2.52,1.97,5.14,2.16,7.92c0,0.16,0,0.32,0,0.48c0.43,0.93,0.15,1.92,0.24,2.88
		c0,0.8,0,1.6,0,2.4c0.36,1.52,0.36,3.04,0,4.56c0,0.72,0,1.44,0,2.16c-0.09,0.96,0.19,1.95-0.24,2.88c0,0.16,0,0.32,0,0.48
		c-0.05,1.65-0.49,3.23-0.96,4.8c-0.27,1.09-0.72,2.11-1.2,3.12c-1.18,1.69-2.09,3.56-3.51,5.07c-2.32,2.47-5.09,4.29-8.21,5.58
		C617.98,60.62,617.51,60.71,617.62,61.32z"/>
	<path class="st28" d="M24.65,5.86c-1.94,0.1-3.73,0.79-5.52,1.44c-0.38,0.2-0.82,0.26-1.2,0.48c-5.42,2.64-9.23,6.77-11.21,12.46
		c-0.77,2.2-1.37,4.53-1.39,6.87c-0.03,3.02-0.69,6.01-0.19,9.05c0.17,1.01,0.02,2.07,0.07,3.11c0.22,5.11,1.4,9.93,4.55,14.08
		c1.73,2.27,3.96,4,6.36,5.55c1.43,0.93,3.14,1.27,4.47,2.39c0.5,0.43,1.38,0.22,1.91,0.76c-2.53-0.13-4.57-1.51-6.66-2.71
		c-3.11-1.79-5.63-4.25-7.75-7.14c-0.11-1.44-1.42-2.26-1.82-3.58c-0.87-2.87-1.91-5.65-2.09-8.74c-0.2-3.4-0.06-6.78-0.15-10.17
		c-0.02-0.67,0.15-1.34,0.23-2.01c0.32-0.15,0.55-0.41,0.46-0.76C4.23,25.2,5.14,23.65,5.37,22c0.08-0.55,0.03-1.41,0.33-1.57
		C6.51,20,6.01,19.15,6.6,18.6c0.83-0.76,1.16-1.96,1.56-3.04c0.34-0.93,0.88-1.6,1.69-2.19c0.49-0.36,0.56-1.16,1.09-1.66
		c1.43-1.32,2.86-2.67,4.62-3.51c2.42-1.16,4.74-2.59,7.5-2.96c1.15-0.15,2.25-0.44,3.44-0.47c0.74-0.01,1.56-0.42,2.39-0.37
		c10.32,0.56,20.64,0.22,30.96,0.22c181.58,0.03,363.17,0.02,544.75,0.03c1.56,0,3.13-0.26,4.66-0.2c2.82,0.12,5.64,0.6,8.32,1.5
		c1.79,0.6,3.4,1.73,5.15,2.5c0.68,0.3,1.42,0.74,1.73,1.56c0.05,0.13,0.17,0.3,0.29,0.34c1.43,0.44,2.2,1.46,2.84,2.76
		c0.17,0.34,0.72,0.84,1.16,1.21c0.98,0.84,1.31,1.99,1.1,3.27c-1.15-1.56-2.06-3.28-3.39-4.73c-1.93-2.12-4.3-3.63-6.7-5.11
		c-0.38-0.22-0.82-0.28-1.2-0.48c-1.81-0.59-3.65-1.07-5.52-1.44c-0.36-0.3-0.84,0.04-1.2-0.24c-0.24,0-0.48,0-0.72,0
		c-0.86-0.33-1.78,0.08-2.64-0.24c-0.72,0-1.44,0-2.16,0c-0.41-0.23-0.86-0.12-1.29-0.12c-190.79-0.01-381.57-0.01-572.36,0
		c-0.43,0-0.89-0.11-1.3,0.12c-0.72,0-1.44,0-2.16,0c-0.86,0.32-1.78-0.09-2.64,0.24c-0.24,0-0.48,0-0.72,0
		C25.49,5.9,25,5.56,24.65,5.86z"/>
	<path class="st29" d="M632.27,26.02c-0.27-1.26-0.58-2.51-0.81-3.77c-0.26-1.45-1.05-2.72-1.36-4.15c1.48,2.28,1.94,4.87,2.34,7.49
		C632.46,25.72,632.33,25.88,632.27,26.02z"/>
	<path class="st29" d="M632.51,36.35c0-1.52,0-3.04,0-4.56C633.25,33.31,633.25,34.83,632.51,36.35z"/>
	<path class="st20" d="M11.92,8.74c0.24,0,0.48,0,0.72,0c-1.02,1.22-2.14,2.34-3.36,3.36c0.28-1.09,1.44-1.48,1.92-2.41
		C11.44,9.37,11.68,9.06,11.92,8.74z"/>
	<path class="st29" d="M631.31,46.67c0.32-1.6,0.64-3.2,0.96-4.8C632.55,43.59,632.02,45.15,631.31,46.67z"/>
	<path class="st20" d="M625.06,8.74c1.41,0.83,2.53,1.95,3.36,3.36C627.21,11.08,626.09,9.96,625.06,8.74z"/>
	<path class="st20" d="M12.64,8.5C13.62,7.57,14.65,6.7,16,6.34C14.98,7.21,13.96,8.1,12.64,8.5z"/>
	<path class="st29" d="M632.27,41.39c0.12-0.96-0.26-1.96,0.24-2.88C632.84,39.5,633.03,40.49,632.27,41.39z"/>
	<path class="st29" d="M632.51,29.39c-0.5-0.93-0.12-1.92-0.24-2.88C633.03,27.41,632.84,28.39,632.51,29.39z"/>
	<path class="st29" d="M630.11,49.79c0.18-1.12,0.75-2.1,1.2-3.12C631.23,47.84,630.86,48.89,630.11,49.79z"/>
	<path class="st20" d="M16,6.34c0.4-0.6,1.04-0.79,1.68-0.96C17.28,5.98,16.65,6.16,16,6.34z"/>
	<path class="st16" d="M619.3,60.6c-0.16,0.16-0.32,0.32-0.48,0.48c-0.24,0.08-0.48,0.16-0.72,0.24
		C618.24,60.64,618.78,60.63,619.3,60.6z"/>
	<path class="st20" d="M623.86,7.78c0.49,0.02,0.75,0.34,0.96,0.72C624.34,8.48,624.07,8.16,623.86,7.78z"/>
	<path class="st16" d="M25.61,62.52c30.94,0,61.88,0.09,92.81-0.01c164.72-0.53,329.44-0.07,494.15-0.23c0.06,0.08,0.06,0.16,0,0.24
		c0,0,0,0,0,0c-158.61,0-317.22-0.1-475.82,0.08c-36.76,0.04-73.53,0.01-110.29,0.15c-0.44,0-0.96,0.24-1.33-0.23
		C25.29,62.41,25.45,62.42,25.61,62.52z"/>
	<path class="st23" d="M610.65,62.76c-0.42,0.48-0.97,0.23-1.46,0.23C503.46,63,397.73,63,291.99,63
		c-41.34,0-82.68-0.22-124.02,0.06c-46.53,0.31-93.06,0.03-139.59,0.17c-0.44,0-0.96,0.25-1.34-0.23
		C221.58,62.68,416.12,62.77,610.65,62.76z"/>
	<path class="st28" d="M25.61,62.52c-0.16,0-0.32,0-0.48,0c-0.4-0.06-0.86,0.16-1.2-0.24C24.49,62.37,25.1,62.06,25.61,62.52z"/>
	<path class="st28" d="M22.49,62.04c0.4,0.06,0.86-0.16,1.2,0.24C23.28,62.22,22.82,62.44,22.49,62.04z"/>
	<path class="st24" d="M612.57,62.52c0-0.08,0-0.16,0-0.24c0.08,0,0.16,0,0.24,0c0.44-0.3,1,0.07,1.44-0.24
		c0.33-0.22,0.7-0.09,1.05-0.1c0.05,0.03,0.1,0.07,0.15,0.1C614.56,62.6,613.56,62.52,612.57,62.52z"/>
	<path class="st16" d="M615.7,61.8c0.49-0.4,1.07-0.5,1.69-0.48c-0.14,0.31-0.38,0.48-0.72,0.48
		C616.34,61.97,616.02,61.97,615.7,61.8z"/>
	<path class="st24" d="M615.7,61.8c0.32,0,0.64,0,0.96,0c-0.34,0.39-0.79,0.18-1.2,0.24c0,0,0,0,0,0c-0.08-0.05-0.11-0.11-0.08-0.16
		c0.03-0.05,0.05-0.08,0.08-0.08C615.54,61.8,615.62,61.8,615.7,61.8z"/>
	<path class="st30" d="M318.84,6.34c96.55,0,193.09-0.01,289.64,0.03c5.34,0,10.43,1.22,14.76,4.68c4,3.19,6.53,7.26,7.59,12.25
		c1.14,5.37,0.77,10.82,0.66,16.23c-0.08,3.78-0.86,7.52-2.78,10.89c-2.83,4.97-6.91,8.37-12.46,9.98c-3.01,0.87-6.09,1.17-9.2,1.17
		c-177.44,0-354.88-0.04-532.32,0.07c-15.08,0.01-30.16,0.04-45.24,0.16c-2.07,0.02-4.15-0.16-6.15-0.7
		c-8.37-2.27-15.17-7.81-16.73-18c-0.74-4.81-0.57-9.65-0.39-14.46c0.17-4.63,1.14-9.16,3.96-13.08c3.54-4.92,8.3-7.8,14.28-8.74
		c2.69-0.42,5.39-0.48,8.11-0.48C127.99,6.34,223.42,6.34,318.84,6.34z"/>
	<path class="st29" d="M31.37,5.38c0.37-0.47,0.89-0.23,1.33-0.23c74.01-0.01,148.02-0.01,222.03-0.01
		c116.76,0,233.52,0,350.28,0.01c0.44,0,0.96-0.25,1.33,0.23C414.68,5.38,223.02,5.38,31.37,5.38z"/>
	<path class="st29" d="M608.49,5.38c0.88,0.12,1.8-0.27,2.64,0.24C610.26,5.49,609.33,5.89,608.49,5.38z"/>
	<path class="st29" d="M26.57,5.62c0.84-0.51,1.77-0.12,2.64-0.24C28.37,5.89,27.44,5.49,26.57,5.62z"/>
	<path class="st29" d="M618.58,7.3c0.47-0.01,0.89,0.1,1.2,0.48C619.31,7.79,618.89,7.68,618.58,7.3z"/>
	<path class="st16" d="M614.26,62.04c-0.42,0.43-0.96,0.16-1.44,0.24C613.24,61.85,613.78,62.12,614.26,62.04z"/>
	<path class="st29" d="M17.92,7.78c0.31-0.38,0.73-0.49,1.2-0.48C18.81,7.68,18.39,7.79,17.92,7.78z"/>
	<path class="st16" d="M615.46,61.8c0,0.08,0,0.16,0,0.24c-0.4,0-0.8,0-1.2,0C614.59,61.64,615.05,61.86,615.46,61.8z"/>
	<path class="st29" d="M611.85,5.62c0.4,0.06,0.86-0.16,1.2,0.24C612.65,5.8,612.19,6.01,611.85,5.62z"/>
	<path class="st29" d="M24.65,5.86c0.34-0.4,0.8-0.18,1.2-0.24C25.51,6.01,25.05,5.8,24.65,5.86z"/>
	<path class="st31" d="M631.06,33c0,4.6,0.16,8.24-0.71,11.81c-1.7,6.96-5.73,11.92-12.43,14.6c-3.15,1.25-6.45,1.67-9.83,1.68
		c-183.35,0.55-366.7,0.06-550.04,0.3c-7.71,0.01-15.43,0.1-23.14,0.14c-2.43,0.01-4.9,0.04-7.29-0.27
		c-5.8-0.75-11.3-2.37-15.42-6.97c-2.71-3.03-4.32-6.57-5.08-10.53c-0.78-4.08-0.37-8.2-0.49-12.3c-0.11-3.78,0.28-7.49,1.54-11.06
		c1.64-4.66,4.63-8.25,8.96-10.66c3.75-2.09,7.82-2.9,12.07-2.92c191.27-0.56,382.55-0.09,573.82-0.19c3.91,0,7.89-0.07,11.77,0.89
		c7,1.73,11.97,5.78,14.65,12.54C631.21,24.56,631.15,29.26,631.06,33z"/>
	<path class="st32" d="M25.13,8.5c0.16,0,0.32,0,0.48,0c1.35-0.43,2.76-0.32,4.14-0.47c0.28-0.03,0.56,0,0.84,0
		c192.16,0,384.31,0,576.47,0.01c3.68,0,7.34,0.39,10.81,1.79c5.85,2.36,9.38,6.71,11.03,12.71c0.62,2.25,0.87,4.57,0.92,6.87
		c0.09,4.55,0.3,9.12-0.44,13.64c-1.07,6.52-4.26,11.56-10.33,14.53c-3.06,1.5-6.35,2.13-9.72,2.28c-4.52,0.2-9.04,0.12-13.56,0.12
		c-187.67,0-375.35,0-563.02-0.01c-4.07,0-8.15-0.1-12.05-1.5c-7.1-2.56-11.1-7.72-12.35-15.02c-0.99-5.82-0.86-11.72-0.21-17.56
		c0.51-4.64,2.09-8.92,5.68-12.22c3.14-2.88,6.75-4.66,11-5.06C24.93,8.59,25.03,8.54,25.13,8.5z"/>
	<path class="st33" d="M25.13,8.5c-1.73,0.54-3.53,0.82-5.24,1.51c-5.81,2.35-9.33,6.62-10.85,12.63c-0.69,2.72-0.98,5.48-0.96,8.27
		c0.03,3.71-0.24,7.44,0.27,11.13c1.17,8.53,5.68,14.64,14.66,16.84c2.05,0.5,4.16,0.75,6.27,0.75
		c193.04,0.01,386.09,0.02,579.13-0.01c5.15,0,10.04-1.15,14.2-4.5c3.11-2.5,4.98-5.77,6.04-9.54c0.73-2.62,1-5.31,0.98-8.03
		c-0.03-3.91,0.27-7.85-0.27-11.73c-1.2-8.68-5.87-14.73-14.81-16.83c-2.05-0.48-4.14-0.71-6.23-0.71
		C415.39,8.26,222.46,8.26,29.54,8.27c-1.31,0-2.62,0.15-3.93,0.23c0.15-0.32,0.41-0.51,0.76-0.47c1.37,0.15,2.69-0.26,4.05-0.26
		C222.7,7.78,414.98,7.77,607.26,7.8c4.03,0,8.06,0.48,11.76,2.27c4.54,2.19,7.75,5.66,9.45,10.46c0.87,2.46,1.22,4.99,1.45,7.59
		c0.29,3.2,0.23,6.39,0.15,9.58c-0.09,4.03-0.55,8.06-2.43,11.71c-2.58,5.03-6.68,8.25-12.13,9.73c-0.8,0.22-1.59,0.54-2.45,0.5
		c-0.36,0.28-0.84-0.06-1.2,0.24c-0.24,0-0.48,0-0.72,0c-0.69,0.31-1.47-0.09-2.16,0.24c-0.64,0-1.28,0-1.92,0
		c-0.42,0.22-0.87,0.11-1.3,0.11c-191.27,0.01-382.54,0.01-573.81,0c-0.43,0-0.88,0.11-1.29-0.11c-0.64,0-1.28,0-1.92,0
		c-0.69-0.33-1.47,0.07-2.16-0.24c-0.24,0-0.48,0-0.72,0c-0.36-0.3-0.84,0.04-1.2-0.24c-3.53-0.39-6.7-1.68-9.51-3.86
		c-3.87-3.01-6.02-7.03-7.02-11.75c-0.07-0.31-0.03-0.64-0.05-0.96c-0.28-0.36,0.06-0.84-0.24-1.2c0-0.24,0-0.48,0-0.72
		c-0.31-0.69,0.09-1.47-0.24-2.16c0-0.64,0-1.28,0-1.92c-0.19-2-0.19-4,0-6c0-0.64,0-1.28,0-1.92c0.33-0.69-0.07-1.47,0.24-2.16
		c0-0.24,0-0.48,0-0.72c0.3-0.36-0.04-0.84,0.24-1.2c0.52-4.22,2-7.96,5.1-11.04c2.75-2.73,5.96-4.47,9.69-5.39
		C23.63,8.45,24.38,8.55,25.13,8.5z"/>
	<path class="st34" d="M30.65,60.12c192.13,0,384.27,0,576.4,0c-0.37,0.47-0.89,0.23-1.33,0.23
		c-132.17,0.01-264.34,0.01-396.51,0.01c-59.08,0-118.16,0-177.24-0.01C31.54,60.35,31.02,60.59,30.65,60.12z"/>
	<path class="st34" d="M7.6,31.07c0,2,0,4,0,6C7.2,35.07,7.2,33.07,7.6,31.07z"/>
	<path class="st34" d="M7.6,38.99c0.48,0.68,0.14,1.44,0.24,2.16C7.36,40.47,7.7,39.71,7.6,38.99z"/>
	<path class="st34" d="M7.84,26.98c-0.11,0.72,0.24,1.48-0.24,2.16C7.7,28.43,7.36,27.66,7.84,26.98z"/>
	<path class="st34" d="M26.57,59.88c0.72,0.11,1.49-0.24,2.16,0.24C28.01,60.01,27.24,60.36,26.57,59.88z"/>
	<path class="st34" d="M608.97,60.12c0.68-0.48,1.44-0.14,2.16-0.24C610.46,60.36,609.69,60.01,608.97,60.12z"/>
	<path class="st34" d="M8.08,25.06c-0.06,0.4,0.16,0.86-0.24,1.2C7.89,25.86,7.68,25.4,8.08,25.06z"/>
	<path class="st34" d="M7.84,41.87c0.4,0.34,0.18,0.8,0.24,1.2C7.68,42.73,7.89,42.28,7.84,41.87z"/>
	<path class="st34" d="M24.65,59.64c0.4,0.06,0.86-0.16,1.2,0.24C25.44,59.82,24.98,60.04,24.65,59.64z"/>
	<path class="st34" d="M611.85,59.88c0.34-0.4,0.8-0.18,1.2-0.24C612.72,60.04,612.26,59.82,611.85,59.88z"/>
	<path class="st35" d="M318.72,58.2c-96.58,0-193.16,0.01-289.75-0.03c-4.52,0-8.83-1.03-12.54-3.92c-3.66-2.85-5.64-6.62-6.44-11.1
		c-0.87-4.88-0.6-9.81-0.4-14.7c0.17-4.17,1.08-8.26,3.79-11.74c2.85-3.65,6.58-5.7,11.06-6.52c1.88-0.35,3.78-0.5,5.7-0.5
		c192.84,0.01,385.69,0,578.53,0.04c4.56,0,8.92,1,12.65,3.95c3.63,2.87,5.61,6.64,6.39,11.13c0.86,4.92,0.56,9.89,0.41,14.82
		c-0.13,4.16-1.14,8.17-3.83,11.6c-2.86,3.64-6.59,5.68-11.07,6.49c-1.88,0.34-3.78,0.5-5.7,0.5
		C511.25,58.2,414.99,58.2,318.72,58.2z"/>
	<path class="st36" d="M500.78,43.68c-0.44,0.14-0.5,0.6-0.72,0.91c-1.14,1.6-2.86,2.27-4.74,1.81c-0.66-0.16-1.19-0.56-1.46-1.16
		c-0.5-1.15-0.88-0.72-1.42-0.02c-2.4,3.15-6.21,2.97-8.32-0.37c-0.17-0.27-0.33-0.55-0.5-0.82c-1.02-1.67-1.42-1.72-2.91-0.38
		c-1.56,1.4-2.11,3.35-2.9,5.18c-0.38,0.88-0.66,1.8-1.42,2.46c-1.09,0.94-1.89,0.93-2.94-0.05c-0.94-0.88-1.42-2.03-1.76-3.22
		c-0.19-0.68-0.56-1.04-1.25-1.03c-1.41,0-2.44-0.71-3.2-1.82c-0.5-0.73-1.01-0.93-1.77-0.38c-2.36,1.71-4.99,1.79-7.68,1.15
		c-1.05-0.25-1.92-0.24-2.81,0.42c-0.72,0.53-1.61,0.73-2.5,0.7c-1.73-0.05-2.86-0.86-3.36-2.55c-0.39-1.32-0.61-2.68-0.9-3.96
		c-2.27,4.52-6.31,7.08-10.53,9.33c-2.46,1.31-4.46,0.15-4.93-2.6c-0.15-0.88-0.31-1.45-1.32-1.63c-0.79-0.15-1.2-0.87-1.44-1.63
		c-0.24-0.73-0.57-0.8-1.02-0.14c-0.32,0.46-0.69,0.89-1.04,1.32c-1.65,2.01-5.9,2.97-8.09-0.31c-0.42-0.63-0.81-1.28-1.2-1.93
		c-0.65-1.07-1.09-1.17-2.11-0.41c-1.53,1.15-2.41,2.74-3.08,4.48c-0.4,1.04-0.76,2.11-1.28,3.09c-1.22,2.32-3,2.48-4.53,0.35
		c-1.86-2.59-2.11-5.55-1.56-8.59c0.14-0.77,0.07-1.38-0.36-2.02c-0.72-1.05-0.84-2.2-0.48-3.43c0.6-2.07,1.16-4.15,1.72-6.23
		c0.07-0.27,0.1-0.54,0.54-0.74c-0.03,1.74-0.54,3.29-0.93,4.85c-0.24,0.97-0.55,1.94-0.17,2.94c0.17,0.45,0.38,0.99,0.92,0.99
		c0.46,0,0.47-0.57,0.67-0.9c0.18-0.3,0.19-0.71,0.52-0.93c0.37,0.11,0.35,0.39,0.27,0.66c-0.39,1.32-0.49,2.78-1.73,3.71
		c-0.14,0.11-0.28,0.33-0.29,0.5c-0.16,2.48-0.41,4.98,1.23,7.15c1.07,1.42,2.24,1.43,3.31,0.01c0.61-0.81,0.89-1.78,1.22-2.72
		c0.79-2.26,1.9-4.31,3.79-5.87c1.62-1.34,2.34-1.2,3.37,0.6c0.55,0.97,0.99,2.01,1.95,2.7c2.17,1.56,5.04,1.1,6.83-1.14
		c0.47-0.59,0.91-1.22,1.39-1.8c0.2-0.25,0.49-0.45,0.84-0.26c0.29,0.16,0.28,0.46,0.21,0.74c-0.12,0.54-0.02,1.04,0.32,1.47
		c0.38,0.48,0.86,0.92,1.5,0.87c0.59-0.04,0.55-0.7,0.76-1.11c0.29-0.55,0.39-1.22,1.01-1.72c0.25,0.68-0.2,1.17-0.28,1.7
		c-0.05,0.34-0.37,0.77-0.06,1.01c0.37,0.28,0.72-0.14,1.04-0.34c0.53-0.32,0.87-0.81,1.13-1.36c0.22-0.47,0.46-0.93,0.73-1.37
		c0.13-0.21,0.26-0.56,0.62-0.42c0.29,0.12,0.14,0.39,0.14,0.63c-0.02,1.26,1.8,2.41,2.96,1.9c0.38-0.16,0.45-0.39,0.32-0.76
		c-0.28-0.78,0.13-1.49,0.26-2.23c0.03-0.2,0.16-0.43,0.36-0.41c0.15,0.02,0.31,0.23,0.4,0.39c0.62,1.05,0.12,4.3-0.77,5.13
		c-1.02,0.95-2.78,0.84-3.86-0.41c-0.74-0.85-1.1-0.73-1.56,0.18c-0.32,0.65-0.83,1.19-1.46,1.56c-0.96,0.56-0.56,1.1,0.01,1.58
		c0.79,0.65,1.72,0.56,2.62,0.26c1.97-0.64,3.62-1.86,5.25-3.08c1.54-1.15,2.91-2.5,4.22-3.91c0.86-0.92,1.01-1.85,0.57-3.05
		c-0.98-2.66-2.01-5.3-3.12-7.9c-0.62-1.45-0.44-2.85,0.28-4.47c1.28,2.28,2.15,4.5,3.02,6.7c1.31,3.32,1.82,6.86,2.7,10.3
		c0.51,2,1.5,2.58,3.41,2.25c0.82-0.14,1.08-0.49,0.9-1.31c-0.5-2.34,0.27-4.35,1.82-6.07c1.35-1.51,2.52-1.24,3.14,0.67
		c0.55,1.7,0.54,3.4-0.23,5.03c-0.36,0.77-0.08,0.98,0.63,1.07c1.97,0.23,3.71-0.38,5.33-1.41c0.45-0.29,0.63-0.7,0.51-1.24
		c-0.25-1.17-0.5-2.34-0.74-3.52c-0.14-0.67-0.41-0.89-1.06-0.46c-0.92,0.61-1.87,1.17-2.81,1.75c-0.08-0.1-0.16-0.2-0.24-0.3
		c0.87-0.68,1.7-1.41,2.61-2.04c0.86-0.59,1.07-1.26,0.97-2.33c-0.49-5.13-0.86-10.28-1.25-15.42c-0.07-0.94,0.35-1.76,0.82-2.71
		c0.66,0.92,0.8,1.91,1.13,2.81c0.4,1.09,0.73,2.2,1.04,3.31c0.1,0.35,0.52,0.82,0.09,1.09c-0.49,0.31-0.45-0.55-0.88-0.59
		c-0.37,0.13-0.22,0.46-0.2,0.7c0.17,3.32,0.41,6.62,0.8,9.92c0.03,0.28,0,0.61,0.27,0.76c0.32,0.17,0.51-0.14,0.69-0.32
		c0.89-0.86,1.76-1.74,2.65-2.61c0.62-0.6,0.59-1-0.25-1.41c-1.63-0.81-2-2.34-0.99-3.81c0.41-0.6,0.98-1.01,1.73-0.83
		c0.68,0.16,0.87,0.78,0.93,1.4c0.04,0.48,0.08,0.96,0.03,1.44c-0.06,0.62,0.11,1.09,0.64,1.44c0.36,0.23,0.58,0.56,0.58,0.99
		c0,0.54,0.06,1.22-0.8,0.61c-0.57-0.41-0.87-0.13-1.13,0.36c-0.8,1.47-1.99,2.6-3.27,3.63c-0.52,0.42-0.75,0.89-0.61,1.56
		c0.26,1.21,0.51,2.42,0.73,3.64c0.13,0.72,0.53,0.86,1.2,0.73c3.38-0.64,5.1,1.13,4.24,4.55c-0.37,1.46,0.16,2.51,0.89,3.55
		c0.87,1.24,2.17,1.15,3.05-0.1c0.51-0.73,0.8-1.56,1.09-2.39c0.78-2.22,1.87-4.24,3.77-5.73c1.48-1.15,2.21-0.98,3.07,0.72
		c0.14,0.28,0.28,0.58,0.43,0.85c1.67,3.03,4.88,3.5,7.4,1.05c0.63-0.61,1.14-1.34,1.71-2.01c0.16-0.19,0.38-0.36,0.62-0.24
		c0.26,0.13,0.16,0.42,0.13,0.64c-0.18,1.69,0.25,2.18,1.93,2.3c1.92,0.13,3.2-0.83,4.12-2.36c0.51-0.84,0.89-1.03,1.81-0.35
		c1.91,1.42,2.77,1.15,4.4-0.55c1.16-1.21,1.52-2.53,1.36-4.13c-0.43-4.38-0.82-8.76-1.22-13.14c-0.16-1.71-0.32-3.42-0.48-5.13
		c-0.01-0.16-0.01-0.33,0.03-0.48c0.19-0.63,0.24-1.6,0.85-1.69c0.52-0.08,0.58,0.91,0.77,1.45c0.55,1.58,1.06,3.18,1.55,4.78
		c0.08,0.27,0.41,0.67,0.05,0.86c-0.46,0.24-0.53-0.32-0.75-0.57c-0.08-0.09-0.14-0.19-0.33-0.26c0.1,5.19,1.48,10.3,0.53,15.48
		c0.47,0.2,0.63-0.16,0.85-0.35c0.95-0.81,1.93-1.55,3.03-2.14c2.31-1.23,5.16-0.72,6.92,1.21c0.52,0.57,0.74,1.2,0.57,1.98
		c-0.4,1.87-1.53,3.14-3.23,3.9c-2.84,1.26-5.83,1.91-8.92,2.15c-0.36,0.03-0.72,0.03-1.08,0.05c-2.06,0.12-2.06,0.12-2.21,2.17
		c-0.08,1.06-0.61,1.43-1.61,1.02c-1.38-0.56-2.33-1.51-2.5-3.08C501.05,44.33,501.12,43.95,500.78,43.68z"/>
	<path class="st36" d="M546.07,28.7c-0.3,2.25,0.11,4.47,0.32,6.69c0.26,2.68,0.25,5.35,0.13,8.03c-0.08,1.77,0.2,3.44,1.29,4.88
		c1.05,1.39,2.44,1.34,3.25-0.19c0.75-1.4,1.28-2.92,1.93-4.38c0.68-1.54,1.77-2.76,3.12-3.73c1.21-0.88,1.88-0.7,2.61,0.58
		c0.23,0.42,0.44,0.85,0.69,1.26c1.81,3.02,5.27,3.34,7.62,0.69c0.5-0.57,0.94-1.19,1.43-1.78c0.18-0.22,0.42-0.44,0.71-0.21
		c0.23,0.18,0.08,0.43,0.01,0.66c-0.45,1.67,0.41,2.6,2.13,2.3c0.91-0.16,1.62-0.64,2.13-1.42c0.45-0.7,0.93-1.38,1.37-2.03
		c0.43,0.07,0.4,0.33,0.41,0.56c0.13,1.69,1.28,2.58,2.94,2.17c1.16-0.28,2.26-0.77,3.34-1.29c0.72-0.35,0.56-0.66,0.02-0.97
		c-1.01-0.61-1.97-1.43-3.31-0.82c-0.26,0.12-0.71,0.18-0.57-0.39c0.27-1.09,0.53-2.1,1.83-2.57c2.81-1.01,5.63-1.07,8.5-0.48
		c0.39,0.08,0.78,0.18,1.16,0.31c0.57,0.19,1.55,0.06,1.53,0.83c-0.02,0.86-0.29,1.84-1.2,2.34c-0.73,0.4-1.49,0.77-2.27,1.08
		c-0.87,0.36-0.65,0.71-0.08,1.14c1.42,1.1,4.93,0.47,5.85-1.07c0.33-0.56,0.17-1.18,0.11-1.76c-0.4-3.7-0.85-7.39-1.24-11.08
		c-0.35-3.34-0.65-6.69-0.96-10.03c-0.09-0.92,0.37-1.66,0.84-2.45c0.98,2.36,2.06,4.66,2.49,7.23c-0.73,0-0.67-0.71-1.27-0.84
		c-0.14,1.58,0.21,3.08,0.34,4.6c0.34,4.02,1.07,8.01,1.07,12.06c0,1.01-0.13,1.99-0.46,2.95c-0.79,2.28-2.6,3.65-5.01,3.78
		c-1.24,0.07-2.19-0.52-3.12-1.29c-2.12-1.77-1.33-1.79-3.79-0.34c-1.06,0.63-2.07,1.37-3.31,1.65c-1.53,0.35-2.89,0.16-3.79-1.28
		c-0.44-0.71-0.67-0.4-0.98,0.08c-0.66,1.03-1.4,1.96-2.76,2.07c-1.63,0.13-2.62-0.74-3.27-2.11c-0.54,0.28-0.79,0.75-1.13,1.14
		c-2.2,2.57-5.68,2.44-7.66-0.31c-0.47-0.65-0.88-1.33-1.3-2.01c-0.4-0.63-0.87-0.73-1.51-0.34c-1.43,0.88-2.29,2.2-2.92,3.7
		c-0.45,1.07-0.8,2.18-1.29,3.22c-0.49,1.03-1.19,2.04-2.43,2.09c-1.27,0.05-1.93-1.03-2.49-2c-0.56-0.97-0.95-2.02-1.06-3.16
		c-0.06-0.62-0.18-1.08-0.93-0.52c-0.99,0.73-2.11,0.93-3.3,0.59c-0.75-0.21-1.2-0.07-1.32,0.82c-0.13,0.86-0.43,1.7-0.62,2.56
		c-0.1,0.46,0.04,0.88,0.4,1.19c0.51,0.43,0.55-0.44,0.94-0.36c0.02,0.04,0.07,0.08,0.06,0.11c-0.13,0.82-0.19,1.94-1.26,1.77
		c-0.95-0.15-1.02-1.23-0.82-2.09c0.27-1.17,0.59-2.32,0.96-3.46c0.17-0.53,0.15-0.9-0.32-1.25c-1.05-0.79-2.09-1.62-3.13-2.42
		c-0.18-0.14-0.37-0.38-0.63-0.25c-0.34,0.16-0.16,0.49-0.14,0.74c0.28,3.66,0.15,4.64-4.14,6.5c-1.21,0.53-2.47,0.9-3.77,1.17
		c-1.82,0.38-3.11-0.36-4.11-1.78c-0.87-1.25-1.16-2.69-1.41-4.16c-0.7-4.16-0.63-8.37-0.9-12.56c-0.29-4.56-0.86-9.07-1.8-13.53
		c-0.27-1.25-0.05-2.37,0.47-3.48c0.1-0.21,0.14-0.51,0.42-0.53c0.39-0.03,0.37,0.35,0.44,0.6c0.84,2.81,1.12,5.72,1.38,8.62
		c0.16,1.7,0.32,3.4,0.48,5c4.1-3.57,8.91-5.92,13.67-8.34c1.21-0.62,2.45-1.19,3.79-1.46c1.82-0.37,2.68,0.53,2.25,2.35
		c-0.18,0.77-0.38,1.57-0.73,2.27c-1.5,3.07-3.59,5.8-5.09,8.91c-0.18-0.68,0.08-1.27,0.29-1.86c0.81-2.23,2.01-4.25,3.4-6.16
		c0.28-0.39,0.53-0.8,0.79-1.2c0.23-0.36,0.3-0.74,0.08-1.13c-0.26-0.46-0.7-0.51-1.15-0.43c-1.11,0.19-2.15,0.61-3.16,1.08
		c-2.93,1.38-5.82,2.87-8.46,4.74c-1.45,1.03-2.96,1.98-4.37,3.07c-0.73,0.57-0.86,0.92,0.04,1.45c2.03,1.2,3.96,2.55,6.07,3.62
		c3.19,1.61,6.12,3.61,8.83,5.95c1.38,1.19,2.91,1.94,4.83,1.52c1-0.22,1.38-0.69,1.33-1.73c-0.21-4.08-0.77-8.12-1.15-12.18
		c-0.37-3.94-0.77-7.88-1.12-11.82c-0.08-0.9,0.31-1.69,0.91-2.57c0.75,1.6,1.18,3.16,1.69,4.69c0.22,0.68,0.41,1.38,0.61,2.07
		c0.08,0.26,0.29,0.58-0.02,0.76c-0.35,0.2-0.43-0.22-0.6-0.41c-0.13-0.14-0.25-0.29-0.62-0.73c0.18,2.25,0.3,4.15,0.71,6.02
		C545.95,28.32,546.21,28.41,546.07,28.7z"/>
	<path class="st36" d="M184.41,17.68c0.16,0.41,0.53,0.57,0.87,0.78c2.38,1.47,4.63,3.14,6.88,4.79c0.32,0.24,0.55,0.54,0.8,0.84
		c0.34,0.41,0.85,0.57,1.25,0.13c1.09-1.19,2.56-1.86,3.75-2.91c0.38-0.33,0.92-0.66,0.76-1.26c-0.18-0.65-0.82-0.68-1.37-0.75
		c-0.35-0.05-0.72-0.03-1.08-0.04c-2.04-0.06-2.95-1.45-2.18-3.34c0.07-0.18,0.18-0.36,0.28-0.52c1.37-2.12,2.85-2.09,4.15,0.09
		c1.58,2.65,1.33,5.36-0.69,7.75c-0.62,0.73-1.19,1.47-2.05,1.94c-0.29,0.16-0.89,0.3-0.41,0.85c0.32,0.37,0.68,0.71,1.21,0.27
		c0.8-0.66,1.67-1.25,2.42-1.97c2.41-2.29,5.22-4.03,7.95-5.88c0.38-0.26,0.91-0.42,0.7-1.07c-0.12-0.21,0.02-0.29,0.19-0.36
		c0.29-0.05,0.55,0.05,0.81,0.16c0.3,0.13,0.3,0.43,0.39,0.68c1.25,0.86,2.51,1.71,3.75,2.59c5.9,4.2,11.5,8.74,16.22,14.28
		c2.59,3.03,4.35,6.49,5.46,10.29c0.2,0.7,0.26,1.58,0.02,2.25c-0.62,1.67-1.19,3.4-2.42,4.78c-0.27,0.3-0.5,0.71-0.92,0.73
		c-1.59,0.08-3.19,0.15-4.78,0.1c-0.53-0.01-0.31-0.44-0.03-0.64c3.99-2.78,4.17-8.01,2.27-12.25c-1.62-3.64-4.02-6.7-6.69-9.59
		c-1.71-1.85-3.61-3.52-5.39-5.3c-2.24-2.23-4.78-4.09-7.22-6.08c-0.63-0.52-1.08-0.56-1.76-0.03c-3.21,2.5-6.28,5.16-9.3,7.89
		c-0.71,0.65-0.74,1,0,1.65c2.99,2.61,5.75,5.45,7.99,8.75c1.84,2.7,3.33,5.56,3.34,8.95c0.01,2.26-0.83,4.2-2.26,5.92
		c-0.35,0.42-0.75,0.69-1.33,0.69c-1.28,0-2.56,0.03-3.84,0.05c-0.19,0-0.43,0.05-0.54-0.16c-0.14-0.27,0.1-0.43,0.25-0.6
		c0.05-0.06,0.11-0.11,0.17-0.17c3.68-3.05,3.78-6.9,2.35-11.01c-1.23-3.53-3.4-6.51-5.87-9.26c-1.34-1.49-2.8-2.86-4.14-4.34
		c-0.61-0.67-1.13-0.71-1.86-0.22c-3.53,2.4-7.8,2.34-11.82,3.67c0.2-0.76,0.7-0.77,1.06-0.93c3.1-1.38,6.3-2.53,9.34-4.04
		c0.76-0.38,0.95-0.58,0.22-1.3c-2.07-2.07-4.49-3.69-6.71-5.57c-0.55-0.46-0.98-0.52-1.58-0.06c-5.87,4.52-11.43,9.36-16.03,15.21
		c-1.81,2.3-3.34,4.79-4.17,7.63c-1.23,4.23-0.04,7.65,3.53,10.2c0.22,0.16,0.43,0.34,0.96,0.76c-2.05,0.02-3.76,0.18-5.49,0.01
		c-0.11-0.01-0.22-0.08-0.32-0.15c-1.93-1.22-3.64-5.58-3.23-7.89c0.85-4.75,3.68-8.35,6.7-11.84c2.5-2.88,5.46-5.27,8.39-7.69
		c2.95-2.44,5.93-4.83,9.2-6.83c0.44-0.27,0.82-0.55,0.44-1.14c0.08-0.1,0.18-0.17,0.3-0.19c0.32-0.02,0.61,0.08,0.89,0.23
		C184.38,17.33,184.5,17.46,184.41,17.68z"/>
	<path class="st36" d="M106.78,33c0-0.36-0.02-0.72,0.01-1.08c0.04-0.5-0.04-1.18,0.64-1.23c0.58-0.04,0.68,0.58,0.79,1.04
		c0.34,1.44,0.65,2.88,1,4.31c0.29,1.16,0.58,2.33,1.36,3.29c0.2,0.25,0.42,0.53,0.77,0.48c0.39-0.05,0.42-0.4,0.51-0.72
		c0.25-0.98,0.77-1.84,1.33-2.67c1.06-1.57,1.4-3.28,1.03-5.14c-0.31-1.57-0.77-3.09-1.32-4.6c-0.27-0.74-0.65-1.02-1.44-0.63
		c-0.7,0.35-1.71,1.23-2.15,0.45c-0.36-0.64,1-1,1.63-1.4c1.51-0.97,1.57-0.95,0.99-2.8c-0.52-1.66-0.58-3.3-0.08-4.95
		c0.12-0.41,0.26-0.94,0.81-0.9c0.48,0.04,0.33,0.56,0.41,0.88c0.14,0.56,0.47,1.02,0.88,1.4c1.42,1.32,1.61,2.89,0.9,4.6
		c-0.4,0.95-0.42,1.86-0.1,2.8c0.66,1.91,1.1,3.84,0.73,5.88c-0.05,0.28-0.08,0.62,0.27,0.69c0.36,0.08,0.58-0.24,0.76-0.49
		c1-1.37,2.16-2.57,3.54-3.56c1.4-1.01,1.94-1.04,3.1-0.17c1.11,0.83,1.49,1.97,1.05,3.28c-0.38,1.13-1.15,2-1.9,2.89
		c-0.74,0.89-1.51,1.78-1.62,3.01c-0.03,0.32-0.2,0.77,0.35,0.86c0.38,0.06,1.01-0.28,0.95,0.48c-0.05,0.66-0.53,1.07-1.18,1.19
		c-0.62,0.11-0.95-0.26-1.17-0.8c-0.19-0.48-0.06-0.93,0.04-1.41c0.11-0.53,0.65-1.18,0.24-1.56c-0.47-0.44-1.11,0.12-1.64,0.33
		c-1.37,0.54-2.72,1.14-4.08,1.72c-0.37,0.16-0.78,0.32-0.72,0.83c0.06,0.51,0.47,0.72,0.91,0.84c0.27,0.07,0.56,0.06,0.83,0.11
		c0.98,0.18,1.58,0.75,1.63,1.78c0.05,1-0.57,1.53-1.44,1.82c-1.99,0.68-5.01-0.75-6.04-2.85c-0.53-1.09-0.73-2.27-0.93-3.45
		c-0.07-0.38-0.06-0.89-0.55-0.95c-0.5-0.06-0.45,0.48-0.56,0.78c-0.39,1.09-1.06,1.87-2.23,2.11c-0.49,0.1-0.78,0.35-0.92,0.82
		c-1.07,3.72-3.87,5.85-7.07,7.58c-2.57,1.39-5.35,2.28-8.1,3.24c-3.74,1.3-7.56,1.97-11.51,2.03c-2.1,0.03-4.15-0.27-6.17-0.78
		c-2.05-0.52-4.09-1.09-6.14-1.61c-1.59-0.41-2.97-1.17-4.05-2.42c-0.74-0.86-1.69-1.46-2.56-2.17c-0.24-0.2-0.53-0.47-0.27-0.81
		c0.23-0.3,0.5-0.06,0.74,0.07c6,3.22,12.55,3.77,19.18,3.93c6.77,0.16,13.15-1.3,19.15-4.46c1.82-0.96,3.46-2.11,4.89-3.61
		c0.78-0.82,0.74-1.51,0.11-2.31c-0.42-0.53-0.86-1.05-1.25-1.61c-0.37-0.53-0.57-1.15-0.52-1.81c0.03-0.39,0.09-0.83,0.55-0.98
		c0.41-0.13,0.66,0.16,0.93,0.4c0.42,0.37,0.8,0.8,1.26,1.1c1.61,1.02,3.16,0.26,3.37-1.65c0.05-0.47,0.01-0.96,0.01-1.44
		C106.78,33,106.78,33,106.78,33z"/>
	<path class="st36" d="M80.83,30.13c1.6,0.02,3.02,0.23,4.38,0.75c1.31,0.5,1.6,1.47,0.82,2.66c-0.55,0.83-1.32,1.39-2.23,1.75
		c-0.89,0.35-0.8,0.87-0.29,1.47c1.58,1.84,5.27,1.72,6.76-0.2c0.52-0.67,0.53-1.41,0.34-2.16c-0.65-2.59-1.35-5.18-1.98-7.78
		c-0.2-0.85-0.56-1.03-1.35-0.7c-1.03,0.43-2.09,0.77-3.15,1.15c-0.34,0.12-0.78,0.28-0.96-0.13c-0.23-0.5,0.3-0.68,0.61-0.84
		c1.13-0.59,2.28-1.16,3.44-1.68c0.82-0.37,0.99-0.92,0.78-1.74c-0.31-1.2-0.56-2.41-0.83-3.62c-0.24-1.11-0.03-2.15,0.54-3.11
		c0.14-0.24,0.34-0.47,0.66-0.44c0.27,0.03,0.42,0.25,0.44,0.5c0.08,1.06,0.8,1.72,1.48,2.39c1.29,1.28,1.46,2.7,0.61,4.25
		c-0.53,0.98-0.57,1.93-0.3,3c0.6,2.4,1.12,4.82,1.63,7.24c0.67,3.14-1.24,6.78-4.16,8c-1.03,0.43-2.06,0.62-3.12,0.06
		c-0.35-0.19-0.82-0.41-1.05,0.08c-0.5,1.06-0.82,2.19-0.42,3.35c0.22,0.65,0.66,0.91,1.23,0.23c0.21-0.26,0.42-0.7,0.85-0.4
		c0.42,0.29,0.42,0.78,0.23,1.2c-0.37,0.83-0.98,1.47-1.81,1.84c-0.82,0.36-1.68-0.26-1.83-1.49c-0.2-1.63-0.17-3.3,0.68-4.78
		c0.38-0.67,0.27-1.04-0.22-1.54c-2.1-2.13-2.08-2.14-4.44-0.32c-1.01,0.78-2.01,1.59-3.18,2.13c-1.79,0.83-3.24,0.48-4.43-1.09
		c-0.41-0.54-0.73-0.84-1.46-0.41c-3.89,2.31-8.17,3.38-12.64,3.76c-2.11,0.18-4.24,0.19-6.35,0.33c-1.01,0.07-1.9-0.16-2.68-0.81
		c-0.68-0.56-1.4-1.05-2.26-1.31c-0.32-0.1-0.61-0.29-0.54-0.68c0.08-0.41,0.46-0.39,0.77-0.38c1.56,0.07,3.1,0.22,4.67,0.09
		c1.26-0.1,2.23-0.6,2.96-1.57c0.82-1.09,1.59-2.2,2.38-3.31c0.74-1.05,1.53-2.05,2.71-2.66c1.7-0.88,3.49-0.59,4.69,0.77
		c1.12,1.27,1.09,2.68-0.12,4.36c-0.12,0.16-0.24,0.32-0.35,0.48c-0.15,0.23-0.37,0.47-0.12,0.75c0.2,0.22,0.44,0.06,0.67,0
		c2.52-0.69,4.85-1.83,7.17-3c1.38-0.7,1.38-0.72,1.65,0.75c0.1,0.56,0.53,0.78,0.98,0.94c1.44,0.51,5.04-0.89,5.79-2.24
		c0.07-0.13,0.12-0.3,0.09-0.44c-0.21-0.92-1.97-1.78-2.89-1.44c-0.93,0.35-1.25,0.12-1.1-0.89c0.21-1.44,1.18-2.23,2.5-2.6
		C78.34,30.28,79.66,30.14,80.83,30.13z"/>
	<path class="st36" d="M138.05,24.71c1.03-2.01,2.44-3.34,3.85-4.68c0.43-0.41,1.42-0.78,1.03-1.38c-0.38-0.59-1.1,0.19-1.66,0.38
		c-2.27,0.78-4.47,1.74-6.54,2.94c-1.88,1.1-3.66,2.36-5.49,3.55c-0.72,0.47-0.68,0.88,0.04,1.33c1.6,0.99,3.29,1.8,5.02,2.54
		c2.7,1.16,5.16,2.7,7.51,4.44c1.22,0.9,2.49,1.75,3.94,2.26c1.58,0.56,2.39-0.1,2.05-1.7c-0.29-1.36-0.7-2.7-1.05-4.05
		c-0.2-0.76-0.62-0.95-1.33-0.62c-0.58,0.27-1.17,0.51-1.76,0.75c-0.29,0.12-0.67,0.3-0.86-0.04c-0.23-0.4,0.11-0.66,0.43-0.86
		c0.58-0.35,1.15-0.72,1.75-1.04c0.78-0.42,1.03-0.96,0.77-1.87c-0.49-1.69-0.93-3.39-0.82-5.18c0.05-0.77,0.22-1.5,0.57-2.19
		c0.12-0.25,0.29-0.5,0.63-0.46c0.33,0.04,0.5,0.29,0.51,0.58c0.05,1.16,0.83,1.85,1.58,2.58c1.55,1.48,1.75,2.99,0.6,4.81
		c-0.49,0.78-0.56,1.52-0.31,2.39c0.49,1.72,1.04,3.44,1.08,5.27c0.03,1.38-0.14,2.71-0.84,3.93c-0.96,1.68-2.33,1.9-4,0.64
		c-1.11-0.83-1.22-0.81-1.68,0.46c-0.25,0.67-0.46,1.36-0.65,2.05c-0.14,0.5,0,0.97,0.44,1.27c0.45,0.3,0.73-0.09,1.02-0.35
		c0.24-0.21,0.48-0.47,0.84-0.27c0.35,0.19,0.29,0.54,0.26,0.85c-0.1,1.08-1.42,2.36-2.5,2.43c-0.92,0.06-1.63-0.69-1.66-1.8
		c-0.04-1.48,0.55-2.8,1.1-4.13c0.26-0.63,1-1.3,0.48-1.97c-0.64-0.81-1.62-1.28-2.56-1.72c-0.45-0.21-0.63,0.15-0.66,0.57
		c-0.4,4.42-4.8,6.42-8.3,5.73c-0.55-0.11-0.95-0.01-1.11,0.59c-0.15,0.54-0.38,1.06-0.45,1.61c-0.14,0.97,0.21,1.21,1.12,0.8
		c0.35-0.16,0.69-0.31,0.98,0.01c0.26,0.29,0.01,0.61-0.13,0.89c-0.14,0.29-0.29,0.57-0.49,0.81c-0.53,0.62-1.1,1.22-2.04,0.88
		c-0.94-0.34-0.86-1.15-0.8-1.92c0.08-1.09,0.29-2.14,0.89-3.07c0.29-0.46,0.51-0.95,0.08-1.43c-1.59-1.78-1.7-4.08-2.2-6.24
		c-0.93-4.09-1.23-8.3-2.37-12.35c-0.28-0.97-0.7-1.86-1.17-2.74c-0.41-0.78-0.4-1.52,0.13-2.25c0.16-0.22,0.29-0.55,0.6-0.5
		c0.3,0.05,0.35,0.38,0.45,0.65c0.77,2.06,1.49,4.13,1.86,6.3c0.04,0.24,0.09,0.47,0.16,0.7c0.07,0.24,0.21,0.45,0.49,0.44
		c0.33-0.02,0.34-0.29,0.34-0.53c-0.03-1.23,0.89-1.85,1.71-2.39c3.77-2.5,7.8-4.52,11.93-6.35c0.83-0.37,1.75-0.57,2.64-0.75
		c1.3-0.25,1.97,0.37,1.96,1.71c0,0.88-0.36,1.64-0.87,2.32c-1.6,2.12-3.72,3.68-5.84,5.22C138.65,24.62,138.47,24.61,138.05,24.71z
		"/>
	<path class="st36" d="M77.02,16.41c0-0.88-0.1-1.77,0.22-2.61c0.31-0.81,0.81-1.41,1.79-1.23c0.81,0.15,1.48,1.1,1.34,2
		c-0.12,0.73-0.29,1.54-1.37,0.9c-0.13-0.08-0.31-0.13-0.45-0.1c-0.34,0.08-0.6,2.02-0.35,2.61c0.28,0.68,0.75,0.4,1.19,0.21
		c1.29-0.54,2.57-1.09,3.85-1.64c0.44-0.19,0.92-0.5,1.31-0.02c0.36,0.44,0.1,0.93-0.17,1.33c-0.55,0.81-1.29,1.36-2.22,1.75
		c-4,1.64-7.98,3.34-11.97,5c-0.75,0.31-1.25,0.79-1.45,1.61c-0.22,0.93-0.58,1.83-0.81,2.75c-0.18,0.73-0.09,1.47,0.6,1.94
		c0.67,0.45,1.08-0.08,1.53-0.49c0.51-0.47,0.79-0.15,0.91,0.37c0.04,0.18-0.03,0.39-0.08,0.58c-0.47,1.73-1.8,3.03-2.95,2.88
		c-1-0.13-1.67-1.64-1.47-3.56c0.13-1.27,0.39-2.52,0.93-3.7c0.13-0.28,0.37-0.59,0.03-0.86c-0.28-0.22-0.53,0.01-0.76,0.15
		c-0.95,0.58-1.89,1.19-2.85,1.76c-0.39,0.23-0.81,0.74-1.27,0.32c-0.45-0.41,0.02-0.9,0.18-1.31c0.49-1.26,1.51-2.04,2.64-2.68
		c0.73-0.42,1.46-0.83,2.23-1.16c2.21-0.95,4.27-2.24,6.58-2.98c0.51-0.16,1.22-0.4,0.95-1.12c-0.27-0.7-0.55-1.54-1.59-1.53
		c-1.9,0.01-2.82-1.48-1.99-3.23c0.25-0.53,0.68-0.58,1.21-0.38c1.52,0.57,2.53,1.63,3.12,3.11c0.1,0.26,0.16,0.54,0.28,0.79
		c0.13,0.27,0.19,0.71,0.58,0.66c0.45-0.06,0.28-0.5,0.3-0.79C77.04,17.29,77.02,16.85,77.02,16.41z"/>
	<path class="st36" d="M155.81,35.91c0.11,2.25-0.82,5.2-2.59,7.93c-1.26,1.94-2.91,3.37-5.18,4.01c-1.92,0.55-3.82,1.14-5.73,1.71
		c-0.38,0.11-0.85,0.35-1.07-0.12c-0.23-0.51,0.31-0.66,0.64-0.83c1.32-0.66,2.66-1.29,3.98-1.93c1.33-0.65,2.58-1.43,3.8-2.26
		c3.55-2.42,4.98-5.67,4.14-9.93c-1.06-5.36-2-10.75-3.09-16.1c-0.36-1.77,0.26-3.2,1.01-4.66c0.11-0.22,0.28-0.26,0.48-0.25
		c0.37,0.02,0.43,0.3,0.45,0.59c0.28,4.16,1.64,8.13,2.14,12.26C155.14,29.18,155.76,32,155.81,35.91z"/>
	<path class="st36" d="M546.78,27.73c0.4-0.33,0.78-0.68,1.19-1c0.57-0.44,0.75-1,0.63-1.69c-0.39-2.29-0.38-4.62-0.76-6.91
		c-0.14-0.84,0.35-1.66,0.98-2.59c0.89,2.61,1.94,4.95,2.39,7.53c-0.74,0.02-0.67-0.69-1.15-0.8c-0.02,0.01-0.14,0.04-0.14,0.07
		c0.02,0.77-0.27,1.85,0.42,2.18c0.56,0.27,1.12-0.72,1.64-1.19c0.68-0.62,1.32-1.28,1.98-1.93c0.63-0.62,0.77-1.11-0.19-1.63
		c-1.4-0.76-1.64-2.23-0.64-3.49c0.38-0.48,0.88-0.86,1.54-0.7c0.6,0.15,0.72,0.68,0.78,1.22c0.12,1.23-0.03,2.54,1.16,3.44
		c0.23,0.17,0.29,0.58,0.02,0.87c-0.24,0.26-0.52,0.16-0.75-0.01c-0.53-0.39-0.8-0.05-1.05,0.35c-1.05,1.63-2.31,3.07-3.92,4.17
		c-0.57,0.39-0.55,0.91-0.49,1.49c0.43,4.3,0.86,8.59,1.29,12.89c0.2,2.04,0.2,4.08-0.37,6.07c-0.16,0.55-0.26,1.15-0.69,1.56
		c-0.41-0.1-0.3-0.39-0.29-0.6c0.24-4.74-0.6-9.41-1.03-14.1c-0.13-1.47-0.27-2.95-0.4-4.42c-0.12-1.42-0.19-1.45-1.41-0.74
		c-0.14,0.08-0.28,0.14-0.43,0.21C546.82,28.08,546.76,27.94,546.78,27.73z"/>
	<path class="st37" d="M475.3,23.52c-0.13-0.35-0.25-0.69-0.37-1.02c-0.29,0.25-0.39,0.3-0.39,0.34c0.08,0.66-0.32,1.6,0.24,1.9
		c0.57,0.31,1.15-0.51,1.7-0.86c1.28-0.82,2.43-1.81,3.57-2.82c0.63-0.55,0.57-0.89-0.09-1.37c-1.21-0.89-1.29-2.02-0.31-3.14
		c0.32-0.37,0.74-0.66,1.26-0.54c0.56,0.12,0.68,0.61,0.75,1.11c0.14,1.06-0.34,2.25,0.7,3.14c0.16,0.14,0.13,0.55-0.06,0.79
		c-0.26,0.34-0.51,0.07-0.7-0.1c-0.42-0.37-0.63-0.08-0.85,0.23c-1.31,1.89-3.08,3.22-5.14,4.2c-0.67,0.32-0.86,0.75-0.77,1.52
		c0.47,4.17,0.86,8.34,1.28,12.52c0.19,1.9-0.15,3.74-0.66,5.56c-0.1,0.36-0.12,0.79-0.54,0.97c-0.08-0.06-0.19-0.1-0.19-0.14
		c0.22-6.06-0.81-12.03-1.56-18c-0.12-0.98,0.02-1.9-0.08-2.85c-0.18-1.67-0.33-3.34-0.48-5.01c-0.12-1.36-0.17-2.71,0.79-4.25
		c0.79,2.69,2.01,4.97,2.4,7.53C475.63,23.32,475.47,23.42,475.3,23.52z"/>
	<path class="st36" d="M589.72,16.03c-0.16,0.97-0.83,1.27-1.51,1.54c-3.71,1.45-7.44,2.87-11.15,4.34
		c-5.64,2.23-11.26,4.49-16.89,6.74c-1.43,0.57-2.66,1.55-4.13,2.04c-0.26,0.09-0.53,0.32-0.77,0.09c-0.26-0.26,0.04-0.5,0.13-0.75
		c0.39-1.03,1.16-1.66,2.16-2.09c10.21-4.33,20.58-8.25,31-12.06C588.99,15.73,589.51,15.34,589.72,16.03z"/>
	<path class="st37" d="M597.07,15.29c0.87,2.41,1.78,4.6,2.37,6.91c0.06,0.24,0.14,0.5-0.15,0.62c-0.23,0.1-0.32-0.15-0.45-0.3
		c-0.14-0.17-0.3-0.34-0.59-0.65c-0.21,1.37,0.1,2.53,0.21,3.69c0.57,6.25,1.22,12.49,1.79,18.74c0.21,2.29-0.11,4.52-1.07,6.63
		c-0.45-0.06-0.3-0.37-0.3-0.56c0.16-6.98-1.05-13.86-1.61-20.79c-0.31-3.86-0.75-7.72-1.11-11.58
		C596.09,17.07,596.38,16.22,597.07,15.29z"/>
	<path class="st38" d="M441.99,15.84c0.57,0.72,0.44,1.48,0.66,2.12c0.15,0.45,0.28,1.08,0.91,0.83c0.51-0.2,0.11-0.69-0.02-1.03
		c-0.23-0.59-0.42-1.17-0.08-1.82c0.6,1,1.09,2.03,0.8,3.25c-0.13,0.54-0.63,1.15-1.07,0.85c-0.88-0.62-1.29-0.08-1.97,0.29
		c-0.82,0.45-1.21-0.27-1.33-1.01c-0.34-2.01-0.32-2.01-2.24-1.31c-7.6,2.81-15.23,5.52-22.7,8.68c-1.12,0.47-2.16,1.12-3.26,1.66
		c-0.23,0.11-0.54,0.32-0.77,0.04c-0.2-0.24-0.01-0.51,0.06-0.78c0.19-0.72,0.75-0.97,1.34-1.23c6.8-3,13.76-5.55,20.77-8.02
		c1.99-0.7,3.98-1.44,5.98-2.12c1.1-0.38,1.35-0.17,1.32,1c-0.01,0.28-0.03,0.56-0.02,0.84c0.01,0.51,0.13,1.05,0.75,1.01
		c0.55-0.03,0.78-0.53,0.79-1.05C441.91,17.36,441.65,16.67,441.99,15.84z"/>
	<path class="st37" d="M432.23,27.7c-0.6-0.19-1.09,0.16-1.6,0.35c-3.9,1.52-7.78,3.08-11.68,4.59c-0.38,0.15-0.94,0.69-1.25,0.06
		c-0.24-0.49,0.21-0.98,0.63-1.3c0.31-0.24,0.69-0.4,1.05-0.55c2.44-0.97,4.94-1.84,7.33-2.92c7-3.17,14.35-5.41,21.52-8.12
		c0.3-0.11,0.75-0.59,1.02-0.02c0.21,0.46-0.1,0.9-0.51,1.1c-1.01,0.47-2.04,0.9-3.08,1.29c-3.88,1.46-7.77,2.89-11.65,4.34
		c-0.58,0.22-1.26,0.37-1.35,1.18C432.51,27.85,432.37,27.85,432.23,27.7z"/>
	<path class="st39" d="M488.9,28.79c-0.31,0.91-0.58,1.73-0.86,2.54c-0.17,0.49-0.46,0.9-1,0.89c-0.52-0.01-0.85-0.39-1.09-0.83
		c-0.68-1.23-0.36-2.5-0.06-3.73c0.28-1.12,0.67-2.21,0.98-3.33c0.1-0.36,0.46-0.8,0.18-1.1c-0.32-0.34-0.75,0.04-1.1,0.17
		c-1.84,0.67-3.66,1.38-5.5,2.05c-0.31,0.11-0.72,0.48-0.98,0.15c-0.33-0.4,0.19-0.69,0.39-0.99c0.39-0.6,1.03-0.86,1.67-1.11
		c6.93-2.66,13.96-5.03,20.97-7.48c0.32-0.11,0.74-0.36,0.95,0.08c0.17,0.36-0.13,0.71-0.4,0.92c-0.31,0.24-0.68,0.43-1.05,0.56
		c-4.32,1.55-8.63,3.11-12.97,4.62c-0.87,0.3-1.43,0.73-1.59,1.7c-0.2,1.14-0.55,2.25-0.8,3.38c-0.1,0.46-0.14,0.95-0.14,1.42
		c0,0.62,0.16,1.28,0.82,1.45c0.74,0.19,0.67-0.6,0.93-0.99C488.36,29.02,488.4,28.78,488.9,28.79z"/>
	<path class="st37" d="M99.84,32.97c-0.3,1.23-0.23,2.51-0.91,3.61c-0.15,0.25-0.31,0.5-0.64,0.44c-0.35-0.06-0.37-0.37-0.36-0.66
		c0.24-4.56-0.84-8.96-1.56-13.41c-0.28-1.73-0.56-3.47-0.87-5.2c-0.17-0.96,0.01-1.82,0.5-2.64c0.16-0.27,0.25-0.62,0.65-0.63
		c0.49-0.01,0.55,0.41,0.66,0.73c0.56,1.68,0.73,3.44,0.96,5.17C98.83,24.59,99.32,28.8,99.84,32.97z"/>
	<path class="st37" d="M52.21,34.21c0.19-5.14-0.79-10.18-1.5-15.24c-0.17-1.21-0.21-2.4,0.36-3.52c0.2-0.39,0.41-0.87,0.96-0.74
		c0.59,0.13,0.52,0.65,0.41,1.08c-0.2,0.8,0.17,1.41,0.61,1.98c0.33,0.44,0.65,0.93,0.35,1.42c-0.95,1.56-0.54,3.17-0.31,4.78
		c0.47,3.24,1.03,6.47,0.85,9.77c-0.07,1.41-0.34,2.77-0.79,4.1c-0.1,0.31-0.21,0.78-0.7,0.65c-0.43-0.11-0.25-0.52-0.25-0.81
		C52.21,36.53,52.21,35.37,52.21,34.21z"/>
	<path class="st39" d="M106.92,22.72c0,1.04,0.02,2.08-0.01,3.11c-0.01,0.31-0.11,0.67-0.5,0.74c-0.41,0.08-0.65-0.17-0.86-0.51
		c-0.66-1.06-0.91-2.29-1.43-3.42c-0.37-0.81-0.72-1.3-1.69-0.77c-0.63,0.35-1.16-0.01-1.54-0.55c-0.36-0.51,0.08-3.02,0.56-3.42
		c0.31-0.25,0.61-0.14,0.88,0.05c1.13,0.77,2.24,1.56,2.69,2.95c0.12,0.37,0.19,0.89,0.72,0.77c0.45-0.1,0.32-0.59,0.3-0.93
		c-0.08-1.24,0.22-2.38,0.81-3.45c0.25-0.46,0.62-0.93,1.21-0.83c0.69,0.11,1.11,0.65,1.31,1.27c0.18,0.54,0.18,1.12-0.22,1.6
		c-0.26,0.32-0.53,0.18-0.84,0c-0.89-0.51-1.26-0.32-1.32,0.74c-0.06,0.88-0.01,1.76-0.01,2.64
		C106.96,22.72,106.94,22.72,106.92,22.72z"/>
	<path class="st39" d="M582.42,31.17c-0.24,0.94-0.16,1.97-1.32,2.08c-0.7,0.07-1.15-1.17-0.88-2.3c0.22-0.93,0.44-1.86,0.73-2.77
		c0.2-0.65-0.02-0.91-0.59-0.65c-1.8,0.8-3.71,1.31-5.48,2.25c-1.85,0.99-3.92,1.57-5.89,2.33c-0.19,0.07-0.4,0.18-0.54-0.03
		c-0.13-0.19,0.01-0.37,0.12-0.54c0.4-0.6,1.01-0.88,1.63-1.17c4.47-2.09,9.17-3.58,13.75-5.37c1.6-0.63,3.2-1.24,4.81-1.82
		c0.3-0.11,0.7-0.49,0.95-0.03c0.25,0.47-0.21,0.77-0.55,0.91c-1.58,0.67-3.13,1.54-4.78,1.87c-2.7,0.55-3.23,2.45-3.51,4.67
		c-0.06,0.5,0,1.01,0.52,1.23C581.95,32.06,581.85,31.27,582.42,31.17z"/>
	<path class="st40" d="M564.81,17.71c0.06,1.35,0.07,1.37,1.35,0.89c2.27-0.85,4.53-1.75,6.81-2.59c0.44-0.16,1.13-0.71,1.36-0.16
		c0.27,0.66-0.56,0.93-1.1,1.15c-3.19,1.26-6.38,2.5-9.57,3.75c-1.63,0.64-3.26,1.28-4.91,1.88c-0.38,0.14-0.94,0.66-1.19,0.01
		c-0.23-0.58,0.37-0.9,0.86-1.1c1.48-0.58,2.97-1.15,4.46-1.71c1.4-0.52,1.38-0.5,0.76-1.92c-0.33-0.75-0.72-1.41-1.49-1.79
		c-0.41-0.2-0.68-0.56-0.73-1.03c-0.04-0.36-0.05-0.76,0.32-0.96c0.35-0.2,0.59,0.12,0.83,0.31c0.74,0.59,1.22,1.35,1.52,2.25
		c0.07,0.22,0.05,0.61,0.49,0.47C565.05,17.18,564.86,17.47,564.81,17.71z"/>
	<path class="st39" d="M63.57,17.09c-0.74-0.23-1.35,0.11-1.85,0.8c-0.17,0.24-0.4,0.58-0.78,0.36c-0.35-0.21-0.21-0.52-0.09-0.84
		c1.07-2.79,2.72-3.66,5.53-2.87c1.2,0.34,1.55,1.01,1.12,2.16c-0.67,1.85-2.14,2.82-3.89,3.45c-0.34,0.12-0.75,0.23-0.96-0.18
		c-0.26-0.51,0.21-0.7,0.54-0.89c0.45-0.27,0.92-0.48,1.36-0.75c0.3-0.18,0.7-0.38,0.61-0.8c-0.09-0.46-0.56-0.35-0.9-0.39
		C64.08,17.11,63.88,17.11,63.57,17.09z"/>
	<path class="st39" d="M536.65,38.94c0.92-0.79,1.79-0.97,2.55-1.36c0.73-0.37,1.48-0.69,2.46-1.15c-1.3-0.53-2.32-0.2-3.33-0.14
		c-0.37,0.02-0.86,0.25-1.09-0.18c-0.18-0.34,0.18-0.67,0.38-0.95c0.39-0.57,0.57-1.34,1.43-1.49c1.55-0.26,3.11-0.43,4.61,0.13
		c0.58,0.22,0.48,0.75,0.21,1.22c-0.94,1.68-2.01,3.18-4.14,3.43C538.81,38.57,537.93,39.05,536.65,38.94z"/>
	<path class="st39" d="M111.25,47.05c-0.06,1.33-1.78,2.31-2.79,1.57c-0.94-0.69-1.5-0.34-2.09,0.41c-1.21,1.54-1.49,1.57-3.12,0.58
		c-0.56-0.34-0.74-0.65-0.31-1.23c1.18-1.6,1.32-1.9,2.94-1.02c0.98,0.53,1.39-0.38,1.88-0.99c0.33-0.41,0.49-1.15,1.21-0.92
		c0.82,0.26,1.67,0.55,2.21,1.31C111.23,46.86,111.23,46.99,111.25,47.05z"/>
	<path class="st41" d="M526.49,31.48c2,1.55,4.42,2.1,6.71,2.92c0.32,0.11,0.8,0.55,1,0.01c0.15-0.41-0.39-0.64-0.75-0.8
		c-1.1-0.46-2.22-0.88-3.33-1.34c-0.52-0.22-1.11-0.48-1.09-1.13c0.03-0.77,0.71-1.01,1.33-1.19c0.66-0.19,1.35-0.12,2.03-0.05
		c0.31,0.03,0.68,0.11,0.55,0.57c-0.09,0.31-0.33,0.46-0.65,0.35c-0.68-0.22-1.88-0.48-1.93-0.01c-0.1,0.89,1.11,0.86,1.78,1.18
		c0.75,0.36,1.57,0.59,2.32,0.96c0.74,0.37,1.21,0.98,0.86,1.85c-0.35,0.86-1.1,1.02-1.9,0.75c-1.73-0.6-3.45-1.24-5.17-1.89
		C527.31,33.31,526.65,32.65,526.49,31.48z"/>
	<path class="st40" d="M126.95,40.67c-0.15,0.24-0.28,0.53-0.48,0.77c-0.62,0.75-1.42,1.27-2.28,1.72
		c-2.09,1.08-4.17,2.18-6.25,3.26c-0.3,0.15-0.64,0.5-0.96,0.14c-0.29-0.32-0.02-0.67,0.15-0.98c0.42-0.75,0.99-1.35,1.76-1.74
		c2.27-1.17,4.54-2.33,6.8-3.5C126.18,40.09,126.67,39.85,126.95,40.67z"/>
	<path class="st40" d="M137.35,13.38c-0.15,0.78-0.72,1.27-1.43,1.58c-2.34,1.02-4.53,2.32-6.73,3.58c-0.33,0.19-0.7,0.51-1.06,0.09
		c-0.31-0.36-0.14-0.76,0.05-1.12c0.42-0.82,1.14-1.31,1.94-1.69c2.08-1,4.15-2.01,6.12-3.22c0.27-0.16,0.55-0.4,0.87-0.15
		C137.39,12.67,137.39,13,137.35,13.38z"/>
	<path class="st39" d="M77.75,44.38c-0.07,1.36-1.54,2.26-2.61,1.67c-1.02-0.57-1.76-0.43-2.45,0.54c-0.62,0.87-2.43,0.74-3.04-0.15
		c-0.2-0.3-0.17-0.62,0.02-0.9c0.29-0.43,0.62-0.83,0.93-1.24c0.45-0.6,0.96-0.55,1.57-0.2c1.54,0.88,1.78,0.82,2.82-0.6
		c0.32-0.44,0.65-0.73,1.18-0.4C76.77,43.47,77.66,43.56,77.75,44.38z"/>
	<path class="st42" d="M502.12,24.41c-0.13,0.91,0.24,1.59,0.86,2.23c0.87,0.9,0.72,1.3-0.48,1.72c-1.88,0.65-1.9,0.66-1.31,2.7
		c0.64,2.21,0.78,4.42,0.23,6.7c-0.15-0.08-0.26-0.11-0.25-0.13c0.3-2.67-0.31-5.23-0.91-7.79c-0.16-0.7,0.07-1.34,0.29-2.04
		c0.28-0.88,0.97-1.7,0.8-2.68c-0.17-0.99-0.76-1.73-1.64-2.24c-0.24-0.14-0.45-0.32-0.54-0.61c-0.14-0.42-0.1-0.82,0.24-1.09
		c0.41-0.34,0.63,0.12,0.9,0.3c0.77,0.53,0.81,1.6,1.56,2.16C502.47,23.7,502.15,24.1,502.12,24.41z"/>
	<path class="st43" d="M507.37,51.56c0.34-1.05,1.04-1.46,1.84-1.77c3.49-1.36,6.97-2.72,10.46-4.07c0.42-0.16,1.06-0.62,1.28-0.13
		c0.3,0.68-0.49,0.88-0.98,1.08c-3.31,1.36-6.63,2.72-9.96,4.03C509.22,51.02,508.47,51.52,507.37,51.56z"/>
	<path class="st43" d="M460.04,23.82c0.01-0.61-0.41-0.51-0.74-0.38c-3.67,1.49-7.52,2.53-11.06,4.35
		c-0.15,0.08-0.33,0.18-0.42,0.07c-0.11-0.13-0.19-0.37-0.16-0.54c0.09-0.53,0.52-0.79,0.98-0.96c4.11-1.51,8.23-3,12.35-4.49
		c0.25-0.09,0.54-0.31,0.72,0.06c0.15,0.31-0.07,0.57-0.32,0.68c-0.66,0.29-0.93,0.84-1.09,1.48
		C460.06,24.13,459.92,24.08,460.04,23.82z"/>
	<path class="st40" d="M143.44,26.73c0.02,1.13-2.03,3.09-3.19,3.03c-0.24-0.01-0.48-0.08-0.56-0.35c-0.06-0.22,0.07-0.38,0.24-0.5
		c0.17-0.11,0.35-0.2,0.51-0.31c0.26-0.17,0.64-0.34,0.37-0.72c-0.23-0.32-0.58-0.16-0.85,0.02c-0.4,0.26-0.79,0.55-1.19,0.8
		c-0.47,0.3-0.83,0.16-0.77-0.4c0.12-1.14,0.72-2.06,1.75-2.54c1.03-0.48,2.16-0.51,3.22,0.05
		C143.3,25.98,143.39,26.37,143.44,26.73z"/>
	<path class="st44" d="M414.55,52.24c3.36-0.44,6.13-1.92,8.91-3.38c1.21-0.63,2.49-0.87,3.74,0.02c0.42,0.3,0.83,0.16,1.23-0.07
		c0.58-0.34,1.07-1.18,1.88-0.25c0.22,0.25,0.58-0.08,0.69-0.42c0.07-0.22,0.22-0.34,0.44-0.26c0.29,0.1,0.31,0.37,0.23,0.6
		c-0.28,0.86-0.9,1.17-1.77,1.01c-0.27-0.05-0.63-0.28-0.79-0.18c-1.25,0.83-2.39,0.49-3.69,0.02c-1.1-0.4-2.17,0.39-3.11,0.98
		c-2.15,1.36-4.48,2.07-7,2.23C415.13,52.55,414.94,52.62,414.55,52.24z"/>
	<path class="st43" d="M528.75,21.63c-0.41-0.01-0.43-0.22-0.26-0.54c0.26-0.49,0.68-0.78,1.17-0.97c3.64-1.43,7.28-2.85,10.92-4.28
		c0.29-0.12,0.68-0.35,0.85,0c0.2,0.38-0.16,0.69-0.48,0.84c-0.86,0.41-1.74,0.79-2.63,1.15c-2.96,1.2-5.92,2.38-8.89,3.56
		C529.22,21.48,528.99,21.55,528.75,21.63z"/>
	<path class="st40" d="M453.82,30.98c0.08,0.03,0.17,0.03,0.22,0.08c1.05,0.96,1.85,1.14,2.77-0.33c0.38-0.61,1.12,0.4,1.68,0.7
		c0.4,0.21,0.65,0.51,0.4,1.07c-0.67,1.47-0.98,1.62-2.3,0.67c-0.67-0.48-1.01-0.38-1.39,0.28c-0.22,0.38-0.44,1.03-1.05,0.7
		c-0.64-0.35-1.6-0.62-1.66-1.4c-0.05-0.64,0.53-1.29,1.11-1.75C453.65,30.96,453.74,30.98,453.82,30.98z"/>
	<path class="st40" d="M575.03,35.56c-0.37,0.51-0.69,1.09-1.14,1.51c-0.45,0.42-0.81-0.14-1.1-0.37c-0.74-0.58-1.28-0.79-1.88,0.23
		c-0.67,1.14-1.26,0.07-1.84-0.23c-0.6-0.31-1.05-0.66-0.48-1.47c0.83-1.19,0.91-1.29,2.09-0.39c0.72,0.55,1.16,0.51,1.57-0.3
		c0.17-0.34,0.46-0.79,0.92-0.52C573.84,34.42,574.57,34.77,575.03,35.56z"/>
	<path class="st40" d="M480.37,35.74c-0.68-0.33-1.61-0.64-1.88-1.41c-0.21-0.58,0.52-1.21,0.99-1.65c0.44-0.41,0.83,0.13,1.12,0.38
		c0.76,0.66,1.34,0.75,1.84-0.27c0.3-0.62,0.8-0.68,1.24-0.19c0.49,0.55,1.92,0.58,1.09,1.9c-0.8,1.27-0.8,1.3-2.04,0.43
		c-0.63-0.44-1.11-0.58-1.54,0.22C481.03,35.44,480.83,35.71,480.37,35.74z"/>
	<path class="st40" d="M416.86,35.1c-0.25,0.59-0.51,1.13-0.99,1.51c-0.44,0.35-0.86,0.06-1.18-0.22c-0.75-0.63-1.26-0.66-1.91,0.23
		c-0.82,1.11-1.4-0.14-2.04-0.44c-0.69-0.31-0.56-0.75-0.2-1.34c0.59-0.95,1.18-1.21,2.04-0.37c0.64,0.63,1.15,0.54,1.58-0.26
		c0.17-0.32,0.37-0.84,0.87-0.57C415.71,34.01,416.41,34.41,416.86,35.1z"/>
	<path class="st40" d="M556.62,35.24c-0.48,0.12-0.64,0.46-0.81,0.76c-0.39,0.7-0.8,0.67-1.43,0.22c-1.49-1.07-1.46-1.01-0.68-2.23
		c0.48-0.75,0.91-0.78,1.49-0.22c0.8,0.76,1.47,0.84,2.01-0.28c0.24-0.5,0.6-0.58,1.04-0.19c0.27,0.24,0.56,0.46,0.86,0.64
		c1.1,0.64,0.3,1.21-0.03,1.83c-0.42,0.78-0.87,0.6-1.42,0.16C557.31,35.66,556.93,35.45,556.62,35.24z"/>
	<path class="st40" d="M494.63,51.31c-0.48-0.03-0.81-0.27-1.1-0.53c-0.57-0.52-1.05-0.66-1.49,0.17c-0.19,0.36-0.42,0.91-0.98,0.58
		c-0.63-0.38-1.55-0.61-1.66-1.41c-0.09-0.66,0.48-1.27,1.03-1.65c0.39-0.27,0.74,0.2,1.02,0.44c0.73,0.62,1.32,0.83,1.83-0.24
		c0.19-0.41,0.56-0.77,1.04-0.33c0.53,0.48,1.58,0.61,1.49,1.49C495.75,50.42,495.3,51.08,494.63,51.31z"/>
	<path class="st45" d="M585.84,49.07c-0.99,1.9-2.7,2.65-4.68,2.84c-1.5,0.14-2.01-0.52-1.53-1.97c0.23-0.68,0.43-1.19-0.31-1.74
		c-0.58-0.43-0.14-1.03,0.18-1.48c0.34-0.49,0.72-1,1.42-0.93c0.3,0.03,0.47,0.28,0.47,0.6c0,0.3-0.05,0.58-0.43,0.58
		c-0.34,0-0.75-0.19-0.9,0.29c-0.03,0.09,0.13,0.29,0.25,0.37c0.37,0.24,0.75,0.21,1.13-0.02c0.26-0.16,0.46-0.44,0.81-0.41
		c0.27,0.49-0.03,0.79-0.3,1.07c-0.19,0.2-0.45,0.34-0.63,0.55c-0.44,0.51-1.52,0.88-1.11,1.62c0.42,0.78,1.45,0.35,2.2,0.21
		C583.66,50.42,584.72,49.7,585.84,49.07z"/>
	<path class="st45" d="M490.83,34.26c0.51,0.53,0.42,1.16,0.56,1.72c0.1,0.38,0.07,0.8,0.35,1.13c0.2,0.23,0.44,0.37,0.73,0.25
		c0.37-0.15,0.25-0.43,0.16-0.7c-0.21-0.6-0.43-1.2-0.6-1.81c-0.06-0.2-0.06-0.53,0.23-0.6c0.31-0.08,0.38,0.22,0.46,0.43
		c0.35,0.97,0.84,1.93,0.48,3.01c-0.18,0.54-0.61,1.3-1.12,0.96c-0.95-0.62-1.43-0.19-2.17,0.29c-0.59,0.38-1.11-0.11-1.32-0.79
		c-0.31-1.02-0.09-2.07-0.18-3.1c-0.02-0.21,0.09-0.41,0.34-0.38c0.23,0.03,0.33,0.22,0.33,0.43c0,0.44-0.04,0.88-0.02,1.32
		c0.03,0.54-0.01,1.3,0.77,1.2c0.65-0.08,0.92-0.72,0.85-1.39C490.61,35.59,490.28,34.93,490.83,34.26z"/>
	<path class="st45" d="M452.57,52.07c0.19-0.48,0.49-0.5,0.74-0.56c3.06-0.77,6.14-1.5,8.29-4.12c0.26-0.32,0.67-0.65,1.16-0.38
		c0.46,0.25,0.63,0.72,0.64,1.21c0.01,0.45-0.11,0.89-0.49,1.17c-0.44,0.32-0.84,0.08-1.2-0.19c-0.4-0.29-0.7-0.6-1.18-0.03
		c-1.48,1.74-3.53,2.38-5.7,2.71C454.12,52,453.4,52.01,452.57,52.07z"/>
	<path class="st45" d="M420.04,19.85c0.54-1.26,0.25-2.35,0.65-3.33c0.21-0.51,0.47-0.97,1.11-0.88c0.62,0.09,0.81,0.61,0.93,1.12
		c0.12,0.5-0.08,0.87-0.63,0.57c-0.96-0.54-1.09,0.03-1.2,0.76c-0.14,0.95-0.3,1.89-0.45,2.84c-0.04,0.24-0.12,0.52-0.37,0.56
		c-0.29,0.05-0.38-0.24-0.44-0.48c-0.32-1.18-1.02-2.03-2.09-2.64c-0.72-0.42-0.61-1.15-0.18-1.67c0.58-0.7,0.88,0.13,1.19,0.41
		C419.29,17.76,419.73,18.62,420.04,19.85z"/>
	<path class="st45" d="M453.51,20.71c0.48-1.14,0.2-2.23,0.59-3.19c0.2-0.5,0.44-0.98,1.08-0.92c0.63,0.06,0.84,0.58,0.97,1.08
		c0.14,0.54-0.02,0.94-0.67,0.6c-1.01-0.54-1.05,0.19-1.16,0.83c-0.19,1.15-0.15,2.36-0.71,3.42c-0.51-0.13-0.53-0.49-0.61-0.78
		c-0.31-1-0.88-1.77-1.81-2.26c-0.57-0.3-0.8-0.74-0.6-1.38c0.23-0.75,0.56-0.88,1.16-0.3C452.56,18.58,453.08,19.52,453.51,20.71z"
		/>
	<path class="st40" d="M60.15,25.77c0.02,0.58-1.16,1.95-1.68,1.95c-0.9,0-2.35-0.9-2.38-1.48c-0.03-0.7,1-2.16,1.54-2.17
		C58.47,24.06,60.13,25.17,60.15,25.77z"/>
	<path class="st40" d="M81.53,24.62c-0.02,0.68-1.3,2.09-1.91,2.1c-0.68,0.01-2.13-1.1-2.14-1.64c-0.02-0.62,1.09-2.02,1.6-2.02
		C79.98,23.06,81.55,24.05,81.53,24.62z"/>
	<path class="st45" d="M525.92,25.41c-0.07-1.53,0.1-2.83-0.25-4.12c-0.28-1.05-0.72-2.02-1.26-2.95c-0.24-0.41-0.47-0.84-0.61-1.29
		c-0.16-0.48-0.09-1.05,0.39-1.26c0.49-0.22,0.63,0.37,0.82,0.67c1.6,2.43,1.88,5.11,1.49,7.92c-0.03,0.19-0.1,0.39-0.18,0.57
		C526.28,25.05,526.18,25.12,525.92,25.41z"/>
	<path class="st45" d="M565.01,35.53c-0.02,1.1-0.38,2.03-0.9,2.86c-0.46,0.73-1.09,0.75-1.66,0.07c-0.46-0.54-0.67-1.21-0.62-1.89
		c0.18-2.35,1.12-4.48,1.9-6.67c0.03,1.56-0.51,3-0.85,4.48c-0.15,0.64-0.26,1.25,0.08,1.85c0.18,0.32,0.38,0.69,0.75,0.71
		c0.35,0.02,0.45-0.38,0.62-0.65C564.46,36.04,564.45,35.65,565.01,35.53z"/>
	<path class="st46" d="M432.23,27.7c0.15,0,0.29,0,0.44,0c-0.35,1.51-0.7,3.02-1.04,4.53c-0.07,0.31-0.13,0.63-0.1,0.95
		c0.05,0.62,0.27,1.29,0.9,1.41c0.59,0.12,0.59-0.62,0.83-1c0.09-0.15,0.11-0.4,0.49-0.36c0.03,1.14-0.38,2.15-1.01,3.03
		c-0.45,0.63-1.07,0.46-1.5-0.12c-0.63-0.84-0.85-1.8-0.57-2.82C431.17,31.44,431.7,29.57,432.23,27.7z"/>
	<path class="st43" d="M97.18,40.32c0.03,0.52-1.14,1.99-1.63,2.04c-0.63,0.07-2.21-0.99-2.23-1.49c-0.03-0.71,0.99-2.02,1.58-2.03
		C95.59,38.84,97.15,39.85,97.18,40.32z"/>
	<path class="st43" d="M117.23,18.78c-0.02-1.13,0.46-2.1,0.89-3.08c0.12-0.27,0.28-0.69,0.66-0.55c0.48,0.18,0.21,0.59,0.12,0.92
		c-0.13,0.46-0.32,0.92-0.35,1.39c-0.05,0.68,0.14,1.18,0.96,0.63c0.29-0.19,0.62-0.52,0.92-0.12c0.23,0.3,0.1,0.7-0.11,1.01
		c-0.22,0.33-0.46,0.66-0.75,0.92c-0.43,0.39-0.86,0.95-1.55,0.61C117.32,20.16,117.24,19.46,117.23,18.78z"/>
	<path class="st43" d="M121.02,24.39c-0.12,0.75-0.5,1.41-1.14,1.85c-0.65,0.44-1.2-0.11-1.75-0.35c-0.51-0.22-0.65-0.67-0.49-1.19
		c0.11-0.38,0.26-0.75,0.4-1.12c0.49-1.29,0.51-1.31,1.6-0.48C120.13,23.48,121.04,23.41,121.02,24.39z"/>
	<path class="st47" d="M588.26,27.73c0.35,0.64,0.79,0.95,1.21,1.3c0.92,0.76,1.03,2.02,0.28,2.97c-0.5,0.63-1.15,0.83-1.91,0.57
		c-0.79-0.27-0.77-0.96-0.68-1.59C587.32,29.92,587.67,28.91,588.26,27.73z"/>
	<path class="st44" d="M458.55,16.01c0.57,0.54,1.02,0.97,1.47,1.39c0.81,0.75,0.82,2.09-0.02,2.81c-0.5,0.43-1.1,0.68-1.76,0.41
		c-0.64-0.26-0.61-0.86-0.62-1.42C457.61,18.05,458.24,17.13,458.55,16.01z"/>
	<path class="st43" d="M517.27,28.85c0.03,0.43-0.95,1.86-1.28,1.89c-0.37,0.02-2.01-1.36-2.01-1.69c0-0.54,0.97-1.8,1.37-1.8
		C515.77,27.25,517.25,28.48,517.27,28.85z"/>
	<path class="st45" d="M515.1,18.67c-0.03,0.88-0.07,1.76-0.11,2.63c-0.01,0.2-0.08,0.43-0.29,0.47c-0.22,0.04-0.35-0.15-0.41-0.35
		c-0.41-1.3-1.11-2.34-2.34-3.06c-0.6-0.35-0.59-1.14-0.18-1.6c0.51-0.56,0.9,0.1,1.27,0.41c0.73,0.61,0.99,1.51,1.38,2.43
		c0.52-0.47,0.27-1.04,0.44-1.49C515.33,18.14,515.14,18.44,515.1,18.67z"/>
	<path class="st46" d="M500.38,51.74c-0.2,0.04-0.39,0.04-0.43-0.14c-0.03-0.13,0.03-0.32,0.11-0.44c0.23-0.35,0.62-0.49,0.99-0.63
		c2.08-0.78,4.16-1.57,6.24-2.33c0.29-0.1,0.72-0.46,0.92,0.04c0.13,0.35-0.27,0.52-0.57,0.63c-2.36,0.94-4.72,1.88-7.08,2.82
		C500.5,51.72,500.42,51.73,500.38,51.74z"/>
	<path class="st46" d="M424.55,37.83c-0.08,0.61,0.24,1.61-0.36,1.73c-0.67,0.13-0.62-0.94-0.91-1.46
		c-0.33-0.61-0.73-1.14-1.37-1.45c-0.41-0.2-0.76-0.46-0.87-0.92c-0.11-0.46-0.01-0.91,0.37-1.18c0.38-0.26,0.67,0.12,0.92,0.34
		c0.68,0.59,1.04,1.39,1.39,2.2c0.1,0.23,0.02,0.79,0.59,0.47c0.09-0.07,0.17-0.07,0.26,0C424.62,37.65,424.61,37.74,424.55,37.83z"
		/>
	<path class="st45" d="M495.4,28.27c0.02,0.58,0.2,1.57-0.21,1.62c-0.74,0.1-0.73-0.88-0.91-1.42c-0.28-0.81-0.8-1.35-1.46-1.82
		c-0.32-0.23-0.7-0.42-0.8-0.85c-0.08-0.39-0.15-0.83,0.2-1.12c0.42-0.34,0.72,0.02,1.02,0.28c0.62,0.54,0.99,1.23,1.32,1.96
		c0.1,0.22-0.01,0.85,0.61,0.54C495.73,27.61,495.42,27.98,495.4,28.27z"/>
	<path class="st43" d="M566.34,48.41c0.53,0,2.08,1.27,2.08,1.59c0,0.43-1.02,1.71-1.34,1.69c-0.39-0.02-1.95-1.38-1.85-1.67
		C565.44,49.34,565.83,48.77,566.34,48.41z"/>
	<path class="st43" d="M439.69,35.17c-0.02,0.24,0,0.52-0.29,0.58c-0.3,0.06-0.39-0.22-0.46-0.43c-0.41-1.25-1.07-2.27-2.25-2.97
		c-0.62-0.37-0.6-1.11-0.18-1.58c0.52-0.58,0.9,0.1,1.24,0.4c0.55,0.49,0.79,1.18,1.11,1.82c0.1,0.2,0.12,0.79,0.58,0.25
		C440.14,33.81,439.66,34.52,439.69,35.17z"/>
	<path class="st48" d="M413.9,50.07c0.64-0.81,1.37-0.79,1.96-1.05c0.51-0.22,1.11-0.31,1.45-0.78c0.36-0.48,0.86-1.11-0.34-1.15
		c-0.61-0.02-0.63-0.31-0.26-0.63c0.54-0.48,1.23-1,1.91-0.46c0.61,0.48,0.44,1.24,0.01,1.85C417.55,49.37,415.94,49.84,413.9,50.07
		z"/>
	<path class="st49" d="M570.77,51.52c0.22-0.55,0.77-0.51,1.17-0.68c0.44-0.19,0.93-0.25,1.34-0.48c0.51-0.28,1.16-0.58,1.04-1.3
		c-0.12-0.68-0.86-0.05-1.21-0.42c0.02-0.52,0.44-0.74,0.8-0.94c0.46-0.27,0.99-0.41,1.45,0c0.46,0.42,0.32,0.93,0.09,1.42
		C574.76,50.64,572.58,51.76,570.77,51.52z"/>
	<path class="st50" d="M447.34,45.35c0.41,0.96-0.11,1.78-0.24,2.67c-0.04,0.27-0.15,0.54-0.2,0.81c-0.09,0.52,0.09,1,0.56,1.21
		c0.6,0.27,0.52-0.6,1.03-0.7c0.13,0.79-0.19,1.46-0.62,2.02c-0.48,0.62-1,0.31-1.36-0.21c-0.43-0.63-0.48-1.38-0.3-2.07
		C446.53,47.83,446.95,46.59,447.34,45.35z"/>
	<path class="st51" d="M594.31,49.32c0,0.62,0.15,1.27-0.39,2.01c-0.59-1.35-1.3-2.5-2.44-3.33c-0.37-0.27-0.37-0.81,0-1.17
		c0.41-0.39,0.71,0,1.02,0.23c0.76,0.57,0.75,1.67,1.54,2.21C594.15,49.17,594.24,49.18,594.31,49.32z"/>
	<path class="st52" d="M557.36,49.43c-0.06,0.29-0.09,0.52-0.16,0.74c-0.23,0.66-0.33,1.6-1.29,1.4c-0.92-0.19-0.97-1.19-0.85-1.89
		c0.24-1.35,0.6-2.7,1.22-4.19c0.32,0.79-0.05,1.3-0.15,1.82c-0.09,0.47-0.2,0.93-0.29,1.4c-0.1,0.52-0.19,1.11,0.35,1.4
		C556.88,50.49,556.73,49.44,557.36,49.43z"/>
	<path class="st53" d="M564.81,17.71c-0.08-0.19-0.16-0.37-0.23-0.56c0.07-1.31,0.08-2.64,0.86-3.79c0.15-0.23,0.29-0.61,0.59-0.49
		c0.54,0.22,0.8,0.74,0.95,1.29c0.09,0.32,0.1,0.66-0.14,0.91c-0.17,0.17-0.37-0.01-0.52-0.13c-0.76-0.6-0.99-0.04-1.13,0.54
		C565.03,16.22,564.94,16.97,564.81,17.71z"/>
	<path class="st54" d="M495.4,28.27c-0.06-0.27,0.02-0.58-0.23-0.8c-0.01-0.92,0.09-1.83,0.4-2.7c0.21-0.6,0.43-1.37,1.28-1.01
		c0.87,0.36,1.09,1.07,0.56,1.94c-1.32-0.8-1.55-0.68-1.77,0.82C495.56,27.1,495.67,27.71,495.4,28.27z"/>
	<path class="st48" d="M481.7,47.91c-0.08,0.35-0.17,0.69-0.24,1.04c-0.09,0.49-0.1,1,0.37,1.29c0.6,0.36,0.57-0.52,1-0.58
		c0.04,0.1,0.14,0.22,0.11,0.3c-0.24,0.71-0.22,1.7-1.31,1.67c-0.69-0.02-1.1-1.15-0.83-2.19c0.18-0.69,0.45-1.35,0.68-2.02
		C481.92,47.41,481.8,47.67,481.7,47.91z"/>
	<path class="st55" d="M459.86,25.61c-0.03,0.28-0.08,0.56-0.07,0.83c0.03,0.97,0.35,1.13,1.19,0.61c0.04,0.06,0.13,0.12,0.12,0.17
		c-0.12,0.76-0.09,1.91-1.09,1.78c-0.91-0.12-0.97-1.25-0.89-2.09c0.06-0.62,0.32-1.22,0.49-1.83
		C460.08,25.08,459.92,25.37,459.86,25.61z"/>
	<path class="st47" d="M115.3,48.05c0.02,0.23-0.02,0.58-0.42,0.64c-0.36,0.05-0.44-0.27-0.5-0.54c-0.19-0.77-0.69-1.33-1.18-1.9
		c-0.25-0.3-0.34-0.68-0.01-0.95c0.34-0.27,0.67-0.08,0.93,0.22C114.73,46.22,115.15,47.01,115.3,48.05z"/>
	<path class="st56" d="M424.45,37.55c-0.04,0-0.09,0-0.13,0c-0.1-0.97-0.03-1.92,0.34-2.83c0.22-0.55,0.39-1.23,1.2-1.06
		c0.72,0.16,0.85,0.76,0.83,1.4c-0.01,0.16-0.03,0.31-0.05,0.47c-0.59,0.26-0.84-0.75-1.38-0.36c-0.46,0.33-0.41,0.92-0.53,1.41
		C424.49,36.87,424.86,37.32,424.45,37.55z"/>
	<path class="st57" d="M439.61,32c0.02-0.47,0.04-0.95,0.26-1.39c0.25-0.51,0.51-1.05,1.22-0.85c0.74,0.21,0.89,0.85,0.91,1.5
		c0.01,0.26-0.21,0.67-0.51,0.39c-1.29-1.17-1.33,0.05-1.63,0.81C439.42,32.49,439.55,32.22,439.61,32z"/>
	<path class="st48" d="M515.1,18.67c-0.07-0.19-0.15-0.37-0.22-0.56c-0.03-0.57,0.19-1.08,0.38-1.6c0.22-0.59,0.58-1.01,1.25-0.71
		c0.67,0.3,0.84,0.91,0.71,1.6c-0.06,0.29-0.29,0.42-0.52,0.21c-1.19-1.12-1.2,0.03-1.45,0.74
		C515.21,18.46,515.15,18.56,515.1,18.67z"/>
	<path class="st50" d="M502.12,24.41c-0.05-0.28,0.02-0.6-0.27-0.79c0.07-0.95,0.21-1.89,0.6-2.77c0.19-0.43,0.47-0.77,1.01-0.45
		c0.49,0.29,0.7,0.73,0.6,1.3c-0.05,0.26-0.27,0.32-0.45,0.21c-1.3-0.82-1.08,0.39-1.3,0.97C502.13,23.38,502.38,23.93,502.12,24.41
		z"/>
	<path class="st58" d="M594.12,48.57c-0.15-0.79,0.17-1.48,0.48-2.16c0.22-0.49,0.63-0.62,1.09-0.36c0.46,0.26,0.65,0.7,0.53,1.22
		c-0.07,0.28-0.29,0.4-0.54,0.21c-0.88-0.68-0.96,0.07-1.15,0.63C594.35,48.22,594.59,48.7,594.12,48.57z"/>
	<path class="st59" d="M207.89,17.14c-0.08,0.08-0.16,0.16-0.23,0.24c-0.52-0.41-0.63-0.91-0.2-1.41c0.28-0.33,0.15-0.76,0.4-1.07
		c0.34-0.03,0.68-0.15,1.01,0.07c0.01,0.12-0.03,0.27,0.03,0.34c0.68,0.82,0.52,1.68,0.15,2.55c-0.14-0.16-0.29-0.32-0.43-0.48
		c-0.18-0.27-0.01-0.62-0.21-0.89C207.91,16.48,208.12,16.98,207.89,17.14z"/>
	<path class="st59" d="M183.37,17.15c-0.11,0.01-0.22,0.01-0.33,0.02c-0.4-0.34-0.38-0.74-0.11-1.13c0.24-0.33,0.39-0.66,0.28-1.06
		c0.06-0.08,0.14-0.13,0.23-0.17c0.34,0,0.52-0.49,0.92-0.32c0.17,0.19,0.07,0.4,0.02,0.6c-0.06,0.31,0.1,0.56,0.24,0.8
		c0.11,0.2,0,0.3-0.16,0.38C183.78,16.16,183.59,16.67,183.37,17.15z"/>
	<path class="st54" d="M183.44,14.97c-0.08,0-0.15,0-0.23,0.01c-0.18-0.8,0.33-1.41,0.61-2.15c0.24,0.76,0.95,1.36,0.57,2.26
		c-0.02-0.23-0.05-0.46-0.29-0.58C183.91,14.71,183.71,14.88,183.44,14.97z"/>
	<path class="st60" d="M207.65,14.51c0.02-0.07,0.03-0.17,0.08-0.22c0.4-0.4-0.15-1.45,0.65-1.37c0.52,0.05,0.33,0.99,0.45,1.54
		C208.45,14.86,208.05,14.74,207.65,14.51z"/>
	<path class="st61" d="M439.61,32c0.08,0.15,0.16,0.31,0.24,0.46c-0.05,0.9,0.11,1.82-0.15,2.71c-0.23-0.62,0.15-1.32-0.26-1.92
		C439.41,32.82,439.36,32.39,439.61,32z"/>
	<path class="st62" d="M184.4,16.17c0.08-0.09,0.15-0.18,0.23-0.27c0.82,0.7,0.17,1.23-0.22,1.78c-0.11-0.11-0.22-0.22-0.33-0.32
		C184.01,16.91,184.21,16.54,184.4,16.17z"/>
	<path class="st63" d="M459.86,25.61c-0.08-0.18-0.16-0.35-0.24-0.53c0.07-0.44,0.14-0.88,0.42-1.26c0.08,0.09,0.16,0.18,0.24,0.27
		C460.22,24.62,460.14,25.14,459.86,25.61z"/>
	<path class="st64" d="M207.65,14.51c0.39-0.02,0.79-0.03,1.18-0.05c0.01,0.17,0.02,0.34,0.03,0.51c-0.35,0.14-0.69,0.28-1.01-0.07
		C207.79,14.77,207.72,14.64,207.65,14.51z"/>
	<path class="st65" d="M546.78,27.73c0.1,0.09,0.19,0.17,0.29,0.26c-0.33,0.24-0.67,0.47-1,0.71c-0.09-0.17-0.17-0.35-0.26-0.52
		C546.23,28.24,546.42,27.8,546.78,27.73z"/>
	<path class="st66" d="M481.7,47.91c-0.07-0.17-0.15-0.34-0.22-0.5c0.02-0.26,0.09-0.51,0.35-0.71
		C482.15,47.16,481.92,47.53,481.7,47.91z"/>
	<path class="st67" d="M594.12,48.57c0.14-0.16,0.27-0.31,0.41-0.47c-0.07,0.41-0.15,0.81-0.22,1.22c-0.09-0.02-0.18-0.03-0.27-0.05
		C594.07,49.04,594.09,48.8,594.12,48.57z"/>
	<path class="st68" d="M424.45,37.55c0.1-0.32-0.04-0.71,0.28-0.96c0.03,0.43,0.03,0.85-0.17,1.24
		C424.52,37.74,424.48,37.65,424.45,37.55z"/>
	<path class="st69" d="M514.43,37.17c1.6,0.06,2.78,0.67,3.85,1.57c0.72,0.6,0.54,0.94-0.26,1.21c-2.66,0.88-5.34,1.63-8.14,1.92
		c-0.67,0.07-1.35,0.17-2.02,0.18c-0.48,0.01-0.72-0.31-0.3-0.67c1.76-1.49,3.37-3.21,5.63-3.99
		C513.64,37.23,514.13,37.22,514.43,37.17z"/>
	<path class="st70" d="M458.41,40.66c0.02,0.58-1.17,1.82-1.79,1.87c-0.49,0.04-1.6-0.94-1.6-1.42c0-0.57,1.63-2.44,2.13-2.44
		C457.64,38.67,458.38,39.86,458.41,40.66z"/>
	<path class="st71" d="M470.03,28.08c-0.3-0.2-0.55-0.36-0.79-0.52c-0.28-0.19-0.72-0.28-0.56-0.76c0.08-0.24,0.34-0.3,0.59-0.31
		c0.42-0.02,0.66,0.22,0.82,0.56C470.25,27.4,470.12,27.72,470.03,28.08z"/>
	<path class="st72" d="M470.16,44.18c-0.47-0.16-1.1-0.11-1.12-0.71c-0.01-0.28,0.5-0.34,0.81-0.25c0.39,0.12,0.98,0.07,1.01,0.61
		C470.88,44.24,470.43,44.19,470.16,44.18z"/>
	<path class="st73" d="M523.41,38.49c0-0.61-0.01-1.24,0-1.88c0.01-0.26-0.17-0.59,0.16-0.75c0.26-0.13,0.44,0.12,0.63,0.25
		c2.93,2.15,5.99,4.12,8.69,6.57c2.96,2.7,2.88,3.13-0.75,4.81c-1.35,0.63-2.78,0.99-4.23,1.24c-1.31,0.23-2.22-0.41-2.91-1.46
		c-0.93-1.42-1.06-3.08-1.27-4.69C523.55,41.24,523.51,39.88,523.41,38.49z"/>
	<path class="st74" d="M586.23,38.83c-1.27,1.11-1.71,1.15-2.55,0.25c-0.13-0.14-0.34-0.25-0.25-0.48c0.09-0.23,0.32-0.2,0.5-0.17
		C584.66,38.55,585.43,38.46,586.23,38.83z"/>
	<path class="st75" d="M196.25,17.17c-0.45-0.18-1.25,0.17-1.26-0.66c-0.01-0.42,0.47-0.74,0.96-0.67c0.57,0.08,1.18,0.37,1.23,0.95
		C197.23,17.42,196.59,17.04,196.25,17.17z"/>
	<path class="st75" d="M207.89,17.14c-0.17-0.41-0.33-0.82,0.14-1.14c0.2-0.13,0.5-0.2,0.65-0.01c0.38,0.46,0.25,0.94-0.07,1.38
		C208.32,17.43,208.1,17.29,207.89,17.14z"/>
	<path class="st76" d="M184.4,16.17c0.17,0.47-0.02,0.84-0.32,1.18c-0.28,0.07-0.5-0.04-0.71-0.2c-0.13-0.38-0.24-0.8,0.1-1.1
		C183.77,15.78,184.13,15.83,184.4,16.17z"/>
	<path class="st77" d="M122.39,32.04c0.02,0.36-0.31,0.54-0.64,0.69c-1.39,0.61-2.79,1.19-4.18,1.79c-0.25,0.11-0.47,0.13-0.63-0.1
		c-0.13-0.19-0.04-0.39,0.1-0.54c0.96-1.02,1.89-2.09,3.16-2.72C121.06,30.71,122.32,31.23,122.39,32.04z"/>
	<path class="st78" d="M61.35,37.15c-0.04,0.31-0.29,0.45-0.51,0.62c-1.79,1.37-3.98,1.77-6.05,2.46c-0.19,0.06-0.41,0.1-0.55-0.08
		c-0.17-0.21-0.12-0.47,0.03-0.66c1.18-1.56,2.28-3.21,4.34-3.74C59.58,35.49,61.36,36.41,61.35,37.15z"/>
	<path class="st79" d="M80.88,34.17c-0.33-0.08-0.6-0.23-0.55-0.62c0.05-0.37,0.34-0.52,0.68-0.48c0.32,0.04,0.62,0.2,0.56,0.6
		C81.51,34.03,81.22,34.15,80.88,34.17z"/>
	<path class="st73" d="M132.38,39.31c-1.59,0.08-2.5-0.36-3.06-1.44c-1.37-2.6-1.63-5.47-2.08-8.3c-0.08-0.48,0.25-0.87,0.72-0.52
		c2.96,2.27,6.67,3.5,9.05,6.56c0.78,1,0.73,1.48-0.3,2.27C135.32,38.96,133.66,39.2,132.38,39.31z"/>
	<path class="st80" d="M147.46,25.04c0.09-0.42-0.03-0.94,0.56-0.94c0.39,0,0.53,0.34,0.53,0.68c-0.01,0.4-0.09,0.88-0.54,0.96
		C147.45,25.84,147.59,25.3,147.46,25.04z"/>
	<path class="st81" d="M554.41,18.55c-0.34-0.26-0.95-0.29-0.95-0.87c0-0.34,0.35-0.52,0.68-0.48c0.52,0.07,0.64,0.53,0.72,0.95
		C554.9,18.42,554.74,18.59,554.41,18.55z"/>
	<path class="st82" d="M480.32,17.4c0.41,0.04,0.64,0.27,0.66,0.68c0.01,0.21-0.07,0.43-0.32,0.38c-0.35-0.08-0.69-0.27-0.79-0.64
		C479.79,17.52,480.09,17.46,480.32,17.4z"/>
	<path class="st83" d="M588.53,31.49c-0.63-0.06-0.84-0.47-0.75-0.99c0.05-0.3,0.09-0.97,0.44-0.78c0.49,0.27,1.2,0.59,1.25,1.24
		C589.5,31.37,588.88,31.37,588.53,31.49z"/>
	<path class="st75" d="M458.72,17.86c0.42,0.29,1.1,0.43,1.12,1.05c0.02,0.44-0.57,0.55-0.92,0.54c-0.54-0.01-0.84-0.38-0.78-0.95
		C458.18,18.17,458.27,17.87,458.72,17.86z"/>
	<path class="st84" d="M183.44,14.97c0.09-0.33,0.25-0.57,0.66-0.46C184.28,15.23,183.86,15.1,183.44,14.97z"/>
	<path class="st46" d="M528.19,46.87c-0.51-1.24-1.14-2.35-2.29-3.11c-0.43-0.28-0.43-0.9-0.05-1.29c0.42-0.43,0.69,0.09,1,0.29
		c0.71,0.47,0.85,1.38,1.6,2.19c0.04-1.07,0.03-1.91,0.39-2.66c0.19-0.39,0.38-0.86,0.94-0.75c0.59,0.13,0.82,0.63,0.85,1.17
		c0.03,0.39-0.1,0.81-0.62,0.42c-0.9-0.67-0.9,0.12-1,0.62c-0.18,1.01-0.3,2.03-0.44,3.04C528.45,46.83,528.32,46.85,528.19,46.87z"
		/>
</g>
</svg>
